<svg width="59" height="42" viewBox="0 0 59 42" fill="none" xmlns="http://www.w3.org/2000/svg">
    <path d="M1.18359 2.71777L10.8693 7.93157L19.515 6.43433C22.4335 5.92893 25.4244 6.76456 27.6586 8.70959" stroke="#53BFFA" stroke-width="0.868018" stroke-linecap="round" stroke-linejoin="round"/>
    <path d="M48.5622 30.0788L34.8679 39.8065C31.8577 41.945 27.8349 41.9834 24.7842 39.9032L1.18359 23.8115" stroke="#53BFFA" stroke-width="0.868018" stroke-linecap="round" stroke-linejoin="round"/>
    <path d="M57.9196 23.7084L48.23 30.3311L33.1957 18.189L27.6656 22.2148C25.417 23.8517 22.2757 23.4107 20.5646 21.2178C18.8574 19.0299 19.1867 15.8831 21.3099 14.0962L27.0681 9.25032C29.828 6.92773 33.4156 5.83167 37.0019 6.21549L45.9763 7.17589L57.9196 0.71875" stroke="#53BFFA" stroke-width="0.868018" stroke-linecap="round" stroke-linejoin="round"/>
    <path d="M33.1992 18.2215C36.8168 21.4453 41.9472 19.8006 43.8548 17.1689" stroke="#53BFFA" stroke-width="0.868018" stroke-linecap="round" stroke-linejoin="round"/>
</svg>
