<svg width="54" height="53" viewBox="0 0 54 53" fill="none" xmlns="http://www.w3.org/2000/svg">
    <path d="M33.6094 23.8848H19.774C17.5624 23.8848 15.7695 25.6776 15.7695 27.8892V37.7241C15.7695 39.9357 17.5624 41.7286 19.774 41.7286H33.6094C35.821 41.7286 37.6138 39.9357 37.6138 37.7241V27.8892C37.6138 25.6776 35.821 23.8848 33.6094 23.8848Z" stroke="#4AC7FA" stroke-width="0.950209" stroke-linecap="round" stroke-linejoin="round"/>
    <path d="M21.6758 23.8865V21.5943C21.6758 19.3827 23.4686 17.5898 25.6802 17.5898H27.7225C29.9341 17.5898 31.727 19.3827 31.727 21.5943V23.8865" stroke="#4AC7FA" stroke-width="0.950209" stroke-linecap="round" stroke-linejoin="round"/>
    <path d="M52.7258 26.2633C52.7298 25.7075 52.6177 25.1569 52.3971 24.6468C52.1764 24.1366 51.8521 23.6779 51.4444 23.3L26.697 0.474609L1.94948 23.3C1.54193 23.6779 1.21752 24.1366 0.996906 24.6468C0.776289 25.1569 0.6643 25.7075 0.66806 26.2633V48.528C0.66806 49.59 1.08996 50.6087 1.84094 51.3596C2.59191 52.1104 3.61048 52.5325 4.6725 52.5325H48.7214C49.7834 52.5325 50.8021 52.1104 51.5529 51.3596C52.3042 50.6087 52.7258 49.59 52.7258 48.528V26.2633Z" stroke="#4AC7FA" stroke-width="0.950209" stroke-linecap="round" stroke-linejoin="round"/>
</svg>
