<svg width="70" height="66" viewBox="0 0 70 66" fill="none" xmlns="http://www.w3.org/2000/svg">
    <path d="M37.9704 17.6358L54.0826 21.5547M34.5211 29.3401L42.5739 31.3011M34.9228 51.3952L38.1425 52.1815C47.255 54.4015 51.8113 55.5084 55.4023 53.6245C58.9899 51.7436 60.2116 47.6027 62.6518 39.3271L66.1044 27.6196C68.5479 19.3409 69.7663 15.2031 67.694 11.9409C65.6218 8.67872 61.0689 7.57181 51.953 5.35489L48.7333 4.56864C39.6208 2.34864 35.0645 1.24172 31.4769 3.12564C27.8859 5.00647 26.6641 9.14739 24.2206 17.4231L20.7714 29.1305C18.3279 37.4092 17.1061 41.5471 19.1818 44.8092C21.254 48.0683 25.8103 49.1783 34.9228 51.3952Z" stroke="#F8F8F8" stroke-width="2.5" stroke-linecap="round" stroke-linejoin="round"/>
    <path d="M35.0001 60.5837L31.7871 61.3853C22.6948 63.6454 18.1521 64.777 14.5678 62.8561C10.9903 60.9382 9.76859 56.7202 7.33521 48.2781L3.88934 36.3394C1.45259 27.9003 0.234215 23.6792 2.30309 20.3554C4.09184 17.4787 8.00009 17.5835 13.0626 17.5835" stroke="#F8F8F8" stroke-width="2.5" stroke-linecap="round" stroke-linejoin="round"/>
</svg>
