<svg width="49" height="49" viewBox="0 0 49 49" fill="none" xmlns="http://www.w3.org/2000/svg">
<path d="M14.807 27.0084C18.3133 27.3063 21.3973 24.7054 21.6952 21.1991C21.9931 17.6927 19.3922 14.6088 15.8858 14.3109C12.3795 14.013 9.2956 16.6139 8.99769 20.1202C8.69978 23.6265 11.3007 26.7105 14.807 27.0084Z" stroke="#4AC7FA" stroke-width="0.841657" stroke-linecap="round" stroke-linejoin="round"/>
<path d="M0.709178 44.3295C0.911772 42.208 1.64885 40.172 2.8515 38.4126C5.38596 34.7043 9.82802 32.5903 14.3031 32.9607C18.7765 33.3506 22.7983 36.1838 24.6708 40.2665C25.5593 42.2036 25.9423 44.3347 25.7841 46.46" stroke="#4AC7FA" stroke-width="0.841657" stroke-linecap="round" stroke-linejoin="round"/>
<path d="M36.1897 5.74717L36.4277 2.94531" stroke="#4AC7FA" stroke-width="0.841657" stroke-linecap="round" stroke-linejoin="round"/>
<path d="M45.455 9.99754L47.8849 8.58253" stroke="#4AC7FA" stroke-width="0.841657" stroke-linecap="round" stroke-linejoin="round"/>
<path d="M26.3342 8.37305L24.1777 6.56836" stroke="#4AC7FA" stroke-width="0.841657" stroke-linecap="round" stroke-linejoin="round"/>
<path d="M42.069 18.8863C42.4104 15.0376 39.4242 11.5572 35.5681 11.3101C31.7121 11.063 28.306 14.1337 28.1535 17.9946C28.0553 20.4797 29.3718 22.9342 31.4963 24.2273L31.2061 27.6422C31.1941 27.8446 31.2617 28.0436 31.3944 28.1968C31.527 28.35 31.7144 28.4454 31.9163 28.4625L36.5622 28.8572C36.7643 28.8744 36.9649 28.8121 37.1217 28.6834C37.2781 28.5547 37.3784 28.37 37.4007 28.1685L37.6959 24.694C40.0807 23.7494 41.82 21.4394 42.069 18.8863Z" stroke="#4AC7FA" stroke-width="0.841657" stroke-linecap="round" stroke-linejoin="round"/>
</svg>
