<svg width="62" height="61" viewBox="0 0 62 61" fill="none" xmlns="http://www.w3.org/2000/svg">
<g clip-path="url(#clip0_1385_3070)">
<path d="M4.35742 17.8516L13.4056 21.5521L20.9065 19.42C23.4386 18.7002 26.1602 19.1587 28.3167 20.6683" stroke="#53BFFA" stroke-width="0.773503" stroke-linecap="round" stroke-linejoin="round"/>
<path d="M48.7918 37.594L37.599 47.4711C35.1386 49.6424 31.5869 50.0529 28.696 48.5002L6.33203 36.4902" stroke="#53BFFA" stroke-width="0.773503" stroke-linecap="round" stroke-linejoin="round"/>
<path d="M56.4647 31.0887L48.5205 37.8474L34.0971 28.5256L29.5863 32.6003C27.7521 34.2572 24.9345 34.1615 23.217 32.3839C21.5035 30.6105 21.5001 27.7991 23.2095 26.0215L27.8452 21.2008C30.067 18.8902 33.1352 17.586 36.3407 17.5895L44.3622 17.5982L54.3136 10.7749" stroke="#53BFFA" stroke-width="0.773503" stroke-linecap="round" stroke-linejoin="round"/>
<path d="M34.1024 28.5541C37.6013 31.064 41.9816 29.1307 43.4213 26.6268" stroke="#53BFFA" stroke-width="0.773503" stroke-linecap="round" stroke-linejoin="round"/>
</g>
<defs>
<clipPath id="clip0_1385_3070">
<rect width="54.9187" height="54.9187" fill="white" transform="translate(0.945312 6.04492) rotate(-6.0446)"/>
</clipPath>
</defs>
</svg>
