<svg width="47" height="47" viewBox="0 0 47 47" fill="none" xmlns="http://www.w3.org/2000/svg">
<path d="M11.8102 21.6126C17.5453 21.6126 22.1946 16.9633 22.1946 11.2282C22.1946 5.49303 17.5453 0.84375 11.8102 0.84375C6.07506 0.84375 1.42578 5.49303 1.42578 11.2282C1.42578 16.9633 6.07506 21.6126 11.8102 21.6126Z" stroke="#4AC7FA" stroke-width="0.950209" stroke-linecap="round" stroke-linejoin="round"/>
<path d="M36.044 21.6135C39.8676 21.6135 42.967 18.514 42.967 14.6905C42.967 10.8671 39.8676 7.76758 36.044 7.76758C32.2206 7.76758 29.1211 10.8671 29.1211 14.6905C29.1211 18.514 32.2206 21.6135 36.044 21.6135Z" stroke="#4AC7FA" stroke-width="0.950209" stroke-linecap="round" stroke-linejoin="round"/>
<path d="M34.3121 30.2656H15.274C13.3623 30.2656 11.8125 31.8154 11.8125 33.7271V42.3808C11.8125 44.2926 13.3623 45.8423 15.274 45.8423H34.3121C36.2239 45.8423 37.7736 44.2926 37.7736 42.3808V33.7271C37.7736 31.8154 36.2239 30.2656 34.3121 30.2656Z" stroke="#4AC7FA" stroke-width="0.950209" stroke-linecap="round" stroke-linejoin="round"/>
<path d="M46.4219 33.7275V42.3812" stroke="#4AC7FA" stroke-width="0.950209" stroke-linecap="round" stroke-linejoin="round"/>
</svg>
