<svg width="58" height="57" viewBox="0 0 58 57" fill="none" xmlns="http://www.w3.org/2000/svg">
<path d="M25.1044 24.905C24.0876 25.9012 23.5136 27.2539 23.5083 28.6664C23.5083 30.0808 24.0788 31.4374 25.0944 32.4375C26.11 33.4377 27.4874 33.9996 28.9236 33.9996C30.3578 33.9944 31.7313 33.4291 32.7428 32.4277" stroke="#F8F8F8" stroke-width="2.5" stroke-linecap="round" stroke-linejoin="round"/>
<path d="M28.9236 12.6665C25.7105 12.6665 22.5695 13.6049 19.8979 15.3629C17.2263 17.121 15.144 19.6198 13.9144 22.5434C12.6848 25.4669 12.3631 28.6839 12.9899 31.7876C13.6168 34.8912 15.164 37.7421 17.436 39.9797C19.7081 42.2173 22.6028 43.7411 25.7542 44.3585C28.9056 44.9758 32.1721 44.659 35.1406 43.448C38.1091 42.237 40.6464 40.1863 42.4315 37.5552C44.2166 34.924 45.1694 31.8306 45.1694 28.6662" stroke="#F8F8F8" stroke-width="2.5" stroke-linecap="round" stroke-linejoin="round"/>
<path d="M28.9236 2C23.5684 2 18.3334 3.56394 13.8807 6.49406C9.42805 9.42417 5.9576 13.5889 3.90825 18.4615C1.8589 23.3341 1.3227 28.6957 2.36745 33.8685C3.4122 39.0412 5.99097 43.7927 9.77768 47.522C13.5644 51.2513 18.3889 53.791 23.6412 54.8199C28.8936 55.8489 34.3377 55.3208 39.2853 53.3025C44.2328 51.2842 48.4616 47.8663 51.4368 43.4811C54.412 39.0959 56 33.9402 56 28.6662M38.9704 18.7744L31.6312 25.9995" stroke="#F8F8F8" stroke-width="2.5" stroke-linecap="round" stroke-linejoin="round"/>
<path d="M54.4037 11.3866L45.1692 12.6666L46.4689 3.572C46.4784 3.46637 46.4557 3.36033 46.4038 3.26744C46.3518 3.17455 46.2729 3.09903 46.1772 3.05052C46.0814 3.00201 45.9731 2.98272 45.8662 2.99511C45.7592 3.0075 45.6585 3.05101 45.5768 3.12008L39.4546 9.11856C38.8258 9.74233 38.3633 10.5095 38.1082 11.3518C37.8531 12.1941 37.8134 13.0855 37.9925 13.9465L38.9673 18.7745L43.8695 19.7317C44.7439 19.9081 45.6489 19.869 46.5042 19.6177C47.3595 19.3665 48.1384 18.911 48.7718 18.2917L54.8597 12.2652C54.9301 12.1845 54.9744 12.085 54.9869 11.9794C54.9994 11.8737 54.9796 11.7668 54.9299 11.6724C54.8803 11.578 54.8031 11.5003 54.7084 11.4493C54.6136 11.3984 54.5055 11.3766 54.398 11.3866" stroke="#F8F8F8" stroke-width="2.5" stroke-linecap="round" stroke-linejoin="round"/>
</svg>
