<svg width="28" height="28" viewBox="0 0 28 28" fill="none" xmlns="http://www.w3.org/2000/svg">
    <g clip-path="url(#clip0_633_3749)">
        <path d="M27.6903 13.6889C27.6903 6.12879 21.5615 0 14.0014 0C6.44129 0 0.3125 6.12879 0.3125 13.6889C0.3125 20.1084 4.73237 25.4953 10.6947 26.9748V17.8722H7.87205V13.6889H10.6947V11.8863C10.6947 7.22719 12.8033 5.06763 17.3776 5.06763C18.2449 5.06763 19.7414 5.23792 20.3536 5.40766V9.19948C20.0305 9.16553 19.4693 9.14856 18.7722 9.14856C16.5278 9.14856 15.6605 9.99891 15.6605 12.2094V13.6889H20.1318L19.3636 17.8722H15.6605V27.2776C22.4387 26.459 27.6908 20.6877 27.6908 13.6889H27.6903Z" fill="#0866FF"/>
        <path d="M19.3626 17.872L20.1309 13.6886H15.6595V12.2091C15.6595 9.99867 16.5269 9.14831 18.7713 9.14831C19.4683 9.14831 20.0296 9.16529 20.3526 9.19924V5.40741C19.7405 5.23712 18.244 5.06738 17.3767 5.06738C12.8024 5.06738 10.6937 7.22694 10.6937 11.8861V13.6886H7.87109V17.872H10.6937V26.9745C11.7527 27.2374 12.8604 27.3775 14.0004 27.3775C14.5617 27.3775 15.1153 27.343 15.659 27.2773V17.872H19.3621H19.3626Z" fill="white"/>
    </g>
    <defs>
        <clipPath id="clip0_633_3749">
            <rect width="27.3778" height="27.3778" fill="white" transform="translate(0.3125)"/>
        </clipPath>
    </defs>
</svg>
