<svg width="40" height="57" viewBox="0 0 40 57" fill="none" xmlns="http://www.w3.org/2000/svg">
<path d="M20.0898 19.626V28.6261L25.3829 33.9203" stroke="#4AC7FA" stroke-width="0.950209" stroke-linecap="round" stroke-linejoin="round"/>
<path d="M20.09 47.6845C30.6137 47.6845 39.1448 39.1515 39.1448 28.6255C39.1448 18.0994 30.6137 9.56641 20.09 9.56641C9.5663 9.56641 1.03516 18.0994 1.03516 28.6255C1.03516 39.1515 9.5663 47.6845 20.09 47.6845Z" stroke="#4AC7FA" stroke-width="0.950209" stroke-linecap="round" stroke-linejoin="round"/>
<path d="M30.672 12.7429V5.33105C30.672 4.20775 30.2259 3.13049 29.4318 2.33621C28.6377 1.54193 27.5607 1.0957 26.4376 1.0957H13.7344C12.6114 1.0957 11.5343 1.54193 10.7402 2.33621C9.94614 3.13049 9.5 4.20775 9.5 5.33105V12.7429" stroke="#4AC7FA" stroke-width="0.950209" stroke-linecap="round" stroke-linejoin="round"/>
<path d="M30.672 44.4414V51.9193C30.672 53.0425 30.2259 54.12 29.4318 54.9141C28.6377 55.7083 27.5607 56.1547 26.4376 56.1547H13.7344C12.6114 56.1547 11.5343 55.7083 10.7402 54.9141C9.94614 54.12 9.5 53.0425 9.5 51.9193V44.4414" stroke="#4AC7FA" stroke-width="0.950209" stroke-linecap="round" stroke-linejoin="round"/>
</svg>
