<svg width="445" height="124" viewBox="0 0 445 124" fill="none" xmlns="http://www.w3.org/2000/svg">
<path fill-rule="evenodd" clip-rule="evenodd" d="M442.847 0.641602C444.034 0.641602 444.997 1.60426 444.997 2.79176C444.997 3.97927 444.034 4.94193 442.847 4.94193L442.115 4.94193C440.928 4.94193 439.965 3.97927 439.965 2.79176C439.965 1.60426 440.928 0.641602 442.115 0.641602H442.847ZM433.34 0.641602C434.527 0.641602 435.49 1.60426 435.49 2.79176C435.49 3.97927 434.527 4.94193 433.34 4.94193H431.877C430.689 4.94193 429.727 3.97927 429.727 2.79177C429.727 1.60426 430.689 0.641602 431.877 0.641602H433.34ZM423.101 0.641603C424.289 0.641602 425.251 1.60426 425.251 2.79177C425.251 3.97927 424.289 4.94193 423.101 4.94193H421.639C420.451 4.94193 419.488 3.97927 419.488 2.79177C419.488 1.60426 420.451 0.641604 421.639 0.641604L423.101 0.641603ZM412.863 0.641604C414.05 0.641604 415.013 1.60426 415.013 2.79177C415.013 3.97927 414.05 4.94193 412.863 4.94193H411.4C410.213 4.94193 409.25 3.97927 409.25 2.79177C409.25 1.60426 410.213 0.641605 411.4 0.641604L412.863 0.641604ZM402.624 0.641605C403.812 0.641605 404.775 1.60427 404.775 2.79177C404.775 3.97927 403.812 4.94193 402.624 4.94193H401.162C399.974 4.94193 399.012 3.97927 399.012 2.79177C399.012 1.60427 399.974 0.641605 401.162 0.641605L402.624 0.641605ZM392.386 0.641606C393.574 0.641606 394.536 1.60427 394.536 2.79177C394.536 3.97927 393.574 4.94193 392.386 4.94193H390.923C389.736 4.94193 388.773 3.97927 388.773 2.79177C388.773 1.60427 389.736 0.641606 390.923 0.641606L392.386 0.641606ZM382.148 0.641607C383.335 0.641607 384.298 1.60427 384.298 2.79177C384.298 3.97927 383.335 4.94193 382.148 4.94193H380.685C379.498 4.94193 378.535 3.97927 378.535 2.79177C378.535 1.60427 379.498 0.641607 380.685 0.641607L382.148 0.641607ZM371.909 0.641608C373.097 0.641608 374.059 1.60427 374.059 2.79177C374.059 3.97927 373.097 4.94193 371.909 4.94193L370.447 4.94193C369.259 4.94193 368.296 3.97927 368.296 2.79177C368.296 1.60427 369.259 0.641608 370.447 0.641608L371.909 0.641608ZM361.671 0.641609C362.858 0.641609 363.821 1.60427 363.821 2.79177C363.821 3.97927 362.858 4.94193 361.671 4.94193L360.208 4.94193C359.021 4.94193 358.058 3.97927 358.058 2.79177C358.058 1.60427 359.021 0.641609 360.208 0.641609L361.671 0.641609ZM351.433 0.64161C352.62 0.64161 353.583 1.60427 353.583 2.79177C353.583 3.97927 352.62 4.94193 351.433 4.94193H349.97C348.782 4.94193 347.82 3.97927 347.82 2.79177C347.82 1.60427 348.782 0.64161 349.97 0.64161L351.433 0.64161ZM341.194 0.641611C342.382 0.641611 343.344 1.60427 343.344 2.79177C343.344 3.97927 342.382 4.94194 341.194 4.94194H339.732C338.544 4.94194 337.581 3.97927 337.581 2.79177C337.581 1.60427 338.544 0.641611 339.732 0.641611L341.194 0.641611ZM330.956 0.641612C332.143 0.641611 333.106 1.60427 333.106 2.79177C333.106 3.97928 332.143 4.94194 330.956 4.94194H329.493C328.306 4.94194 327.343 3.97928 327.343 2.79177C327.343 1.60427 328.306 0.641612 329.493 0.641612L330.956 0.641612ZM320.717 0.641612C321.905 0.641612 322.868 1.60427 322.868 2.79177C322.868 3.97928 321.905 4.94194 320.717 4.94194H319.255C318.067 4.94194 317.105 3.97928 317.105 2.79177C317.105 1.60427 318.067 0.641613 319.255 0.641613L320.717 0.641612ZM310.479 0.641613C311.667 0.641613 312.629 1.60427 312.629 2.79178C312.629 3.97928 311.667 4.94194 310.479 4.94194H309.016C307.829 4.94194 306.866 3.97928 306.866 2.79178C306.866 1.60427 307.829 0.641614 309.016 0.641613L310.479 0.641613ZM300.241 0.641614C301.428 0.641614 302.391 1.60427 302.391 2.79178C302.391 3.97928 301.428 4.94194 300.241 4.94194H298.778C297.59 4.94194 296.628 3.97928 296.628 2.79178C296.628 1.60427 297.59 0.641614 298.778 0.641614L300.241 0.641614ZM290.002 0.641615C291.19 0.641615 292.152 1.60428 292.152 2.79178C292.152 3.97928 291.19 4.94194 290.002 4.94194L288.54 4.94194C287.352 4.94194 286.389 3.97928 286.389 2.79178C286.389 1.60428 287.352 0.641615 288.54 0.641615L290.002 0.641615ZM281.824 2.1751C281.883 2.37044 281.914 2.57745 281.914 2.79178C281.914 3.97928 280.951 4.94194 279.764 4.94194H279.033C278.727 4.94194 278.435 4.87801 278.172 4.76279C278.089 4.82251 278.006 4.88227 277.922 4.94208H61.911C30.4422 4.94208 4.93173 30.4526 4.93173 61.9214C4.93173 93.3902 30.4422 118.901 61.911 118.901H178.195C177.52 120.337 176.867 121.77 176.236 123.201H61.911C28.0672 123.201 0.631378 95.7652 0.631378 61.9214C0.631378 28.0776 28.0672 0.641754 61.911 0.641754H279.008C279.016 0.641662 279.024 0.641616 279.033 0.641616L279.764 0.641616C279.772 0.641616 279.78 0.641662 279.788 0.641754H284.034C283.296 1.14966 282.56 1.66078 281.824 2.1751Z" fill="url(#paint0_linear_1864_282)"/>
<defs>
<linearGradient id="paint0_linear_1864_282" x1="317.197" y1="0.641611" x2="165.627" y2="158.839" gradientUnits="userSpaceOnUse">
<stop stop-color="#080B0D"/>
<stop offset="1" stop-color="#476173"/>
</linearGradient>
</defs>
</svg>
