<svg width="472" height="123" viewBox="0 0 472 123" fill="none" xmlns="http://www.w3.org/2000/svg">
<path fill-rule="evenodd" clip-rule="evenodd" d="M2.39919 0.333984C1.21168 0.333984 0.249023 1.29664 0.249023 2.48415C0.249023 3.67165 1.21168 4.63431 2.39919 4.63431L3.13077 4.63431C4.31827 4.63431 5.28094 3.67165 5.28094 2.48415C5.28094 1.29665 4.31827 0.333984 3.13077 0.333984H2.39919ZM11.9098 0.333984C10.7223 0.333984 9.75966 1.29665 9.75966 2.48415C9.75966 3.67165 10.7223 4.63431 11.9098 4.63431H13.373C14.5605 4.63431 15.5232 3.67165 15.5232 2.48415C15.5232 1.29665 14.5605 0.333984 13.373 0.333984H11.9098ZM22.152 0.333986C20.9645 0.333984 20.0019 1.29665 20.0019 2.48415C20.0019 3.67165 20.9645 4.63431 22.152 4.63431H23.6152C24.8027 4.63431 25.7654 3.67165 25.7654 2.48415C25.7654 1.29665 24.8027 0.333987 23.6152 0.333986L22.152 0.333986ZM32.3943 0.333987C31.2068 0.333987 30.2441 1.29665 30.2441 2.48415C30.2441 3.67165 31.2068 4.63431 32.3943 4.63431H33.8574C35.0449 4.63431 36.0076 3.67165 36.0076 2.48415C36.0076 1.29665 35.0449 0.333987 33.8574 0.333987L32.3943 0.333987ZM42.6365 0.333988C41.449 0.333988 40.4863 1.29665 40.4863 2.48415C40.4863 3.67165 41.449 4.63431 42.6365 4.63431H44.0997C45.2872 4.63431 46.2498 3.67165 46.2498 2.48415C46.2498 1.29665 45.2872 0.333988 44.0997 0.333988L42.6365 0.333988ZM52.8787 0.333989C51.6912 0.333989 50.7286 1.29665 50.7286 2.48415C50.7286 3.67165 51.6912 4.63431 52.8787 4.63431H54.3419C55.5294 4.63431 56.4921 3.67165 56.4921 2.48415C56.4921 1.29665 55.5294 0.333989 54.3419 0.333989L52.8787 0.333989ZM63.1209 0.33399C61.9334 0.33399 60.9708 1.29665 60.9708 2.48415C60.9708 3.67165 61.9334 4.63431 63.1209 4.63431H64.5841C65.7716 4.63431 66.7343 3.67165 66.7343 2.48415C66.7343 1.29665 65.7716 0.33399 64.5841 0.33399L63.1209 0.33399ZM73.3632 0.333991C72.1757 0.333991 71.213 1.29665 71.213 2.48415C71.213 3.67165 72.1757 4.63432 73.3632 4.63432L74.8263 4.63432C76.0138 4.63432 76.9765 3.67166 76.9765 2.48415C76.9765 1.29665 76.0138 0.333991 74.8263 0.333991L73.3632 0.333991ZM83.6054 0.333992C82.4179 0.333992 81.4552 1.29665 81.4552 2.48415C81.4552 3.67166 82.4179 4.63432 83.6054 4.63432L85.0686 4.63432C86.2561 4.63432 87.2187 3.67166 87.2187 2.48415C87.2187 1.29665 86.2561 0.333992 85.0686 0.333992L83.6054 0.333992ZM93.8476 0.333993C92.6601 0.333992 91.6974 1.29665 91.6974 2.48415C91.6974 3.67166 92.6601 4.63432 93.8476 4.63432H95.3108C96.4983 4.63432 97.4609 3.67166 97.4609 2.48416C97.4609 1.29665 96.4983 0.333993 95.3108 0.333993L93.8476 0.333993ZM104.09 0.333993C102.902 0.333993 101.94 1.29665 101.94 2.48416C101.94 3.67166 102.902 4.63432 104.09 4.63432H105.553C106.741 4.63432 107.703 3.67166 107.703 2.48416C107.703 1.29665 106.741 0.333994 105.553 0.333994L104.09 0.333993ZM114.332 0.333994C113.145 0.333994 112.182 1.29665 112.182 2.48416C112.182 3.67166 113.145 4.63432 114.332 4.63432H115.795C116.983 4.63432 117.945 3.67166 117.945 2.48416C117.945 1.29665 116.983 0.333995 115.795 0.333994L114.332 0.333994ZM124.574 0.333995C123.387 0.333995 122.424 1.29666 122.424 2.48416C122.424 3.67166 123.387 4.63432 124.574 4.63432H126.037C127.225 4.63432 128.188 3.67166 128.188 2.48416C128.188 1.29666 127.225 0.333995 126.037 0.333995L124.574 0.333995ZM134.816 0.333996C133.629 0.333996 132.666 1.29666 132.666 2.48416C132.666 3.67166 133.629 4.63432 134.816 4.63432H136.28C137.467 4.63432 138.43 3.67166 138.43 2.48416C138.43 1.29666 137.467 0.333996 136.28 0.333996L134.816 0.333996ZM145.059 0.333997C143.871 0.333997 142.909 1.29666 142.909 2.48416C142.909 3.67166 143.871 4.63432 145.059 4.63432H146.522C147.709 4.63432 148.672 3.67166 148.672 2.48416C148.672 1.29666 147.709 0.333997 146.522 0.333997L145.059 0.333997ZM155.301 0.333998C154.113 0.333998 153.151 1.29666 153.151 2.48416C153.151 3.67166 154.113 4.63432 155.301 4.63432L156.764 4.63432C157.952 4.63432 158.914 3.67166 158.914 2.48416C158.914 1.29666 157.952 0.333998 156.764 0.333998L155.301 0.333998ZM165.543 0.333999C164.356 0.333999 163.393 1.29666 163.393 2.48416C163.393 3.67166 164.356 4.63432 165.543 4.63432L167.006 4.63432C168.194 4.63432 169.157 3.67166 169.157 2.48416C169.157 1.29666 168.194 0.333999 167.006 0.333999L165.543 0.333999ZM173.681 2.03987C173.651 2.18323 173.635 2.33184 173.635 2.48416C173.635 3.67166 174.598 4.63432 175.785 4.63432H176.517C176.804 4.63432 177.077 4.57821 177.327 4.47637C177.405 4.52909 177.483 4.58184 177.561 4.63462H410.571C442.04 4.63462 467.55 30.1451 467.55 61.6139C467.55 93.0827 442.04 118.593 410.571 118.593H283.401C284.117 120.029 284.81 121.463 285.48 122.894H410.571C444.415 122.894 471.851 95.4577 471.851 61.6139C471.851 27.7701 444.415 0.334299 410.571 0.334299H176.553C176.541 0.3341 176.529 0.334 176.517 0.334L175.785 0.334C175.773 0.334 175.761 0.3341 175.749 0.334299H171.075C171.945 0.898856 172.814 1.46738 173.681 2.03987Z" fill="url(#paint0_linear_1864_296)"/>
<defs>
<linearGradient id="paint0_linear_1864_296" x1="135.882" y1="0.333994" x2="286.8" y2="167.506" gradientUnits="userSpaceOnUse">
<stop stop-color="#080B0D"/>
<stop offset="1" stop-color="#476173"/>
</linearGradient>
</defs>
</svg>
