<svg width="462" height="126" viewBox="0 0 462 126" fill="none" xmlns="http://www.w3.org/2000/svg">
    <path fill-rule="evenodd" clip-rule="evenodd" d="M458.924 2.6416C460.112 2.6416 461.074 3.60426 461.074 4.79176C461.074 5.97927 460.112 6.94193 458.924 6.94193L458.193 6.94193C457.005 6.94193 456.043 5.97927 456.043 4.79176C456.043 3.60426 457.005 2.6416 458.193 2.6416H458.924ZM449.417 2.6416C450.604 2.6416 451.567 3.60426 451.567 4.79176C451.567 5.97927 450.604 6.94193 449.417 6.94193H447.954C446.767 6.94193 445.804 5.97927 445.804 4.79177C445.804 3.60426 446.767 2.6416 447.954 2.6416H449.417ZM439.179 2.6416C440.366 2.6416 441.329 3.60426 441.329 4.79177C441.329 5.97927 440.366 6.94193 439.179 6.94193H437.716C436.528 6.94193 435.566 5.97927 435.566 4.79177C435.566 3.60426 436.528 2.6416 437.716 2.6416L439.179 2.6416ZM428.94 2.6416C430.128 2.6416 431.09 3.60426 431.09 4.79177C431.09 5.97927 430.128 6.94193 428.94 6.94193H427.478C426.29 6.94193 425.327 5.97927 425.327 4.79177C425.327 3.60426 426.29 2.6416 427.478 2.6416L428.94 2.6416ZM418.702 2.64161C419.889 2.64161 420.852 3.60427 420.852 4.79177C420.852 5.97927 419.889 6.94193 418.702 6.94193H417.239C416.052 6.94193 415.089 5.97927 415.089 4.79177C415.089 3.60427 416.052 2.64161 417.239 2.64161L418.702 2.64161ZM408.463 2.64161C409.651 2.64161 410.614 3.60427 410.614 4.79177C410.614 5.97927 409.651 6.94193 408.463 6.94193H407.001C405.813 6.94193 404.851 5.97927 404.851 4.79177C404.851 3.60427 405.813 2.64161 407.001 2.64161L408.463 2.64161ZM398.225 2.64161C399.413 2.64161 400.375 3.60427 400.375 4.79177C400.375 5.97927 399.413 6.94193 398.225 6.94193H396.762C395.575 6.94193 394.612 5.97927 394.612 4.79177C394.612 3.60427 395.575 2.64161 396.762 2.64161L398.225 2.64161ZM387.987 2.64161C389.174 2.64161 390.137 3.60427 390.137 4.79177C390.137 5.97927 389.174 6.94193 387.987 6.94193L386.524 6.94193C385.337 6.94193 384.374 5.97927 384.374 4.79177C384.374 3.60427 385.337 2.64161 386.524 2.64161L387.987 2.64161ZM377.748 2.64161C378.936 2.64161 379.899 3.60427 379.899 4.79177C379.899 5.97927 378.936 6.94193 377.748 6.94193L376.286 6.94193C375.098 6.94193 374.136 5.97927 374.136 4.79177C374.136 3.60427 375.098 2.64161 376.286 2.64161L377.748 2.64161ZM367.51 2.64161C368.698 2.64161 369.66 3.60427 369.66 4.79177C369.66 5.97927 368.698 6.94193 367.51 6.94193H366.047C364.86 6.94193 363.897 5.97927 363.897 4.79177C363.897 3.60427 364.86 2.64161 366.047 2.64161L367.51 2.64161ZM357.272 2.64161C358.459 2.64161 359.422 3.60427 359.422 4.79177C359.422 5.97927 358.459 6.94194 357.272 6.94194H355.809C354.622 6.94194 353.659 5.97927 353.659 4.79177C353.659 3.60427 354.622 2.64161 355.809 2.64161L357.272 2.64161ZM347.033 2.64161C348.221 2.64161 349.183 3.60427 349.183 4.79177C349.183 5.97928 348.221 6.94194 347.033 6.94194H345.571C344.383 6.94194 343.42 5.97928 343.42 4.79177C343.42 3.60427 344.383 2.64161 345.571 2.64161L347.033 2.64161ZM336.795 2.64161C337.982 2.64161 338.945 3.60427 338.945 4.79177C338.945 5.97928 337.982 6.94194 336.795 6.94194H335.332C334.145 6.94194 333.182 5.97928 333.182 4.79177C333.182 3.60427 334.145 2.64161 335.332 2.64161L336.795 2.64161ZM326.557 2.64161C327.744 2.64161 328.707 3.60427 328.707 4.79178C328.707 5.97928 327.744 6.94194 326.557 6.94194H325.094C323.906 6.94194 322.944 5.97928 322.944 4.79178C322.944 3.60427 323.906 2.64161 325.094 2.64161L326.557 2.64161ZM316.318 2.64161C317.506 2.64161 318.468 3.60427 318.468 4.79178C318.468 5.97928 317.506 6.94194 316.318 6.94194H314.855C313.668 6.94194 312.705 5.97928 312.705 4.79178C312.705 3.60427 313.668 2.64161 314.855 2.64161L316.318 2.64161ZM306.08 2.64162C307.267 2.64162 308.23 3.60428 308.23 4.79178C308.23 5.97928 307.267 6.94194 306.08 6.94194L304.617 6.94194C303.43 6.94194 302.467 5.97928 302.467 4.79178C302.467 3.60428 303.43 2.64162 304.617 2.64162L306.08 2.64162ZM297.902 4.1751C297.96 4.37044 297.992 4.57745 297.992 4.79178C297.992 5.97928 297.029 6.94194 295.841 6.94194H295.11C294.804 6.94194 294.513 6.87801 294.249 6.76279C294.166 6.82251 294.083 6.88227 294 6.94208H77.9885C46.5197 6.94208 21.0092 32.4526 21.0092 63.9214C21.0092 95.3902 46.5197 120.901 77.9885 120.901H194.272C193.598 122.337 192.945 123.77 192.313 125.201H77.9885C44.1447 125.201 16.7089 97.7652 16.7089 63.9214C16.7089 30.0776 44.1447 2.64175 77.9885 2.64175H295.085C295.094 2.64166 295.102 2.64162 295.11 2.64162L295.841 2.64162C295.85 2.64162 295.858 2.64166 295.866 2.64175H300.112C299.374 3.14966 298.637 3.66078 297.902 4.1751Z" fill="url(#paint0_linear_748_1910)"/>
    <g style="mix-blend-mode:exclusion" clip-path="url(#clip0_748_1910)">
        <path d="M10.9628 71.82C10.6443 65.3896 10.5715 46.7549 22.9206 28.545C31.9591 15.2127 43.3998 8.37585 49.3399 5.36215C49.0281 6.41057 48.2471 9.5258 49.5488 13.1119C50.6332 16.0873 51.7862 16.0421 52.6802 16.7478C48.3368 18.6486 39.1671 24.4253 32.2995 33.8989C21.8163 48.3718 21.933 64.2011 22.3757 68.3055C20.9871 67.9154 20.1029 67.5666 16.2503 68.794C13.7306 69.5977 11.9648 70.9259 10.9628 71.82Z" fill="#4C646B"/>
    </g>
    <defs>
        <linearGradient id="paint0_linear_748_1910" x1="333.274" y1="2.64161" x2="181.705" y2="160.839" gradientUnits="userSpaceOnUse">
            <stop stop-color="#080B0D"/>
            <stop offset="1" stop-color="#476173"/>
        </linearGradient>
        <clipPath id="clip0_748_1910">
            <rect width="22.9781" height="76.6891" fill="white" transform="translate(40.8047) rotate(32.1458)"/>
        </clipPath>
    </defs>
</svg>
