<svg width="55" height="55" viewBox="0 0 55 55" fill="none" xmlns="http://www.w3.org/2000/svg">
    <path d="M33.3536 20.4473C33.1439 19.8542 32.8204 19.3148 32.4093 18.8555C31.5349 17.8785 30.2641 17.2637 28.8498 17.2637H25.1534C22.7991 17.2637 20.8906 19.1722 20.8906 21.5264C20.8906 23.5297 22.2855 25.2626 24.2425 25.6907L29.8703 26.9218C32.0626 27.4014 33.6253 29.3442 33.6253 31.5884C33.6253 34.2258 31.4872 36.3657 28.8498 36.3657H25.6661C23.5869 36.3657 21.818 35.0368 21.1624 33.182" stroke="#4AC7FA" stroke-width="0.950209" stroke-linecap="round" stroke-linejoin="round"/>
    <path d="M27.2578 17.2638V12.4883" stroke="#4AC7FA" stroke-width="0.950209" stroke-linecap="round" stroke-linejoin="round"/>
    <path d="M27.2578 41.1406V36.3652" stroke="#4AC7FA" stroke-width="0.950209" stroke-linecap="round" stroke-linejoin="round"/>
    <path d="M7.35156 53.9783V43.7451H17.5847" stroke="#4AC7FA" stroke-width="0.950209" stroke-linecap="round" stroke-linejoin="round"/>
    <path d="M53.973 22.4834C56.519 36.0237 48.233 49.4475 34.7047 53.0721C24.3506 55.8465 13.7859 52.1147 7.35156 44.3825" stroke="#4AC7FA" stroke-width="0.950209" stroke-linecap="round" stroke-linejoin="round"/>
    <path d="M1.67713 32.2745C-0.869043 18.7342 7.41701 5.31054 20.9454 1.68565C31.2988 -1.08854 41.8628 2.64275 48.2974 10.3738" stroke="#4AC7FA" stroke-width="0.950209" stroke-linecap="round" stroke-linejoin="round"/>
    <path d="M48.2997 0.779297V11.0125H38.0664" stroke="#4AC7FA" stroke-width="0.950209" stroke-linecap="round" stroke-linejoin="round"/>
</svg>
