<svg width="38" height="42" viewBox="0 0 38 42" fill="none" xmlns="http://www.w3.org/2000/svg">
<path d="M29.8927 19.3186C33.941 19.3186 37.2228 15.2163 37.2228 10.1559C37.2228 5.09547 33.941 0.993164 29.8927 0.993164C25.8443 0.993164 22.5625 5.09547 22.5625 10.1559C22.5625 15.2163 25.8443 19.3186 29.8927 19.3186Z" stroke="#4AC7FA" stroke-width="0.950209" stroke-linecap="round" stroke-linejoin="round"/>
<path d="M29.8906 19.3193V40.699" stroke="#4AC7FA" stroke-width="0.950209" stroke-linecap="round" stroke-linejoin="round"/>
<path d="M8.20703 0.993164V40.6983" stroke="#4AC7FA" stroke-width="0.950209" stroke-linecap="round" stroke-linejoin="round"/>
<path d="M15.8415 0.993164V8.62877C15.8415 9.63148 15.644 10.6244 15.2603 11.5508C14.8766 12.4772 14.3141 13.3189 13.6051 14.028C12.8961 14.737 12.0543 15.2994 11.1279 15.6832C10.2015 16.0669 9.20863 16.2644 8.20592 16.2644C6.18083 16.2644 4.23867 15.4599 2.80672 14.028C1.37477 12.596 0.570312 10.6539 0.570312 8.62877V0.993164" stroke="#4AC7FA" stroke-width="0.950209" stroke-linecap="round" stroke-linejoin="round"/>
</svg>
