<svg width="25" height="25" viewBox="0 0 25 25" fill="none" xmlns="http://www.w3.org/2000/svg">
    <path d="M19.2379 0H6.17512C2.9923 0 0.412109 2.58019 0.412109 5.76301V18.8258C0.412109 22.0086 2.9923 24.5888 6.17512 24.5888H19.2379C22.4208 24.5888 25.0009 22.0086 25.0009 18.8258V5.76301C25.0009 2.58019 22.4208 0 19.2379 0Z" fill="url(#paint0_radial_958_2099)"/>
    <path d="M19.2379 0H6.17512C2.9923 0 0.412109 2.58019 0.412109 5.76301V18.8258C0.412109 22.0086 2.9923 24.5888 6.17512 24.5888H19.2379C22.4208 24.5888 25.0009 22.0086 25.0009 18.8258V5.76301C25.0009 2.58019 22.4208 0 19.2379 0Z" fill="url(#paint1_radial_958_2099)"/>
    <path d="M12.7074 2.68945C10.0989 2.68945 9.77148 2.70088 8.747 2.74747C7.72446 2.79434 7.02646 2.95618 6.41577 3.19372C5.78395 3.43903 5.24809 3.76723 4.71424 4.30127C4.17992 4.83521 3.85171 5.37108 3.60563 6.00261C3.36743 6.61349 3.20539 7.31177 3.15938 8.33384C3.11357 9.35841 3.10156 9.68594 3.10156 12.2946C3.10156 14.9032 3.11309 15.2296 3.15958 16.254C3.20664 17.2766 3.36849 17.9746 3.60583 18.5853C3.85133 19.2171 4.17953 19.753 4.71357 20.2868C5.24732 20.8211 5.78319 21.1501 6.41452 21.3954C7.02569 21.6329 7.72378 21.7948 8.74614 21.8417C9.77071 21.8882 10.0979 21.8997 12.7063 21.8997C15.3151 21.8997 15.6415 21.8882 16.666 21.8417C17.6885 21.7948 18.3873 21.6329 18.9984 21.3954C19.63 21.1501 20.1651 20.8211 20.6987 20.2868C21.233 19.753 21.5611 19.2171 21.8073 18.5856C22.0434 17.9746 22.2055 17.2764 22.2536 16.2542C22.2996 15.2298 22.3116 14.9032 22.3116 12.2946C22.3116 9.68594 22.2996 9.3586 22.2536 8.33403C22.2055 7.31148 22.0434 6.61358 21.8073 6.00289C21.5611 5.37108 21.233 4.83521 20.6987 4.30127C20.1645 3.76704 19.6302 3.43884 18.9979 3.19381C18.3855 2.95618 17.6872 2.79424 16.6646 2.74747C15.64 2.70088 15.3139 2.68945 12.7045 2.68945H12.7074ZM11.8458 4.42037C12.1016 4.41999 12.3869 4.42037 12.7074 4.42037C15.2721 4.42037 15.576 4.42959 16.5887 4.4756C17.5252 4.51844 18.0335 4.67491 18.3721 4.8064C18.8204 4.98044 19.1399 5.18858 19.4759 5.52485C19.8121 5.86103 20.0201 6.18116 20.1946 6.62943C20.3261 6.96753 20.4828 7.47582 20.5254 8.41231C20.5714 9.42487 20.5814 9.72897 20.5814 12.2924C20.5814 14.8557 20.5714 15.1599 20.5254 16.1724C20.4826 17.1089 20.3261 17.6172 20.1946 17.9554C20.0206 18.4036 19.8121 18.7228 19.4759 19.0588C19.1397 19.395 18.8205 19.603 18.3721 19.7772C18.0339 19.9092 17.5252 20.0653 16.5887 20.1081C15.5762 20.1542 15.2721 20.1641 12.7074 20.1641C10.1427 20.1641 9.83871 20.1542 8.82625 20.1081C7.88976 20.0649 7.38146 19.9085 7.0426 19.777C6.59443 19.6028 6.27419 19.3948 5.93802 19.0586C5.60184 18.7224 5.3938 18.4031 5.21928 17.9546C5.08778 17.6164 4.93113 17.1081 4.88848 16.1716C4.84247 15.1591 4.83325 14.855 4.83325 12.29C4.83325 9.72493 4.84247 9.42247 4.88848 8.40991C4.93132 7.47342 5.08778 6.96512 5.21928 6.62655C5.39341 6.17828 5.60184 5.85815 5.93812 5.52197C6.27439 5.1858 6.59443 4.97766 7.04269 4.80323C7.38127 4.67116 7.88976 4.51508 8.82625 4.47205C9.71231 4.43199 10.0557 4.41999 11.8458 4.41797V4.42037ZM17.8346 6.01519C17.1983 6.01519 16.682 6.53098 16.682 7.16741C16.682 7.80374 17.1983 8.32001 17.8346 8.32001C18.4709 8.32001 18.9872 7.80374 18.9872 7.16741C18.9872 6.53107 18.4709 6.0148 17.8346 6.0148V6.01519ZM12.7074 7.36191C9.98346 7.36191 7.77488 9.57049 7.77488 12.2946C7.77488 15.0186 9.98346 17.2262 12.7074 17.2262C15.4315 17.2262 17.6393 15.0186 17.6393 12.2946C17.6393 9.57058 15.4313 7.36191 12.7072 7.36191H12.7074ZM12.7074 9.09283C14.4756 9.09283 15.9092 10.5262 15.9092 12.2946C15.9092 14.0628 14.4756 15.4963 12.7074 15.4963C10.9393 15.4963 9.5058 14.0628 9.5058 12.2946C9.5058 10.5262 10.9392 9.09283 12.7074 9.09283Z" fill="white"/>
    <defs>
        <radialGradient id="paint0_radial_958_2099" cx="0" cy="0" r="1" gradientUnits="userSpaceOnUse" gradientTransform="translate(6.94352 26.4827) rotate(-90) scale(24.3694 22.6654)">
            <stop stop-color="#FFDD55"/>
            <stop offset="0.1" stop-color="#FFDD55"/>
            <stop offset="0.5" stop-color="#FF543E"/>
            <stop offset="1" stop-color="#C837AB"/>
        </radialGradient>
        <radialGradient id="paint1_radial_958_2099" cx="0" cy="0" r="1" gradientUnits="userSpaceOnUse" gradientTransform="translate(-3.70662 1.77126) rotate(78.681) scale(10.8932 44.9023)">
            <stop stop-color="#3771C8"/>
            <stop offset="0.128" stop-color="#3771C8"/>
            <stop offset="1" stop-color="#6600FF" stop-opacity="0"/>
        </radialGradient>
    </defs>
</svg>
