<svg width="28" height="28" viewBox="0 0 28 28" fill="none" xmlns="http://www.w3.org/2000/svg">
    <g clip-path="url(#clip0_633_3750)">
        <path d="M25.9779 0H2.64211C2.1061 0 1.59205 0.212928 1.21303 0.591941C0.834022 0.970955 0.621094 1.48501 0.621094 2.02101V25.3568C0.621094 25.8928 0.834022 26.4068 1.21303 26.7858C1.59205 27.1649 2.1061 27.3778 2.64211 27.3778H25.9779C26.5139 27.3778 27.0279 27.1649 27.4069 26.7858C27.7859 26.4068 27.9989 25.8928 27.9989 25.3568V2.02101C27.9989 1.48501 27.7859 0.970955 27.4069 0.591941C27.0279 0.212928 26.5139 0 25.9779 0ZM8.78119 23.3224H4.66502V10.2477H8.78119V23.3224ZM6.72026 8.43578C6.25335 8.43315 5.79768 8.29227 5.41076 8.03091C5.02384 7.76956 4.72302 7.39945 4.54624 6.96729C4.36947 6.53513 4.32468 6.06029 4.41751 5.6027C4.51035 5.1451 4.73666 4.72526 5.06788 4.39617C5.3991 4.06707 5.82038 3.84346 6.27856 3.75356C6.73674 3.66366 7.21128 3.71151 7.6423 3.89105C8.07331 4.07059 8.44149 4.37379 8.70035 4.76238C8.95921 5.15097 9.09717 5.60753 9.0968 6.07445C9.1012 6.38705 9.04263 6.69733 8.92456 6.98681C8.80649 7.27629 8.63135 7.53904 8.40958 7.75939C8.18781 7.97975 7.92394 8.1532 7.63371 8.2694C7.34348 8.38561 7.03282 8.44219 6.72026 8.43578ZM23.953 23.3339H19.8388V16.1909C19.8388 14.0843 18.9433 13.4341 17.7873 13.4341C16.5668 13.4341 15.369 14.3543 15.369 16.2441V23.3339H11.2528V10.2572H15.2112V12.069H15.2644C15.6618 11.2648 17.0535 9.89022 19.1771 9.89022C21.4738 9.89022 23.9549 11.2534 23.9549 15.246L23.953 23.3339Z" fill="#0A66C2"/>
    </g>
    <defs>
        <clipPath id="clip0_633_3750">
            <rect width="27.3778" height="27.3778" fill="white" transform="translate(0.621094)"/>
        </clipPath>
    </defs>
</svg>
