<svg width="57" height="51" viewBox="0 0 57 51" fill="none" xmlns="http://www.w3.org/2000/svg">
    <path d="M11.8873 49.6777C11.8873 49.6777 7.67027 45.4608 3.83196 41.6222C2.25365 40.0442 1.36719 37.9036 1.36719 35.6715V18.1172C1.36719 15.7932 3.25121 13.9092 5.57524 13.9092C7.89931 13.9092 9.78331 15.7932 9.78331 18.1172V30.7414" stroke="#53BFFA" stroke-width="0.950209" stroke-linecap="round" stroke-linejoin="round"/>
    <path d="M45.3711 49.6777C45.3711 49.6777 49.5884 45.4608 53.4266 41.6222C55.005 40.0442 55.8913 37.9036 55.8913 35.6715V18.1172C55.8913 15.7932 54.0073 13.9092 51.6832 13.9092C49.3591 13.9092 47.4751 15.7932 47.4751 18.1172V30.7414" stroke="#53BFFA" stroke-width="0.950209" stroke-linecap="round" stroke-linejoin="round"/>
    <path d="M13.6299 38.4347L10.6544 35.459C9.01104 33.8157 9.01104 31.1513 10.6544 29.5079C12.2978 27.8645 14.9621 27.8645 16.6055 29.5079L22.0461 34.9485C23.6244 36.5268 24.5111 38.6674 24.5111 40.8997V49.6774" stroke="#53BFFA" stroke-width="0.950209" stroke-linecap="round" stroke-linejoin="round"/>
    <path d="M43.6272 38.4347L46.6028 35.459C48.246 33.8157 48.246 31.1513 46.6028 29.5079C44.9595 27.8645 42.295 27.8645 40.6517 29.5079L35.2111 34.9485C33.6328 36.5268 32.7461 38.6674 32.7461 40.8997V49.6774" stroke="#53BFFA" stroke-width="0.950209" stroke-linecap="round" stroke-linejoin="round"/>
    <path d="M37.137 17.7615C37.137 13.0212 28.7208 1.28418 28.7208 1.28418C28.7208 1.28418 20.3047 13.0212 20.3047 17.7615C20.3047 20.0878 21.1914 22.3187 22.7697 23.9636C24.348 25.6085 26.4887 26.5326 28.7208 26.5326C30.9529 26.5326 33.0936 25.6085 34.672 23.9636C36.2503 22.3187 37.137 20.0878 37.137 17.7615Z" stroke="#53BFFA" stroke-width="0.950209" stroke-linecap="round" stroke-linejoin="round"/>
</svg>
