<svg width="79" height="59" viewBox="0 0 79 59" fill="none" xmlns="http://www.w3.org/2000/svg">
<path d="M9.27384 47.7655L8.62281 53.845L8.15136 58.2253H7.16797L7.34758 56.5576V56.5523L7.67135 53.5102L8.28655 47.7642L9.27384 47.7655Z" fill="#5D7DC3"/>
<path d="M13.9828 58.2259H13.0014L12.687 55.2921L11.8789 47.7661H12.8623L13.7109 55.6564L13.9828 58.2259Z" fill="#5D7DC3"/>
<path d="M2.81801 47.7661L2.40502 51.6303L1.70021 58.2259H0.716797L1.45708 51.2967L1.83424 47.7661H2.81801Z" fill="#5D7DC3"/>
<path d="M7.52815 58.2258H6.54008L5.96968 52.8998L5.42188 47.7651H6.40527L6.99359 53.2632L7.34814 56.5507V56.556L7.52815 58.2258Z" fill="#5D7DC3"/>
<path d="M13.81 45.9834H0.484296C0.216827 45.9834 0 46.2276 0 46.5289V47.2179C0 47.5192 0.216827 47.7634 0.484296 47.7634H13.81C14.0775 47.7634 14.2943 47.5192 14.2943 47.2179V46.5289C14.2943 46.2276 14.0775 45.9834 13.81 45.9834Z" fill="#6087CC"/>
<path d="M7.65756 45.9834H0.484296C0.216827 45.9834 0 46.2276 0 46.5289V47.2179C0 47.5192 0.216827 47.7634 0.484296 47.7634H7.65756C7.92503 47.7634 8.14186 47.5192 8.14186 47.2179V46.5289C8.14186 46.2276 7.92503 45.9834 7.65756 45.9834Z" fill="#D4E2FF"/>
<path d="M14.9044 54.456L12.6953 54.4053L12.6123 58.9162L14.8214 58.9669L14.9044 54.456Z" fill="#FAC7A5"/>
<path d="M12.6328 57.8003L15.7853 57.8732C15.9238 57.8766 16.0554 57.9417 16.1513 58.0543C16.2472 58.1669 16.2994 58.3177 16.2966 58.4737L16.287 59.0002L12.6125 58.9152L12.6328 57.8003Z" fill="#D64A4A"/>
<path d="M14.8555 57.1776L12.6465 57.1265L12.6342 57.8009L14.8432 57.852L14.8555 57.1776Z" fill="#D64A4A"/>
<path d="M18.9423 48.165L16.7969 48.7603L17.7549 53.1412L19.9003 52.546L18.9423 48.165Z" fill="#FAC7A5"/>
<path d="M17.5176 52.0566L20.5792 51.2072C20.7138 51.17 20.8559 51.1944 20.9744 51.2752C21.0928 51.356 21.178 51.4865 21.2111 51.6379L21.323 52.1493L17.7544 53.1394L17.5176 52.0566Z" fill="#D64A4A"/>
<path d="M19.5184 50.8056L17.373 51.4009L17.5163 52.0558L19.6617 51.4606L19.5184 50.8056Z" fill="#D64A4A"/>
<path d="M17.0442 41.8831C18.0312 44.604 19.0183 47.324 20.0053 50.0428L16.6935 50.6647C15.9782 48.65 15.263 46.6355 14.5479 44.6212L9.29315 45.7543C9.07689 45.8025 8.85376 45.7954 8.64026 45.7335C8.42675 45.6716 8.22832 45.5565 8.05961 45.3966C7.84628 45.194 7.67497 44.9411 7.55777 44.6558C7.38625 44.1818 7.34719 43.66 7.44577 43.1603C7.54434 42.6606 7.77587 42.2066 8.10948 41.859C8.63235 41.4508 11.346 41.1269 14.5888 40.394C15.088 40.2823 15.606 40.3698 16.0541 40.6415C16.5022 40.9132 16.8523 41.3522 17.0442 41.8831Z" fill="#1E1B3A"/>
<path d="M15.9655 56.2785C15.1231 56.2478 14.2835 56.2135 13.4415 56.1824L11.8269 56.1209C11.8028 55.693 11.7755 55.2651 11.7514 54.8368L11.742 54.6823L11.3411 47.984C11.3021 47.3297 11.2631 46.6727 11.2222 46.0188C9.09232 45.998 6.95904 45.9796 4.82238 45.9635C4.10397 45.9569 3.41715 45.6299 2.91233 45.0541C2.40751 44.4783 2.12582 43.7007 2.12893 42.8915L2.13167 41.3555L8.42518 41.3761L13.445 41.3932C13.8786 41.3947 14.3031 41.5336 14.67 41.7939L14.9256 42.0028C15.1831 42.2421 15.3915 42.5415 15.5364 42.8803C15.6813 43.2192 15.7592 43.5893 15.7648 43.9654C15.7952 45.8004 15.8255 47.6369 15.8556 49.4748L15.944 55.0124L15.9655 56.2785Z" fill="#292349"/>
<path d="M13.4423 56.1826L11.8277 56.1212C11.8005 55.6415 11.7701 55.1623 11.7424 54.6826L11.3415 47.9843C11.3025 47.3299 11.2636 46.6729 11.2227 46.019C11.2227 46.019 12.0892 49.9947 13.4423 56.1826Z" fill="#2E2B4C"/>
<path d="M15.9641 56.2781C15.1218 56.2474 14.2821 56.2131 13.4402 56.182L11.8256 56.1205C11.8014 55.6926 11.7742 55.2648 11.75 54.8364L15.9423 55.012L15.9641 56.2781Z" fill="#5486D1"/>
<path d="M19.6795 49.1323L20.0107 50.0434L16.6989 50.6653L16.4219 49.8837L19.6795 49.1323Z" fill="#5486D1"/>
<path d="M17.4199 42.9175C17.9701 45.0354 18.5201 47.1535 19.07 49.2717L19.6754 49.1322C18.924 47.0602 18.1721 44.9886 17.4199 42.9175Z" fill="#2E2B4C"/>
<path d="M58.7554 58.0398L60.6895 57.8169L60.3307 53.8671L58.3966 54.09L58.7554 58.0398Z" fill="#FAC7A5"/>
<path d="M60.6895 57.8169L57.4724 58.1877L57.4304 57.7253C57.418 57.5887 57.4543 57.4521 57.5313 57.3456C57.6083 57.2391 57.7197 57.1714 57.841 57.1574L60.6007 56.8394L60.6895 57.8169Z" fill="#F9B353"/>
<path d="M58.6675 57.0627L60.6016 56.8398L60.5479 56.2496L58.6138 56.4725L58.6675 57.0627Z" fill="#F9B353"/>
<path d="M78.895 55.3342L79 53.1465L75.4786 52.9321L75.3737 55.1198L78.895 55.3342Z" fill="#FAC7A5"/>
<path d="M79 53.1465L78.8254 56.7854L78.4132 56.7603C78.2914 56.7529 78.1772 56.6913 78.0957 56.589C78.0142 56.4867 77.9721 56.3522 77.9787 56.215L78.1285 53.0934L79 53.1465Z" fill="#F9B353"/>
<path d="M78.0239 55.282L78.1289 53.0942L77.6027 53.0622L77.4977 55.2499L78.0239 55.282Z" fill="#F9B353"/>
<path d="M64.6511 47.7841L60.2546 47.7402C60.7481 50.1943 61.2416 52.6484 61.7351 55.1025H57.6738C57.3073 52.1724 56.9402 49.2423 56.5727 46.3121C56.5321 45.9878 56.5536 45.6573 56.6359 45.3431C56.7181 45.0289 56.8592 44.7382 57.0496 44.4905C57.2399 44.2428 57.4752 44.044 57.7395 43.9073C58.0039 43.7707 58.2911 43.6994 58.582 43.6983L67.2576 43.6641L70.9933 52.1222H75.9387V56.4669L68.6182 56.2866L64.6511 47.7841Z" fill="#292349"/>
<path d="M60.2539 47.7407C60.2947 50.1948 60.3357 52.6489 60.377 55.103H61.7337C61.2402 52.6489 60.7469 50.1948 60.2539 47.7407Z" fill="#1E1B3A"/>
<path d="M70.9941 52.124L75.9396 53.2212V52.124H70.9941Z" fill="#1E1B3A"/>
<path d="M57.5605 54.21L57.6724 55.1027H61.7314L61.5845 54.1758L57.5605 54.21Z" fill="#D64A4A"/>
<path d="M75.0742 52.1226L75.1132 56.4471L75.9372 56.4673V52.1226H75.0742Z" fill="#D64A4A"/>
<path d="M33.2089 24.7061H32.4043V58.411H33.2089V24.7061Z" fill="#5D7DC3"/>
<path d="M45.1327 24.7061H44.3281V58.411H45.1327V24.7061Z" fill="#5D7DC3"/>
<path d="M57.4183 0H19.9347C19.3279 0 18.8359 0.554086 18.8359 1.23759V29.9887C18.8359 30.6722 19.3279 31.2262 19.9347 31.2262H57.4183C58.0251 31.2262 58.517 30.6722 58.517 29.9887V1.23759C58.517 0.554086 58.0251 0 57.4183 0Z" fill="#C2D4FA"/>
<path d="M58.517 2.01875V5.71176H18.8359V2.01875C18.8356 1.75395 18.8817 1.49168 18.9713 1.24691C19.061 1.00214 19.1926 0.779675 19.3587 0.59221C19.5247 0.404745 19.7219 0.255954 19.939 0.15434C20.1561 0.0527271 20.3888 0.000287974 20.6239 0H56.7248C57.1994 -1.52843e-06 57.6546 0.212024 57.9906 0.589571C58.3266 0.967118 58.5159 1.47935 58.517 2.01393V2.01875Z" fill="#82A3E7"/>
<path d="M22.2536 3.43411C22.4789 3.43411 22.6616 3.22839 22.6616 2.97462C22.6616 2.72086 22.4789 2.51514 22.2536 2.51514C22.0283 2.51514 21.8457 2.72086 21.8457 2.97462C21.8457 3.22839 22.0283 3.43411 22.2536 3.43411Z" fill="#2C4F8C"/>
<path d="M23.7458 3.43411C23.9711 3.43411 24.1538 3.22839 24.1538 2.97462C24.1538 2.72086 23.9711 2.51514 23.7458 2.51514C23.5205 2.51514 23.3379 2.72086 23.3379 2.97462C23.3379 3.22839 23.5205 3.43411 23.7458 3.43411Z" fill="#2C4F8C"/>
<path d="M25.1501 3.43411C25.3754 3.43411 25.558 3.22839 25.558 2.97462C25.558 2.72086 25.3754 2.51514 25.1501 2.51514C24.9248 2.51514 24.7422 2.72086 24.7422 2.97462C24.7422 3.22839 24.9248 3.43411 25.1501 3.43411Z" fill="#2C4F8C"/>
<path d="M56.2292 18.3894V34.8028C56.2309 35.2314 56.0815 35.6433 55.8137 35.9478C55.5459 36.2523 55.1817 36.4245 54.8012 36.4266H40.2267C40.0374 36.4266 39.85 36.3846 39.6751 36.303C39.5002 36.2214 39.3413 36.1018 39.2074 35.951C39.0735 35.8002 38.9673 35.6212 38.8949 35.4242C38.8225 35.2272 38.7852 35.0161 38.7852 34.8028V18.3894C38.7852 18.1762 38.8225 17.965 38.8949 17.768C38.9673 17.571 39.0735 17.392 39.2074 17.2412C39.3413 17.0905 39.5002 16.9709 39.6751 16.8893C39.85 16.8076 40.0374 16.7656 40.2267 16.7656H54.7876C55.1679 16.7634 55.5334 16.9314 55.8037 17.2327C56.0741 17.534 56.2271 17.944 56.2292 18.3723V18.3894Z" fill="#D4E2FF"/>
<path d="M39.6953 25.9715H39.6738V25.6205C40.01 25.6253 40.3448 25.5713 40.6662 25.4603C41.3574 25.1974 41.9528 24.6859 42.3606 24.0046C42.6364 23.4968 43.0691 23.1216 43.5755 22.9513C44.3099 22.7889 44.8565 23.363 45.3845 23.9168C45.9124 24.4706 46.4602 25.0491 47.227 24.9547C47.657 24.8832 48.0551 24.6572 48.3619 24.3104C48.553 24.0861 48.7831 23.9086 49.0379 23.789C49.2926 23.6694 49.5665 23.6103 49.8425 23.6153C50.3042 23.644 50.7489 23.8213 51.1239 24.1261C51.2725 24.2655 51.4454 24.368 51.6315 24.4271C51.8176 24.4861 52.0127 24.5004 52.2039 24.4689C52.4991 24.3901 52.7697 24.2223 52.9867 23.9835C53.2383 23.6915 53.5789 23.5178 53.9397 23.4977H53.944C54.2212 23.5241 54.49 23.6184 54.7315 23.774C54.9729 23.9296 55.1813 24.1428 55.3419 24.3987L55.1054 24.6256C54.9734 24.4094 54.8015 24.2278 54.6016 24.0932C54.4016 23.9585 54.1783 23.874 53.9467 23.8453H53.9436C53.6545 23.8663 53.3836 24.0116 53.187 24.2512C52.9302 24.5276 52.6118 24.7206 52.2655 24.8094C52.0368 24.849 51.8032 24.835 51.5795 24.7682C51.3558 24.7015 51.1467 24.5834 50.9654 24.4215C50.6365 24.1499 50.2452 23.9907 49.8382 23.9629C49.5993 23.96 49.3625 24.0131 49.1428 24.1189C48.9231 24.2246 48.7254 24.3808 48.5622 24.5773C48.2094 24.9697 47.7532 25.2228 47.262 25.2988C46.8626 25.2949 46.4689 25.1917 46.109 24.9965C45.7491 24.8013 45.432 24.5189 45.1803 24.1696C44.6668 23.6307 44.2222 23.1677 43.6425 23.2919C43.2061 23.388 42.9435 23.7562 42.61 24.2222C42.2948 24.767 41.8624 25.213 41.3531 25.5189C40.8438 25.8249 40.274 25.9807 39.6968 25.972L39.6953 25.9715Z" fill="#1E80F3"/>
<path d="M41.7306 25.6407C41.6198 25.6408 41.5115 25.604 41.4194 25.5349C41.3272 25.4657 41.2553 25.3673 41.2128 25.2521C41.1703 25.1369 41.1591 25.0101 41.1806 24.8877C41.202 24.7653 41.2553 24.6529 41.3335 24.5646C41.4117 24.4763 41.5115 24.4161 41.6201 24.3916C41.7287 24.3672 41.8413 24.3796 41.9436 24.4272C42.046 24.4748 42.1335 24.5556 42.1951 24.6592C42.2567 24.7629 42.2896 24.8848 42.2897 25.0096C42.2895 25.1767 42.2306 25.3368 42.1258 25.4551C42.021 25.5734 41.8789 25.6401 41.7306 25.6407ZM41.7306 24.7296C41.6645 24.7296 41.6011 24.7592 41.5544 24.8118C41.5077 24.8644 41.4814 24.9358 41.4814 25.0103C41.4814 25.0847 41.5077 25.1561 41.5544 25.2087C41.6011 25.2613 41.6645 25.2909 41.7306 25.2909C41.7967 25.2909 41.86 25.2613 41.9068 25.2087C41.9535 25.1561 41.9797 25.0847 41.9797 25.0103C41.9797 24.9358 41.9535 24.8644 41.9068 24.8118C41.86 24.7592 41.7967 24.7296 41.7306 24.7296Z" fill="white"/>
<path d="M47.1907 25.797C47.0801 25.7971 46.9719 25.7602 46.8798 25.6911C46.7878 25.6219 46.716 25.5235 46.6736 25.4084C46.6312 25.2933 46.62 25.1666 46.6415 25.0443C46.663 24.9221 46.7163 24.8097 46.7944 24.7215C46.8726 24.6333 46.9723 24.5732 47.0808 24.5488C47.1893 24.5244 47.3018 24.5368 47.4041 24.5844C47.5064 24.632 47.5938 24.7128 47.6553 24.8163C47.7169 24.9199 47.7498 25.0417 47.7498 25.1664C47.7497 25.3335 47.6908 25.4937 47.586 25.6119C47.4812 25.7301 47.3391 25.7967 47.1907 25.797ZM47.1907 24.8868C47.1248 24.8868 47.0615 24.9164 47.0148 24.9689C46.9682 25.0215 46.942 25.0927 46.942 25.167C46.942 25.2414 46.9682 25.3126 47.0148 25.3652C47.0615 25.4177 47.1248 25.4473 47.1907 25.4473C47.2567 25.4473 47.3199 25.4178 47.3665 25.3653C47.4131 25.3127 47.4393 25.2415 47.4393 25.1673C47.4394 25.1304 47.4331 25.0939 47.4206 25.0599C47.4082 25.0258 47.3899 24.9948 47.3668 24.9687C47.3437 24.9426 47.3163 24.9219 47.2861 24.9078C47.2558 24.8937 47.2235 24.8864 47.1907 24.8864V24.8868Z" fill="white"/>
<path d="M52.9618 24.5725C52.9064 24.5725 52.8522 24.554 52.8061 24.5193C52.7601 24.4846 52.7242 24.4353 52.703 24.3777C52.6818 24.32 52.6762 24.2566 52.687 24.1954C52.6978 24.1342 52.7245 24.078 52.7637 24.0338C52.8029 23.9897 52.8528 23.9596 52.9071 23.9475C52.9615 23.9353 53.0178 23.9415 53.069 23.9654C53.1202 23.9893 53.1639 24.0297 53.1947 24.0816C53.2255 24.1335 53.2419 24.1945 53.2419 24.2569C53.2419 24.3406 53.2124 24.4209 53.1598 24.4801C53.1073 24.5392 53.0361 24.5725 52.9618 24.5725ZM52.9618 24.1167C52.9451 24.1167 52.9285 24.1204 52.913 24.1275C52.8976 24.1347 52.8835 24.1453 52.8717 24.1586C52.8599 24.1719 52.8505 24.1877 52.8442 24.2051C52.8378 24.2225 52.8345 24.2412 52.8346 24.26C52.8346 24.298 52.848 24.3344 52.8718 24.3613C52.8957 24.3882 52.928 24.4033 52.9618 24.4033C52.9955 24.4032 53.0278 24.388 53.0516 24.3612C53.0754 24.3343 53.0889 24.298 53.089 24.26C53.089 24.222 53.0756 24.1856 53.0517 24.1587C53.0279 24.1318 52.9955 24.1167 52.9618 24.1167Z" fill="white"/>
<path d="M56.2292 31.459V34.8035C56.2309 35.2321 56.0815 35.644 55.8137 35.9485C55.5459 36.253 55.1817 36.4252 54.8012 36.4273H40.2267C40.0374 36.4273 39.85 36.3853 39.6751 36.3037C39.5002 36.2221 39.3413 36.1025 39.2074 35.9517C39.0735 35.8009 38.9673 35.6219 38.8949 35.4249C38.8225 35.2279 38.7852 35.0168 38.7852 34.8035V31.459H56.2292Z" fill="#1E80F3"/>
<path d="M42.9757 35.172C43.5782 35.172 44.0666 34.6218 44.0666 33.9432C44.0666 33.2645 43.5782 32.7144 42.9757 32.7144C42.3732 32.7144 41.8848 33.2645 41.8848 33.9432C41.8848 34.6218 42.3732 35.172 42.9757 35.172Z" fill="white"/>
<path opacity="0.56" d="M53.6196 33.1411H44.875V33.592H53.6196V33.1411Z" fill="white"/>
<path opacity="0.56" d="M50.2658 34.0674H44.875V34.5182H50.2658V34.0674Z" fill="white"/>
<path d="M25.7628 25.3398H13.5907C13.2763 25.3398 13.0215 25.6269 13.0215 25.981V27.2138C13.0215 27.5679 13.2763 27.855 13.5907 27.855H25.7628C26.0772 27.855 26.332 27.5679 26.332 27.2138V25.981C26.332 25.6269 26.0772 25.3398 25.7628 25.3398Z" fill="#6087CC"/>
<path d="M35.1413 13.605H22.6731C22.4405 13.605 22.252 13.8174 22.252 14.0794V23.4947C22.252 23.7567 22.4405 23.9691 22.6731 23.9691H35.1413C35.3739 23.9691 35.5625 23.7567 35.5625 23.4947V14.0794C35.5625 13.8174 35.3739 13.605 35.1413 13.605Z" fill="#D4E2FF"/>
<path d="M23.2869 25.9878H24.8181C24.9615 25.9878 25.0991 26.052 25.2005 26.1662C25.3019 26.2804 25.3589 26.4354 25.3589 26.5969C25.3589 26.7585 25.3019 26.9134 25.2005 27.0277C25.0991 27.1419 24.9615 27.2061 24.8181 27.2061H23.2869C23.1435 27.2061 23.0059 27.1419 22.9045 27.0277C22.8031 26.9134 22.7461 26.7585 22.7461 26.5969C22.7461 26.4354 22.8031 26.2804 22.9045 26.1662C23.0059 26.052 23.1435 25.9878 23.2869 25.9878Z" fill="#3058A0"/>
<path d="M23.2636 26.9534C23.4384 26.9534 23.58 26.7939 23.58 26.5971C23.58 26.4003 23.4384 26.2407 23.2636 26.2407C23.0889 26.2407 22.9473 26.4003 22.9473 26.5971C22.9473 26.7939 23.0889 26.9534 23.2636 26.9534Z" fill="#D4E2FF"/>
<path d="M23.593 15.105H34.1224C34.2453 15.1051 34.3632 15.1602 34.4501 15.2581C34.5371 15.356 34.5859 15.4888 34.586 15.6272C34.5859 15.7657 34.5371 15.8985 34.4501 15.9964C34.3632 16.0943 34.2453 16.1494 34.1224 16.1495H23.593C23.532 16.1495 23.4717 16.1361 23.4154 16.1098C23.3591 16.0836 23.308 16.0452 23.2649 15.9967C23.2218 15.9482 23.1876 15.8906 23.1642 15.8272C23.1409 15.7638 23.1289 15.6958 23.1289 15.6272C23.1289 15.5586 23.1409 15.4907 23.1642 15.4273C23.1876 15.3639 23.2218 15.3063 23.2649 15.2578C23.308 15.2093 23.3591 15.1708 23.4154 15.1446C23.4717 15.1184 23.532 15.1049 23.593 15.105Z" fill="white"/>
<path d="M23.593 16.7671H34.1224C34.2453 16.7672 34.3632 16.8223 34.4501 16.9202C34.5371 17.0181 34.5859 17.1509 34.586 17.2893C34.586 17.4279 34.5372 17.5608 34.4503 17.6588C34.3633 17.7568 34.2454 17.8119 34.1224 17.812H23.593C23.532 17.8121 23.4716 17.7986 23.4153 17.7723C23.359 17.7461 23.3078 17.7076 23.2647 17.659C23.2216 17.6105 23.1874 17.5529 23.1641 17.4894C23.1408 17.426 23.1289 17.358 23.1289 17.2893C23.1289 17.2207 23.1409 17.1528 23.1642 17.0894C23.1876 17.026 23.2218 16.9684 23.2649 16.9199C23.308 16.8714 23.3591 16.8329 23.4154 16.8067C23.4717 16.7805 23.532 16.767 23.593 16.7671Z" fill="white"/>
<path d="M23.593 18.5708H34.1224C34.2453 18.5709 34.3632 18.626 34.4501 18.7239C34.5371 18.8218 34.5859 18.9546 34.586 19.093C34.586 19.2316 34.5372 19.3645 34.4503 19.4625C34.3633 19.5605 34.2454 19.6156 34.1224 19.6157H23.593C23.532 19.6158 23.4716 19.6023 23.4153 19.576C23.359 19.5498 23.3078 19.5113 23.2647 19.4628C23.2216 19.4142 23.1874 19.3566 23.1641 19.2931C23.1408 19.2297 23.1289 19.1617 23.1289 19.093C23.1289 19.0244 23.1409 18.9565 23.1642 18.8931C23.1876 18.8297 23.2218 18.7721 23.2649 18.7236C23.308 18.6751 23.3591 18.6366 23.4154 18.6104C23.4717 18.5842 23.532 18.5707 23.593 18.5708Z" fill="white"/>
<path d="M23.593 20.231H34.1224C34.2454 20.2311 34.3633 20.2862 34.4503 20.3842C34.5372 20.4822 34.586 20.6151 34.586 20.7536C34.5859 20.8921 34.5371 21.0249 34.4501 21.1228C34.3632 21.2207 34.2453 21.2758 34.1224 21.2759H23.593C23.532 21.2759 23.4717 21.2625 23.4154 21.2363C23.3591 21.21 23.308 21.1716 23.2649 21.1231C23.2218 21.0746 23.1876 21.017 23.1642 20.9536C23.1409 20.8902 23.1289 20.8223 23.1289 20.7536C23.1289 20.685 23.1408 20.617 23.1641 20.5536C23.1874 20.4901 23.2216 20.4325 23.2647 20.3839C23.3078 20.3354 23.359 20.2969 23.4153 20.2706C23.4716 20.2444 23.532 20.2309 23.593 20.231Z" fill="white"/>
<path d="M16.1834 26.7532L15.9399 26.9287C16.0377 27.0231 16.132 27.1091 16.2298 27.2035C16.2298 27.537 16.2298 27.8618 16.2298 28.1953L15.2168 33.0456C15.1642 33.2997 15.1174 33.5283 15.0648 33.7833C15.0516 33.8522 15.0418 33.9277 15.0216 34.0027C14.9532 34.3264 14.7798 34.6094 14.5354 34.7963C14.291 34.9831 13.9934 35.0601 13.7011 35.0121C12.032 34.7286 10.359 34.4372 8.69727 34.1489L8.98013 31.9875C10.4135 32.228 11.8501 32.4755 13.28 32.7283C13.818 31.1357 14.3596 29.5505 14.8977 27.9579C14.8361 27.67 14.7882 27.3737 14.7266 27.0863C15.2159 26.8063 15.6848 26.4834 16.1292 26.1208C16.1443 26.1134 16.1577 26.1021 16.1682 26.0879C16.1764 26.3117 16.1803 26.5329 16.1834 26.7532Z" fill="#EA9387"/>
<path d="M14.7091 28.5278L14.0491 31.6604C13.9965 31.9145 13.9501 32.1432 13.8972 32.3981C13.8839 32.4662 13.8742 32.5425 13.8539 32.6176C13.7854 32.9411 13.6119 33.2241 13.3676 33.4108C13.1232 33.5976 12.8257 33.6747 12.5335 33.6269C11.3109 33.415 10.0883 33.2026 8.87109 32.9981L9.01409 31.8917C10.4467 32.1313 11.884 32.3797 13.3139 32.6325C13.7721 31.2562 14.2459 29.894 14.7091 28.5278Z" fill="#EDA197"/>
<path d="M2.48633 41.3123H10.2873V33.2991C10.2874 33.0501 10.2439 32.8034 10.1594 32.5733C10.0748 32.3432 9.95088 32.1341 9.79458 31.958C9.63827 31.7818 9.45267 31.6421 9.24841 31.5467C9.04415 31.4514 8.82523 31.4023 8.60413 31.4023H4.40403C4.15214 31.4024 3.90274 31.4583 3.67005 31.567C3.43735 31.6756 3.22593 31.8348 3.04786 32.0355C2.86978 32.2361 2.72854 32.4743 2.6322 32.7365C2.53585 32.9986 2.48628 33.2796 2.48633 33.5633V41.3123Z" fill="#FDC257"/>
<path d="M7.56557 28.6669C7.4498 28.8011 7.29788 28.8884 7.13348 28.9153C7.12024 29.2304 7.01476 29.5316 6.83346 29.772C6.65217 30.0125 6.40527 30.1785 6.13137 30.2442C5.89126 30.2777 5.64764 30.2343 5.42847 30.1188C5.20929 30.0034 5.02347 29.8206 4.89238 29.5916C4.76442 29.3605 4.6891 29.0975 4.67313 28.8258C4.65716 28.554 4.70103 28.2821 4.80083 28.0341C4.7414 27.8665 4.71565 27.6861 4.72542 27.506C4.73519 27.3259 4.78024 27.1504 4.85733 26.9922C5.24383 26.3089 6.43684 26.3839 7.11711 26.9136C7.27196 27.0212 7.40584 27.163 7.5107 27.3304C7.61557 27.4979 7.68923 27.6875 7.72725 27.8879C7.75337 28.0231 7.75241 28.1632 7.72444 28.298C7.69647 28.4327 7.64221 28.5587 7.56557 28.6669Z" fill="#060C21"/>
<path d="M5.20312 31.4062C5.21287 31.4312 5.22729 31.4672 5.24755 31.5094C5.31358 31.6478 5.40045 31.7722 5.5043 31.8771C5.60324 31.977 5.721 32.0502 5.84872 32.0913L6.32328 32.0882C6.38155 32.0702 6.43818 32.0459 6.49238 32.0158C6.60019 31.9561 6.69687 31.8737 6.7772 31.7731C6.83605 31.6992 6.88739 31.6181 6.9303 31.5313C6.95368 31.4848 6.96926 31.4435 6.9829 31.4146C6.91939 31.3944 6.85005 31.3751 6.77446 31.3575L6.77056 30.5952V30.8787C6.56427 31.0014 6.3279 31.0443 6.09784 31.0008C5.86778 30.9574 5.65677 30.83 5.49729 30.6382L5.50119 31.3303C5.3921 31.3531 5.29391 31.3764 5.20312 31.4062Z" fill="#EA9387"/>
<path d="M5.49609 30.1999V30.4018V30.5984V30.6393C5.65558 30.831 5.86658 30.9584 6.09664 31.0019C6.32671 31.0453 6.56308 31.0024 6.76937 30.8797V30.5962V30.1934L5.49609 30.1999Z" fill="#EA9387"/>
<path d="M5.49609 30.4027C5.49609 30.4676 5.49609 30.5343 5.49609 30.5988V30.6388C5.65558 30.8305 5.86658 30.9579 6.09664 31.0014C6.32671 31.0448 6.56308 31.0019 6.76937 30.8793V30.5958C6.76937 30.5277 6.76937 30.4606 6.76937 30.3926L5.49726 30.4014L5.49609 30.4027Z" fill="#DD847A"/>
<path d="M5.04312 28.8043L5.04702 29.6267C5.04808 29.8635 5.11182 30.0945 5.23013 30.2903C5.30246 30.4097 5.3931 30.5138 5.4978 30.5975C5.68319 30.7471 5.90598 30.8265 6.13404 30.8243H6.14222C6.217 30.8237 6.29156 30.8146 6.36471 30.7971C6.51064 30.7623 6.6485 30.6935 6.76953 30.5953C6.85236 30.5289 6.92624 30.4493 6.98888 30.3592C7.00291 30.3407 7.01536 30.3197 7.02783 30.2999C7.15192 30.0985 7.21766 29.8587 7.21603 29.6135L7.21173 28.7797C7.2102 28.6206 7.18088 28.4635 7.12543 28.3172C7.06997 28.1709 6.98947 28.0383 6.88853 27.927C6.78758 27.8158 6.66818 27.728 6.53712 27.6687C6.40606 27.6095 6.26592 27.5799 6.1247 27.5816C5.83614 27.5823 5.55964 27.7121 5.35597 27.9424C5.23739 28.0752 5.14811 28.2376 5.09532 28.4163C5.05878 28.5414 5.04115 28.6726 5.04312 28.8043Z" fill="#EA9387"/>
<path d="M6.80078 29.0157C6.80063 29.0364 6.80601 29.0567 6.81624 29.074C6.82647 29.0913 6.84108 29.1049 6.85822 29.1129C6.87536 29.1209 6.89425 29.123 6.91249 29.119C6.93073 29.115 6.9475 29.1051 6.96064 29.0904C6.97378 29.0758 6.9827 29.0571 6.98629 29.0367C6.98987 29.0164 6.98797 28.9953 6.98078 28.9762C6.9736 28.9571 6.96146 28.9408 6.94595 28.9294C6.93043 28.9179 6.91224 28.9119 6.89365 28.9121C6.86906 28.9122 6.84549 28.9232 6.8281 28.9426C6.81071 28.962 6.80089 28.9883 6.80078 29.0157Z" fill="#280C1A"/>
<path d="M5.99024 29.0249C5.99024 29.0456 5.99575 29.0658 6.00608 29.083C6.0164 29.1002 6.03107 29.1136 6.04823 29.1214C6.06538 29.1293 6.08424 29.1313 6.10242 29.1272C6.12061 29.1231 6.13729 29.1131 6.15036 29.0984C6.16342 29.0837 6.17229 29.065 6.17581 29.0447C6.17934 29.0244 6.17735 29.0034 6.17015 28.9843C6.16294 28.9652 6.15083 28.949 6.13533 28.9376C6.11983 28.9262 6.10164 28.9202 6.08309 28.9204C6.07081 28.9204 6.05866 28.923 6.04732 28.9283C6.03598 28.9335 6.02567 28.9412 6.01703 28.9509C6.00839 28.9607 6.00158 28.9722 5.99698 28.9849C5.99238 28.9976 5.99009 29.0112 5.99024 29.0249Z" fill="#280C1A"/>
<path d="M5.84961 32.0914C5.86287 32.0956 5.87693 32.0997 5.89097 32.1031C6.03449 32.1364 6.18346 32.1315 6.32481 32.0889L5.84961 32.0914Z" fill="#EA9387"/>
<path d="M5.04303 28.8047L5.04693 29.6272C5.04799 29.8639 5.11174 30.095 5.23004 30.2907C5.30237 30.4102 5.39301 30.5142 5.49771 30.5979C5.53231 30.6257 5.56821 30.6513 5.60525 30.6747C5.50385 30.4882 5.44996 30.2738 5.44941 30.055L5.44551 29.2335C5.44419 29.1017 5.46249 28.9706 5.49966 28.8456C5.55271 28.6669 5.64195 28.5046 5.76032 28.3716C5.92741 28.1837 6.14389 28.0617 6.37754 28.0237C6.61118 27.9856 6.8495 28.0336 7.05697 28.1605C6.97017 28.0033 6.85293 27.8701 6.71403 27.7711C6.57514 27.6721 6.41817 27.6097 6.25486 27.5886C6.09154 27.5675 5.92612 27.5882 5.77092 27.6493C5.61573 27.7103 5.47478 27.81 5.35862 27.9411C5.24004 28.0739 5.15076 28.2363 5.09796 28.415C5.06033 28.5405 5.04176 28.6723 5.04303 28.8047Z" fill="#EDA197"/>
<path d="M7.07566 28.7671C7.00645 28.7023 6.92141 28.662 6.83144 28.6514C6.79855 28.6547 6.76659 28.6653 6.7375 28.6827C6.70841 28.7 6.68276 28.7237 6.66211 28.7523L7.07566 28.7671Z" fill="#280C1A"/>
<path d="M6.32254 28.7671C6.25324 28.7025 6.16822 28.6622 6.0783 28.6514C6.04529 28.6546 6.01323 28.6653 5.984 28.6826C5.95477 28.7 5.92899 28.7237 5.9082 28.7523L6.32254 28.7671Z" fill="#280C1A"/>
<path opacity="0.53" d="M6.4442 30.2304C6.51706 30.2429 6.59157 30.2281 6.65608 30.1882C6.7206 30.1484 6.77146 30.0858 6.80069 30.0102C6.59665 29.9211 6.37005 29.9211 6.16602 30.0102C6.18689 30.0741 6.22467 30.1294 6.27436 30.1687C6.32405 30.208 6.3833 30.2296 6.4442 30.2304Z" fill="white"/>
<path opacity="0.33" d="M6.4716 29.6875H6.52231C6.54451 29.6875 6.5625 29.6674 6.5625 29.6426V29.4121C6.5625 29.3873 6.54451 29.3672 6.52231 29.3672H6.4716C6.4494 29.3672 6.43141 29.3873 6.43141 29.4121V29.6426C6.43141 29.6674 6.4494 29.6875 6.4716 29.6875Z" fill="white"/>
<path d="M5.04158 29.2594C5.13897 29.2594 5.21793 29.1706 5.21793 29.0611C5.21793 28.9516 5.13897 28.8628 5.04158 28.8628C4.94419 28.8628 4.86523 28.9516 4.86523 29.0611C4.86523 29.1706 4.94419 29.2594 5.04158 29.2594Z" fill="#EDA197"/>
<path d="M7.21736 29.2072C7.31476 29.2072 7.39371 29.1184 7.39371 29.0089C7.39371 28.8993 7.31476 28.8105 7.21736 28.8105C7.11997 28.8105 7.04102 28.8993 7.04102 29.0089C7.04102 29.1184 7.11997 29.2072 7.21736 29.2072Z" fill="#EA9387"/>
<path d="M7.0565 28.1621C6.88982 27.9431 6.66495 27.7905 6.41519 27.7267C6.30844 27.7017 5.93168 27.6122 5.76882 27.8229C5.66128 27.9615 5.70725 28.1595 5.58842 28.2121C5.50504 28.2494 5.4462 28.1726 5.36165 28.1862C5.25957 28.202 5.14036 28.3482 5.04335 28.8647C4.98197 28.8062 4.93535 28.7305 4.90816 28.6453C4.86101 28.4934 4.9023 28.3684 5.00088 28.0357C5.04214 27.8364 5.10264 27.6427 5.18128 27.4582C5.31442 27.2699 5.49836 27.1356 5.7053 27.0755C5.82488 27.0403 5.94848 27.0255 6.07195 27.0316C6.5352 27.0316 6.86246 27.0316 7.03467 27.2699C7.25831 27.5771 7.08144 28.0928 7.0565 28.1621Z" fill="#060C21"/>
<path d="M7.92392 31.4019L8.80913 31.4155L12.1988 32.2752L11.545 34.9457L7.65625 34.4805L7.92392 31.4019Z" fill="#FDC257"/>
<path d="M2.79529 31.3955H4.79404V36.0408H1.125V33.276C1.12521 32.7772 1.30127 32.2989 1.61449 31.9462C1.92771 31.5936 2.35244 31.3955 2.79529 31.3955V31.3955Z" fill="#FDC257"/>
<path d="M8.71355 41.6908L8.52692 41.4437C8.45757 41.5662 8.39523 41.6833 8.32626 41.8058C8.03327 41.8545 7.7473 41.898 7.45431 41.9467L3.04851 41.4995C2.81785 41.4758 2.60941 41.4556 2.37875 41.4336C2.31641 41.4288 2.24783 41.4288 2.18121 41.4165C1.887 41.3859 1.61362 41.2324 1.41489 40.9861C1.21615 40.7398 1.10647 40.4187 1.10743 40.0859C1.12145 38.1843 1.14248 36.2783 1.16079 34.3838L3.1007 34.3952C3.09174 36.0269 3.07578 37.6647 3.05552 39.2942C4.53179 39.6699 6.00063 40.0508 7.47611 40.4265C7.72079 40.3167 7.97444 40.2224 8.2164 40.1131C8.53227 40.6193 8.88282 41.097 9.26485 41.5416C9.27326 41.5575 9.28505 41.5707 9.29914 41.5802C9.10044 41.6197 8.90719 41.6557 8.71355 41.6908Z" fill="#EA9387"/>
<path d="M1.14216 34.1091C1.13826 35.1191 1.1345 36.1285 1.13086 37.1372C1.78022 37.1832 2.42855 37.2294 3.07584 37.2759C3.1496 36.0228 3.22349 34.7699 3.29752 33.5171L1.14216 34.1091Z" fill="#FDC257"/>
<path d="M17.1856 41.8136L9.64648 41.8031L10.912 35.4971L18.4511 35.5076L17.1856 41.8136Z" fill="#1E80F3"/>
<path d="M17.1869 41.6489H4.25781V42.0481H17.1869V41.6489Z" fill="#1E80F3"/>
<path d="M14.2982 39.4502C14.6937 39.4502 15.0143 39.089 15.0143 38.6435C15.0143 38.1981 14.6937 37.8369 14.2982 37.8369C13.9026 37.8369 13.582 38.1981 13.582 38.6435C13.582 39.089 13.9026 39.4502 14.2982 39.4502Z" fill="white"/>
<path d="M53.858 34.9309L54.1171 34.9551C54.0738 35.0766 54.0306 35.1908 53.9873 35.3123C54.1101 35.58 54.2328 35.839 54.3551 36.1075L56.971 39.517L57.3669 40.0367C57.4031 40.0854 57.4394 40.142 57.4838 40.1907C57.6588 40.4181 57.9032 40.5634 58.1686 40.598C58.4341 40.6326 58.7014 40.554 58.918 40.3776C60.1499 39.3626 61.3827 38.34 62.6076 37.3258L61.5771 35.7262C60.5179 36.5951 59.461 37.4692 58.4064 38.3484C57.3829 37.3254 56.3597 36.3107 55.3362 35.2882C55.2785 35.0284 55.2065 34.7686 55.1488 34.5088C54.6521 34.5147 54.1558 34.4767 53.6644 34.3951C53.6496 34.3964 53.6347 34.3937 53.6211 34.3872C53.699 34.5742 53.7785 34.7523 53.858 34.9309Z" fill="#EA9387"/>
<path d="M55.7031 35.6567L57.3964 37.855C57.5332 38.0332 57.6555 38.1956 57.793 38.3737C57.8285 38.4224 57.8647 38.4795 57.9099 38.5282C58.0851 38.7554 58.3294 38.9006 58.5948 38.9352C58.8602 38.9698 59.1275 38.8913 59.3441 38.7152C60.2452 37.9679 61.146 37.2238 62.0465 36.4827L61.5205 35.6624C60.4613 36.5314 59.4044 37.4055 58.3498 38.2846C57.4685 37.4017 56.5817 36.5336 55.7031 35.6567Z" fill="#EDA197"/>
<path d="M61.6402 34.7495H66.6966C66.9787 34.7495 67.2493 34.8757 67.4488 35.1004C67.6482 35.3251 67.7603 35.6298 67.7603 35.9476V43.711H60.7051V35.8028C60.7051 35.5234 60.8036 35.2555 60.979 35.058C61.1543 34.8605 61.3922 34.7495 61.6402 34.7495V34.7495Z" fill="#1E80F3"/>
<path d="M62.6283 32.2784C62.7326 32.3996 62.8696 32.4786 63.0179 32.5031C63.0299 32.7882 63.1254 33.0608 63.2894 33.2783C63.4534 33.4959 63.6767 33.6461 63.9245 33.7056C64.1417 33.7355 64.3619 33.696 64.5601 33.5914C64.7582 33.4869 64.9261 33.3216 65.0447 33.1145C65.1605 32.9057 65.2287 32.6679 65.2431 32.4222C65.2575 32.1766 65.2177 31.9307 65.1273 31.7066C65.1812 31.555 65.2046 31.3919 65.1958 31.2289C65.1871 31.0659 65.1464 30.9071 65.0766 30.7639C64.726 30.1456 63.6475 30.214 63.0311 30.6924C62.8911 30.7898 62.7701 30.9182 62.6753 31.0697C62.5805 31.2212 62.5139 31.3928 62.4795 31.5741C62.4562 31.6965 62.4574 31.8233 62.4832 31.9452C62.5089 32.067 62.5585 32.1809 62.6283 32.2784Z" fill="#060C21"/>
<path d="M64.7697 34.7572C64.7582 34.789 64.7452 34.82 64.7307 34.8502C64.6705 34.9755 64.5914 35.088 64.4969 35.1828C64.4073 35.273 64.3007 35.3393 64.1852 35.3768L63.7567 35.3733C63.7039 35.3572 63.6526 35.3355 63.6035 35.3084C63.5061 35.2545 63.4188 35.18 63.3464 35.0889C63.293 35.0221 63.2467 34.9485 63.2085 34.8695C63.1906 34.8355 63.1744 34.8003 63.1602 34.7642C63.2174 34.7462 63.2802 34.7286 63.3487 34.7119L63.3519 34.0229V34.2792C63.5385 34.3901 63.7524 34.4287 63.9605 34.389C64.1686 34.3494 64.3593 34.2337 64.5032 34.0598L64.5001 34.6861C64.5967 34.7089 64.6878 34.7321 64.7697 34.7572Z" fill="#EA9387"/>
<path d="M64.5048 33.6661V33.8486V34.0268V34.0632C64.3609 34.2371 64.1702 34.3528 63.9622 34.3924C63.7541 34.4321 63.5402 34.3935 63.3535 34.2827V34.0264V33.6621L64.5048 33.6661Z" fill="#EA9387"/>
<path d="M64.5048 33.8487C64.5048 33.9078 64.5048 33.9665 64.5048 34.0239V34.0598C64.3609 34.2334 64.1702 34.3489 63.9622 34.3885C63.7541 34.4281 63.5402 34.3896 63.3535 34.2789V34.023C63.3535 33.9617 63.3535 33.9008 63.3535 33.8403L64.5037 33.8473L64.5048 33.8487Z" fill="#DD847A"/>
<path d="M64.9141 32.4039L64.911 33.1473C64.9097 33.3614 64.8519 33.5702 64.745 33.7472C64.6796 33.8553 64.5977 33.9495 64.5031 34.0255C64.3931 34.1144 64.2678 34.1763 64.1352 34.2072C64.0669 34.2231 63.9973 34.231 63.9276 34.2309H63.9206C63.8529 34.2302 63.7854 34.2219 63.7191 34.2058C63.5872 34.1744 63.4626 34.1122 63.3533 34.0233C63.2784 33.9634 63.2116 33.8915 63.155 33.81C63.1425 33.7929 63.1308 33.774 63.1195 33.7565C63.0072 33.5741 62.9477 33.357 62.9492 33.135L62.9535 32.3828C62.9565 32.0923 63.0617 31.815 63.246 31.6117C63.4303 31.4084 63.6786 31.2957 63.9365 31.2984C64.1978 31.2994 64.448 31.417 64.6324 31.6253C64.7389 31.7458 64.8189 31.8926 64.8662 32.0541C64.8993 32.1669 64.9155 32.2851 64.9141 32.4039Z" fill="#EA9387"/>
<path d="M63.3256 32.5983C63.3256 32.6171 63.3206 32.6354 63.3113 32.6509C63.3019 32.6665 63.2886 32.6786 63.2731 32.6857C63.2576 32.6928 63.2405 32.6946 63.2241 32.6909C63.2077 32.6872 63.1926 32.6781 63.1808 32.6648C63.169 32.6515 63.161 32.6346 63.1578 32.6162C63.1546 32.5979 63.1564 32.5788 63.1629 32.5616C63.1695 32.5444 63.1804 32.5297 63.1945 32.5194C63.2085 32.5091 63.2249 32.5037 63.2417 32.5039C63.2528 32.504 63.2637 32.5065 63.2739 32.5112C63.2841 32.516 63.2934 32.523 63.3012 32.5317C63.309 32.5405 63.3151 32.5509 63.3193 32.5623C63.3235 32.5738 63.3256 32.586 63.3256 32.5983Z" fill="#280C1A"/>
<path d="M64.0582 32.6032C64.0577 32.6281 64.0485 32.6518 64.0325 32.6692C64.0165 32.6866 63.9951 32.6964 63.9728 32.6964C63.9505 32.6964 63.9291 32.6865 63.9133 32.6689C63.8976 32.6513 63.8887 32.6275 63.8887 32.6026C63.8887 32.5777 63.8976 32.5539 63.9133 32.5363C63.9291 32.5187 63.9505 32.5088 63.9728 32.5088C63.995 32.5091 64.0163 32.5192 64.032 32.5369C64.0477 32.5545 64.0565 32.5784 64.0566 32.6032H64.0582Z" fill="#280C1A"/>
<path d="M64.1854 35.3768L64.1464 35.3869C64.0165 35.417 63.8817 35.4123 63.7539 35.373L64.1854 35.3768Z" fill="#EA9387"/>
<path d="M64.914 32.4047L64.9109 33.1481C64.9096 33.3622 64.8518 33.571 64.7449 33.748C64.6795 33.8561 64.5976 33.9503 64.503 34.0263C64.4718 34.0513 64.4387 34.0741 64.4056 34.0956C64.4977 33.9267 64.5469 33.7325 64.5478 33.5343L64.5517 32.7913C64.5526 32.672 64.5359 32.5533 64.5022 32.4402C64.4552 32.2787 64.3751 32.1318 64.2684 32.0114C64.1173 31.8415 63.9215 31.7312 63.7102 31.6968C63.4989 31.6624 63.2833 31.7058 63.0957 31.8205C63.1944 31.6416 63.3363 31.4981 63.5047 31.4066C63.6732 31.3151 63.8612 31.2795 64.047 31.3039C64.2327 31.3282 64.4085 31.4116 64.5538 31.5443C64.699 31.677 64.8077 31.8535 64.8673 32.0531C64.9002 32.1665 64.916 32.2854 64.914 32.4047Z" fill="#EDA197"/>
<path d="M63.0723 32.3711C63.1347 32.3113 63.2117 32.2741 63.2931 32.2642C63.3229 32.2671 63.3519 32.277 63.3783 32.293C63.4046 32.3091 63.4278 32.331 63.4464 32.3575L63.0723 32.3711Z" fill="#280C1A"/>
<path d="M63.7559 32.3711C63.8183 32.3113 63.8952 32.2741 63.9767 32.2642C64.0065 32.2672 64.0355 32.277 64.0619 32.293C64.0882 32.3091 64.1114 32.331 64.13 32.3575L63.7559 32.3711Z" fill="#280C1A"/>
<path opacity="0.53" d="M63.6453 33.6939C63.5793 33.7054 63.5118 33.6921 63.4533 33.656C63.3948 33.62 63.3487 33.5633 63.3223 33.4948C63.4179 33.453 63.52 33.4324 63.6227 33.4342C63.7162 33.4358 63.8088 33.4563 63.8958 33.4948C63.8771 33.5524 63.8431 33.6024 63.7984 33.6379C63.7536 33.6735 63.7002 33.693 63.6453 33.6939Z" fill="white"/>
<path opacity="0.33" d="M63.6194 32.9102H63.5734C63.5534 32.9102 63.5371 32.9283 63.5371 32.9507V33.1589C63.5371 33.1813 63.5534 33.1995 63.5734 33.1995H63.6194C63.6395 33.1995 63.6557 33.1813 63.6557 33.1589V32.9507C63.6557 32.9283 63.6395 32.9102 63.6194 32.9102Z" fill="white"/>
<path d="M64.9135 32.8111C65.0016 32.8111 65.073 32.731 65.073 32.6323C65.073 32.5336 65.0016 32.4536 64.9135 32.4536C64.8253 32.4536 64.7539 32.5336 64.7539 32.6323C64.7539 32.731 64.8253 32.8111 64.9135 32.8111Z" fill="#EDA197"/>
<path d="M62.9428 32.7642C63.0309 32.7642 63.1023 32.6842 63.1023 32.5855C63.1023 32.4868 63.0309 32.4067 62.9428 32.4067C62.8546 32.4067 62.7832 32.4868 62.7832 32.5855C62.7832 32.6842 62.8546 32.7642 62.9428 32.7642Z" fill="#EA9387"/>
<path d="M63.0868 31.8201C63.2374 31.6216 63.4409 31.483 63.667 31.4252C63.7628 31.4024 64.1033 31.3216 64.2514 31.5129C64.3488 31.6389 64.3075 31.8171 64.4146 31.864C64.4902 31.8978 64.5436 31.8285 64.62 31.8403C64.7123 31.8548 64.8202 31.9865 64.9079 32.4547C64.9635 32.4022 65.0058 32.3341 65.0306 32.2572C65.0727 32.1199 65.0357 32.0067 64.9461 31.7056C64.805 31.229 64.8159 31.2334 64.7828 31.1838C64.6628 31.0132 64.4966 30.8916 64.3094 30.8375C64.2014 30.8051 64.0896 30.791 63.9779 30.7959C63.559 30.7959 63.2629 30.7958 63.1075 31.0118C62.9045 31.2922 63.0646 31.7583 63.0868 31.8201Z" fill="#060C21"/>
<path d="M61.2544 35.1479C60.4601 36.0105 59.6657 36.8735 58.8711 37.7372C59.2727 38.4429 59.6745 39.1489 60.0766 39.8552L63.3287 36.8757L61.2544 35.1479Z" fill="#1E80F3"/>
<path d="M67.3489 43.8843C67.2192 44.1603 67.0898 44.4359 66.9593 44.7181C67.232 45.221 67.5071 45.7332 67.7732 46.2361C67.8112 46.2381 67.8489 46.227 67.8811 46.2041C67.9079 46.172 67.9261 46.1322 67.9337 46.089C67.9414 46.0459 67.9381 46.0012 67.9244 45.9601C67.8959 45.7011 67.8671 45.4413 67.8465 45.1815C68.0124 44.9946 68.185 44.8081 68.351 44.6211L70.5274 40.8298C70.6443 40.6437 70.7507 40.4568 70.866 40.2615C70.8998 40.2095 70.931 40.1554 70.9595 40.0995C71.1082 39.8476 71.1664 39.5414 71.1222 39.2429C71.0781 38.9445 70.935 38.6761 70.7218 38.492C69.5114 37.4449 68.3036 36.395 67.0984 35.3423L66.0176 36.909C67.0551 37.81 68.1005 38.711 69.138 39.6124C68.5406 41.0331 67.9426 42.4539 67.3438 43.8746C67.3448 43.8748 67.3456 43.8752 67.3464 43.8758C67.3472 43.8764 67.3478 43.8772 67.3483 43.8782C67.3488 43.8791 67.3491 43.8801 67.3492 43.8811C67.3493 43.8822 67.3492 43.8833 67.3489 43.8843Z" fill="#EA9387"/>
<path d="M67.3333 43.8838C67.3189 43.9246 67.297 43.9566 67.2826 43.9975L69.2307 40.6042C69.3476 40.4172 69.4536 40.2312 69.5693 40.0359C69.603 39.9837 69.6343 39.9295 69.6628 39.8735C69.8114 39.6216 69.8694 39.3156 69.8253 39.0173C69.7812 38.7191 69.6382 38.4508 69.4251 38.2668C68.5173 37.4795 67.6017 36.6917 66.7013 35.897L66 36.9121C67.0383 37.813 68.0829 38.714 69.1212 39.6154C68.5238 41.0353 67.9255 42.4557 67.3263 43.8768C67.3263 43.8768 67.3333 43.8759 67.3333 43.8838Z" fill="#EDA197"/>
<path d="M65.6152 37.4208L68.7852 39.4733L69.9564 37.3857L67.2407 35.2664C67.1543 35.199 67.0554 35.1548 66.9514 35.1371C66.8475 35.1194 66.7414 35.1288 66.6411 35.1644C66.5409 35.2 66.4492 35.261 66.3731 35.3426C66.297 35.4243 66.2385 35.5245 66.202 35.6355L65.6152 37.4208Z" fill="#1E80F3"/>
</svg>
