<svg width="66" height="66" viewBox="0 0 66 66" fill="none" xmlns="http://www.w3.org/2000/svg">
<path d="M54.2751 0.348145H57.1106L58.0917 1.5312H64.2297C64.4291 1.53128 64.6202 1.6105 64.7611 1.75144C64.9021 1.89238 64.9813 2.08352 64.9814 2.28285L65.0918 8.78382C65.0917 8.98314 65.0125 9.17428 64.8715 9.31522C64.7306 9.45617 64.5395 9.53537 64.3401 9.53545H54.2751C54.0757 9.53537 53.8846 9.45617 53.7437 9.31522C53.6027 9.17428 53.5235 8.98314 53.5234 8.78382V1.10034C53.5234 0.900964 53.6025 0.709727 53.7434 0.568671C53.8843 0.427615 54.0754 0.348293 54.2748 0.348145H54.2751Z" fill="#1E80F3"/>
<path d="M55.2394 2.63037H63.3052C63.3863 2.63237 63.4663 2.65035 63.5405 2.68327C63.6147 2.71619 63.6817 2.7634 63.7376 2.82222C63.7936 2.88105 63.8374 2.95031 63.8666 3.02607C63.8957 3.10183 63.9097 3.18259 63.9076 3.26375V6.37872C63.9097 6.45985 63.8957 6.54058 63.8665 6.61631C63.8373 6.69204 63.7935 6.76127 63.7375 6.82006C63.6816 6.87885 63.6146 6.92604 63.5404 6.95894C63.4662 6.99184 63.3863 7.00982 63.3052 7.01182H55.2394C55.1583 7.00982 55.0783 6.99184 55.0041 6.95894C54.93 6.92604 54.863 6.87885 54.807 6.82006C54.7511 6.76127 54.7073 6.69204 54.6781 6.61631C54.6489 6.54058 54.6349 6.45985 54.6369 6.37872V3.26375C54.6349 3.18259 54.6488 3.10183 54.678 3.02607C54.7072 2.95031 54.751 2.88105 54.8069 2.82222C54.8629 2.7634 54.9299 2.71619 55.0041 2.68327C55.0783 2.65035 55.1582 2.63237 55.2394 2.63037Z" fill="#D4E2FF"/>
<path d="M54.2739 3.81201H64.341C64.5501 3.82256 64.7466 3.9155 64.8875 4.07051C65.0283 4.22552 65.1021 4.42998 65.0926 4.63921V8.70776C65.1022 8.91702 65.0285 9.12157 64.8877 9.27661C64.7468 9.43165 64.5502 9.52454 64.341 9.53494H54.2739C54.0647 9.52447 53.8682 9.43155 53.7273 9.27653C53.5865 9.12151 53.5128 8.917 53.5223 8.70776V4.63921C53.5129 4.43 53.5867 4.22558 53.7275 4.07059C53.8684 3.9156 54.0648 3.82264 54.2739 3.81201Z" fill="#82A3E7"/>
<path d="M48.9856 7.19969V35.3046C48.9875 35.6676 48.9178 36.0275 48.7806 36.3637C48.6434 36.6998 48.4414 37.0056 48.186 37.2637C47.9306 37.5218 47.6268 37.727 47.2921 37.8677C46.9574 38.0083 46.5983 38.0817 46.2352 38.0836H18.1267C17.3898 38.0831 16.6832 37.7902 16.1621 37.2691C15.641 36.7481 15.3481 36.0415 15.3477 35.3046V7.19969C15.3477 6.46249 15.6404 5.75546 16.1615 5.23402C16.6826 4.71259 17.3895 4.41942 18.1267 4.41898H46.2063C46.9398 4.41554 47.6446 4.7036 48.1658 5.2198C48.687 5.73601 48.9817 6.43808 48.9853 7.17161L48.9856 7.19969Z" fill="#EBF1FC"/>
<path d="M17.106 20.1816H17.0645L17.0675 19.583C17.7159 19.5916 18.3617 19.4988 18.9815 19.308C20.6544 18.7988 21.501 17.7441 22.2492 16.8146C22.9121 15.9903 23.5379 15.2114 24.5923 15.008C26.0125 14.7294 27.0641 15.7125 28.082 16.6599C29.0999 17.6073 30.1552 18.598 31.6284 18.4367C32.4581 18.3161 33.2266 17.9305 33.8192 17.3374C34.5495 16.734 35.2745 16.1071 36.6775 16.1464C37.569 16.195 38.4277 16.499 39.1512 17.0222C39.8346 17.4435 40.3798 17.7758 41.2297 17.609C41.8 17.4752 42.3228 17.1879 42.7414 16.7781C43.2277 16.2781 43.8856 15.9811 44.5823 15.9473H44.5896C45.5103 15.9504 46.4153 16.47 47.2841 17.4888L46.826 17.8778C46.0752 16.9975 45.3216 16.5495 44.5859 16.5461H44.58C44.0221 16.5826 43.4994 16.8315 43.1195 17.2416C42.6237 17.7137 42.0099 18.0435 41.3426 18.1966C40.2598 18.4081 39.5346 17.9629 38.836 17.5323C38.2014 17.0673 37.4467 16.7943 36.6615 16.7458C35.5026 16.7087 34.9057 17.218 34.2012 17.7994C33.5212 18.4715 32.6418 18.9051 31.6947 19.0353C29.9608 19.1973 28.7409 18.094 27.6764 17.1003C26.686 16.1768 25.8282 15.3771 24.7094 15.5959C23.8668 15.7599 23.3612 16.3911 22.7183 17.191C21.9571 18.1384 21.0083 19.3193 19.1601 19.8821C18.4939 20.0828 17.8017 20.1837 17.106 20.1816Z" fill="#1E80F3"/>
<path d="M21.0342 19.6145C20.8206 19.6148 20.6117 19.5517 20.434 19.4332C20.2563 19.3147 20.1177 19.1462 20.0357 18.9489C19.9538 18.7517 19.9322 18.5345 19.9737 18.325C20.0152 18.1155 20.1179 17.923 20.2689 17.7718C20.4198 17.6207 20.6122 17.5177 20.8217 17.4759C21.0312 17.4342 21.2483 17.4555 21.4457 17.5371C21.6431 17.6188 21.8118 17.7572 21.9305 17.9348C22.0492 18.1124 22.1125 18.3212 22.1125 18.5348C22.1119 18.8207 21.9981 19.0947 21.7961 19.297C21.594 19.4993 21.3201 19.6134 21.0342 19.6145ZM21.0342 18.057C20.9072 18.0567 20.7852 18.1068 20.6951 18.1963C20.6049 18.2858 20.554 18.4075 20.5534 18.5345C20.5537 18.6294 20.5821 18.722 20.6351 18.8008C20.688 18.8795 20.763 18.9408 20.8508 18.9769C20.9385 19.0131 21.035 19.0224 21.128 19.0038C21.221 18.9851 21.3064 18.9394 21.3735 18.8722C21.4405 18.8051 21.4862 18.7196 21.5047 18.6266C21.5233 18.5335 21.5138 18.4371 21.4776 18.3494C21.4413 18.2617 21.38 18.1867 21.3012 18.1339C21.2224 18.0811 21.1297 18.0527 21.0348 18.0525L21.0342 18.057Z" fill="white"/>
<path d="M31.5585 19.8818C31.3452 19.8817 31.1367 19.8183 30.9594 19.6997C30.7821 19.5811 30.644 19.4126 30.5624 19.2155C30.4809 19.0184 30.4596 18.8015 30.5012 18.5923C30.5429 18.3831 30.6456 18.1909 30.7965 18.0401C30.9473 17.8893 31.1394 17.7865 31.3486 17.7449C31.5578 17.7032 31.7747 17.7245 31.9718 17.8061C32.1689 17.8876 32.3374 18.0258 32.456 18.2031C32.5746 18.3804 32.638 18.5888 32.6382 18.8021C32.638 19.0884 32.5241 19.3629 32.3217 19.5654C32.1193 19.7678 31.8448 19.8816 31.5585 19.8818ZM31.5585 18.3244C31.4635 18.3242 31.3706 18.3522 31.2915 18.4049C31.2124 18.4575 31.1507 18.5324 31.1142 18.6201C31.0777 18.7079 31.068 18.8044 31.0864 18.8977C31.1048 18.9909 31.1504 19.0765 31.2175 19.1438C31.2846 19.2111 31.3701 19.257 31.4633 19.2756C31.5564 19.2943 31.653 19.2849 31.7409 19.2487C31.8287 19.2124 31.9038 19.1509 31.9567 19.072C32.0096 18.9931 32.0378 18.9002 32.0379 18.8052C32.0383 18.742 32.0261 18.6794 32.0022 18.6208C31.9783 18.5623 31.943 18.5091 31.8985 18.4643C31.8539 18.4194 31.801 18.3838 31.7426 18.3594C31.6843 18.3351 31.6217 18.3225 31.5585 18.3224V18.3244Z" fill="white"/>
<path d="M42.6891 17.7843C42.5823 17.7845 42.4779 17.753 42.389 17.6938C42.3002 17.6346 42.2308 17.5503 42.1898 17.4517C42.1488 17.3531 42.138 17.2446 42.1587 17.1398C42.1794 17.0351 42.2306 16.9388 42.3061 16.8632C42.3815 16.7876 42.4776 16.7361 42.5823 16.7151C42.687 16.6941 42.7956 16.7047 42.8943 16.7454C42.993 16.7862 43.0774 16.8553 43.1368 16.944C43.1963 17.0327 43.228 17.1371 43.2281 17.2439C43.2281 17.3869 43.1713 17.5241 43.0703 17.6254C42.9692 17.7267 42.8322 17.7839 42.6891 17.7843ZM42.6891 17.0057C42.6254 17.0057 42.5642 17.031 42.5191 17.0761C42.474 17.1212 42.4487 17.1824 42.4487 17.2461C42.4487 17.3099 42.474 17.371 42.5191 17.4161C42.5642 17.4612 42.6254 17.4866 42.6891 17.4866C42.7207 17.4866 42.7519 17.4804 42.781 17.4684C42.8101 17.4563 42.8366 17.4387 42.8589 17.4164C42.8812 17.3941 42.8989 17.3677 42.911 17.3385C42.9231 17.3094 42.9293 17.2782 42.9293 17.2467C42.9294 17.2151 42.9232 17.1838 42.9112 17.1546C42.8991 17.1254 42.8815 17.0988 42.8592 17.0764C42.8369 17.054 42.8104 17.0363 42.7812 17.0241C42.752 17.012 42.7207 17.0057 42.6891 17.0057Z" fill="white"/>
<path d="M48.9856 29.5776V35.3034C48.9875 35.6665 48.9178 36.0264 48.7806 36.3625C48.6434 36.6987 48.4413 37.0046 48.1859 37.2626C47.9304 37.5207 47.6267 37.7259 47.2919 37.8666C46.9572 38.0072 46.598 38.0806 46.2349 38.0824H18.1267C17.3898 38.082 16.6832 37.789 16.1621 37.268C15.641 36.7469 15.3481 36.0403 15.3477 35.3034V29.5776H48.9856Z" fill="#1E80F3"/>
<path opacity="0.56" d="M43.9517 32.4585H27.0879V33.232H43.9517V32.4585Z" fill="white"/>
<path opacity="0.56" d="M37.4841 34.0435H27.0879V34.817H37.4841V34.0435Z" fill="white"/>
<path d="M21.8608 31.3257V34.0247C21.34 33.2919 20.8196 32.5616 20.2988 31.8259C20.7541 31.4993 21.3005 31.3243 21.8608 31.3257Z" fill="#7DBBF9"/>
<path d="M21.8611 34.0245H19.1621C19.1621 34.0026 19.1658 33.9788 19.1658 33.9549C19.2014 33.5227 19.3211 33.1017 19.518 32.7154C19.5835 32.5958 19.657 32.4807 19.7379 32.371C19.7666 32.3295 19.7984 32.2902 19.8331 32.2536C19.8704 32.2052 19.9108 32.1593 19.9542 32.1162C20.0609 32.0103 20.1763 31.9134 20.2991 31.8267C20.8199 32.5614 21.3389 33.2912 21.8611 34.0245Z" fill="#205BBA"/>
<path d="M24.5618 34.0252C24.5618 34.3802 24.4919 34.7316 24.3561 35.0595C24.2203 35.3874 24.0212 35.6854 23.7703 35.9364C23.5193 36.1873 23.2213 36.3864 22.8934 36.5222C22.5655 36.658 22.2141 36.7279 21.8591 36.7279C21.143 36.7269 20.4565 36.4417 19.9504 35.935C19.4444 35.4283 19.1602 34.7414 19.1602 34.0252H21.8591V31.3257C22.5754 31.3257 23.2623 31.61 23.7691 32.1162C24.2758 32.6223 24.5609 33.309 24.5618 34.0252Z" fill="white"/>
<path d="M11.1567 3.72266H9.15398C8.36672 3.72266 7.72852 4.36086 7.72852 5.14812V7.1508C7.72852 7.93806 8.36672 8.57627 9.15398 8.57627H11.1567C11.9439 8.57627 12.5821 7.93806 12.5821 7.1508V5.14812C12.5821 4.36086 11.9439 3.72266 11.1567 3.72266Z" fill="#D4E2FF"/>
<path d="M11.3863 7.48746C11.3661 7.48744 11.346 7.48338 11.3274 7.47551C11.3087 7.46765 11.2918 7.45614 11.2776 7.44166L10.7664 6.93047C10.5882 7.08364 10.3691 7.18148 10.1361 7.21199C9.90302 7.2425 9.66614 7.20435 9.45446 7.10223C9.24278 7.00011 9.0655 6.83845 8.94434 6.63706C8.82318 6.43567 8.76341 6.20331 8.77236 5.96845C8.78131 5.73359 8.85858 5.50645 8.99471 5.31486C9.13084 5.12327 9.31991 4.97557 9.53875 4.88985C9.75758 4.80412 9.99667 4.78411 10.2267 4.83226C10.4568 4.88041 10.6677 4.99463 10.8338 5.16092C11.0332 5.36104 11.1562 5.62472 11.1812 5.9061C11.2063 6.18747 11.132 6.46874 10.9712 6.70099L11.4933 7.22314C11.5076 7.23737 11.519 7.25428 11.5268 7.27291C11.5345 7.29154 11.5385 7.31153 11.5385 7.33171C11.5385 7.35188 11.5345 7.37186 11.5268 7.39049C11.519 7.40912 11.5076 7.42604 11.4933 7.44027C11.4791 7.45478 11.462 7.46627 11.4432 7.47404C11.4244 7.48181 11.4042 7.4857 11.3838 7.48548L11.3863 7.48746ZM9.98192 5.31035C9.86589 5.31045 9.75167 5.33914 9.64937 5.39391C9.54707 5.44867 9.45985 5.52782 9.39543 5.62433C9.33101 5.72084 9.29137 5.83175 9.28003 5.94723C9.2687 6.06271 9.286 6.1792 9.33042 6.28639C9.37484 6.39359 9.445 6.48819 9.53469 6.56181C9.62438 6.63542 9.73084 6.6858 9.84464 6.70846C9.95844 6.73112 10.0761 6.72538 10.1871 6.69175C10.2982 6.65811 10.3992 6.59761 10.4813 6.5156L10.4959 6.50044C10.5008 6.49266 10.5064 6.48541 10.5128 6.47881L10.5229 6.46954C10.6093 6.36656 10.6645 6.24105 10.682 6.10778C10.6995 5.9745 10.6785 5.83901 10.6216 5.71722C10.5648 5.59543 10.4743 5.49242 10.3609 5.42029C10.2474 5.34817 10.1158 5.30993 9.98136 5.31007L9.98192 5.31035Z" fill="#82A3E7"/>
<path d="M58.7016 16.8624V23.1836C58.7016 23.2572 58.6723 23.3278 58.6203 23.3798C58.5683 23.4318 58.4977 23.4611 58.4241 23.4611H53.0685C52.9949 23.461 52.9244 23.4317 52.8724 23.3797C52.8204 23.3277 52.7911 23.2571 52.791 23.1836V15.4167C52.7913 15.3432 52.8206 15.2728 52.8726 15.2208C52.9246 15.1688 52.995 15.1395 53.0685 15.1392H56.9773L58.7016 16.8624Z" fill="#D4E2FF"/>
<path d="M58.7023 16.8619H57.256C57.1824 16.8619 57.1119 16.8326 57.0599 16.7806C57.0079 16.7286 56.9786 16.658 56.9785 16.5844V15.1382L58.7023 16.8619Z" fill="#EBF1FC"/>
<path d="M56.2808 20.3853H57.5383C57.5801 20.3852 57.6215 20.3934 57.6601 20.4094C57.6987 20.4253 57.7337 20.4488 57.7633 20.4783C57.7928 20.5078 57.8162 20.5429 57.8322 20.5815C57.8481 20.6201 57.8563 20.6614 57.8563 20.7032C57.8563 20.7449 57.8481 20.7863 57.8321 20.8248C57.8161 20.8634 57.7927 20.8984 57.7631 20.9278C57.7336 20.9573 57.6986 20.9807 57.66 20.9966C57.6214 21.0125 57.5801 21.0207 57.5383 21.0206H56.2808C56.2391 21.0206 56.1978 21.0125 56.1593 20.9965C56.1207 20.9806 56.0857 20.9572 56.0561 20.9278C56.0266 20.8983 56.0032 20.8633 55.9872 20.8248C55.9712 20.7862 55.9629 20.7449 55.9629 20.7032C55.9629 20.6189 55.9964 20.538 56.056 20.4784C56.1156 20.4187 56.1965 20.3853 56.2808 20.3853Z" fill="white"/>
<path d="M56.2808 21.3394H56.9465C56.9883 21.3393 57.0297 21.3475 57.0683 21.3635C57.1068 21.3795 57.1419 21.4029 57.1714 21.4324C57.201 21.4619 57.2244 21.497 57.2404 21.5356C57.2563 21.5742 57.2645 21.6155 57.2645 21.6573C57.2645 21.699 57.2563 21.7404 57.2403 21.7789C57.2243 21.8175 57.2009 21.8525 57.1713 21.8819C57.1418 21.9114 57.1067 21.9348 57.0682 21.9507C57.0296 21.9666 56.9883 21.9748 56.9465 21.9747H56.2808C56.2391 21.9747 56.1978 21.9666 56.1593 21.9506C56.1207 21.9347 56.0857 21.9113 56.0561 21.8819C56.0266 21.8524 56.0032 21.8174 55.9872 21.7789C55.9712 21.7403 55.9629 21.699 55.9629 21.6573C55.9629 21.573 55.9964 21.4921 56.056 21.4325C56.1156 21.3729 56.1965 21.3394 56.2808 21.3394Z" fill="white"/>
<path d="M53.5519 16.062H55.7332C55.7495 16.062 55.7657 16.0652 55.7807 16.0714C55.7958 16.0776 55.8095 16.0868 55.8211 16.0983C55.8326 16.1098 55.8417 16.1235 55.848 16.1386C55.8542 16.1537 55.8574 16.1698 55.8573 16.1862C55.8574 16.2025 55.8542 16.2186 55.848 16.2337C55.8417 16.2488 55.8326 16.2625 55.8211 16.274C55.8095 16.2856 55.7958 16.2947 55.7807 16.3009C55.7657 16.3072 55.7495 16.3103 55.7332 16.3103H53.5519C53.519 16.3103 53.4874 16.2972 53.4641 16.2739C53.4408 16.2507 53.4277 16.2191 53.4277 16.1862C53.4277 16.1532 53.4408 16.1217 53.4641 16.0984C53.4874 16.0751 53.519 16.062 53.5519 16.062Z" fill="white"/>
<path d="M53.5519 16.6143H54.6518C54.6681 16.6142 54.6843 16.6174 54.6994 16.6236C54.7144 16.6299 54.7281 16.639 54.7397 16.6505C54.7512 16.6621 54.7604 16.6758 54.7666 16.6909C54.7728 16.7059 54.776 16.7221 54.776 16.7384C54.776 16.7547 54.7728 16.7709 54.7666 16.786C54.7604 16.801 54.7512 16.8147 54.7397 16.8263C54.7281 16.8378 54.7144 16.847 54.6994 16.8532C54.6843 16.8594 54.6681 16.8626 54.6518 16.8626H53.5519C53.519 16.8626 53.4874 16.8495 53.4641 16.8262C53.4408 16.8029 53.4277 16.7713 53.4277 16.7384C53.4277 16.7055 53.4408 16.6739 53.4641 16.6506C53.4874 16.6273 53.519 16.6143 53.5519 16.6143Z" fill="white"/>
<path d="M54.716 21.163C54.788 21.1184 54.8451 21.0534 54.8802 20.9763C54.9153 20.8991 54.9267 20.8134 54.913 20.7298C54.8993 20.6462 54.8612 20.5685 54.8034 20.5066C54.7455 20.4447 54.6707 20.4013 54.5882 20.3819C54.5057 20.3626 54.4194 20.3681 54.34 20.3978C54.2607 20.4275 54.192 20.4801 54.1425 20.5489C54.0931 20.6177 54.0651 20.6996 54.0622 20.7842C54.0593 20.8689 54.0815 20.9525 54.1262 21.0245C54.1612 21.0806 54.2085 21.128 54.2646 21.163C54.1003 21.205 53.9543 21.2998 53.849 21.4328C53.7437 21.5658 53.6848 21.7296 53.6815 21.8992C53.6791 21.911 53.6791 21.9231 53.6814 21.9349C53.6837 21.9467 53.6883 21.958 53.6949 21.968C53.7015 21.978 53.7101 21.9866 53.7201 21.9934C53.73 22.0001 53.7412 22.0048 53.753 22.0072C53.7648 22.0096 53.7769 22.0096 53.7887 22.0073C53.8005 22.005 53.8118 22.0004 53.8218 21.9938C53.8318 21.9872 53.8405 21.9786 53.8472 21.9686C53.8539 21.9587 53.8586 21.9475 53.861 21.9357C53.8637 21.9237 53.8637 21.9112 53.861 21.8992C53.8726 21.7403 53.944 21.5917 54.0607 21.4832C54.1774 21.3747 54.3308 21.3144 54.4902 21.3144C54.6495 21.3144 54.8029 21.3747 54.9197 21.4832C55.0364 21.5917 55.1077 21.7403 55.1194 21.8992C55.1233 21.9202 55.1344 21.9392 55.1508 21.9528C55.1673 21.9665 55.188 21.974 55.2094 21.974C55.2308 21.974 55.2515 21.9665 55.2679 21.9528C55.2843 21.9392 55.2955 21.9202 55.2994 21.8992C55.2962 21.7295 55.2374 21.5656 55.132 21.4326C55.0266 21.2996 54.8805 21.2049 54.716 21.163ZM54.4913 20.551C54.5405 20.5508 54.5887 20.5653 54.6297 20.5926C54.6707 20.6199 54.7027 20.6587 54.7216 20.7041C54.7405 20.7496 54.7455 20.7996 54.736 20.8479C54.7265 20.8962 54.7029 20.9406 54.6681 20.9755C54.6334 21.0104 54.5891 21.0341 54.5408 21.0438C54.4925 21.0535 54.4425 21.0486 54.397 21.0299C54.3514 21.0111 54.3125 20.9792 54.2851 20.9383C54.2577 20.8974 54.2431 20.8493 54.243 20.8001C54.2437 20.7352 54.2697 20.673 54.3155 20.627C54.3613 20.581 54.4233 20.5547 54.4882 20.5538L54.4913 20.551Z" fill="#1E80F3"/>
<path d="M25.2699 43.6512L19.84 43.6408C19.7728 43.6408 19.7068 43.6229 19.6488 43.589C19.5908 43.5551 19.5428 43.5064 19.5098 43.4479C19.4768 43.3894 19.46 43.3231 19.461 43.256C19.462 43.1888 19.4808 43.1231 19.5156 43.0656L21.3112 40.0913C21.3451 40.0353 21.3929 39.9889 21.45 39.9568C21.5071 39.9247 21.5715 39.908 21.637 39.9082L27.0679 39.9175C27.1351 39.9176 27.201 39.9356 27.259 39.9696C27.317 40.0035 27.3649 40.0523 27.3979 40.1108C27.4309 40.1694 27.4477 40.2356 27.4468 40.3028C27.4458 40.37 27.427 40.4357 27.3923 40.4933L25.596 43.4675C25.5623 43.5238 25.5145 43.5703 25.4573 43.6025C25.4001 43.6347 25.3356 43.6515 25.2699 43.6512Z" fill="#D4E2FF"/>
<path d="M8.57963 51.686L7.10979 63.874H6.62695L8.0968 51.686H8.57963Z" fill="#6087CC"/>
<path d="M2.08324 51.686L1.91752 53.057L0.614803 63.8748H0.132812L1.44368 53.0048L1.60182 51.6877L2.08324 51.686Z" fill="#6087CC"/>
<path d="M8.58074 63.8739H8.09875L7.8954 62.1886L7.6544 60.1902L6.86204 53.6159L6.62891 51.6865H7.1109L7.35049 53.6712L7.89568 58.1909L8.13667 60.1893L8.58074 63.8739Z" fill="#6087CC"/>
<path d="M15.0768 63.8739H14.5948L13.4539 54.4144L13.125 51.6865H13.6067L13.9421 54.4672L15.0768 63.8739Z" fill="#6087CC"/>
<path d="M2.10699 43.5391H1.625V50.9116H2.10699V43.5391Z" fill="#1E80F3"/>
<path d="M8.65777 43.5391H8.17578V50.9116H8.65777V43.5391Z" fill="#1E80F3"/>
<path d="M13.8059 50.9111H7.18164C7.28444 50.9111 7.38303 50.952 7.45573 51.0247C7.52842 51.0974 7.56925 51.1959 7.56925 51.2987C7.56911 51.4015 7.5282 51.4999 7.45553 51.5725C7.38285 51.6451 7.28435 51.6858 7.18164 51.6858H13.8059C13.9086 51.6858 14.007 51.645 14.0796 51.5724C14.1522 51.4999 14.193 51.4014 14.193 51.2987C14.193 51.2479 14.183 51.1975 14.1636 51.1505C14.1442 51.1035 14.1157 51.0608 14.0797 51.0248C14.0438 50.9888 14.0011 50.9602 13.9541 50.9407C13.9071 50.9212 13.8568 50.9112 13.8059 50.9111Z" fill="#1E80F3"/>
<path d="M7.57459 51.2987C7.57451 51.196 7.53365 51.0974 7.46098 51.0247C7.3883 50.9521 7.28975 50.9112 7.18697 50.9111H1.46769C1.36491 50.9112 1.26637 50.9521 1.19369 51.0247C1.12101 51.0974 1.08015 51.196 1.08008 51.2987C1.08023 51.4015 1.12113 51.4999 1.19381 51.5725C1.26648 51.6451 1.36499 51.6858 1.46769 51.6858H7.18697C7.28968 51.6858 7.38819 51.6451 7.46086 51.5725C7.53354 51.4999 7.57444 51.4015 7.57459 51.2987Z" fill="#59A9F7"/>
<path d="M8.68245 37.9907H1.6023C1.09923 37.9907 0.691406 38.3985 0.691406 38.9016V42.6278C0.691406 43.1308 1.09923 43.5387 1.6023 43.5387H8.68245C9.18552 43.5387 9.59334 43.1308 9.59334 42.6278V38.9016C9.59334 38.3985 9.18552 37.9907 8.68245 37.9907Z" fill="#A9C1EA"/>
<path d="M18.4151 59.3744L15.9512 59.3237L15.8594 63.791L18.3233 63.8417L18.4151 59.3744Z" fill="#FAC7A5"/>
<path d="M15.8828 62.686L19.3993 62.7583C19.4758 62.7597 19.5514 62.7762 19.6216 62.8069C19.6918 62.8375 19.7552 62.8817 19.8083 62.9369C19.8614 62.9922 19.9031 63.0573 19.931 63.1286C19.9589 63.2 19.9724 63.2761 19.9708 63.3527L19.9601 63.8756L15.8601 63.7913L15.8828 62.686Z" fill="#1E80F3"/>
<path d="M18.3604 62.0687L15.8965 62.0181L15.8828 62.6859L18.3467 62.7365L18.3604 62.0687Z" fill="#1E80F3"/>
<path d="M22.9183 53.1435L20.5254 53.7329L21.5941 58.0715L23.987 57.482L22.9183 53.1435Z" fill="#FAC7A5"/>
<path d="M21.3301 56.998L24.7452 56.1568C24.8195 56.1384 24.8968 56.1347 24.9725 56.1462C25.0482 56.1576 25.121 56.1838 25.1866 56.2234C25.2521 56.263 25.3093 56.3151 25.3547 56.3768C25.4001 56.4385 25.4329 56.5085 25.4512 56.5829L25.5763 57.0907L21.5945 58.0715L21.3301 56.998Z" fill="#1E80F3"/>
<path d="M23.5648 55.7597L21.1719 56.3491L21.3316 56.9977L23.7245 56.4082L23.5648 55.7597Z" fill="#1E80F3"/>
<path d="M20.8053 46.923C21.9069 49.6165 23.0084 52.3101 24.1099 55.0039L20.4166 55.6196C19.6187 53.6248 18.8207 51.6298 18.0226 49.6346L12.1615 50.7582C11.9201 50.8058 11.6712 50.7987 11.4329 50.7372C11.1947 50.6758 10.9734 50.5616 10.7852 50.4031C10.5466 50.2026 10.3549 49.9523 10.2234 49.6697C10.032 49.2002 9.98841 48.6835 10.0984 48.1885C10.2084 47.6936 10.4668 47.2439 10.8391 46.8997C11.4222 46.4958 14.4495 46.175 18.0664 45.4487C18.6231 45.3381 19.201 45.4248 19.7007 45.6938C20.2005 45.9628 20.591 46.3974 20.8053 46.923Z" fill="#1E1B3A"/>
<path d="M19.5965 61.1801C18.657 61.1495 17.7208 61.1155 16.7818 61.0851L14.9808 61.0236C14.9527 60.6 14.9232 60.1762 14.8965 59.7521L14.8864 59.5996C14.7366 57.3885 14.5875 55.1772 14.439 52.9657C14.3946 52.318 14.3505 51.6672 14.3067 51.0195C11.9286 50.9989 9.54885 50.9808 7.16755 50.965C6.36608 50.9587 5.59978 50.635 5.03647 50.0649C4.47316 49.4947 4.15877 48.7246 4.16214 47.9231L4.16579 46.4038L11.1861 46.4243L16.7852 46.4412C17.269 46.4424 17.7426 46.5799 18.1519 46.8378L18.4367 47.0442C18.7237 47.2815 18.956 47.5781 19.1175 47.9136C19.2791 48.2491 19.3661 48.6156 19.3726 48.9879C19.4065 50.8056 19.4404 52.6244 19.4743 54.4443L19.5729 59.9282L19.5965 61.1801Z" fill="#292349"/>
<path d="M16.7804 61.0837L14.9794 61.0222C14.949 60.5475 14.9153 60.0725 14.8844 59.5981C14.7346 57.387 14.5855 55.1758 14.437 52.9643C14.3926 52.3166 14.3485 51.6658 14.3047 51.0181C14.3044 51.0183 15.2709 54.9554 16.7804 61.0837Z" fill="#2E2B4C"/>
<path d="M19.5984 61.179C18.6589 61.1484 17.7227 61.1144 16.7837 61.084L14.9827 61.0225C14.9546 60.5987 14.9251 60.1751 14.8984 59.751L19.5754 59.9274L19.5984 61.179Z" fill="#FDC257"/>
<path d="M23.7409 54.1011L24.1097 55.0038L20.4164 55.6192L20.1074 54.8454L23.7409 54.1011Z" fill="#FDC257"/>
<path d="M21.2246 47.9468C21.8384 50.044 22.4522 52.1413 23.0661 54.2385L23.7416 54.0997C22.9025 52.0493 22.0635 49.9983 21.2246 47.9468Z" fill="#2E2B4C"/>
<path d="M12.6855 46.5161H4.28723L4.28723 38.3099C4.2873 37.9745 4.42043 37.6529 4.6574 37.4156C4.89436 37.1782 5.21581 37.0446 5.55119 37.044H11.5741C11.8688 37.044 12.1515 37.1611 12.3599 37.3694C12.5683 37.5778 12.6855 37.8604 12.6855 38.1552L12.6855 46.5161Z" fill="#E43F64"/>
<path d="M21.285 41.6996L20.9904 41.6036C20.9876 41.7423 20.9884 41.873 20.9862 42.0111C20.7415 42.2159 20.5005 42.412 20.2559 42.6167L15.9865 44.7298C15.7635 44.8407 15.5624 44.9419 15.3388 45.0528C15.2792 45.084 15.2166 45.1225 15.1492 45.15C14.8638 45.2905 14.5361 45.3191 14.2306 45.2302C13.9252 45.1412 13.6641 44.9412 13.4987 44.6694C12.5626 43.1119 11.6295 41.5463 10.7012 39.9916L12.4876 38.9097C13.2937 40.2453 14.0967 41.589 14.8919 42.9288C16.4342 42.4047 17.9734 41.8895 19.5158 41.3654C19.6857 41.1387 19.8713 40.9194 20.0413 40.6913C20.5839 40.9266 21.1442 41.1188 21.717 41.2663C21.7326 41.2746 21.7501 41.2789 21.7678 41.2786C21.6038 41.425 21.4451 41.5623 21.285 41.6996Z" fill="#EA9387"/>
<path d="M18.9689 41.5568L16.2087 42.9177C15.984 43.0286 15.784 43.1303 15.5604 43.241C15.5008 43.2716 15.4382 43.3101 15.3708 43.3376C15.0854 43.4781 14.7578 43.5068 14.4524 43.4179C14.147 43.3291 13.8858 43.1292 13.7203 42.8576C13.0384 41.7138 12.3549 40.5728 11.6699 39.4345L12.5833 38.8789C13.3895 40.2142 14.1925 41.5577 14.9877 42.8975C16.3157 42.4407 17.6445 42.0037 18.9689 41.5568Z" fill="#EDA197"/>
<path d="M12.1929 37.6758C12.3921 37.9231 12.5912 38.1708 12.7903 38.4187L14.4834 41.7553L12.0679 42.8395C11.2928 41.6691 10.5176 40.4988 9.74219 39.3285L12.1929 37.6758Z" fill="#E43F64"/>
<path d="M10.4047 45.1906C10.7404 45.0275 11.0763 44.8647 11.4125 44.7022L13.3716 46.1347L13.1421 46.5077L10.2448 46.6107L5.47409 46.5228C5.23366 46.5265 4.99828 46.5228 4.75026 46.5228C4.68219 46.5253 4.61403 46.5243 4.54606 46.5198C4.22637 46.5176 3.91941 46.3942 3.68715 46.1745C3.45489 45.9548 3.31465 45.6552 3.29474 45.3361C3.18239 43.5222 3.06835 41.7083 2.94336 39.8969L5.03592 39.7539C5.13591 41.3105 5.23113 42.8742 5.3314 44.4311L10.4047 45.1906Z" fill="#EA9387"/>
<path d="M10.2683 45.1734C10.3135 45.1829 10.3562 45.1807 10.4017 45.1908L6.13229 45.1096C5.89186 45.1133 5.6548 45.1096 5.40847 45.1096C5.3402 45.1121 5.27186 45.111 5.2037 45.1065C4.88404 45.1044 4.57711 44.981 4.3449 44.7613C4.11269 44.5416 3.97251 44.2419 3.95266 43.9229C3.86615 42.5609 3.78414 41.1925 3.68555 39.8333L5.03967 39.7417C5.13994 41.2986 5.23629 42.8626 5.33572 44.4195C6.97887 44.6668 8.62211 44.9145 10.2654 45.1624C10.2644 45.1642 10.2641 45.1664 10.2646 45.1685C10.2652 45.1705 10.2665 45.1723 10.2683 45.1734Z" fill="#EDA197"/>
<path d="M4.61599 37.0381H6.76781V41.4782H2.81836V38.8357C2.81836 38.359 3.00775 37.9017 3.34487 37.5646C3.682 37.2275 4.13923 37.0381 4.61599 37.0381V37.0381Z" fill="#E43F64"/>
<path d="M8.3968 35.8053C7.97548 36.4126 7.84768 36.5792 7.60387 36.671C7.39738 36.7375 7.17752 36.7511 6.96441 36.7106C6.7513 36.6701 6.55175 36.5768 6.38401 36.4393C5.4571 35.634 5.83714 32.7376 7.34771 32.2067C7.72501 32.099 8.12491 32.0991 8.50218 32.2069C8.87944 32.3147 9.21899 32.526 9.4824 32.8168C9.75092 33.1204 10.154 33.7903 9.87254 34.2195C9.79696 34.3142 9.70249 34.3922 9.59514 34.4484C9.48778 34.5047 9.3699 34.538 9.24899 34.5462C8.94002 35.0133 8.65324 35.4343 8.3968 35.8053Z" fill="#060C21"/>
<path d="M7.13672 36.9847C7.14683 37.0086 7.16228 37.0409 7.18334 37.0813C7.25263 37.2112 7.34375 37.3281 7.45271 37.4271C7.55602 37.5207 7.67924 37.5897 7.81308 37.6287L8.31108 37.6257C8.37203 37.6086 8.43127 37.5859 8.48803 37.558C8.601 37.5016 8.70223 37.4243 8.78633 37.3302C8.84832 37.2607 8.90214 37.1844 8.94671 37.1027C8.96744 37.0671 8.98619 37.0304 9.00289 36.9928C8.9366 36.9746 8.86245 36.9563 8.78492 36.9392L8.78071 36.2227L8.78268 36.4889C8.56676 36.6045 8.31858 36.6452 8.07706 36.6045C7.83554 36.5639 7.61436 36.4442 7.44821 36.2642L7.45186 36.9148C7.33642 36.9336 7.23194 36.9586 7.13672 36.9847Z" fill="#EA9387"/>
<path d="M7.44531 35.8516V36.0412V36.2263V36.2642C7.61146 36.4442 7.83264 36.5639 8.07416 36.6045C8.31567 36.6452 8.56386 36.6045 8.77977 36.4889L8.77781 36.2227L8.77556 35.8438L7.44531 35.8516Z" fill="#EA9387"/>
<path d="M7.44587 36.0414C7.44587 36.1029 7.44587 36.1641 7.44587 36.2256V36.2633C7.61202 36.4432 7.8332 36.5629 8.07472 36.6036C8.31624 36.6442 8.56442 36.6036 8.78034 36.488L8.77837 36.2217C8.77837 36.1579 8.77837 36.0947 8.77837 36.0312L7.44531 36.0391L7.44587 36.0414Z" fill="#DD847A"/>
<path d="M6.96966 34.54L6.97387 35.3127C6.97494 35.4913 7.01829 35.6671 7.10035 35.8257C7.18242 35.9844 7.30088 36.1213 7.44603 36.2253C7.57336 36.3174 7.71848 36.3818 7.87213 36.4146C7.95141 36.431 8.03218 36.439 8.11312 36.4385H8.12183C8.35801 36.4372 8.58786 36.362 8.77909 36.2234C8.86596 36.1608 8.94342 36.0862 9.00913 36.0017C9.02346 35.9838 9.03722 35.9652 9.04986 35.9456C9.18009 35.7555 9.24873 35.5299 9.24648 35.2995L9.24198 34.517C9.239 34.2153 9.11629 33.9271 8.90085 33.7159C8.68541 33.5047 8.39488 33.3877 8.09318 33.3907C7.79148 33.3937 7.50332 33.5164 7.29209 33.7318C7.08087 33.9473 6.96387 34.2378 6.96685 34.5395L6.96966 34.54Z" fill="#EA9387"/>
<path d="M8.8125 34.7403C8.81267 34.7597 8.81857 34.7785 8.82945 34.7945C8.84033 34.8105 8.85571 34.8229 8.87364 34.8302C8.89157 34.8375 8.91125 34.8392 8.9302 34.8353C8.94914 34.8314 8.9665 34.822 8.98008 34.8082C8.99367 34.7944 9.00286 34.7769 9.0065 34.7579C9.01015 34.7389 9.00808 34.7193 9.00056 34.7014C8.99305 34.6836 8.98041 34.6684 8.96426 34.6578C8.94811 34.6471 8.92917 34.6415 8.90982 34.6416C8.89694 34.6417 8.88421 34.6443 8.87234 34.6493C8.86048 34.6543 8.84971 34.6616 8.84067 34.6708C8.83163 34.6799 8.82449 34.6908 8.81966 34.7027C8.81482 34.7147 8.81239 34.7275 8.8125 34.7403Z" fill="#280C1A"/>
<path d="M7.96485 34.7474C7.96502 34.7668 7.97093 34.7858 7.98184 34.8018C7.99276 34.8178 8.00818 34.8303 8.02616 34.8376C8.04414 34.8449 8.06388 34.8467 8.08288 34.8427C8.10188 34.8388 8.11929 34.8293 8.13291 34.8155C8.14653 34.8017 8.15575 34.7841 8.15941 34.7651C8.16306 34.746 8.16099 34.7263 8.15345 34.7084C8.14591 34.6906 8.13324 34.6753 8.11705 34.6646C8.10085 34.654 8.08185 34.6483 8.06245 34.6484C8.04952 34.6485 8.03673 34.6511 8.02482 34.6561C8.0129 34.6611 8.00209 34.6684 7.99302 34.6776C7.98394 34.6868 7.97678 34.6977 7.97195 34.7097C7.96711 34.7217 7.9647 34.7345 7.96485 34.7474Z" fill="#280C1A"/>
<path d="M7.81445 37.6284C7.8288 37.6326 7.84258 37.6362 7.85805 37.6393C8.00856 37.6726 8.16501 37.6677 8.31313 37.625L7.81445 37.6284Z" fill="#EA9387"/>
<path d="M6.97075 34.54L6.97496 35.3127C6.97603 35.4912 7.01937 35.667 7.10144 35.8257C7.18351 35.9843 7.30196 36.1212 7.44712 36.2253C7.48322 36.2513 7.52073 36.2753 7.55947 36.2972C7.45205 36.1218 7.39482 35.9203 7.39404 35.7146L7.38982 34.9422C7.38837 34.7434 7.4389 34.5477 7.53641 34.3745C7.63392 34.2013 7.77501 34.0565 7.9457 33.9546C8.11639 33.8528 8.31075 33.7973 8.50949 33.7937C8.70824 33.7901 8.90449 33.8385 9.07876 33.9341C8.94849 33.722 8.75237 33.5584 8.52036 33.4684C8.28835 33.3783 8.03323 33.3666 7.79398 33.4352C7.55474 33.5038 7.34454 33.6489 7.19553 33.8482C7.04651 34.0476 6.96687 34.2902 6.96878 34.5391L6.97075 34.54Z" fill="#EDA197"/>
<path d="M9.10391 34.5056C9.03153 34.444 8.94242 34.4053 8.84796 34.3945C8.81332 34.3979 8.77971 34.4082 8.74912 34.4248C8.71854 34.4415 8.69161 34.4641 8.66992 34.4913L9.10391 34.5056Z" fill="#280C1A"/>
<path d="M8.31038 34.5056C8.23816 34.4441 8.14926 34.4054 8.05499 34.3945C8.02032 34.3978 7.98668 34.4081 7.95608 34.4247C7.92549 34.4413 7.89857 34.464 7.87695 34.4913L8.31038 34.5056Z" fill="#280C1A"/>
<path d="M8.43832 35.8826C8.51495 35.8945 8.59335 35.8804 8.66107 35.8427C8.7288 35.8049 8.78198 35.7456 8.81217 35.6742C8.5982 35.5904 8.36046 35.5904 8.14648 35.6742C8.16807 35.7346 8.2076 35.7869 8.25976 35.8241C8.31192 35.8614 8.37423 35.8818 8.43832 35.8826Z" fill="#E43F64"/>
<path opacity="0.33" d="M8.4652 35.3696H8.51836C8.54166 35.3696 8.56055 35.3507 8.56055 35.3274V35.1083C8.56055 35.085 8.54166 35.0661 8.51836 35.0661H8.4652C8.4419 35.0661 8.42301 35.085 8.42301 35.1083V35.3274C8.42301 35.3507 8.4419 35.3696 8.4652 35.3696Z" fill="white"/>
<path d="M6.96994 34.9653C7.072 34.9653 7.15473 34.8825 7.15473 34.7805C7.15473 34.6784 7.072 34.5957 6.96994 34.5957C6.86789 34.5957 6.78516 34.6784 6.78516 34.7805C6.78516 34.8825 6.86789 34.9653 6.96994 34.9653Z" fill="#EDA197"/>
<path d="M9.25315 34.9165C9.3552 34.9165 9.43794 34.8337 9.43794 34.7317C9.43794 34.6296 9.3552 34.5469 9.25315 34.5469C9.15109 34.5469 9.06836 34.6296 9.06836 34.7317C9.06836 34.8337 9.15109 34.9165 9.25315 34.9165Z" fill="#EA9387"/>
<path d="M6.9077 34.4959C7.24026 34.6987 7.89611 34.3535 8.07616 33.862C8.12885 33.7115 8.14181 33.5499 8.1138 33.3929C8.04566 33.2354 7.93023 33.103 7.78348 33.014C7.69122 32.943 7.58169 32.898 7.4662 32.8835C7.35071 32.869 7.23345 32.8856 7.12652 32.9316C7.01959 32.9776 6.92688 33.0513 6.85794 33.145C6.78901 33.2388 6.74636 33.3493 6.73439 33.4651C6.66221 33.7376 6.60772 34.3119 6.9077 34.4959Z" fill="#060C21"/>
<path d="M52.9711 53.1343L54.441 65.3217H53.9587L52.4883 53.1343H52.9711Z" fill="#6087CC"/>
<path d="M59.468 53.1352L59.6262 54.4525L60.937 65.3226H60.4551L59.1518 54.5045L58.9863 53.1338L59.468 53.1352Z" fill="#6087CC"/>
<path d="M52.9349 61.6376L53.1759 59.6391L53.7211 55.1195L53.9601 53.1348H54.4424L54.2092 55.0641L53.4169 61.6384L53.1759 63.6369L52.9725 65.3222H52.4902L52.9349 61.6376Z" fill="#6087CC"/>
<path d="M47.1269 55.915L47.4623 53.1343H47.9443L47.6154 55.8622L46.4745 65.3217H45.9922L47.1269 55.915Z" fill="#6087CC"/>
<path d="M59.4429 44.9863H58.9609V52.3589H59.4429V44.9863Z" fill="#1E80F3"/>
<path d="M52.8921 44.9863H52.4102V52.3589H52.8921V44.9863Z" fill="#1E80F3"/>
<path d="M46.8711 52.7459C46.8711 52.7968 46.881 52.8472 46.9005 52.8942C46.9199 52.9412 46.9484 52.9839 46.9843 53.0199C47.0203 53.0559 47.063 53.0845 47.1099 53.104C47.1569 53.1235 47.2073 53.1335 47.2581 53.1336H53.8827C53.8318 53.1335 53.7815 53.1235 53.7345 53.104C53.6875 53.0845 53.6448 53.0559 53.6089 53.0199C53.573 52.9839 53.5445 52.9412 53.525 52.8942C53.5056 52.8472 53.4956 52.7968 53.4957 52.7459C53.4957 52.6433 53.5364 52.5448 53.609 52.4723C53.6816 52.3997 53.7801 52.3589 53.8827 52.3589H47.2581C47.2073 52.3588 47.157 52.3688 47.11 52.3883C47.063 52.4077 47.0203 52.4362 46.9844 52.4722C46.9484 52.5081 46.9199 52.5508 46.9005 52.5978C46.881 52.6448 46.8711 52.6951 46.8711 52.7459Z" fill="#1E80F3"/>
<path d="M53.8871 53.1336H59.6069C59.7097 53.1336 59.8083 53.0927 59.881 53.02C59.9537 52.9473 59.9945 52.8487 59.9945 52.7459C59.9944 52.6432 59.9535 52.5448 59.8808 52.4722C59.8081 52.3997 59.7096 52.3589 59.6069 52.3589H53.8871C53.7844 52.3589 53.686 52.3997 53.6134 52.4723C53.5408 52.5448 53.5 52.6433 53.5 52.7459C53.5 52.7968 53.5099 52.8472 53.5294 52.8942C53.5488 52.9412 53.5773 52.9839 53.6133 53.0199C53.6492 53.0559 53.6919 53.0845 53.7388 53.104C53.7858 53.1235 53.8362 53.1335 53.8871 53.1336Z" fill="#59A9F7"/>
<path d="M59.4676 39.4385H52.3875C51.8844 39.4385 51.4766 39.8463 51.4766 40.3494V44.0755C51.4766 44.5786 51.8844 44.9864 52.3875 44.9864H59.4676C59.9707 44.9864 60.3785 44.5786 60.3785 44.0755V40.3494C60.3785 39.8463 59.9707 39.4385 59.4676 39.4385Z" fill="#A9C1EA"/>
<path d="M42.7451 65.2894L45.209 65.2388L45.1172 60.7715L42.6533 60.8221L42.7451 65.2894Z" fill="#FAC7A5"/>
<path d="M45.209 65.2388L41.109 65.323L41.0983 64.8001C41.0967 64.7236 41.1102 64.6476 41.138 64.5763C41.1658 64.5051 41.2074 64.44 41.2604 64.3848C41.3674 64.2733 41.5142 64.2089 41.6687 64.2057L45.1863 64.1335L45.209 65.2388Z" fill="#E43F64"/>
<path d="M42.7197 64.1844L45.1836 64.1338L45.1699 63.466L42.706 63.5166L42.7197 64.1844Z" fill="#E43F64"/>
<path d="M37.0817 58.9291L39.4746 59.5186L40.5433 55.18L38.1504 54.5906L37.0817 58.9291Z" fill="#FAC7A5"/>
<path d="M39.4746 59.5186L35.4928 58.5377L35.6179 58.0299C35.6362 57.9556 35.6689 57.8857 35.7142 57.8241C35.7596 57.7624 35.8166 57.7103 35.8821 57.6707C36.0143 57.5908 36.1728 57.5666 36.3228 57.6036L39.739 58.4451L39.4746 59.5186Z" fill="#E43F64"/>
<path d="M37.3473 57.8554L39.7402 58.4448L39.9 57.7963L37.5071 57.2068L37.3473 57.8554Z" fill="#E43F64"/>
<path d="M40.2655 48.3705C39.1643 51.064 38.0627 53.7576 36.9609 56.4514L40.6548 57.0666L43.0487 51.0818C45.0023 51.4563 46.9561 51.8309 48.9099 52.2054C49.1512 52.2532 49.4002 52.2462 49.6384 52.1849C49.8766 52.1235 50.098 52.0094 50.2862 51.8509C50.5247 51.6504 50.7165 51.4 50.8479 51.1175C51.0391 50.6477 51.0824 50.1308 50.972 49.6357C50.8617 49.1406 50.6029 48.691 50.2303 48.3469C49.6472 47.9433 46.6198 47.6228 43.003 46.8962C42.4465 46.786 41.869 46.8728 41.3695 47.1418C40.87 47.4108 40.4797 47.8452 40.2655 48.3705Z" fill="#1E1B3A"/>
<path d="M41.4727 62.6256C42.4122 62.595 43.3481 62.561 44.2874 62.5304C44.8879 62.5102 45.4882 62.4898 46.0884 62.4694C46.1164 62.0459 46.1445 61.6214 46.1726 61.1979L46.1827 61.0454C46.3325 58.8337 46.4817 56.6224 46.6302 54.4115C46.6743 53.7638 46.7187 53.1125 46.7625 52.4648C49.1406 52.4445 51.5203 52.4266 53.9016 52.4108C54.703 52.4044 55.4693 52.0808 56.0326 51.5106C56.5959 50.9405 56.9103 50.1704 56.907 49.3689L56.9039 47.8496L49.8836 47.8698L44.2845 47.8867C43.8008 47.8884 43.3273 48.0258 42.9178 48.2833L42.633 48.4903C42.3459 48.7274 42.1136 49.0238 41.952 49.3593C41.7905 49.6947 41.7035 50.0612 41.6971 50.4334C41.6632 52.2515 41.6293 54.0705 41.5954 55.8904L41.4965 61.374L41.4727 62.6256Z" fill="#292349"/>
<path d="M44.2871 62.5305C44.8876 62.5102 45.488 62.4899 46.0881 62.4695C46.1184 61.9948 46.1522 61.5199 46.1831 61.0455C46.3329 58.834 46.482 56.6227 46.6305 54.4116C46.6746 53.7639 46.719 53.1126 46.7628 52.4648C46.7631 52.4648 45.7966 56.4025 44.2871 62.5305Z" fill="#2E2B4C"/>
<path d="M41.4727 62.6255C42.4122 62.5949 43.3481 62.5609 44.2874 62.5303C44.8879 62.51 45.4882 62.4897 46.0884 62.4693C46.1164 62.0455 46.1445 61.6213 46.1726 61.1978L41.4957 61.3741L41.4727 62.6255Z" fill="#FDC257"/>
<path d="M37.33 55.5483L36.9609 56.4511L40.6548 57.0662L40.9638 56.293L37.33 55.5483Z" fill="#FDC257"/>
<path d="M39.8448 49.394C39.2314 51.4913 38.6177 53.5885 38.0039 55.6857L37.3281 55.5473C38.1681 53.4967 39.007 51.4456 39.8448 49.394Z" fill="#2E2B4C"/>
<path d="M49.4962 38.4912H55.5191C55.8546 38.4918 56.176 38.6255 56.413 38.8629C56.65 39.1003 56.7831 39.422 56.7831 39.7574V47.9633H48.3848V39.6027C48.3848 39.3079 48.5019 39.0252 48.7103 38.8167C48.9187 38.6083 49.2014 38.4912 49.4962 38.4912V38.4912Z" fill="#1E80F3"/>
<path d="M40.453 41.9564C40.5515 41.9253 40.6498 41.8938 40.7479 41.862C40.7499 42.0008 40.7479 42.1314 40.7499 42.2701C40.9931 42.4757 41.2332 42.6737 41.4765 42.8793L45.7329 45.0166C45.956 45.1289 46.1562 45.2309 46.379 45.3432C46.438 45.3744 46.5009 45.4134 46.5683 45.4412C46.8529 45.5832 47.1803 45.6136 47.4861 45.5264C47.792 45.4392 48.0541 45.2407 48.221 44.9699C49.1659 43.4175 50.1077 41.8572 51.045 40.3073L49.2656 39.2158C48.4516 40.547 47.6425 41.8821 46.8382 43.2212C45.299 42.6875 43.7631 42.1639 42.2236 41.6317C42.0551 41.4044 41.8708 41.1823 41.7023 40.9559C41.1583 41.1879 40.597 41.3771 40.0235 41.5216C40.0077 41.5294 39.9903 41.5335 39.9727 41.5334C40.1353 41.68 40.2945 41.8185 40.453 41.9564Z" fill="#EA9387"/>
<path d="M42.7715 41.8264L45.5241 43.2027C45.7468 43.3151 45.9474 43.4176 46.1701 43.5294C46.2291 43.5606 46.292 43.5999 46.3594 43.628C46.644 43.77 46.9714 43.8003 47.2773 43.7131C47.5831 43.6259 47.8453 43.4274 48.0121 43.1566C48.7011 42.017 49.3909 40.8799 50.0817 39.7454L49.1716 39.1836C48.3571 40.5147 47.5467 41.8537 46.7443 43.189C45.421 42.7261 44.0947 42.2817 42.7715 41.8264Z" fill="#EDA197"/>
<path d="M48.8798 39.0583C48.3856 39.7478 47.8912 40.4374 47.3965 41.127C47.8304 42.1453 48.2643 43.1634 48.6984 44.1813L49.9595 43.2825L52.0074 39.6499L50.9856 38.9521L48.8798 39.0583Z" fill="#1E80F3"/>
<path d="M53.8226 48.5321C53.4533 48.5894 53.0845 48.6465 52.7159 48.7034C52.4508 49.468 52.1854 50.2326 51.9199 50.9971L52.3202 51.1729L54.7621 49.6104L58.6366 46.8244C58.8363 46.6909 59.0282 46.5541 59.2312 46.4126C59.2887 46.3758 59.3442 46.3361 59.3975 46.2935C59.6593 46.11 59.8417 45.8339 59.9078 45.521C59.9738 45.2082 59.9186 44.8819 59.7534 44.6082C58.8152 43.0518 57.8807 41.4937 56.9496 39.9341L55.1472 41.0065C55.9503 42.344 56.7615 43.6847 57.5645 45.0231L53.8226 48.5321Z" fill="#EA9387"/>
<path d="M53.9217 48.4423C53.89 48.4757 53.854 48.4985 53.8223 48.5322L57.2875 46.038C57.4872 45.9043 57.679 45.7672 57.8821 45.6256C57.9396 45.5889 57.9951 45.5491 58.0484 45.5065C58.3103 45.3231 58.4928 45.047 58.5588 44.7341C58.6249 44.4212 58.5697 44.0949 58.4043 43.8212C57.7021 42.6517 56.9906 41.479 56.2977 40.3052L55.1315 41.0001C55.9345 42.3376 56.7457 43.6783 57.5487 45.0167C56.3376 46.1544 55.1267 47.2925 53.9161 48.431C53.9172 48.4314 53.9182 48.432 53.9191 48.4327C53.92 48.4335 53.9208 48.4344 53.9213 48.4355C53.9218 48.4365 53.9221 48.4376 53.9222 48.4388C53.9223 48.44 53.9221 48.4412 53.9217 48.4423Z" fill="#EDA197"/>
<path d="M57.957 41.1641L54.7059 43.4118L52.1795 39.7575L53.9511 38.5327C54.1456 38.3982 54.3646 38.3035 54.5957 38.2537C54.8268 38.204 55.0654 38.2003 55.298 38.2429C55.5305 38.2855 55.7523 38.3735 55.9508 38.5019C56.1493 38.6303 56.3205 38.7965 56.4547 38.9911L57.957 41.1641Z" fill="#1E80F3"/>
<path d="M52.6515 37.2551C53.0728 37.8629 53.2006 38.0292 53.4444 38.1213C53.6509 38.1878 53.8708 38.2014 54.0839 38.1609C54.297 38.1204 54.4965 38.0271 54.6643 37.8896C55.5912 37.0843 55.2112 34.1879 53.7006 33.657C53.3233 33.5492 52.9234 33.5492 52.5462 33.657C52.1689 33.7648 51.8293 33.976 51.5659 34.2668C51.2974 34.571 50.8943 35.2406 51.1758 35.6712C51.2514 35.7658 51.3459 35.8437 51.4533 35.8999C51.5606 35.9562 51.6784 35.9895 51.7993 35.9979C52.1083 36.4624 52.3951 36.8837 52.6515 37.2551Z" fill="#060C21"/>
<path d="M53.915 38.4344C53.9049 38.4583 53.8894 38.4906 53.8684 38.531C53.799 38.6608 53.7079 38.7777 53.599 38.8768C53.4958 38.9704 53.3725 39.0392 53.2386 39.0779L52.7406 39.0751C52.6797 39.058 52.6204 39.0354 52.5637 39.0074C52.4505 38.9512 52.3492 38.8738 52.2654 38.7793C52.2034 38.71 52.1496 38.6337 52.105 38.5521C52.0844 38.5165 52.0656 38.4798 52.0488 38.4423C52.1148 38.424 52.1893 38.4052 52.2668 38.3883L52.271 37.6724V37.9389C52.4869 38.0542 52.7349 38.0947 52.9763 38.054C53.2176 38.0134 53.4387 37.8939 53.6049 37.7142L53.6018 38.3647C53.7153 38.3838 53.8198 38.4083 53.915 38.4344Z" fill="#EA9387"/>
<path d="M53.6073 37.3011V37.4904V37.6758V37.7137C53.4411 37.8934 53.2201 38.0129 52.9787 38.0535C52.7374 38.0942 52.4893 38.0537 52.2734 37.9384V37.6719L52.2757 37.293L53.6073 37.3011Z" fill="#EA9387"/>
<path d="M53.6073 37.4899C53.6073 37.5517 53.6073 37.6126 53.6073 37.6744V37.7115L53.6054 37.7134C53.4392 37.8931 53.2181 38.0126 52.9767 38.0533C52.7354 38.0939 52.4874 38.0534 52.2715 37.9382V37.6716C52.2715 37.6078 52.2715 37.5452 52.2715 37.4814L53.6045 37.4887L53.6073 37.4899Z" fill="#DD847A"/>
<path d="M54.0843 35.9892L54.0801 36.7616C54.0791 36.9403 54.0358 37.1161 53.9537 37.2748C53.8716 37.4334 53.7532 37.5704 53.608 37.6745C53.4139 37.8145 53.1804 37.889 52.9412 37.8874H52.9324C52.696 37.8861 52.4659 37.8106 52.2746 37.6717C52.1879 37.609 52.1104 37.5344 52.0446 37.4501C52.0303 37.4321 52.0165 37.413 52.0033 37.3939C51.8734 37.2036 51.8048 36.9782 51.8067 36.7479L51.8112 35.9656C51.8142 35.6639 51.9369 35.3758 52.1524 35.1646C52.3679 34.9534 52.6584 34.8364 52.9601 34.8394C53.2618 34.8424 53.55 34.9652 53.7612 35.1806C53.9724 35.3961 54.0893 35.6867 54.0863 35.9884L54.0843 35.9892Z" fill="#EA9387"/>
<path d="M52.2432 36.1891C52.2431 36.2085 52.2372 36.2274 52.2263 36.2435C52.2154 36.2596 52.2 36.2721 52.182 36.2794C52.164 36.2867 52.1443 36.2885 52.1252 36.2846C52.1062 36.2807 52.0888 36.2712 52.0751 36.2574C52.0615 36.2436 52.0523 36.226 52.0486 36.2069C52.045 36.1878 52.0471 36.1681 52.0546 36.1502C52.0622 36.1323 52.0749 36.1171 52.0912 36.1064C52.1074 36.0958 52.1265 36.0902 52.1459 36.0903C52.1588 36.0904 52.1715 36.093 52.1834 36.098C52.1952 36.103 52.206 36.1103 52.215 36.1195C52.2241 36.1287 52.2312 36.1395 52.236 36.1515C52.2409 36.1634 52.2433 36.1762 52.2432 36.1891Z" fill="#280C1A"/>
<path d="M53.0922 36.1969C53.0921 36.2162 53.0862 36.2351 53.0753 36.2511C53.0644 36.2671 53.049 36.2795 53.0311 36.2867C53.0132 36.294 52.9935 36.2958 52.9745 36.2919C52.9556 36.288 52.9382 36.2785 52.9247 36.2647C52.9111 36.251 52.9019 36.2335 52.8982 36.2145C52.8946 36.1955 52.8967 36.1758 52.9042 36.158C52.9117 36.1402 52.9243 36.125 52.9405 36.1143C52.9566 36.1037 52.9756 36.098 52.9949 36.0981C53.0078 36.0982 53.0205 36.1008 53.0324 36.1058C53.0443 36.1108 53.055 36.1181 53.0641 36.1273C53.0731 36.1365 53.0803 36.1473 53.0851 36.1593C53.0899 36.1712 53.0924 36.184 53.0922 36.1969Z" fill="#280C1A"/>
<path d="M53.2389 39.0775C53.2246 39.0817 53.2108 39.0854 53.1953 39.089C53.0448 39.1221 52.8884 39.1172 52.7402 39.0747L53.2389 39.0775Z" fill="#EA9387"/>
<path d="M54.0826 35.989L54.0784 36.7614C54.0774 36.9401 54.0341 37.1159 53.952 37.2746C53.8699 37.4333 53.7514 37.5702 53.6062 37.6743C53.5701 37.7003 53.5326 37.7243 53.4939 37.7462C53.601 37.5707 53.6583 37.3693 53.6593 37.1637L53.6635 36.391C53.6653 36.0881 53.5467 35.7969 53.3338 35.5815C53.2285 35.4746 53.1031 35.3895 52.9648 35.3313C52.8265 35.2731 52.678 35.2428 52.5279 35.2422C52.3345 35.2405 52.1439 35.2889 51.9746 35.3826C52.105 35.1707 52.3011 35.0074 52.5331 34.9174C52.765 34.8275 53.02 34.8159 53.2592 34.8845C53.4983 34.953 53.7084 35.098 53.8575 35.2972C54.0065 35.4964 54.0863 35.7388 54.0846 35.9876L54.0826 35.989Z" fill="#EDA197"/>
<path d="M51.9492 35.9548C52.0215 35.8931 52.1107 35.8546 52.2052 35.8442C52.2398 35.8473 52.2734 35.8575 52.304 35.8741C52.3345 35.8908 52.3613 35.9135 52.3826 35.941L51.9492 35.9548Z" fill="#280C1A"/>
<path d="M52.7422 35.9548C52.8146 35.8932 52.9037 35.8547 52.9981 35.8442C53.0329 35.8472 53.0666 35.8574 53.0973 35.874C53.1279 35.8907 53.1548 35.9135 53.1762 35.941L52.7422 35.9548Z" fill="#280C1A"/>
<path d="M52.6141 37.3318C52.5375 37.3437 52.4591 37.3296 52.3913 37.2919C52.3236 37.2541 52.2704 37.1948 52.2402 37.1234C52.4541 37.0389 52.6921 37.0389 52.9059 37.1234C52.8842 37.1836 52.8446 37.2358 52.7925 37.2731C52.7403 37.3103 52.6781 37.3308 52.6141 37.3318Z" fill="#E43F64"/>
<path opacity="0.33" d="M52.5817 36.5161H52.5285C52.5052 36.5161 52.4863 36.535 52.4863 36.5583V36.7774C52.4863 36.8007 52.5052 36.8196 52.5285 36.8196H52.5817C52.605 36.8196 52.6239 36.8007 52.6239 36.7774V36.5583C52.6239 36.535 52.605 36.5161 52.5817 36.5161Z" fill="white"/>
<path d="M54.0813 36.4145C54.1833 36.4145 54.2661 36.3318 54.2661 36.2297C54.2661 36.1277 54.1833 36.0449 54.0813 36.0449C53.9792 36.0449 53.8965 36.1277 53.8965 36.2297C53.8965 36.3318 53.9792 36.4145 54.0813 36.4145Z" fill="#EDA197"/>
<path d="M51.8 36.3652C51.9021 36.3652 51.9848 36.2824 51.9848 36.1804C51.9848 36.0783 51.9021 35.9956 51.8 35.9956C51.698 35.9956 51.6152 36.0783 51.6152 36.1804C51.6152 36.2824 51.698 36.3652 51.8 36.3652Z" fill="#EA9387"/>
<path d="M54.1541 35.9431C53.8216 36.1465 53.1657 35.801 52.9857 35.3092C52.9329 35.1589 52.92 34.9975 52.948 34.8407C53.016 34.6831 53.1315 34.5506 53.2783 34.4618C53.3706 34.3908 53.4801 34.3457 53.5956 34.3313C53.7111 34.3168 53.8284 34.3334 53.9353 34.3794C54.0422 34.4253 54.1349 34.499 54.2039 34.5928C54.2728 34.6866 54.3155 34.7971 54.3274 34.9129C54.3999 35.1861 54.4538 35.7586 54.1541 35.9431Z" fill="#060C21"/>
<path d="M40.7572 47.8605L48.5769 47.851L47.3862 42.5836C47.3416 42.3866 47.2312 42.2106 47.0733 42.0846C46.9153 41.9585 46.7192 41.89 46.5172 41.8901L39.598 41.8983C39.5504 41.8985 39.5034 41.9095 39.4606 41.9303C39.4177 41.9511 39.3801 41.9812 39.3505 42.0185C39.3208 42.0558 39.2999 42.0992 39.2893 42.1456C39.2787 42.1921 39.2786 42.2403 39.289 42.2867L40.5033 47.6572C40.5164 47.7148 40.5486 47.7663 40.5947 47.8032C40.6408 47.8401 40.6981 47.8603 40.7572 47.8605Z" fill="#D4E2FF"/>
<path d="M40.5479 48.0845H54.3164V47.7064H40.5479V48.0845Z" fill="#D4E2FF"/>
<path d="M43.6259 45.6267C44.047 45.6267 44.3885 45.2853 44.3885 44.8642C44.3885 44.443 44.047 44.1016 43.6259 44.1016C43.2047 44.1016 42.8633 44.443 42.8633 44.8642C42.8633 45.2853 43.2047 45.6267 43.6259 45.6267Z" fill="white"/>
</svg>
