<svg width="84" height="63" viewBox="0 0 84 63" fill="none" xmlns="http://www.w3.org/2000/svg">
<path d="M31.0118 26.3633H30.0781V61.0866H31.0118V26.3633Z" fill="#5D7DC3"/>
<path d="M44.8496 26.3633H43.916V61.0866H44.8496V26.3633Z" fill="#5D7DC3"/>
<path d="M60.3791 2.99089V30.9948C60.3797 31.2683 60.3263 31.5394 60.222 31.7923C60.1178 32.0453 59.9647 32.2752 59.7716 32.469C59.5785 32.6627 59.349 32.8165 59.0964 32.9216C58.8438 33.0267 58.5729 33.0809 58.2993 33.0813H16.4118C15.8593 33.0802 15.33 32.8598 14.94 32.4686C14.55 32.0773 14.3313 31.5472 14.332 30.9948V2.99089C14.332 2.44017 14.5505 1.91193 14.9394 1.52204C15.3284 1.13215 15.8561 0.912452 16.4068 0.911135H58.2993C58.5722 0.910719 58.8424 0.964065 59.0946 1.06812C59.3468 1.17218 59.576 1.32492 59.7691 1.5176C59.9623 1.71027 60.1156 1.93912 60.2202 2.19106C60.3249 2.443 60.3789 2.7131 60.3791 2.98592V2.99089Z" fill="#D4E2FF"/>
<path d="M60.3787 2.99089V6.79548H14.332V2.99089C14.332 2.44017 14.5505 1.91193 14.9394 1.52204C15.3284 1.13215 15.8561 0.912452 16.4068 0.911135H58.2994C58.5722 0.910719 58.8424 0.964065 59.0946 1.06812C59.3468 1.17218 59.576 1.32492 59.7692 1.5176C59.9623 1.71027 60.1156 1.93912 60.2202 2.19106C60.3249 2.443 60.3789 2.7131 60.3791 2.98592L60.3787 2.99089Z" fill="#82A3E7"/>
<path d="M18.2976 4.45016C18.559 4.45016 18.771 4.23822 18.771 3.97679C18.771 3.71535 18.559 3.50342 18.2976 3.50342C18.0362 3.50342 17.8242 3.71535 17.8242 3.97679C17.8242 4.23822 18.0362 4.45016 18.2976 4.45016Z" fill="#2C4F8C"/>
<path d="M20.0281 4.45016C20.2895 4.45016 20.5014 4.23822 20.5014 3.97679C20.5014 3.71535 20.2895 3.50342 20.0281 3.50342C19.7666 3.50342 19.5547 3.71535 19.5547 3.97679C19.5547 4.23822 19.7666 4.45016 20.0281 4.45016Z" fill="#2C4F8C"/>
<path d="M21.6589 4.45016C21.9204 4.45016 22.1323 4.23822 22.1323 3.97679C22.1323 3.71535 21.9204 3.50342 21.6589 3.50342C21.3975 3.50342 21.1855 3.71535 21.1855 3.97679C21.1855 4.23822 21.3975 4.45016 21.6589 4.45016Z" fill="#2C4F8C"/>
<path d="M54.8939 11.5098H29.8066V15.8578H54.8939V11.5098Z" fill="#5D7DC3"/>
<path opacity="0.54" d="M52.0064 12.4351H34.8516V13.0034H52.0064V12.4351Z" fill="#D4E2FF"/>
<path opacity="0.54" d="M52.0064 13.4707H34.8516V14.039H52.0064V13.4707Z" fill="#D4E2FF"/>
<path opacity="0.54" d="M52.0064 14.5063H34.8516V15.0747H52.0064V14.5063Z" fill="#D4E2FF"/>
<path opacity="0.22" d="M54.8939 17.6196H29.8066V18.6609H54.8939V17.6196Z" fill="#5D7DC3"/>
<path opacity="0.22" d="M54.8939 19.647H29.8066V20.6882H54.8939V19.647Z" fill="#5D7DC3"/>
<path opacity="0.22" d="M54.8939 22.1338H29.8066V23.175H54.8939V22.1338Z" fill="#5D7DC3"/>
<path d="M32.3268 14.7566C32.9259 14.7566 33.4115 14.2763 33.4115 13.6837C33.4115 13.0912 32.9259 12.6108 32.3268 12.6108C31.7278 12.6108 31.2422 13.0912 31.2422 13.6837C31.2422 14.2763 31.7278 14.7566 32.3268 14.7566Z" fill="white"/>
<path d="M27.0001 11.1953H18.1503C17.8429 11.1953 17.5938 11.4445 17.5938 11.7519V22.6177C17.5938 22.9251 17.8429 23.1742 18.1503 23.1742H27.0001C27.3075 23.1742 27.5567 22.9251 27.5567 22.6177V11.7519C27.5567 11.4445 27.3075 11.1953 27.0001 11.1953Z" fill="#1E80F3"/>
<path d="M77.9314 37.793H77.2754V60.4306H77.9314V37.793Z" fill="#D4E2FF"/>
<path d="M72.8165 60.4307H82.3879C82.431 60.4306 82.4737 60.4391 82.5136 60.4555C82.5534 60.472 82.5897 60.4962 82.6201 60.5267C82.6506 60.5572 82.6748 60.5934 82.6913 60.6332C82.7078 60.6731 82.7162 60.7158 82.7161 60.7589C82.7162 60.802 82.7078 60.8447 82.6913 60.8846C82.6748 60.9244 82.6506 60.9606 82.6201 60.9911C82.5897 61.0216 82.5534 61.0458 82.5136 61.0623C82.4737 61.0788 82.431 61.0872 82.3879 61.0871H72.8165C72.7294 61.0871 72.646 61.0526 72.5844 60.991C72.5229 60.9294 72.4883 60.846 72.4883 60.7589C72.4883 60.6718 72.5229 60.5884 72.5844 60.5268C72.646 60.4652 72.7294 60.4307 72.8165 60.4307Z" fill="#D4E2FF"/>
<path d="M83.7726 37.794H71.4297L73.5678 31H81.6395L83.7726 37.794Z" fill="#D4E2FF"/>
<path d="M72.1934 35.3867L83.0239 35.3917L83.1808 35.889H72.0352L72.1934 35.3867Z" fill="#5D7DC3"/>
<path d="M81.0042 1.7959H68.6885C68.031 1.7959 67.498 2.32887 67.498 2.98633V13.0686C67.498 13.7261 68.031 14.259 68.6885 14.259H81.0042C81.6617 14.259 82.1947 13.7261 82.1947 13.0686V2.98633C82.1947 2.32887 81.6617 1.7959 81.0042 1.7959Z" fill="#D4E2FF"/>
<path d="M82.1947 2.50211V4.58503H67.498V2.50211C67.498 2.31481 67.5725 2.13518 67.7049 2.00274C67.8373 1.8703 68.017 1.7959 68.2043 1.7959H81.4889C81.5816 1.7959 81.6734 1.81417 81.7591 1.84966C81.8448 1.88516 81.9225 1.93719 81.9881 2.00277C82.0536 2.06835 82.1056 2.14621 82.1411 2.23189C82.1765 2.31757 82.1947 2.40939 82.1947 2.50211Z" fill="#1E80F3"/>
<path d="M71.6212 0.911133H71.3386C71.2152 0.911133 71.1152 1.01113 71.1152 1.13448V2.45648C71.1152 2.57983 71.2152 2.67983 71.3386 2.67983H71.6212C71.7445 2.67983 71.8445 2.57983 71.8445 2.45648V1.13448C71.8445 1.01113 71.7445 0.911133 71.6212 0.911133Z" fill="#1E80F3"/>
<path d="M78.3516 0.911133H78.0691C77.9457 0.911133 77.8457 1.01113 77.8457 1.13448V2.45648C77.8457 2.57983 77.9457 2.67983 78.0691 2.67983H78.3516C78.475 2.67983 78.575 2.57983 78.575 2.45648V1.13448C78.575 1.01113 78.475 0.911133 78.3516 0.911133Z" fill="#1E80F3"/>
<path d="M71.6934 9.73058L73.2631 8.32133C73.3474 8.24411 73.4273 8.16214 73.5023 8.07583C73.5811 7.9884 73.6238 7.87431 73.6217 7.75663C73.6246 7.69503 73.6128 7.63362 73.5871 7.57754C73.5615 7.52145 73.5228 7.47232 73.4742 7.43427C73.3752 7.35615 73.2522 7.31476 73.1261 7.31717C73.0568 7.31317 72.9875 7.32428 72.9229 7.34973C72.8584 7.37518 72.8001 7.41436 72.7522 7.46456C72.6614 7.56662 72.6083 7.69664 72.6016 7.83304L71.7462 7.77019C71.7521 7.58157 71.7966 7.39615 71.8769 7.22539C71.9489 7.07673 72.0522 6.94546 72.1798 6.84063C72.3104 6.73544 72.4606 6.65708 72.6216 6.61005C72.8005 6.55841 72.986 6.53357 73.1722 6.53635C73.347 6.5335 73.5211 6.55837 73.6881 6.61005C73.8408 6.65673 73.9825 6.73361 74.105 6.83611C74.225 6.93956 74.3196 7.06918 74.3816 7.21499C74.451 7.38302 74.4849 7.56358 74.4811 7.74533C74.4827 7.86348 74.4693 7.98136 74.4413 8.09617C74.4169 8.19574 74.3795 8.29165 74.3301 8.38146C74.283 8.46629 74.2266 8.5456 74.1619 8.61792C74.0956 8.69195 74.0253 8.76228 73.9513 8.82861L72.7251 9.88385H74.5159V10.6366H71.6979L71.6934 9.73058Z" fill="white"/>
<path d="M75.2793 9.73108L76.849 8.32182C76.9332 8.24458 77.0129 8.16261 77.0878 8.07632C77.1666 7.9889 77.2093 7.8748 77.2072 7.75712C77.2101 7.69552 77.1982 7.63411 77.1726 7.57803C77.147 7.52195 77.1083 7.47282 77.0597 7.43476C76.9607 7.35664 76.8377 7.31526 76.7116 7.31766C76.6423 7.31363 76.573 7.32473 76.5084 7.35018C76.4439 7.37563 76.3856 7.41483 76.3377 7.46505C76.2469 7.56711 76.1938 7.69713 76.1871 7.83353L75.3317 7.77069C75.3375 7.58206 75.382 7.39663 75.4624 7.22588C75.5344 7.07722 75.6377 6.94595 75.7653 6.84113C75.8959 6.73592 76.0461 6.65756 76.207 6.61055C76.386 6.5589 76.5715 6.53406 76.7577 6.53685C76.9327 6.53395 77.1069 6.55883 77.274 6.61055C77.4266 6.65731 77.5682 6.73418 77.6905 6.83661C77.8105 6.94004 77.9051 7.06967 77.9671 7.21548C78.0365 7.38352 78.0704 7.56408 78.0666 7.74582C78.0681 7.86398 78.0548 7.98185 78.0268 8.09667C78.0025 8.19624 77.965 8.29216 77.9156 8.38195C77.8685 8.46682 77.8122 8.54614 77.7474 8.61841C77.6809 8.69243 77.6104 8.76276 77.5363 8.8291L76.3101 9.88435H78.101V10.6371H75.2829L75.2793 9.73108Z" fill="white"/>
<path opacity="0.396" d="M22.6838 16.4247C23.4983 16.4247 24.1586 15.7644 24.1586 14.9499C24.1586 14.1354 23.4983 13.4751 22.6838 13.4751C21.8693 13.4751 21.209 14.1354 21.209 14.9499C21.209 15.7644 21.8693 16.4247 22.6838 16.4247Z" fill="white"/>
<path opacity="0.27" d="M20.4718 17.8994H24.8958C24.9926 17.8994 25.0886 17.9184 25.1781 17.9554C25.2676 17.9925 25.3488 18.0468 25.4173 18.1153C25.4858 18.1838 25.5401 18.2651 25.5772 18.3546C25.6142 18.444 25.6332 18.54 25.6332 18.6368C25.6332 18.7337 25.6142 18.8296 25.5772 18.9191C25.5401 19.0086 25.4858 19.0899 25.4173 19.1584C25.3488 19.2269 25.2676 19.2812 25.1781 19.3182C25.0886 19.3553 24.9926 19.3743 24.8958 19.3742H20.4718C20.2762 19.3742 20.0887 19.2965 19.9504 19.1582C19.8121 19.02 19.7344 18.8324 19.7344 18.6368C19.7344 18.4412 19.8121 18.2537 19.9504 18.1154C20.0887 17.9771 20.2762 17.8994 20.4718 17.8994Z" fill="white"/>
<path opacity="0.27" d="M20.4718 20.1113H24.8958C24.9926 20.1113 25.0886 20.1303 25.1781 20.1673C25.2676 20.2044 25.3488 20.2587 25.4173 20.3272C25.4858 20.3957 25.5401 20.477 25.5772 20.5665C25.6142 20.656 25.6332 20.7519 25.6332 20.8487C25.6332 20.9456 25.6142 21.0415 25.5772 21.131C25.5401 21.2205 25.4858 21.3018 25.4173 21.3703C25.3488 21.4388 25.2676 21.4931 25.1781 21.5301C25.0886 21.5672 24.9926 21.5862 24.8958 21.5861H20.4718C20.2762 21.5861 20.0887 21.5085 19.9504 21.3702C19.8121 21.2319 19.7344 21.0443 19.7344 20.8487C19.7344 20.6532 19.8121 20.4656 19.9504 20.3273C20.0887 20.189 20.2762 20.1113 20.4718 20.1113Z" fill="white"/>
<path d="M3.80029 57.7437H1.72461V61.5731H3.80029V57.7437Z" fill="#FAC7A5"/>
<path d="M1.72461 60.6255H4.68283C4.81413 60.6255 4.94006 60.6776 5.0329 60.7705C5.12574 60.8633 5.1779 60.9893 5.1779 61.1206V61.5727H1.72461V60.6255Z" fill="#251760"/>
<path d="M3.80029 60.0532H1.72461V60.6256H3.80029V60.0532Z" fill="#251760"/>
<path d="M12.1792 57.7437H10.1035V61.5731H12.1792V57.7437Z" fill="#FAC7A5"/>
<path d="M10.1035 60.6255H13.0617C13.193 60.6255 13.319 60.6776 13.4118 60.7705C13.5047 60.8633 13.5568 60.9893 13.5568 61.1206V61.5727H10.1035V60.6255Z" fill="#251760"/>
<path d="M12.1792 60.0532H10.1035V60.6256H12.1792V60.0532Z" fill="#251760"/>
<path d="M0.650391 35.1909V58.7319H5.777V38.6488C6.65442 45.3136 7.53226 51.9779 8.41058 58.6415H14.1525C12.7036 50.7984 11.255 42.9552 9.80674 35.1118C6.75462 35.1377 3.7025 35.1641 0.650391 35.1909Z" fill="#FDC257"/>
<path d="M5.77745 38.6489C5.16919 45.3433 4.56108 52.0376 3.95312 58.7316H5.77745V38.6489Z" fill="#F9B353"/>
<path d="M5.75384 38.8875C7.40408 45.4728 9.05401 52.0574 10.7036 58.6415H14.152C12.7031 50.7984 11.2545 42.9552 9.8062 35.1118L5.58203 35.148C5.6393 36.3949 5.69657 37.6414 5.75384 38.8875Z" fill="#F9B353"/>
<path d="M0.652344 58.7314H5.77896V57.1616L0.652344 57.252V58.7314Z" fill="#D64A4A"/>
<path d="M8.20117 57.0273C8.272 57.5657 8.34299 58.1037 8.41412 58.6414H14.1561C14.0632 58.1362 13.9701 57.6314 13.8766 57.1268L8.20117 57.0273Z" fill="#D64A4A"/>
<path d="M18.5785 25.4561L18.2439 25.4841C18.2991 25.6233 18.3551 25.7554 18.4112 25.8933C18.2525 26.1998 18.0947 26.4978 17.9365 26.8047L14.561 30.7106C14.3842 30.9154 14.2264 31.1012 14.0491 31.3065C14.0039 31.3617 13.9565 31.4272 13.9004 31.4828C13.6744 31.7432 13.3592 31.9096 13.0167 31.9491C12.6742 31.9887 12.3293 31.8987 12.0499 31.6967C10.4602 30.5347 8.86967 29.3624 7.28906 28.2004L8.6183 26.368C9.98521 27.3627 11.3492 28.3639 12.7104 29.3719C14.0311 28.2004 15.3517 27.0376 16.6719 25.8657C16.7465 25.5677 16.8392 25.2707 16.9138 24.9727C17.5547 24.9796 18.1952 24.9363 18.8294 24.843C18.8486 24.8445 18.8679 24.8413 18.8855 24.8335C18.7829 25.0492 18.6802 25.2522 18.5785 25.4561Z" fill="#EA9387"/>
<path d="M16.1995 26.2896L14.0139 28.8097C13.8376 29.014 13.6793 29.2003 13.5021 29.4047C13.4569 29.4607 13.4094 29.5254 13.3538 29.5814C13.1277 29.8416 12.8124 30.0077 12.47 30.0473C12.1276 30.0869 11.7828 29.997 11.5033 29.7953C10.3404 28.9393 9.17788 28.0867 8.01562 27.2376L8.69381 26.2981C10.0607 27.2928 11.4245 28.2941 12.785 29.302C13.9208 28.2875 15.066 27.2919 16.1995 26.2896Z" fill="#EDA197"/>
<path d="M9.73242 35.5156H0.628531L0.628531 26.6211C0.628531 26.4408 0.664038 26.2624 0.733025 26.0958C0.802012 25.9293 0.903127 25.778 1.03059 25.6506C1.15806 25.5232 1.30938 25.4221 1.47592 25.3532C1.64245 25.2843 1.82093 25.2488 2.00117 25.2489H8.52797C8.84741 25.2489 9.15377 25.3758 9.37965 25.6017C9.60553 25.8275 9.73242 26.1339 9.73242 26.4533L9.73242 35.5156Z" fill="#1E80F3"/>
<path d="M7.26033 22.4134C7.12584 22.5529 6.94857 22.6435 6.75669 22.6706C6.74117 22.9972 6.61794 23.3094 6.40625 23.5586C6.19457 23.8077 5.90636 23.9798 5.58659 24.0478C5.30604 24.0826 5.02136 24.0374 4.76539 23.9174C4.50941 23.7974 4.29255 23.6075 4.1398 23.3696C3.99086 23.13 3.90321 22.8574 3.8846 22.5759C3.86599 22.2944 3.91699 22.0127 4.03309 21.7556C3.96386 21.582 3.93393 21.3952 3.94542 21.2087C3.95691 21.0222 4.00956 20.8406 4.09957 20.6768C4.55169 19.9683 5.94376 20.0465 6.73949 20.595C6.91992 20.7071 7.07581 20.8545 7.19779 21.0284C7.31978 21.2022 7.40534 21.399 7.44933 21.6068C7.47976 21.7468 7.4786 21.8919 7.4459 22.0314C7.41321 22.171 7.3498 22.3015 7.26033 22.4134Z" fill="#060C21"/>
<path d="M4.49414 25.2531C4.50544 25.2789 4.52308 25.3159 4.54569 25.3593C4.62314 25.5027 4.72469 25.6316 4.8459 25.7405C4.96145 25.8438 5.09887 25.9197 5.24785 25.9625L5.80213 25.9593C5.86976 25.9401 5.93557 25.915 5.9988 25.8842C6.12445 25.8226 6.23711 25.7374 6.33066 25.6333C6.39944 25.5569 6.45923 25.4729 6.50881 25.3828C6.53149 25.3434 6.55214 25.3028 6.57074 25.2612C6.49704 25.2413 6.41611 25.2205 6.3284 25.2024L6.32343 24.4126V24.706C6.08273 24.8331 5.80695 24.8775 5.53851 24.8325C5.27007 24.7875 5.02384 24.6555 4.83776 24.4569L4.84228 25.1744C4.71614 25.1979 4.60039 25.2246 4.49414 25.2531Z" fill="#EA9387"/>
<path d="M4.83594 24.0034V24.2123V24.4166V24.4587C5.02202 24.6573 5.26825 24.7893 5.53669 24.8343C5.80513 24.8793 6.08091 24.8349 6.32161 24.7078V24.4144V23.9971L4.83594 24.0034Z" fill="#EA9387"/>
<path d="M4.83594 24.2126C4.83594 24.2804 4.83594 24.3482 4.83594 24.416V24.4572C5.02202 24.6558 5.26825 24.7878 5.53669 24.8328C5.80513 24.8778 6.08091 24.8334 6.32161 24.7063V24.4129C6.32161 24.3419 6.32161 24.2727 6.32161 24.2026L4.83729 24.2108L4.83594 24.2126Z" fill="#DD847A"/>
<path d="M4.30684 22.5579L4.31137 23.4097C4.31223 23.6553 4.38671 23.895 4.5252 24.0979C4.60954 24.2211 4.71518 24.3282 4.83717 24.4143C4.97901 24.5162 5.14055 24.5873 5.31145 24.6232C5.39978 24.6415 5.4898 24.6505 5.58 24.6499H5.5895C5.67672 24.6493 5.76368 24.6399 5.84903 24.6219C6.01924 24.5853 6.18007 24.5141 6.32149 24.4125C6.41817 24.3437 6.50463 24.2615 6.57829 24.1684C6.59366 24.1485 6.6086 24.1272 6.62352 24.1064C6.76835 23.8976 6.84478 23.649 6.84232 23.3948L6.83735 22.5322C6.83558 22.3673 6.80135 22.2045 6.7366 22.0529C6.67185 21.9013 6.57785 21.7639 6.45999 21.6486C6.34213 21.5334 6.20271 21.4425 6.0497 21.3811C5.89669 21.3198 5.73309 21.2892 5.56825 21.2911C5.40143 21.2914 5.23631 21.3246 5.08232 21.3888C4.92834 21.4529 4.7885 21.5468 4.6708 21.665C4.53264 21.8026 4.42887 21.9708 4.36788 22.156C4.32499 22.2856 4.30435 22.4215 4.30684 22.5579Z" fill="#EA9387"/>
<path d="M6.35786 22.7787C6.3581 22.8074 6.36972 22.8349 6.39017 22.8551C6.41062 22.8753 6.43825 22.8865 6.46699 22.8864C6.49585 22.8862 6.52345 22.8746 6.54386 22.8542C6.56427 22.8338 6.57584 22.8062 6.57608 22.7773C6.57608 22.7483 6.56456 22.7205 6.54405 22.7C6.52355 22.6795 6.49576 22.668 6.46676 22.668C6.43777 22.668 6.40995 22.6795 6.38945 22.7C6.36894 22.7205 6.35742 22.7483 6.35742 22.7773L6.35786 22.7787Z" fill="#280C1A"/>
<path d="M5.41016 22.7864C5.41007 22.808 5.41641 22.8292 5.42837 22.8472C5.44032 22.8652 5.45735 22.8792 5.4773 22.8876C5.49726 22.8959 5.51924 22.8981 5.54044 22.8939C5.56165 22.8897 5.58114 22.8793 5.59643 22.864C5.61171 22.8487 5.6221 22.8292 5.6263 22.808C5.6305 22.7868 5.62829 22.7648 5.61997 22.7449C5.61166 22.7249 5.59761 22.7079 5.5796 22.6959C5.56159 22.684 5.54043 22.6776 5.51881 22.6777C5.49006 22.678 5.46256 22.6895 5.44224 22.7098C5.42191 22.7301 5.41039 22.7576 5.41016 22.7864Z" fill="#280C1A"/>
<path d="M5.25 25.9627C5.26539 25.9672 5.28168 25.9717 5.29888 25.9754C5.46644 26.012 5.64047 26.0067 5.8055 25.96L5.25 25.9627Z" fill="#EA9387"/>
<path d="M4.30682 22.5575L4.31135 23.4092C4.31221 23.6548 4.38669 23.8945 4.52518 24.0974C4.60952 24.2206 4.71516 24.3278 4.83715 24.4139C4.87715 24.443 4.919 24.4696 4.9624 24.4934C4.8435 24.3003 4.77999 24.0782 4.77884 23.8514L4.77387 22.9996C4.7728 22.8634 4.79417 22.7279 4.83715 22.5986C4.8987 22.4132 5.00274 22.2447 5.14097 22.1067C5.33603 21.912 5.58875 21.7855 5.86151 21.7461C6.13426 21.7067 6.41247 21.7564 6.65468 21.8879C6.55304 21.7252 6.41602 21.5876 6.25383 21.4853C6.09164 21.3829 5.90845 21.3185 5.7179 21.2968C5.52736 21.2751 5.33437 21.2966 5.1533 21.3598C4.97224 21.423 4.80776 21.5262 4.67213 21.6618C4.53397 21.7994 4.4302 21.9676 4.36921 22.1528C4.32555 22.2832 4.30445 22.42 4.30682 22.5575Z" fill="#EDA197"/>
<path d="M6.68573 22.5201C6.6052 22.4517 6.50602 22.409 6.40097 22.3975C6.36251 22.4011 6.32516 22.4124 6.29116 22.4307C6.25717 22.4491 6.22723 22.4741 6.20312 22.5043L6.68573 22.5201Z" fill="#280C1A"/>
<path d="M5.80339 22.5201C5.72263 22.4518 5.62332 22.4091 5.51816 22.3975C5.47968 22.401 5.44232 22.4123 5.40832 22.4307C5.37432 22.449 5.34438 22.4741 5.32031 22.5043L5.80339 22.5201Z" fill="#280C1A"/>
<path opacity="0.53" d="M5.94377 24.0379C6.02887 24.0511 6.11595 24.0357 6.19133 23.994C6.26671 23.9524 6.32612 23.8868 6.36018 23.8077C6.12185 23.7151 5.85747 23.7151 5.61914 23.8077C5.64353 23.8745 5.68766 23.9322 5.74564 23.9733C5.80362 24.0144 5.87271 24.0369 5.94377 24.0379Z" fill="white"/>
<path opacity="0.33" d="M5.97564 23.4727H6.0354C6.06115 23.4727 6.08203 23.4518 6.08203 23.426V23.1847C6.08203 23.159 6.06115 23.1381 6.0354 23.1381H5.97564C5.94989 23.1381 5.92901 23.159 5.92901 23.1847V23.426C5.92901 23.4518 5.94989 23.4727 5.97564 23.4727Z" fill="white"/>
<path d="M4.31146 23.0302C4.42523 23.0302 4.51746 22.9379 4.51746 22.8242C4.51746 22.7104 4.42523 22.6182 4.31146 22.6182C4.1977 22.6182 4.10547 22.7104 4.10547 22.8242C4.10547 22.9379 4.1977 23.0302 4.31146 23.0302Z" fill="#EDA197"/>
<path d="M6.85248 22.9755C6.96624 22.9755 7.05847 22.8832 7.05847 22.7695C7.05847 22.6557 6.96624 22.5635 6.85248 22.5635C6.73871 22.5635 6.64648 22.6557 6.64648 22.7695C6.64648 22.8832 6.73871 22.9755 6.85248 22.9755Z" fill="#EA9387"/>
<path d="M6.6626 21.8909C6.46795 21.664 6.20571 21.5056 5.91435 21.4388C5.78957 21.413 5.35011 21.3198 5.16067 21.5382C5.03453 21.682 5.08788 21.8868 4.94998 21.9415C4.85278 21.9799 4.78315 21.9008 4.68504 21.9144C4.56568 21.9316 4.42687 22.0826 4.31339 22.6179C4.2417 22.5578 4.18725 22.4798 4.1556 22.3918C4.10044 22.2349 4.14881 22.1043 4.2641 21.7589C4.3119 21.5522 4.38242 21.3514 4.47435 21.1602C4.62971 20.9653 4.84425 20.8261 5.08561 20.7637C5.22551 20.7279 5.36991 20.7126 5.51422 20.7185C6.05677 20.7185 6.43654 20.7185 6.63773 20.9654C6.89816 21.2873 6.68973 21.8203 6.6626 21.8909Z" fill="#060C21"/>
<path d="M9.11851 25.7812C9.72465 26.3865 10.3309 26.9919 10.9374 27.5974C10.7095 28.5258 10.4823 29.4535 10.2556 30.3807L8.94852 29.6573C8.36529 29.3349 7.48637 28.4908 7.58132 27.5029C7.68892 26.3799 9.05657 25.8057 9.11851 25.7812Z" fill="#1E80F3"/>
<path d="M14.4949 30.7681L14.0021 31.633L11.7415 35.5764L10.6347 35.5579L8.02148 35.5208L10.7659 30.7139L14.4949 30.7681Z" fill="#CBE2F7"/>
<path d="M14.0002 31.6328L11.7396 35.5762L10.6328 35.5577L12.8835 31.6143L14.0002 31.6328Z" fill="#EBF5FC"/>
<path d="M9.39271 33.0307C9.75441 33.0759 10.1161 33.1211 10.4882 33.1708C11.2005 33.2127 11.9125 33.2543 12.6245 33.2956C12.6373 33.3506 12.6384 33.4076 12.6275 33.4631C12.6167 33.5185 12.5942 33.571 12.5616 33.617C12.4613 33.7314 12.2904 33.7075 12.0335 33.7201C11.7993 33.731 11.5667 33.7659 11.3396 33.8241C11.2137 34.0327 11.0469 34.2137 10.8492 34.3561C10.6516 34.4986 10.4271 34.5995 10.1894 34.6529C9.91386 34.7044 9.62984 34.6859 9.36335 34.5991L4.08756 34.4065C3.82216 34.4065 3.56174 34.397 3.28821 34.3911C3.21276 34.3925 3.13729 34.3898 3.06215 34.3829C2.70819 34.3743 2.37036 34.2332 2.11544 33.9875C1.86052 33.7418 1.70706 33.4094 1.68542 33.056C1.57104 31.0576 1.45667 29.0597 1.33008 27.0645L3.64446 26.9487C3.74529 28.6636 3.84113 30.3848 3.94241 32.1029C5.75963 32.4118 7.5764 32.7211 9.39271 33.0307Z" fill="#EA9387"/>
<path d="M9.40089 33.0165C9.45107 33.0283 9.49809 33.0269 9.54827 33.0386L4.82858 32.8632C4.56228 32.8632 4.30233 32.8542 4.02834 32.8479C3.95292 32.8492 3.87747 32.8468 3.80228 32.8406C3.44826 32.832 3.11034 32.6908 2.85541 32.445C2.60048 32.1992 2.44708 31.8667 2.42556 31.5132C2.33785 30.0135 2.25602 28.5057 2.1543 27.0083L3.65261 26.9346C3.75388 28.6495 3.84974 30.3707 3.95146 32.0887C5.76688 32.3947 7.58244 32.7002 9.39816 33.0052C9.39729 33.0071 9.39711 33.0093 9.3976 33.0113C9.39809 33.0134 9.39925 33.0152 9.40089 33.0165Z" fill="#EDA197"/>
<path d="M4.5118 29.9696L0.990234 30.3427L1.25203 26.2284C2.16863 26.2054 3.08491 26.1824 4.0009 26.1592L4.5118 29.9696Z" fill="#1E80F3"/>
<path d="M11.062 31.3169C11.1308 31.3169 11.1865 31.2611 11.1865 31.1924C11.1865 31.1236 11.1308 31.0679 11.062 31.0679C10.9932 31.0679 10.9375 31.1236 10.9375 31.1924C10.9375 31.2611 10.9932 31.3169 11.062 31.3169Z" fill="#1E80F3"/>
<path d="M61.9901 46.2259C61.4379 43.789 60.8859 41.3525 60.334 38.9165C60.5751 41.9765 60.8182 45.0367 61.0633 48.0973L61.9901 46.2259Z" fill="#F9B353"/>
<path d="M51.5548 62.4071L54.5234 62.6147L54.8999 57.2323L51.9313 57.0247L51.5548 62.4071Z" fill="#FAC7A5"/>
<path d="M54.5234 62.6147L49.5848 62.2693L49.629 61.6379C49.6423 61.452 49.7289 61.2791 49.8696 61.1569C50.0104 61.0348 50.1938 60.9735 50.3797 60.9865L54.6166 61.2829L54.5234 62.6147Z" fill="#D64A4A"/>
<path d="M51.6486 61.0751L54.6172 61.2827L54.6735 60.4781L51.7049 60.2705L51.6486 61.0751Z" fill="#D64A4A"/>
<path d="M77.6172 60.5976L79.2539 58.1128L74.7486 55.1452L73.1119 57.6301L77.6172 60.5976Z" fill="#FAC7A5"/>
<path d="M79.2539 58.1128L76.531 62.2466L76.0025 61.8985C75.8471 61.7957 75.7388 61.6355 75.7014 61.4529C75.6641 61.2704 75.7006 61.0805 75.8031 60.9249L78.1391 57.3785L79.2539 58.1128Z" fill="#D64A4A"/>
<path d="M76.4998 59.8641L78.1367 57.3789L77.4631 56.9352L75.8262 59.4204L76.4998 59.8641Z" fill="#D64A4A"/>
<path d="M77.1978 55.7641C76.2136 57.0395 75.2297 58.3041 74.2455 59.58C71.1029 57.3709 67.9635 55.1653 64.8273 52.9632C63.8301 52.2554 63.1293 51.2044 62.8593 50.0118C62.5681 48.7458 62.2869 47.4916 61.9957 46.2261C59.8575 50.5632 57.7224 54.9007 55.5905 59.2386C53.993 58.9776 52.3965 58.7232 50.8008 58.4754C53.3327 51.9287 55.8595 45.3857 58.3815 38.8462C59.0339 38.8765 59.6967 38.9172 60.3496 38.9466C60.3459 38.9427 60.3432 38.938 60.3416 38.9329C60.3399 38.9278 60.3394 38.9225 60.3401 38.9172L66.9464 39.2481L68.9647 49.2278C71.7157 51.4067 74.4601 53.5855 77.1978 55.7641Z" fill="#292349"/>
<path d="M61.9901 46.2259C61.4379 43.789 60.8859 41.3525 60.334 38.9165C60.5751 41.9765 60.8182 45.0367 61.0633 48.0973L61.9901 46.2259Z" fill="#1E1B3A"/>
<path d="M54.5626 48.7256L52.2156 58.6989L50.7969 58.4756C52.052 55.2251 53.3072 51.9751 54.5626 48.7256Z" fill="#2E2B4C"/>
<path d="M68.9609 49.2271C71.3876 51.8165 73.814 54.4059 76.2401 56.9954L77.1926 55.7634L68.9609 49.2271Z" fill="#2E2B4C"/>
<path d="M50.7969 58.4747L55.5866 59.2379C55.8323 58.7948 56.0782 58.3519 56.3245 57.9091L51.2766 57.231C51.1168 57.6454 50.9569 58.06 50.7969 58.4747Z" fill="#5486D1"/>
<path d="M73.3105 58.9244L74.2411 59.579L77.1934 55.7631C76.8277 55.4843 76.4623 55.2054 76.097 54.9263L73.3105 58.9244Z" fill="#5486D1"/>
<path d="M50.4987 40.5161C50.5914 40.4392 50.6846 40.3619 50.7782 40.2855C50.8401 40.4352 50.8952 40.5776 50.959 40.7281C51.313 40.8452 51.6593 40.9542 52.0133 41.0731L57.5667 41.5406C57.8579 41.565 58.1206 41.5894 58.4108 41.6134C58.4891 41.6215 58.5736 41.6369 58.659 41.6378C59.0298 41.6677 59.3984 41.558 59.6924 41.3302C59.9865 41.1025 60.1849 40.7731 60.2487 40.4067C60.5991 38.3088 60.9427 36.202 61.2854 34.1127L58.8761 33.7026C58.5723 35.5025 58.2752 37.3097 57.9845 39.1095C56.0806 39.2 54.1835 39.3012 52.2796 39.3935C51.998 39.2203 51.7018 39.0603 51.4206 38.8871C50.9308 39.3762 50.4034 39.8261 49.8432 40.2326C49.8297 40.2483 49.8124 40.2603 49.793 40.2674C50.0321 40.3542 50.265 40.4356 50.4987 40.5161Z" fill="#EA9387"/>
<path d="M52.9609 39.3639L56.5503 39.6596C56.841 39.6845 57.1032 39.7089 57.3944 39.7333C57.4726 39.7414 57.5576 39.7564 57.6422 39.7577C58.0132 39.7878 58.3821 39.6781 58.6764 39.4501C58.9706 39.2222 59.1691 38.8925 59.2327 38.5257C59.4841 36.9885 59.7381 35.4531 59.9946 33.9195L58.7616 33.7065C58.4569 35.5064 58.1598 37.3136 57.87 39.1144C56.2288 39.188 54.5949 39.283 52.9609 39.3639Z" fill="#EDA197"/>
<path d="M68.481 43.0852C65.7179 44.084 62.7456 44.3612 59.8455 43.8905C58.7899 43.7108 57.7544 43.428 56.7539 43.0463L57.178 30.783C57.178 30.2207 57.4014 29.6813 57.799 29.2837C58.1967 28.886 58.736 28.6626 59.2984 28.6626H64.5882C65.229 28.6626 65.8436 28.9172 66.2967 29.3703C66.7498 29.8234 67.0044 30.4379 67.0044 31.0787C67.4975 35.0809 67.9897 39.0831 68.481 43.0852Z" fill="#1E80F3"/>
<path d="M52.041 34.6197L52.5732 35.5533L55.0146 39.8105L56.2096 39.7906L59.0308 39.7504L56.0689 34.5596L52.041 34.6197Z" fill="#CBE2F7"/>
<path d="M52.5742 35.5536L55.0157 39.8108L56.2107 39.7909L53.781 35.5337L52.5742 35.5536Z" fill="#EBF5FC"/>
<path d="M57.5514 37.0637C57.1599 37.1117 56.7684 37.1605 56.3683 37.2147L54.0625 37.3504C54.0484 37.4096 54.047 37.4712 54.0585 37.531C54.0701 37.5908 54.0942 37.6474 54.1293 37.6972C54.2379 37.821 54.4237 37.7966 54.699 37.8093C54.9522 37.8211 55.2036 37.8586 55.4491 37.9214C55.5848 38.1467 55.7646 38.342 55.9779 38.4958C56.1913 38.6495 56.4336 38.7583 56.6902 38.8157C56.9877 38.8714 57.2943 38.8516 57.5822 38.7583L63.2789 38.5494C63.566 38.5494 63.8468 38.5399 64.1424 38.5331C64.2239 38.5346 64.3055 38.5316 64.3866 38.5241C64.7687 38.5148 65.1334 38.3624 65.4086 38.0971C65.6837 37.8318 65.8492 37.4728 65.8723 37.0913C65.9962 34.9338 66.1196 32.7772 66.2566 30.6228L63.7577 30.498C63.6483 32.3517 63.5452 34.2091 63.4353 36.0591L57.5514 37.0637Z" fill="#EA9387"/>
<path d="M57.5419 37.048C57.4881 37.0607 57.4375 37.0589 57.3828 37.0715L62.4787 36.8825C62.7662 36.8825 63.047 36.8721 63.3427 36.8653C63.4241 36.8668 63.5056 36.8641 63.5868 36.8572C63.9689 36.8477 64.3336 36.6952 64.6087 36.4298C64.8838 36.1645 65.0492 35.8055 65.0724 35.424C65.1674 33.805 65.256 32.1773 65.3654 30.5605L63.7478 30.481C63.6388 32.3346 63.5348 34.1929 63.4254 36.042C61.4662 36.3715 59.5061 36.7014 57.5451 37.0317C57.5462 37.0329 57.547 37.0344 57.5474 37.0359C57.5478 37.0374 57.5479 37.0391 57.5476 37.0407C57.5472 37.0422 57.5466 37.0437 57.5456 37.045C57.5446 37.0463 57.5434 37.0473 57.5419 37.048Z" fill="#EDA197"/>
<path d="M62.8184 33.7588L66.6207 34.1611L66.3376 29.7182C65.3481 29.6931 64.3589 29.6683 63.3699 29.6436L62.8184 33.7588Z" fill="#1E80F3"/>
<path d="M55.7497 35.2128C55.824 35.2128 55.8842 35.1526 55.8842 35.0783C55.8842 35.004 55.824 34.9438 55.7497 34.9438C55.6754 34.9438 55.6152 35.004 55.6152 35.0783C55.6152 35.1526 55.6754 35.2128 55.7497 35.2128Z" fill="#1E80F3"/>
<path d="M61.2729 27.2464C61.5532 27.259 61.6898 27.509 61.8516 27.5511C62.2356 27.6088 62.6281 27.5561 62.9834 27.3993C63.3386 27.2425 63.642 26.988 63.8581 26.6654C64.6082 25.5455 64.015 23.4079 62.542 22.8956C62.0861 22.7601 61.6011 22.7574 61.1437 22.8881C60.6864 23.0187 60.2759 23.2771 59.9604 23.633C59.7692 23.868 59.6286 24.1399 59.5474 24.4317C59.4661 24.7235 59.4461 25.029 59.4884 25.3289C59.5461 25.7504 59.6984 26.1534 59.934 26.5076C60.1696 26.8619 60.4824 27.1582 60.8488 27.3743C60.9736 27.2889 61.1217 27.2443 61.2729 27.2464Z" fill="#060C21"/>
<path d="M62.8023 28.6728C62.7897 28.7008 62.7716 28.7415 62.7454 28.7895C62.6618 28.9467 62.5515 29.0882 62.4194 29.2077C62.2945 29.3209 62.1455 29.4041 61.9836 29.4509L61.3818 29.4473C61.3078 29.4269 61.2359 29.3995 61.167 29.3655C61.03 29.2975 60.9072 29.2038 60.8053 29.0897C60.7306 29.0055 60.6656 28.9133 60.6114 28.8148C60.5867 28.7718 60.5645 28.7274 60.5449 28.6819C60.6245 28.6597 60.7131 28.6366 60.808 28.6168L60.813 27.7505V28.0728C61.0742 28.2125 61.3744 28.2614 61.6664 28.2119C61.9584 28.1624 62.2257 28.0173 62.4262 27.7993L62.4217 28.586C62.5605 28.6118 62.6866 28.6412 62.8023 28.6728Z" fill="#EA9387"/>
<path d="M62.4296 27.3017V27.5305V27.7565V27.8017C62.229 28.0197 61.9618 28.1648 61.6698 28.2143C61.3778 28.2639 61.0776 28.2149 60.8164 28.0753V27.7529L60.8187 27.2949L62.4296 27.3017Z" fill="#EA9387"/>
<path d="M62.4299 27.5304C62.4299 27.605 62.4299 27.6787 62.4299 27.7538V27.799H62.4276C62.2271 28.0169 61.9598 28.1621 61.6678 28.2116C61.3758 28.2611 61.0756 28.2122 60.8145 28.0725V27.7501C60.8145 27.6733 60.8145 27.5969 60.8145 27.52L62.4272 27.5291L62.4299 27.5304Z" fill="#DD847A"/>
<path d="M63.0059 25.7159L63.0004 26.65C62.999 26.8659 62.9466 27.0784 62.8474 27.2702C62.7483 27.462 62.6052 27.6276 62.4299 27.7536C62.276 27.8652 62.1004 27.9431 61.9144 27.9824C61.819 28.0023 61.7217 28.0122 61.6242 28.0118H61.6129C61.5181 28.0111 61.4238 28.0005 61.3312 27.9802C61.1459 27.9409 60.971 27.8628 60.8181 27.7509C60.7132 27.6753 60.6196 27.5852 60.54 27.4833C60.5224 27.4611 60.5061 27.4381 60.4907 27.4155C60.3333 27.186 60.25 26.9138 60.252 26.6355L60.2579 25.6897C60.2621 25.3642 60.3815 25.0506 60.5951 24.8049C60.8087 24.5591 61.1025 24.3971 61.4243 24.3476C61.7461 24.298 62.0751 24.3642 62.3526 24.5344C62.6302 24.7046 62.8385 24.9677 62.9403 25.2769C62.9861 25.4187 63.0083 25.567 63.0059 25.7159Z" fill="#EA9387"/>
<path d="M60.7792 25.9575C60.7792 25.981 60.7722 26.0041 60.7591 26.0237C60.7459 26.0433 60.7273 26.0586 60.7054 26.0675C60.6836 26.0765 60.6596 26.0788 60.6365 26.0742C60.6134 26.0695 60.5922 26.0581 60.5756 26.0413C60.559 26.0246 60.5477 26.0033 60.5432 25.9801C60.5387 25.957 60.5412 25.933 60.5504 25.9113C60.5595 25.8895 60.5749 25.871 60.5946 25.858C60.6143 25.845 60.6374 25.8382 60.661 25.8384C60.6766 25.8384 60.692 25.8416 60.7063 25.8476C60.7207 25.8536 60.7338 25.8624 60.7447 25.8734C60.7557 25.8845 60.7644 25.8976 60.7703 25.912C60.7762 25.9264 60.7792 25.9419 60.7792 25.9575Z" fill="#280C1A"/>
<path d="M61.8037 25.9668C61.8037 25.9982 61.7911 26.0284 61.7689 26.0506C61.7467 26.0729 61.7165 26.0854 61.6851 26.0854C61.6536 26.0854 61.6234 26.0729 61.6012 26.0506C61.5789 26.0284 61.5664 25.9982 61.5664 25.9668C61.5664 25.9512 61.5695 25.9358 61.5755 25.9214C61.5814 25.907 61.5902 25.8939 61.6012 25.8829C61.6122 25.8719 61.6252 25.8631 61.6396 25.8572C61.654 25.8512 61.6695 25.8481 61.6851 25.8481C61.7006 25.8481 61.716 25.8512 61.7304 25.8572C61.7448 25.8631 61.7579 25.8719 61.7689 25.8829C61.7799 25.8939 61.7886 25.907 61.7946 25.9214C61.8006 25.9358 61.8037 25.9512 61.8037 25.9668Z" fill="#280C1A"/>
<path d="M61.9854 29.4504C61.9682 29.4554 61.9506 29.4599 61.9329 29.4644C61.7509 29.5042 61.5619 29.4981 61.3828 29.4468L61.9854 29.4504Z" fill="#EA9387"/>
<path d="M63.0061 25.7159L63.0007 26.65C62.9993 26.8659 62.9468 27.0784 62.8477 27.2702C62.7485 27.462 62.6054 27.6276 62.4301 27.7536C62.3866 27.7852 62.3413 27.8142 62.2945 27.8404C62.4238 27.6283 62.4929 27.3849 62.4943 27.1365L62.4993 26.2015C62.5006 26.0522 62.4772 25.9037 62.4301 25.762C62.3672 25.5695 62.2626 25.3931 62.1237 25.2456C61.9849 25.0981 61.8152 24.983 61.6268 24.9086C61.4384 24.8342 61.2358 24.8022 61.0337 24.815C60.8315 24.8278 60.6346 24.885 60.457 24.9826C60.6146 24.7262 60.8518 24.5284 61.1323 24.4195C61.4129 24.3106 61.7214 24.2966 62.0107 24.3796C62.3 24.4626 62.5541 24.638 62.7343 24.8791C62.9145 25.1202 63.0107 25.4136 63.0084 25.7146L63.0061 25.7159Z" fill="#EDA197"/>
<path d="M60.4219 25.6739C60.509 25.5987 60.6167 25.5514 60.7311 25.5381C60.7731 25.5419 60.8138 25.5542 60.8509 25.5743C60.888 25.5943 60.9205 25.6218 60.9466 25.6549L60.4219 25.6739Z" fill="#280C1A"/>
<path d="M61.3848 25.6739C61.4718 25.5985 61.5796 25.5512 61.694 25.5381C61.7359 25.542 61.7765 25.5543 61.8135 25.5744C61.8505 25.5945 61.883 25.6219 61.909 25.6549L61.3848 25.6739Z" fill="#280C1A"/>
<path d="M61.2295 27.3378C61.1368 27.3523 61.0419 27.3353 60.9599 27.2896C60.878 27.2439 60.8137 27.172 60.7773 27.0855C60.9107 27.0322 61.0534 27.0063 61.1969 27.0095C61.3288 27.0105 61.4593 27.0362 61.5816 27.0855C61.5556 27.1584 61.5079 27.2216 61.445 27.2667C61.382 27.3118 61.3069 27.3366 61.2295 27.3378Z" fill="#E43F64"/>
<path opacity="0.33" d="M61.1931 26.3525H61.1293C61.101 26.3525 61.0781 26.3754 61.0781 26.4037V26.6685C61.0781 26.6968 61.101 26.7197 61.1293 26.7197H61.1931C61.2214 26.7197 61.2443 26.6968 61.2443 26.6685V26.4037C61.2443 26.3754 61.2214 26.3525 61.1931 26.3525Z" fill="white"/>
<path d="M62.999 26.2305C63.1226 26.2305 63.2227 26.1304 63.2227 26.0069C63.2227 25.8833 63.1226 25.7832 62.999 25.7832C62.8755 25.7832 62.7754 25.8833 62.7754 26.0069C62.7754 26.1304 62.8755 26.2305 62.999 26.2305Z" fill="#EDA197"/>
<path d="M60.2412 26.1709C60.3647 26.1709 60.4649 26.0708 60.4649 25.9473C60.4649 25.8238 60.3647 25.7236 60.2412 25.7236C60.1177 25.7236 60.0176 25.8238 60.0176 25.9473C60.0176 26.0708 60.1177 26.1709 60.2412 26.1709Z" fill="#EA9387"/>
<path d="M63.0836 25.6608C62.6808 25.9063 61.8882 25.489 61.6703 24.8922C61.6065 24.7103 61.5909 24.5149 61.6251 24.3252C61.7074 24.1347 61.8471 23.9746 62.0247 23.8672C62.1363 23.7815 62.2688 23.7272 62.4084 23.7097C62.548 23.6923 62.6897 23.7124 62.8189 23.768C62.9482 23.8236 63.0602 23.9127 63.1436 24.0261C63.2269 24.1394 63.2785 24.273 63.293 24.4129C63.3807 24.7448 63.4462 25.4392 63.0836 25.6608Z" fill="#060C21"/>
<path d="M63.4277 24.5482C63.9508 24.5482 64.3749 24.1241 64.3749 23.601C64.3749 23.0779 63.9508 22.6538 63.4277 22.6538C62.9045 22.6538 62.4805 23.0779 62.4805 23.601C62.4805 24.1241 62.9045 24.5482 63.4277 24.5482Z" fill="#060C21"/>
<path d="M57.4388 29.7744C57.1395 30.7965 56.8396 31.8188 56.5391 32.8411L57.0997 33.1658" fill="#1E80F3"/>
</svg>
