<svg width="82" height="64" viewBox="0 0 82 64" fill="none" xmlns="http://www.w3.org/2000/svg">
<path d="M58.2157 61.5696L60.4473 61.3413L60.0333 57.2955L57.8018 57.5238L58.2157 61.5696Z" fill="#FAC7A5"/>
<path d="M60.4473 61.3413L56.7355 61.7211L56.687 61.2475C56.6727 61.1075 56.7146 60.9676 56.8034 60.8585C56.8923 60.7495 57.0208 60.6801 57.1607 60.6658L60.3448 60.34L60.4473 61.3413Z" fill="#D64A4A"/>
<path d="M58.1142 60.5682L60.3457 60.3398L60.2838 59.7352L58.0523 59.9636L58.1142 60.5682Z" fill="#D64A4A"/>
<path d="M81.4589 58.7981L81.5801 56.5571L77.5172 56.3375L77.3961 58.5785L81.4589 58.7981Z" fill="#FAC7A5"/>
<path d="M81.5801 56.5571L81.3786 60.2845L80.903 60.2588C80.7625 60.2512 80.6307 60.1881 80.5367 60.0834C80.4427 59.9786 80.3941 59.8408 80.4017 59.7003L80.5746 56.5028L81.5801 56.5571Z" fill="#D64A4A"/>
<path d="M80.455 58.7439L80.5762 56.5029L79.969 56.4701L79.8479 58.711L80.455 58.7439Z" fill="#D64A4A"/>
<path d="M65.0157 51.0635L59.9431 51.0185C60.5125 53.5324 61.0819 56.0462 61.6513 58.56H56.9681L55.6968 49.5558C55.65 49.2235 55.6749 48.8851 55.7698 48.5632C55.8648 48.2414 56.0275 47.9436 56.2472 47.69C56.4668 47.4363 56.7382 47.2326 57.0432 47.0926C57.3481 46.9526 57.6795 46.8795 58.015 46.8783L68.0258 46.8433L72.335 55.5072H78.041V59.9576L69.5946 59.7728L65.0157 51.0635Z" fill="#292349"/>
<path d="M59.9434 51.019C59.991 53.5328 60.0384 56.0467 60.0854 58.5605H61.6507C61.0819 56.0467 60.5128 53.5328 59.9434 51.019Z" fill="#2E2B4C"/>
<path d="M72.3359 55.5073L78.0419 56.6312V55.5073H72.3359Z" fill="#2E2B4C"/>
<path d="M56.8379 57.6459L56.9669 58.5603H61.6493L61.4798 57.6108L56.8379 57.6459Z" fill="#5486D1"/>
<path d="M77.0449 55.5073L77.0926 59.937L78.0429 59.9577V55.5073H77.0449Z" fill="#5486D1"/>
<path d="M29.4576 25.4062H28.5293V59.9311H29.4576V25.4062Z" fill="#5D7DC3"/>
<path d="M43.2154 25.4062H42.2871V59.9311H43.2154V25.4062Z" fill="#5D7DC3"/>
<path d="M58.6586 2.16845V30.0122C58.6595 30.2844 58.6066 30.554 58.5031 30.8057C58.3996 31.0573 58.2474 31.2861 58.0553 31.4788C57.8632 31.6715 57.6349 31.8245 57.3836 31.9288C57.1323 32.0332 56.8628 32.0869 56.5907 32.0868H14.9448C14.6728 32.0864 14.4036 32.0324 14.1524 31.928C13.9013 31.8235 13.6732 31.6705 13.4812 31.4779C13.2891 31.2852 13.1369 31.0566 13.0333 30.8052C12.9296 30.5537 12.8765 30.2843 12.877 30.0122V2.16845C12.877 1.62088 13.0941 1.09565 13.4809 0.707997C13.8676 0.320339 14.3923 0.101895 14.9399 0.100586H56.593C57.1405 0.1013 57.6653 0.319115 58.0525 0.706255C58.4396 1.09339 58.6574 1.61825 58.6581 2.16575L58.6586 2.16845Z" fill="#D4E2FF"/>
<path d="M58.6565 2.16894V5.95179H12.873V2.16894C12.873 1.62137 13.0902 1.09614 13.477 0.708485C13.8637 0.320827 14.3884 0.102384 14.936 0.101074H56.5891C57.1366 0.101073 57.6618 0.318256 58.0495 0.704987C58.4372 1.09172 58.6556 1.61643 58.6569 2.164L58.6565 2.16894Z" fill="#82A3E7"/>
<path d="M16.8144 3.61906C17.0744 3.61906 17.2851 3.40834 17.2851 3.1484C17.2851 2.88846 17.0744 2.67773 16.8144 2.67773C16.5545 2.67773 16.3438 2.88846 16.3438 3.1484C16.3438 3.40834 16.5545 3.61906 16.8144 3.61906Z" fill="#2C4F8C"/>
<path d="M18.539 3.61906C18.799 3.61906 19.0097 3.40834 19.0097 3.1484C19.0097 2.88846 18.799 2.67773 18.539 2.67773C18.2791 2.67773 18.0684 2.88846 18.0684 3.1484C18.0684 3.40834 18.2791 3.61906 18.539 3.61906Z" fill="#2C4F8C"/>
<path d="M20.1601 3.61906C20.4201 3.61906 20.6308 3.40834 20.6308 3.1484C20.6308 2.88846 20.4201 2.67773 20.1601 2.67773C19.9002 2.67773 19.6895 2.88846 19.6895 3.1484C19.6895 3.40834 19.9002 3.61906 20.1601 3.61906Z" fill="#2C4F8C"/>
<path d="M20.0859 7.67432H3.09439C2.78877 7.67432 2.54102 7.92207 2.54102 8.22769V28.8812C2.54102 29.1868 2.78877 29.4345 3.09439 29.4345H20.0859C20.3916 29.4345 20.6393 29.1868 20.6393 28.8812V8.22769C20.6393 7.92207 20.3916 7.67432 20.0859 7.67432Z" fill="#1E80F3"/>
<path opacity="0.26" d="M17.3378 21.5967H5.80273V22.5425H17.3378V21.5967Z" fill="white"/>
<path opacity="0.26" d="M17.33 23.3462H5.79492V24.292H17.33V23.3462Z" fill="white"/>
<path opacity="0.26" d="M17.3593 25.0957H5.82422V26.0415H17.3593V25.0957Z" fill="white"/>
<path d="M11.5897 10.4756V14.7952C10.7563 13.6223 9.92328 12.4536 9.08984 11.2762C9.81875 10.7542 10.6931 10.4741 11.5897 10.4756Z" fill="#7DBBF9"/>
<path d="M11.5924 14.795H7.27148C7.27148 14.7599 7.27733 14.7217 7.27733 14.6835C7.33452 13.9919 7.526 13.3181 7.84105 12.6997C7.94591 12.5083 8.0635 12.3242 8.19303 12.1486C8.2391 12.0824 8.29004 12.0197 8.34543 11.9611C8.40526 11.8838 8.46997 11.8104 8.53918 11.7413C8.71017 11.5719 8.8948 11.4169 9.0912 11.2778C9.92464 12.4534 10.7576 13.6213 11.5924 14.795Z" fill="#205BBA"/>
<path d="M15.9126 14.7961C15.9127 15.3641 15.8008 15.9266 15.5835 16.4514C15.3661 16.9762 15.0475 17.4531 14.6458 17.8547C14.2442 18.2564 13.7673 18.575 13.2425 18.7924C12.7177 19.0097 12.1552 19.1216 11.5872 19.1215C10.441 19.1201 9.34221 18.6637 8.53227 17.8527C7.72233 17.0417 7.26746 15.9423 7.26758 14.7961H11.5872V10.4756C12.7335 10.4756 13.8329 10.9306 14.644 11.7407C15.455 12.5508 15.9113 13.6498 15.9126 14.7961Z" fill="white"/>
<path d="M63.4361 10.0635H34.8308C34.235 10.0635 33.752 10.5465 33.752 11.1424V23.7806C33.752 24.3765 34.235 24.8595 34.8308 24.8595H63.4361C64.032 24.8595 64.515 24.3765 64.515 23.7806V11.1424C64.515 10.5465 64.032 10.0635 63.4361 10.0635Z" fill="#6087CC"/>
<path d="M37.4106 12.9341C37.4873 12.9341 37.5633 12.9492 37.6342 12.9786C37.7051 13.0079 37.7695 13.051 37.8238 13.1053C37.8781 13.1595 37.9211 13.2239 37.9505 13.2948C37.9798 13.3657 37.995 13.4417 37.995 13.5185V22.7901C37.995 22.8669 37.9798 22.9429 37.9505 23.0138C37.9211 23.0847 37.8781 23.1491 37.8238 23.2034C37.7695 23.2577 37.7051 23.3007 37.6342 23.3301C37.5633 23.3594 37.4873 23.3746 37.4106 23.3746C37.2556 23.3746 37.1069 23.313 36.9973 23.2034C36.8877 23.0938 36.8262 22.9451 36.8262 22.7901V13.5198C36.826 13.443 36.841 13.3668 36.8703 13.2958C36.8996 13.2247 36.9426 13.1601 36.9969 13.1057C37.0511 13.0513 37.1156 13.0081 37.1866 12.9787C37.2576 12.9492 37.3337 12.9341 37.4106 12.9341Z" fill="white"/>
<path d="M43.1391 18.9766C43.2158 18.9766 43.2918 18.9917 43.3627 19.021C43.4336 19.0504 43.498 19.0935 43.5523 19.1477C43.6066 19.202 43.6496 19.2664 43.679 19.3373C43.7084 19.4082 43.7235 19.4842 43.7235 19.561V22.79C43.7235 22.8667 43.7084 22.9427 43.679 23.0136C43.6496 23.0845 43.6066 23.1489 43.5523 23.2032C43.498 23.2575 43.4336 23.3005 43.3627 23.3299C43.2918 23.3593 43.2158 23.3744 43.1391 23.3744C43.0623 23.3744 42.9864 23.3593 42.9155 23.3299C42.8445 23.3005 42.7801 23.2575 42.7259 23.2032C42.6716 23.1489 42.6285 23.0845 42.5992 23.0136C42.5698 22.9427 42.5547 22.8667 42.5547 22.79V19.5623C42.5545 19.4855 42.5695 19.4093 42.5988 19.3383C42.6281 19.2672 42.6711 19.2026 42.7254 19.1482C42.7797 19.0938 42.8441 19.0506 42.9151 19.0212C42.9861 18.9917 43.0622 18.9766 43.1391 18.9766Z" fill="white"/>
<path opacity="0.66" d="M40.1723 15.5332C40.249 15.5332 40.325 15.5483 40.3959 15.5777C40.4668 15.607 40.5313 15.6501 40.5855 15.7044C40.6398 15.7586 40.6828 15.823 40.7122 15.894C40.7416 15.9649 40.7567 16.0409 40.7567 16.1176V22.7887C40.7567 22.9437 40.6951 23.0923 40.5855 23.2019C40.4759 23.3115 40.3273 23.3731 40.1723 23.3731C40.0173 23.3731 39.8687 23.3115 39.7591 23.2019C39.6495 23.0923 39.5879 22.9437 39.5879 22.7887V16.1189C39.5877 16.0421 39.6027 15.9659 39.632 15.8949C39.6613 15.8238 39.7043 15.7592 39.7586 15.7048C39.8129 15.6504 39.8773 15.6073 39.9483 15.5778C40.0193 15.5484 40.0954 15.5332 40.1723 15.5332Z" fill="white"/>
<path d="M45.7035 12.9341C45.8585 12.9341 46.0072 12.9957 46.1168 13.1053C46.2264 13.2148 46.2879 13.3635 46.2879 13.5185V22.7901C46.2879 22.9451 46.2264 23.0938 46.1168 23.2034C46.0072 23.313 45.8585 23.3746 45.7035 23.3746C45.5485 23.3746 45.3999 23.313 45.2903 23.2034C45.1807 23.0938 45.1191 22.9451 45.1191 22.7901V13.5198C45.119 13.443 45.134 13.3668 45.1632 13.2958C45.1925 13.2247 45.2355 13.1601 45.2898 13.1057C45.3441 13.0513 45.4086 13.0081 45.4796 12.9787C45.5506 12.9492 45.6267 12.9341 45.7035 12.9341Z" fill="white"/>
<path d="M50.7367 18.9766C50.8917 18.9766 51.0404 19.0381 51.15 19.1477C51.2596 19.2573 51.3211 19.406 51.3211 19.561V22.79C51.3211 22.8667 51.306 22.9427 51.2767 23.0136C51.2473 23.0845 51.2042 23.1489 51.15 23.2032C51.0957 23.2575 51.0313 23.3005 50.9604 23.3299C50.8895 23.3593 50.8135 23.3744 50.7367 23.3744C50.66 23.3744 50.584 23.3593 50.5131 23.3299C50.4422 23.3005 50.3778 23.2575 50.3235 23.2032C50.2692 23.1489 50.2262 23.0845 50.1968 23.0136C50.1675 22.9427 50.1523 22.8667 50.1523 22.79V19.5623C50.1522 19.4855 50.1672 19.4093 50.1964 19.3383C50.2257 19.2672 50.2687 19.2026 50.323 19.1482C50.3773 19.0938 50.4418 19.0506 50.5128 19.0212C50.5838 18.9917 50.6599 18.9766 50.7367 18.9766Z" fill="white"/>
<path opacity="0.66" d="M48.2426 15.5332C48.3193 15.5332 48.3953 15.5483 48.4662 15.5777C48.5371 15.607 48.6016 15.6501 48.6558 15.7044C48.7101 15.7586 48.7531 15.823 48.7825 15.894C48.8119 15.9649 48.827 16.0409 48.827 16.1176V22.7887C48.827 22.9437 48.7654 23.0923 48.6558 23.2019C48.5462 23.3115 48.3976 23.3731 48.2426 23.3731C48.0876 23.3731 47.939 23.3115 47.8294 23.2019C47.7198 23.0923 47.6582 22.9437 47.6582 22.7887V16.1189C47.658 16.0421 47.673 15.9659 47.7023 15.8949C47.7316 15.8238 47.7746 15.7592 47.8289 15.7048C47.8832 15.6504 47.9477 15.6073 48.0187 15.5778C48.0896 15.5484 48.1657 15.5332 48.2426 15.5332Z" fill="white"/>
<path d="M55.6801 13.8794C55.8351 13.8794 55.9837 13.941 56.0933 14.0506C56.2029 14.1602 56.2645 14.3088 56.2645 14.4638V22.7874C56.2645 22.9424 56.2029 23.091 56.0933 23.2006C55.9837 23.3102 55.8351 23.3718 55.6801 23.3718C55.5251 23.3718 55.3765 23.3102 55.2669 23.2006C55.1573 23.091 55.0957 22.9424 55.0957 22.7874V14.4651C55.0955 14.3883 55.1105 14.3121 55.1398 14.2411C55.1691 14.17 55.2121 14.1054 55.2664 14.051C55.3207 13.9966 55.3852 13.9535 55.4562 13.924C55.5271 13.8946 55.6032 13.8794 55.6801 13.8794Z" fill="white"/>
<path opacity="0.66" d="M53.186 15.5332C53.2627 15.5332 53.3387 15.5483 53.4096 15.5777C53.4805 15.607 53.5449 15.6501 53.5992 15.7044C53.6535 15.7586 53.6965 15.823 53.7259 15.894C53.7552 15.9649 53.7704 16.0409 53.7704 16.1176V22.7887C53.7704 22.8654 53.7552 22.9414 53.7259 23.0123C53.6965 23.0832 53.6535 23.1477 53.5992 23.2019C53.5449 23.2562 53.4805 23.2992 53.4096 23.3286C53.3387 23.358 53.2627 23.3731 53.186 23.3731C53.031 23.3731 52.8823 23.3115 52.7727 23.2019C52.6631 23.0923 52.6016 22.9437 52.6016 22.7887V16.1189C52.6014 16.0421 52.6164 15.9659 52.6457 15.8949C52.675 15.8238 52.718 15.7592 52.7723 15.7048C52.8265 15.6504 52.891 15.6073 52.962 15.5778C53.033 15.5484 53.1091 15.5332 53.186 15.5332Z" fill="white"/>
<path opacity="0.66" d="M58.1508 15.5332C58.2275 15.5332 58.3035 15.5483 58.3744 15.5777C58.4453 15.607 58.5098 15.6501 58.564 15.7044C58.6183 15.7586 58.6613 15.823 58.6907 15.894C58.7201 15.9649 58.7352 16.0409 58.7352 16.1176V22.7887C58.7352 22.9437 58.6736 23.0923 58.564 23.2019C58.4544 23.3115 58.3058 23.3731 58.1508 23.3731C57.9958 23.3731 57.8472 23.3115 57.7376 23.2019C57.628 23.0923 57.5664 22.9437 57.5664 22.7887V16.1189C57.5662 16.0421 57.5812 15.9659 57.6105 15.8949C57.6398 15.8238 57.6828 15.7592 57.7371 15.7048C57.7914 15.6504 57.8559 15.6073 57.9269 15.5778C57.9978 15.5484 58.0739 15.5332 58.1508 15.5332Z" fill="white"/>
<path d="M61.9479 21.283H61.8198C61.1013 21.2263 60.4171 20.9524 59.858 20.4977C59.1683 19.98 58.3683 19.6287 57.5204 19.4714C56.7604 19.3233 55.9751 19.3738 55.2404 19.6179C54.5578 19.8642 53.8147 19.8875 53.1181 19.6845C52.0244 19.3157 51.092 18.5801 50.4789 17.6022C49.9547 16.9131 49.5412 16.3682 48.8264 16.3561H48.8075C48.0743 16.3561 47.6059 16.9153 47.062 17.5613C46.4776 18.2576 45.8082 19.0475 44.6925 19.1131C44.2703 19.1091 43.8536 19.0178 43.4686 18.8448C43.0835 18.6718 42.7384 18.4209 42.4551 18.1079C41.8981 17.557 41.2006 17.1695 40.4385 16.9877C38.9721 16.7157 37.2661 17.4849 35.3637 19.2745C35.341 19.2959 35.3143 19.3127 35.2851 19.3238C35.2559 19.3349 35.2249 19.3401 35.1936 19.3391C35.1624 19.3382 35.1317 19.331 35.1033 19.3182C35.0748 19.3053 35.0492 19.2869 35.0279 19.2641C35.0064 19.2415 34.9897 19.2148 34.9785 19.1857C34.9674 19.1565 34.9621 19.1255 34.963 19.0943C34.9639 19.0631 34.9709 19.0324 34.9836 19.0039C34.9964 18.9754 35.0146 18.9498 35.0373 18.9283C37.0562 17.0304 38.9033 16.2217 40.5248 16.5206C41.3684 16.7161 42.1421 17.1394 42.7617 17.7443C43.0019 18.0151 43.2948 18.2341 43.6225 18.388C43.9503 18.5418 44.3059 18.6271 44.6677 18.6388C45.5789 18.5853 46.1238 17.9394 46.7005 17.2556C47.2773 16.5719 47.8581 15.8818 48.8098 15.8818H48.8363C49.7826 15.8944 50.3067 16.5836 50.8592 17.3136C51.4117 18.2087 52.2573 18.8846 53.2521 19.2264C53.8653 19.4017 54.5184 19.3777 55.1172 19.1581C55.9215 18.8958 56.7793 18.8426 57.6099 19.0034C58.5225 19.1712 59.384 19.5474 60.1273 20.103C60.6136 20.5076 61.2123 20.7535 61.8427 20.8074C63.2115 20.8573 64.6712 19.8494 66.2005 17.7892C66.2389 17.7408 66.2947 17.7092 66.356 17.7012C66.4173 17.6931 66.4793 17.7092 66.529 17.746C66.5786 17.7828 66.612 17.8375 66.6221 17.8985C66.6322 17.9595 66.6182 18.022 66.5831 18.0729C64.993 20.2037 63.4363 21.2821 61.9479 21.283Z" fill="#20F2E3"/>
<path d="M54.4083 27.9839H48.9194C48.7881 27.9839 48.6816 28.0904 48.6816 28.2217V31.4543C48.6816 31.5856 48.7881 31.6921 48.9194 31.6921H54.4083C54.5396 31.6921 54.6461 31.5856 54.6461 31.4543V28.2217C54.6461 28.0904 54.5396 27.9839 54.4083 27.9839Z" fill="#6087CC"/>
<path d="M54.6461 28.6953H48.6816V29.406H54.6461V28.6953Z" fill="#20F2E3"/>
<path d="M53.7029 30.4014H52.6523V31.0195H53.7029V30.4014Z" fill="white"/>
<path d="M62.8025 8.242L61.4147 8.74728C61.2993 8.78977 61.2024 8.87116 61.1405 8.97744L60.4024 10.2568C60.3408 10.3633 60.3186 10.4881 60.3399 10.6093L60.5966 12.064C60.6183 12.1852 60.682 12.295 60.7764 12.3741L61.9074 13.3227C62.0016 13.402 62.1209 13.4454 62.2441 13.4449H63.7204C63.8436 13.4455 63.963 13.4021 64.0571 13.3227L65.1881 12.3741C65.2828 12.2952 65.3465 12.1853 65.368 12.064L65.6246 10.6093C65.6466 10.4881 65.6245 10.363 65.5622 10.2568L64.824 8.97969C64.7623 8.87326 64.6653 8.79182 64.5498 8.74953L63.1621 8.24425C63.0462 8.20127 62.9189 8.20047 62.8025 8.242Z" fill="#F460AD"/>
<path d="M62.3801 10.0434C62.4772 10.0395 62.5732 10.0646 62.6561 10.1153C62.739 10.1661 62.8049 10.2403 62.8456 10.3285C62.8863 10.4168 62.9 10.5151 62.8848 10.6111C62.8696 10.7071 62.8263 10.7964 62.7603 10.8678C62.6943 10.9392 62.6087 10.9894 62.5142 11.0121C62.4197 11.0348 62.3206 11.0289 62.2294 10.9953C62.1382 10.9616 62.0591 10.9017 62.0019 10.8231C61.9448 10.7445 61.9123 10.6507 61.9085 10.5536C61.9081 10.5467 61.9081 10.5398 61.9085 10.5329C61.9065 10.4706 61.9168 10.4086 61.9388 10.3503C61.9608 10.2921 61.9941 10.2387 62.0367 10.1933C62.0793 10.1479 62.1305 10.1113 62.1872 10.0856C62.244 10.06 62.3052 10.0458 62.3675 10.0438L62.3801 10.0434ZM62.1553 10.5329C62.1584 10.5765 62.1741 10.6184 62.2006 10.6532C62.2271 10.688 62.2631 10.7144 62.3044 10.729C62.3456 10.7436 62.3902 10.7459 62.4328 10.7355C62.4753 10.7252 62.5138 10.7026 62.5437 10.6706C62.5736 10.6387 62.5935 10.5987 62.601 10.5555C62.6084 10.5124 62.6032 10.4681 62.5858 10.4279C62.5684 10.3877 62.5397 10.3535 62.5031 10.3295C62.4666 10.3054 62.4238 10.2925 62.3801 10.2924C62.3187 10.2944 62.2607 10.3206 62.2186 10.3652C62.1765 10.4098 62.1537 10.4693 62.1553 10.5306V10.5329ZM62.5284 11.9193L63.2211 10.0434H63.4967L62.8031 11.9193H62.5284ZM63.6522 10.9501C63.7494 10.9463 63.8454 10.9714 63.9283 11.0223C64.0111 11.0731 64.077 11.1474 64.1176 11.2358C64.1582 11.3241 64.1718 11.4224 64.1564 11.5184C64.1411 11.6144 64.0977 11.7037 64.0316 11.775C63.9655 11.8463 63.8798 11.8964 63.7852 11.919C63.6907 11.9415 63.5916 11.9355 63.5004 11.9017C63.4093 11.8679 63.3302 11.8079 63.2732 11.7291C63.2162 11.6504 63.1839 11.5565 63.1802 11.4594C63.1799 11.4528 63.1799 11.4462 63.1802 11.4396C63.1765 11.3139 63.2228 11.1918 63.3091 11.1003C63.3953 11.0087 63.5144 10.9552 63.6401 10.9514H63.6509L63.6522 10.9501ZM63.4275 11.4396C63.4305 11.4833 63.4463 11.5251 63.4728 11.5599C63.4993 11.5947 63.5353 11.6211 63.5766 11.6357C63.6178 11.6503 63.6624 11.6526 63.705 11.6422C63.7475 11.6319 63.786 11.6093 63.8159 11.5773C63.8458 11.5454 63.8657 11.5054 63.8732 11.4623C63.8806 11.4191 63.8754 11.3748 63.858 11.3346C63.8406 11.2945 63.8119 11.2602 63.7753 11.2362C63.7388 11.2121 63.696 11.1992 63.6522 11.1991C63.5908 11.2018 63.533 11.2287 63.4914 11.274C63.4497 11.3192 63.4277 11.3791 63.4302 11.4405L63.4275 11.4396Z" fill="white"/>
<path d="M23.0217 51.0811H14.7812V59.932H23.0217V51.0811Z" fill="#7F9EE0"/>
<path d="M24.625 51.0811H23.0215V59.932H24.625V51.0811Z" fill="#5575BA"/>
<path d="M20.8935 50.0507V51.077H20.7874V50.0507C20.7874 49.6354 20.6225 49.2371 20.3288 48.9434C20.0351 48.6497 19.6368 48.4847 19.2215 48.4847C18.8062 48.4847 18.4079 48.6497 18.1142 48.9434C17.8205 49.2371 17.6555 49.6354 17.6555 50.0507V51.077H17.5508V50.0507C17.5508 49.6072 17.727 49.1818 18.0406 48.8682C18.3542 48.5546 18.7795 48.3784 19.2231 48.3784C19.6666 48.3784 20.0919 48.5546 20.4055 48.8682C20.7191 49.1818 20.8953 49.6072 20.8953 50.0507H20.8935Z" fill="black"/>
<path d="M21.718 50.0507V51.077H21.612V50.0507C21.612 49.6354 21.447 49.2371 21.1533 48.9434C20.8596 48.6497 20.4613 48.4847 20.046 48.4847C19.6307 48.4847 19.2324 48.6497 18.9387 48.9434C18.645 49.2371 18.48 49.6354 18.48 50.0507V51.077H18.373V50.0507C18.373 49.6072 18.5492 49.1818 18.8628 48.8682C19.1765 48.5546 19.6018 48.3784 20.0453 48.3784C20.4888 48.3784 20.9142 48.5546 21.2278 48.8682C21.5414 49.1818 21.7176 49.6072 21.7176 50.0507H21.718Z" fill="black"/>
<path d="M52.8194 54.4995H46.5039V61.283H52.8194V54.4995Z" fill="#7F9EE0"/>
<path d="M54.0493 54.4995H52.8203V61.283H54.0493V54.4995Z" fill="#5575BA"/>
<path d="M51.1898 53.7109V54.4976H51.1084V53.7109C51.1115 53.5514 51.0827 53.3928 51.0238 53.2445C50.9649 53.0962 50.877 52.9612 50.7652 52.8473C50.6535 52.7333 50.5202 52.6428 50.373 52.5811C50.2259 52.5193 50.0679 52.4875 49.9084 52.4875C49.7488 52.4875 49.5908 52.5193 49.4437 52.5811C49.2965 52.6428 49.1632 52.7333 49.0515 52.8473C48.9397 52.9612 48.8518 53.0962 48.7929 53.2445C48.734 53.3928 48.7052 53.5514 48.7083 53.7109V54.4976H48.6279V53.7109C48.6214 53.5387 48.6498 53.3668 48.7112 53.2058C48.7727 53.0447 48.866 52.8977 48.9856 52.7735C49.1052 52.6493 49.2487 52.5506 49.4073 52.4831C49.566 52.4156 49.7366 52.3809 49.909 52.3809C50.0814 52.3809 50.2521 52.4156 50.4107 52.4831C50.5694 52.5506 50.7128 52.6493 50.8324 52.7735C50.952 52.8977 51.0453 53.0447 51.1068 53.2058C51.1683 53.3668 51.1967 53.5387 51.1902 53.7109H51.1898Z" fill="black"/>
<path d="M51.82 53.7111V54.4978H51.7386V53.7111C51.7386 53.3927 51.6122 53.0873 51.387 52.8622C51.1619 52.6371 50.8565 52.5106 50.5382 52.5106C50.2198 52.5106 49.9144 52.6371 49.6893 52.8622C49.4642 53.0873 49.3377 53.3927 49.3377 53.7111V54.4978H49.2563V53.7111C49.2518 53.54 49.2816 53.3697 49.3439 53.2103C49.4063 53.0509 49.4999 52.9056 49.6193 52.783C49.7387 52.6603 49.8815 52.5629 50.0392 52.4963C50.1969 52.4298 50.3663 52.3955 50.5375 52.3955C50.7087 52.3955 50.8781 52.4298 51.0358 52.4963C51.1935 52.5629 51.3362 52.6603 51.4557 52.783C51.5751 52.9056 51.6687 53.0509 51.7311 53.2103C51.7934 53.3697 51.8232 53.54 51.8187 53.7111H51.82Z" fill="black"/>
<path d="M4.77262 63.2266L6.94531 63.2666L7.01778 59.3275L4.84509 59.2876L4.77262 63.2266Z" fill="#FAC7A5"/>
<path d="M6.94531 63.2666L3.33121 63.2001L3.33969 62.739C3.34231 62.6029 3.39877 62.4735 3.49667 62.3791C3.59458 62.2846 3.72595 62.2329 3.86197 62.2351L6.96324 62.2922L6.94531 63.2666Z" fill="#D64A4A"/>
<path d="M4.79216 62.252L6.96484 62.292L6.97568 61.7032L4.80299 61.6632L4.79216 62.252Z" fill="#D64A4A"/>
<path d="M11.4545 59.3281L9.36328 58.7373L8.29216 62.5286L10.3834 63.1194L11.4545 59.3281Z" fill="#FAC7A5"/>
<path d="M8.55859 61.5903L11.5436 62.4336C11.6745 62.4709 11.7853 62.5585 11.8516 62.6774C11.918 62.7962 11.9345 62.9366 11.8975 63.0676L11.7722 63.511L8.29362 62.5282L8.55859 61.5903Z" fill="#D64A4A"/>
<path d="M10.808 61.6142L8.7168 61.0234L8.55669 61.5901L10.6479 62.181L10.808 61.6142Z" fill="#D64A4A"/>
<path d="M4.58277 44.621L4.12109 61.1266H8.08735L8.38404 48.4816C8.87883 49.7493 9.37332 51.0164 9.86751 52.2829L8.38404 59.1131L11.8288 60.5966C12.5811 57.6671 13.3333 54.737 14.0855 51.8064L11.8288 44.501L4.58277 44.621Z" fill="#292349"/>
<path d="M8.38477 48.4799L8.53446 45.9409C8.9795 48.0537 9.42454 50.1666 9.86958 52.2794C9.37449 51.0135 8.87955 49.747 8.38477 48.4799Z" fill="#1E1B3A"/>
<path d="M8.33303 50.5239C7.92755 54.0576 7.52161 57.5912 7.11523 61.1249H8.08443L8.33303 50.5239Z" fill="#2E2B4C"/>
<path d="M14.0846 51.8071L10.8516 60.1748C11.177 60.3156 11.5025 60.4559 11.828 60.5956C12.5802 57.6658 13.3324 54.7363 14.0846 51.8071Z" fill="#2E2B4C"/>
<path d="M4.14312 60.3264C4.13593 60.5916 4.12859 60.8575 4.12109 61.1239H8.08735L8.10713 60.2612L4.14312 60.3264Z" fill="#5486D1"/>
<path d="M8.6013 58.1338C8.53028 58.4599 8.4594 58.7856 8.38867 59.1111L11.8335 60.5945C11.9003 60.3365 11.9668 60.0782 12.0331 59.8195L8.6013 58.1338Z" fill="#5486D1"/>
<path d="M4.76737 44.119L5.45516 44.4503C5.43403 44.5726 5.4102 44.6958 5.38998 44.819C5.37829 44.885 5.3657 44.9511 5.35401 45.0168L3.6687 46.1685L3.82649 45.0181L3.77569 44.9498L3.69073 44.8477L1.16299 41.6843C1.02813 41.5144 0.900462 41.3535 0.764252 41.1836C0.722446 41.1328 0.679741 41.0905 0.637484 41.0312C0.461397 40.8067 0.37438 40.5252 0.39313 40.2405C0.411879 39.9559 0.535074 39.6882 0.739079 39.4888C1.79908 38.4792 2.8519 37.4619 3.90246 36.4612C4.02114 36.3425 4.14881 36.2319 4.26748 36.1128L5.5563 37.4704C4.93774 38.0633 4.31828 38.6572 3.69073 39.251C3.30053 39.6331 2.91078 39.9972 2.52194 40.3703C2.91258 41.0235 3.30278 41.6767 3.69073 42.3218C4.05485 42.9246 4.41133 43.5184 4.76737 44.119Z" fill="#EA9387"/>
<path d="M4.82044 44.2482L2.92025 41.8333C2.76561 41.6382 2.62491 41.4629 2.47072 41.2674C2.42891 41.2161 2.37767 41.1626 2.33586 41.1024C2.13959 40.8512 2.04334 40.5361 2.06567 40.2181C2.088 39.9001 2.22733 39.6016 2.45678 39.3802C3.42538 38.4647 4.39084 37.5482 5.35314 36.6309L6.08499 37.4072C4.95605 38.4861 3.82217 39.5611 2.68335 40.6322C3.4053 41.8365 4.10793 43.0462 4.82044 44.2482Z" fill="#EDA197"/>
<path d="M12.077 37.5553V44.9515H5.36726C5.39288 44.782 5.41806 44.6121 5.45222 44.4516C5.22296 44.3496 4.99415 44.2309 4.76443 44.1203C4.40795 43.5184 4.05192 42.9245 3.68555 42.3221V39.2509C4.3149 38.6571 4.93256 38.0632 5.55112 37.4703L4.2623 36.1127C4.14362 36.2314 4.01596 36.342 3.89728 36.4611C4.05102 36.1691 4.28168 35.9246 4.56429 35.7542C4.84691 35.5838 5.17074 35.4938 5.50077 35.4941H10.0132C10.2842 35.4934 10.5527 35.5461 10.8033 35.6494C11.0539 35.7527 11.2816 35.9045 11.4733 36.096C11.6651 36.2875 11.8171 36.515 11.9207 36.7654C12.0243 37.0158 12.0774 37.2843 12.077 37.5553Z" fill="#1E80F3"/>
<path d="M5.55307 37.4704C4.93451 38.0633 4.31505 38.6571 3.6875 39.251V37.309C3.68721 37.0131 3.75994 36.7217 3.89923 36.4607C4.01791 36.342 4.14558 36.2314 4.26425 36.1123L5.55307 37.4704Z" fill="#1E80F3"/>
<path d="M6.00695 32.9339C6.12855 33.0601 6.28885 33.1419 6.46233 33.1663C6.47623 33.4615 6.58752 33.7437 6.77881 33.9689C6.97011 34.1941 7.23062 34.3496 7.51964 34.4111C7.77286 34.4426 8.02984 34.4019 8.26096 34.2938C8.49208 34.1856 8.68794 34.0144 8.82599 33.7997C8.96097 33.5834 9.04042 33.3371 9.05728 33.0827C9.07414 32.8283 9.02789 32.5737 8.92263 32.3414C8.98514 32.1846 9.01224 32.0158 9.00198 31.8473C8.99172 31.6787 8.94437 31.5145 8.8633 31.3664C8.45557 30.7258 7.19687 30.7968 6.47761 31.2922C6.3145 31.3933 6.17342 31.5262 6.06282 31.683C5.95221 31.8398 5.87435 32.0172 5.83388 32.2048C5.80665 32.3316 5.80806 32.4628 5.838 32.5889C5.86794 32.7151 5.92566 32.8329 6.00695 32.9339Z" fill="#060C21"/>
<path d="M8.50392 35.5012C8.49358 35.5246 8.4783 35.5579 8.45897 35.5974C8.38958 35.7269 8.29832 35.8434 8.18925 35.9418C8.08471 36.0348 7.96079 36.1035 7.82647 36.1427L7.32568 36.1391C7.26369 36.1226 7.20346 36.1 7.14587 36.0717C7.03233 36.0165 6.93028 35.9402 6.84513 35.8469C6.78332 35.7783 6.72948 35.7029 6.68465 35.6222C6.66375 35.5867 6.64513 35.5499 6.62891 35.512C6.69499 35.4936 6.76826 35.4752 6.84828 35.4585L6.85278 34.7451V35.0103C7.07016 35.1254 7.31938 35.1658 7.56198 35.1252C7.80457 35.0846 8.02706 34.9652 8.19509 34.7856L8.19149 35.4338C8.30298 35.4518 8.40772 35.4747 8.50392 35.5012Z" fill="#EA9387"/>
<path d="M8.19388 34.3724V34.5607V34.7455V34.7828C8.02585 34.9625 7.80336 35.0818 7.56077 35.1224C7.31817 35.163 7.06895 35.1227 6.85156 35.0076V34.7424V34.3647L8.19388 34.3724Z" fill="#EA9387"/>
<path d="M8.19388 34.5607C8.19388 34.6223 8.19388 34.683 8.19388 34.7441V34.7815C8.02585 34.9611 7.80336 35.0804 7.56077 35.1211C7.31817 35.1617 7.06895 35.1213 6.85156 35.0062V34.741C6.85156 34.6781 6.85156 34.6147 6.85156 34.5518L8.19298 34.5589L8.19388 34.5607Z" fill="#DD847A"/>
<path d="M8.67231 33.0653L8.66782 33.8349C8.66698 34.0567 8.59981 34.2732 8.47497 34.4566C8.39881 34.5684 8.3032 34.6657 8.19266 34.7438C7.99737 34.8841 7.76237 34.9583 7.52195 34.9556H7.51026C7.43134 34.9556 7.35265 34.947 7.2756 34.9299C7.12133 34.8978 6.97563 34.8333 6.84809 34.7407C6.76077 34.6786 6.6828 34.6042 6.61658 34.5199C6.60175 34.5015 6.58871 34.4826 6.57568 34.4642C6.44472 34.2756 6.37531 34.051 6.37698 33.8214L6.38148 33.0419C6.38289 32.8928 6.41368 32.7454 6.47209 32.6082C6.5305 32.471 6.61539 32.3466 6.72189 32.2422C6.8284 32.1379 6.95444 32.0555 7.0928 31.9999C7.23116 31.9443 7.37913 31.9164 7.52824 31.918C7.83277 31.919 8.12451 32.0406 8.33965 32.2561C8.46453 32.3807 8.55845 32.5328 8.61387 32.7002C8.65352 32.8178 8.67327 32.9412 8.67231 33.0653Z" fill="#EA9387"/>
<path d="M6.81826 33.2651C6.81825 33.2846 6.81245 33.3037 6.80158 33.32C6.79071 33.3362 6.77526 33.3488 6.75719 33.3562C6.73912 33.3637 6.71926 33.3656 6.70011 33.3617C6.68096 33.3578 6.6634 33.3484 6.64965 33.3345C6.6359 33.3206 6.62658 33.3029 6.62288 33.2838C6.61918 33.2646 6.62126 33.2447 6.62886 33.2267C6.63646 33.2087 6.64924 33.1934 6.66556 33.1827C6.68189 33.172 6.70104 33.1663 6.72058 33.1665C6.73348 33.1665 6.74625 33.1691 6.75816 33.174C6.77008 33.179 6.78088 33.1863 6.78997 33.1954C6.79905 33.2046 6.80623 33.2155 6.81108 33.2274C6.81594 33.2394 6.81837 33.2522 6.81826 33.2651Z" fill="#280C1A"/>
<path d="M7.67387 33.2719C7.67382 33.2848 7.6712 33.2975 7.66617 33.3094C7.66115 33.3213 7.65382 33.332 7.6446 33.341C7.63539 33.35 7.62448 33.3571 7.6125 33.3619C7.60053 33.3666 7.58773 33.3689 7.57484 33.3687C7.55555 33.3684 7.53676 33.3624 7.52086 33.3515C7.50495 33.3406 7.49264 33.3252 7.48549 33.3072C7.47833 33.2893 7.47664 33.2697 7.48063 33.2508C7.48462 33.2319 7.49412 33.2146 7.50792 33.2012C7.52173 33.1877 7.53922 33.1786 7.55819 33.175C7.57716 33.1715 7.59675 33.1736 7.61451 33.1812C7.63226 33.1887 7.64737 33.2014 7.65794 33.2175C7.66851 33.2337 7.67405 33.2526 7.67387 33.2719Z" fill="#280C1A"/>
<path d="M7.82267 36.1427L7.77766 36.1535C7.62631 36.1863 7.46921 36.1812 7.32031 36.1387L7.82267 36.1427Z" fill="#EA9387"/>
<path d="M8.67169 33.0654L8.6672 33.8351C8.66635 34.0569 8.59919 34.2734 8.47434 34.4568C8.39819 34.5686 8.30257 34.6659 8.19204 34.744C8.15517 34.7696 8.11741 34.793 8.07831 34.815C8.18556 34.6405 8.24308 34.44 8.24463 34.2351L8.24823 33.4655C8.24958 33.3423 8.23029 33.2196 8.19114 33.1028C8.13579 32.9354 8.04186 32.7834 7.91692 32.6591C7.70239 32.444 7.41152 32.3225 7.10776 32.321C6.91317 32.319 6.72135 32.3672 6.55078 32.4608C6.64256 32.3137 6.76638 32.1892 6.913 32.0967C7.05962 32.0041 7.22525 31.9459 7.39753 31.9263C7.56981 31.9067 7.74429 31.9263 7.90794 31.9836C8.07159 32.0409 8.22018 32.1344 8.34263 32.2572C8.46751 32.3817 8.56143 32.5339 8.61685 32.7013C8.65518 32.8188 8.67371 32.9419 8.67169 33.0654Z" fill="#EDA197"/>
<path d="M6.52539 33.0312C6.59845 32.9698 6.68804 32.9314 6.78287 32.9209C6.81779 32.9241 6.85171 32.9343 6.88264 32.9509C6.91356 32.9674 6.94086 32.99 6.96293 33.0172L6.52539 33.0312Z" fill="#280C1A"/>
<path d="M7.32422 33.0312C7.39728 32.9698 7.48687 32.9314 7.5817 32.9209C7.61662 32.9241 7.65054 32.9343 7.68146 32.9509C7.71239 32.9674 7.73969 32.99 7.76176 33.0172L7.32422 33.0312Z" fill="#280C1A"/>
<path opacity="0.53" d="M7.19312 34.4031C7.11625 34.4151 7.03756 34.4013 6.96939 34.3638C6.90122 34.3263 6.84741 34.2673 6.81641 34.1959C6.92772 34.1522 7.04656 34.1308 7.16614 34.133C7.27596 34.134 7.38464 34.1553 7.48667 34.1959C7.46436 34.256 7.42438 34.308 7.37199 34.345C7.3196 34.382 7.25724 34.4022 7.19312 34.4031Z" fill="white"/>
<path opacity="0.33" d="M7.16619 33.5903H7.11263C7.08926 33.5903 7.07031 33.6093 7.07031 33.6326V33.8505C7.07031 33.8739 7.08926 33.8928 7.11263 33.8928H7.16619C7.18956 33.8928 7.20851 33.8739 7.20851 33.8505V33.6326C7.20851 33.6093 7.18956 33.5903 7.16619 33.5903Z" fill="white"/>
<path d="M8.67224 33.491C8.77491 33.491 8.85815 33.4077 8.85815 33.3051C8.85815 33.2024 8.77491 33.1191 8.67224 33.1191C8.56956 33.1191 8.48633 33.2024 8.48633 33.3051C8.48633 33.4077 8.56956 33.491 8.67224 33.491Z" fill="#EDA197"/>
<path d="M6.37927 33.4416C6.48194 33.4416 6.56518 33.3584 6.56518 33.2557C6.56518 33.1531 6.48194 33.0698 6.37927 33.0698C6.27659 33.0698 6.19336 33.1531 6.19336 33.2557C6.19336 33.3584 6.27659 33.4416 6.37927 33.4416Z" fill="#EA9387"/>
<path d="M6.55151 32.4626C6.72698 32.2584 6.96332 32.1158 7.22582 32.0558C7.3382 32.0315 7.73514 31.9479 7.90686 32.1457C8.0197 32.2761 7.97205 32.4604 8.09657 32.5103C8.18647 32.5453 8.24761 32.4734 8.33617 32.486C8.44406 32.5013 8.56948 32.6379 8.67198 33.1216C8.73651 33.067 8.78576 32.9965 8.81493 32.9171C8.86393 32.7755 8.82077 32.6577 8.71648 32.3462C8.5515 31.8517 8.56408 31.8571 8.52587 31.8067C8.38625 31.6296 8.1923 31.5032 7.97385 31.4471C7.84771 31.4135 7.71723 31.3991 7.5868 31.4044C7.0986 31.4044 6.75335 31.4044 6.57129 31.6292C6.33753 31.9155 6.52409 32.3979 6.55151 32.4626Z" fill="#060C21"/>
<path d="M4.41274 35.9082L1.63281 38.5879L3.03806 40.7807L6.83034 37.6955L4.41274 35.9082Z" fill="#1E80F3"/>
<path d="M11.5178 44.9539C11.3668 45.2398 11.2148 45.5248 11.0643 45.8197C11.3839 46.3403 11.7026 46.8703 12.0146 47.3908C12.0592 47.3929 12.1033 47.3811 12.1409 47.3571C12.1718 47.3239 12.1929 47.2827 12.2017 47.2381C12.2105 47.1936 12.2068 47.1474 12.1908 47.1049C12.1571 46.8352 12.1243 46.5655 12.0986 46.2984C12.2924 46.1047 12.4938 45.9123 12.6875 45.7185L15.2256 41.7936C15.3605 41.6008 15.4859 41.4075 15.6207 41.2057C15.66 41.1516 15.6964 41.0957 15.73 41.038C15.903 40.7771 15.9706 40.4603 15.919 40.1516C15.8675 39.8428 15.7006 39.5652 15.4522 39.3747C14.0403 38.2904 12.6318 37.2034 11.2265 36.1138L9.96289 37.7352C11.1735 38.6685 12.3904 39.6008 13.6041 40.5345C12.907 42.0051 12.2097 43.4757 11.512 44.9462C11.5137 44.9467 11.5151 44.9477 11.5162 44.9491C11.5172 44.9505 11.5178 44.9521 11.5178 44.9539Z" fill="#EA9387"/>
<path d="M11.5057 44.9529C11.4886 44.9947 11.463 45.0284 11.4463 45.0711L13.716 41.558C13.8509 41.3642 13.9763 41.1709 14.1103 40.9691C14.15 40.9153 14.1868 40.8593 14.2204 40.8014C14.393 40.5404 14.4604 40.2237 14.4088 39.9151C14.3573 39.6065 14.1907 39.3289 13.9426 39.1381C12.8839 38.3231 11.8167 37.5077 10.7662 36.6846L9.95117 37.7351C11.1618 38.6675 12.3787 39.6007 13.5924 40.5335C12.8944 42.0041 12.1968 43.475 11.4994 44.9461C11.4994 44.9461 11.5057 44.9448 11.5057 44.9529Z" fill="#EDA197"/>
<path d="M9.49609 38.2617L13.1926 40.3862L14.5583 38.2248L11.3913 36.0302C11.2906 35.9604 11.1752 35.9146 11.054 35.8962C10.9328 35.8779 10.8091 35.8876 10.6922 35.9244C10.5753 35.9613 10.4684 36.0244 10.3797 36.109C10.2909 36.1936 10.2227 36.2973 10.1803 36.4123L9.49609 38.2617Z" fill="#1E80F3"/>
<path d="M52.9363 31.6451C53.0303 31.7035 53.1233 31.7633 53.2173 31.8227C53.1044 31.9193 52.9956 32.0083 52.8828 32.1041C52.8828 32.4457 52.8828 32.7784 52.8828 33.12L54.0516 38.0883C54.1123 38.3486 54.1658 38.5828 54.2269 38.844C54.2422 38.9145 54.2534 38.9928 54.2768 39.0687C54.356 39.4001 54.5562 39.6899 54.838 39.8812C55.1199 40.0725 55.4631 40.1515 55.8003 40.1027C57.7261 39.8118 59.6564 39.5133 61.5741 39.2184L61.2473 37.0036C59.5939 37.2499 57.9356 37.5043 56.2862 37.7624C55.6654 36.131 55.0406 34.5082 54.4198 32.8759C54.4908 32.581 54.5456 32.2776 54.6171 31.9831C54.0526 31.6963 53.5115 31.3656 52.9988 30.9942C52.9814 30.9866 52.966 30.975 52.9538 30.9604C52.9444 31.1929 52.9408 31.4185 52.9363 31.6451Z" fill="#EA9387"/>
<path d="M54.6406 33.4614L55.4017 36.6702C55.4624 36.9305 55.5159 37.1647 55.5775 37.4259C55.5899 37.5016 55.6063 37.5766 55.6265 37.6506C55.7057 37.9821 55.9061 38.272 56.1881 38.4633C56.4702 38.6546 56.8136 38.7335 57.1508 38.6846C58.5606 38.467 59.9712 38.249 61.3765 38.0399L61.2115 36.9058C59.5581 37.1521 57.9007 37.4057 56.2504 37.6646C55.7213 36.2566 55.1733 34.8608 54.6406 33.4614Z" fill="#EDA197"/>
<path d="M68.7408 46.5573H59.7402V38.3487C59.7402 37.8337 59.9448 37.3397 60.309 36.9755C60.6732 36.6113 61.1672 36.4067 61.6822 36.4067H66.5282C66.8188 36.4067 67.1066 36.4639 67.375 36.575C67.6435 36.6862 67.8874 36.8492 68.0929 37.0547C68.2984 37.2601 68.4614 37.5041 68.5725 37.7725C68.6837 38.041 68.7409 38.3288 68.7408 38.6194V46.5573Z" fill="#FDC257"/>
<path d="M62.8719 33.6038C63.0053 33.7415 63.1807 33.8311 63.3705 33.8582C63.3856 34.1811 63.5073 34.4899 63.7164 34.7363C63.9256 34.9827 64.2105 35.1529 64.5267 35.2203C64.8039 35.2545 65.0852 35.2098 65.3382 35.0914C65.5912 34.973 65.8057 34.7857 65.9571 34.5509C66.1043 34.3141 66.191 34.0447 66.2094 33.7664C66.2278 33.4882 66.1775 33.2097 66.0627 32.9555C66.1309 32.7838 66.1603 32.5991 66.1491 32.4147C66.1378 32.2302 66.0861 32.0505 65.9975 31.8883C65.5512 31.1884 64.1742 31.2657 63.3875 31.8079C63.2089 31.9182 63.0545 32.0635 62.9335 32.2351C62.8125 32.4067 62.7275 32.601 62.6836 32.8063C62.6536 32.9449 62.655 33.0883 62.6876 33.2263C62.7202 33.3643 62.7832 33.4932 62.8719 33.6038Z" fill="#060C21"/>
<path d="M65.6013 36.4112C65.5896 36.4369 65.5725 36.4728 65.5491 36.516C65.4729 36.6578 65.3727 36.7852 65.2529 36.8927C65.1388 36.9946 65.0033 37.0697 64.8564 37.1125L64.3079 37.1089C64.2407 37.0903 64.1754 37.0655 64.1128 37.0347C63.9883 36.9738 63.8767 36.8894 63.7842 36.7861C63.7161 36.7107 63.6572 36.6276 63.6085 36.5384C63.5858 36.4997 63.5653 36.4598 63.5469 36.4189C63.6201 36.3991 63.7002 36.3784 63.7874 36.3604L63.7919 35.5796V35.87C64.0299 35.9956 64.3026 36.0396 64.568 35.9951C64.8335 35.9506 65.0769 35.8201 65.261 35.6236L65.2565 36.3326C65.381 36.3564 65.4956 36.3829 65.6013 36.4112Z" fill="#EA9387"/>
<path d="M65.264 35.1766V35.3825V35.5848V35.6257C65.08 35.8221 64.8365 35.9526 64.5711 35.9971C64.3057 36.0416 64.0329 35.9977 63.7949 35.872V35.5816V35.1689L65.264 35.1766Z" fill="#EA9387"/>
<path d="M65.264 35.3815C65.264 35.4489 65.264 35.5163 65.264 35.5824V35.6233C65.08 35.8197 64.8365 35.9502 64.5711 35.9948C64.3057 36.0393 64.0329 35.9953 63.7949 35.8697V35.5793C63.7949 35.5096 63.7949 35.4408 63.7949 35.3716L65.2627 35.3797L65.264 35.3815Z" fill="#DD847A"/>
<path d="M65.7844 33.747L65.7799 34.5885C65.7784 34.7836 65.7305 34.9756 65.6402 35.1486C65.5498 35.3216 65.4196 35.4706 65.2603 35.5833C65.1197 35.6836 64.9599 35.7537 64.791 35.7892C64.7037 35.807 64.6148 35.8156 64.5257 35.8148H64.5163C64.43 35.8149 64.3439 35.8056 64.2596 35.7869C64.0912 35.7515 63.932 35.6811 63.7925 35.5802C63.697 35.5123 63.6117 35.431 63.5395 35.3388C63.5233 35.319 63.5089 35.2983 63.4945 35.2772C63.3514 35.0708 63.2755 34.8252 63.2774 34.5741L63.2823 33.72C63.2841 33.5571 63.3179 33.3961 63.3819 33.2462C63.4459 33.0963 63.5388 32.9606 63.6552 32.8466C63.7717 32.7326 63.9095 32.6427 64.0607 32.582C64.2119 32.5213 64.3736 32.491 64.5365 32.4927C64.8697 32.4936 65.189 32.6264 65.4244 32.8623C65.561 32.9985 65.6637 33.165 65.7242 33.3482C65.7666 33.4768 65.787 33.6116 65.7844 33.747Z" fill="#EA9387"/>
<path d="M63.7571 33.9645C63.7571 33.9859 63.7507 34.0068 63.7388 34.0246C63.7269 34.0424 63.71 34.0562 63.6902 34.0644C63.6704 34.0725 63.6486 34.0746 63.6276 34.0704C63.6067 34.0661 63.5874 34.0558 63.5723 34.0406C63.5573 34.0254 63.547 34.006 63.543 33.985C63.5389 33.964 63.5412 33.9422 63.5495 33.9225C63.5578 33.9028 63.5718 33.886 63.5897 33.8742C63.6076 33.8625 63.6286 33.8563 63.65 33.8564C63.6641 33.8564 63.6781 33.8591 63.6912 33.8646C63.7043 33.87 63.7162 33.878 63.7262 33.888C63.7361 33.8981 63.744 33.91 63.7493 33.9231C63.7546 33.9363 63.7573 33.9503 63.7571 33.9645Z" fill="#280C1A"/>
<path d="M64.6907 33.9728C64.6907 33.9942 64.6843 34.0151 64.6724 34.0329C64.6605 34.0507 64.6436 34.0645 64.6238 34.0727C64.604 34.0808 64.5822 34.0829 64.5612 34.0787C64.5403 34.0744 64.521 34.064 64.5059 34.0488C64.4909 34.0336 64.4806 34.0143 64.4766 33.9933C64.4725 33.9723 64.4748 33.9505 64.4831 33.9308C64.4914 33.9111 64.5054 33.8943 64.5233 33.8825C64.5412 33.8708 64.5621 33.8646 64.5835 33.8647C64.5977 33.8648 64.6116 33.8676 64.6247 33.8731C64.6377 33.8786 64.6495 33.8865 64.6595 33.8966C64.6694 33.9066 64.6773 33.9185 64.6827 33.9316C64.688 33.9446 64.6907 33.9587 64.6907 33.9728Z" fill="#280C1A"/>
<path d="M64.8558 37.113C64.8396 37.1175 64.8234 37.1211 64.8072 37.1247C64.6416 37.161 64.4697 37.1558 64.3066 37.1094L64.8558 37.113Z" fill="#EA9387"/>
<path d="M65.7831 33.7466L65.7786 34.5881C65.7771 34.7833 65.7292 34.9753 65.6388 35.1483C65.5484 35.3212 65.4182 35.4702 65.2589 35.583C65.219 35.6116 65.1774 35.6378 65.1344 35.6616C65.2517 35.4704 65.314 35.2504 65.3142 35.026L65.3187 34.1845C65.3202 34.0497 65.2991 33.9157 65.2562 33.788C65.1955 33.6047 65.0924 33.4382 64.9555 33.302C64.7627 33.1095 64.5128 32.9845 64.2431 32.9455C63.9735 32.9065 63.6984 32.9557 63.459 33.0858C63.5591 32.9246 63.6944 32.7881 63.8547 32.6865C64.0151 32.585 64.1963 32.521 64.3848 32.4994C64.5734 32.4778 64.7644 32.4991 64.9436 32.5617C65.1227 32.6243 65.2854 32.7267 65.4194 32.861C65.5561 32.9973 65.6588 33.1637 65.7193 33.347C65.763 33.4756 65.7845 33.6108 65.7831 33.7466Z" fill="#EDA197"/>
<path d="M63.4395 33.7091C63.5193 33.6418 63.6174 33.6 63.7212 33.5889C63.7593 33.5923 63.7962 33.6034 63.8298 33.6216C63.8634 33.6398 63.8929 33.6647 63.9166 33.6946L63.4395 33.7091Z" fill="#280C1A"/>
<path d="M64.3125 33.7091C64.3925 33.642 64.4905 33.6001 64.5943 33.5889C64.6324 33.5924 64.6694 33.6035 64.703 33.6217C64.7367 33.6399 64.7663 33.6647 64.7901 33.6946L64.3125 33.7091Z" fill="#280C1A"/>
<path opacity="0.53" d="M64.1691 35.2101C64.0851 35.2232 63.999 35.2079 63.9245 35.1667C63.8501 35.1256 63.7914 35.0608 63.7578 34.9826C63.9932 34.8906 64.2547 34.8906 64.4901 34.9826C64.4661 35.0487 64.4225 35.1059 64.3652 35.1465C64.3078 35.1872 64.2394 35.2093 64.1691 35.2101Z" fill="white"/>
<path opacity="0.33" d="M64.14 34.3203H64.0815C64.0559 34.3203 64.0352 34.3411 64.0352 34.3667V34.6048C64.0352 34.6304 64.0559 34.6512 64.0815 34.6512H64.14C64.1656 34.6512 64.1864 34.6304 64.1864 34.6048V34.3667C64.1864 34.3411 64.1656 34.3203 64.14 34.3203Z" fill="white"/>
<path d="M65.7874 34.2121C65.8998 34.2121 65.9909 34.121 65.9909 34.0086C65.9909 33.8963 65.8998 33.8052 65.7874 33.8052C65.6751 33.8052 65.584 33.8963 65.584 34.0086C65.584 34.121 65.6751 34.2121 65.7874 34.2121Z" fill="#EDA197"/>
<path d="M63.2777 34.1584C63.3901 34.1584 63.4811 34.0673 63.4811 33.9549C63.4811 33.8426 63.3901 33.7515 63.2777 33.7515C63.1653 33.7515 63.0742 33.8426 63.0742 33.9549C63.0742 34.0673 63.1653 34.1584 63.2777 34.1584Z" fill="#EA9387"/>
<path d="M63.4666 33.0869C63.6591 32.8629 63.9185 32.7066 64.2066 32.641C64.3297 32.6154 64.7644 32.5237 64.9523 32.7394C65.0764 32.8824 65.0234 33.0838 65.1605 33.1382C65.2567 33.1764 65.3245 33.0977 65.4221 33.1116C65.5403 33.1278 65.6774 33.2775 65.7894 33.8066C65.8601 33.7466 65.9139 33.6691 65.9454 33.5819C65.9998 33.4263 65.9521 33.2973 65.8384 32.9566C65.7913 32.7522 65.7215 32.5538 65.6302 32.365C65.4767 32.1721 65.2647 32.0344 65.0261 31.9725C64.8881 31.9367 64.7455 31.9215 64.603 31.9276C64.0676 31.9276 63.6905 31.9276 63.4918 32.1717C63.2342 32.4886 63.4387 33.015 63.4666 33.0869Z" fill="#060C21"/>
<path d="M62.4699 36.4058C62.1291 36.4109 61.7885 36.4155 61.4481 36.4197C60.1447 36.7137 58.8411 37.0072 57.5371 37.3003L58.2914 40.0358C59.7869 39.8775 61.2826 39.7187 62.7787 39.5593L62.4699 36.4058Z" fill="#FDC257"/>
<path d="M70.3145 41.1577H66.0812V36.3994H68.3873C68.8983 36.3994 69.3883 36.6023 69.7497 36.9635C70.1111 37.3247 70.3142 37.8147 70.3145 38.3256V41.1577Z" fill="#FDC257"/>
<path d="M61.5585 46.9443L61.7738 46.6912C61.8538 46.8166 61.9257 46.9367 62.0053 47.0621C62.3434 47.112 62.6733 47.1565 63.0114 47.2064L68.0947 46.7483C68.3608 46.7249 68.6013 46.7034 68.8675 46.6809C68.9394 46.6759 69.0185 46.6759 69.0954 46.6634C69.4348 46.632 69.7503 46.4747 69.9796 46.2225C70.2089 45.9702 70.3354 45.6413 70.3343 45.3004C70.3181 43.3534 70.2938 41.4002 70.2727 39.4604L68.0345 39.4712C68.0448 41.1426 68.0632 42.8203 68.0866 44.4894C66.3842 44.8742 64.6886 45.2644 62.9862 45.6492C62.7039 45.5368 62.4112 45.4402 62.1321 45.3282C61.7677 45.8471 61.3632 46.3366 60.9224 46.7924C60.9124 46.8082 60.8989 46.8215 60.8828 46.831C61.1121 46.8728 61.335 46.9083 61.5585 46.9443Z" fill="#EA9387"/>
<path d="M70.2896 39.1811C70.2941 40.2148 70.2984 41.2487 70.3026 42.2829L68.0585 42.425C67.9734 41.1414 67.8881 39.858 67.8027 38.5747L70.2896 39.1811Z" fill="#FDC257"/>
<path d="M51.7843 47.0708L60.4828 47.06L59.0227 40.6006L50.3242 40.6114L51.7843 47.0708Z" fill="#1E80F3"/>
<path d="M51.7857 47.313H66.7031V46.9035H51.7857V47.313Z" fill="#1E80F3"/>
<path d="M55.1173 44.6501C55.5736 44.6501 55.9435 44.2801 55.9435 43.8238C55.9435 43.3675 55.5736 42.9976 55.1173 42.9976C54.6609 42.9976 54.291 43.3675 54.291 43.8238C54.291 44.2801 54.6609 44.6501 55.1173 44.6501Z" fill="white"/>
</svg>
