<svg width="83" height="66" viewBox="0 0 83 66" fill="none" xmlns="http://www.w3.org/2000/svg">
<path d="M77.9266 65.2617H79.7051V62.0375H77.9266V65.2617Z" fill="#FAC7A5"/>
<path d="M79.7051 65.2617H76.7467V64.8844C76.7467 64.7729 76.791 64.666 76.8698 64.5872C76.9486 64.5084 77.0555 64.4641 77.1669 64.4641H79.7051V65.2617Z" fill="#D64A4A"/>
<path d="M77.9266 64.4644H79.7051V63.9823H77.9266V64.4644Z" fill="#D64A4A"/>
<path d="M70.7489 65.2617H72.5273V62.0375H70.7489V65.2617Z" fill="#FAC7A5"/>
<path d="M72.5273 65.2617H69.569V64.8844C69.569 64.7729 69.6132 64.666 69.692 64.5872C69.7708 64.5084 69.8777 64.4641 69.9892 64.4641H72.5273V65.2617Z" fill="#D64A4A"/>
<path d="M70.7489 64.4644H72.5273V63.9823H70.7489V64.4644Z" fill="#D64A4A"/>
<path d="M80.6218 43.0483V62.8687H76.2298V45.9602C75.4775 51.5709 74.7252 57.1818 73.9729 62.7929H69.0527C70.2937 56.1891 71.5346 49.5854 72.7753 42.9819L80.6218 43.0483Z" fill="#1E80F3"/>
<path opacity="0.14" d="M76.2266 45.96C76.7472 51.5957 77.2679 57.2318 77.7888 62.8685H76.2266V45.96Z" fill="white"/>
<path d="M76.2474 46.1615L72.0071 62.7929H69.0527C70.2937 56.1891 71.5346 49.5854 72.7753 42.9819L76.395 43.0122C76.3462 44.0624 76.297 45.1122 76.2474 46.1615Z" fill="#1E80F3"/>
<path d="M69.2252 61.896L69.0586 62.7924H73.9787L74.0956 61.9208L69.2252 61.896Z" fill="#292349"/>
<path d="M76.2344 61.9209V62.8688H80.6264V61.9209" fill="#292349"/>
<path d="M2.30482 41.4048H5.58865V63.4185H1.87645C1.5357 63.4184 1.20895 63.2829 0.96804 63.0419C0.727135 62.8009 0.591797 62.4741 0.591797 62.1334V43.1201C0.591796 42.6655 0.772207 42.2296 1.09339 41.908C1.41458 41.5864 1.85029 41.4054 2.30482 41.4048Z" fill="#6087CC"/>
<path d="M5.58984 41.4048H18.0057C18.2331 41.4048 18.4513 41.4952 18.6121 41.656C18.773 41.8168 18.8633 42.035 18.8633 42.2624V62.5631C18.8633 62.7906 18.773 63.0087 18.6121 63.1696C18.4513 63.3304 18.2331 63.4207 18.0057 63.4207H5.58984V41.4048Z" fill="#A9C1EA"/>
<path d="M17.4787 43.2383H6.97266V48.3159H17.4787V43.2383Z" fill="#D4E2FF"/>
<path d="M2.99351 63.4185H1.79102V65.5328H2.99351V63.4185Z" fill="#D4E2FF"/>
<path d="M6.79234 63.4185H5.58984V65.5328H6.79234V63.4185Z" fill="#D4E2FF"/>
<path d="M14.3373 63.4185H13.1348V65.5328H14.3373V63.4185Z" fill="#D4E2FF"/>
<path d="M18.1322 63.4185H16.9297V65.5328H18.1322V63.4185Z" fill="#D4E2FF"/>
<path d="M10.6113 47.2783H14.3501C14.3946 47.2783 14.4374 47.296 14.4688 47.3275C14.5003 47.359 14.518 47.4017 14.518 47.4462C14.518 47.4908 14.5003 47.5335 14.4688 47.565C14.4374 47.5965 14.3946 47.6141 14.3501 47.6141H10.6113C10.5667 47.6141 10.524 47.5965 10.4925 47.565C10.461 47.5335 10.4434 47.4908 10.4434 47.4462C10.4434 47.4017 10.461 47.359 10.4925 47.3275C10.524 47.296 10.5667 47.2783 10.6113 47.2783Z" fill="white"/>
<path d="M17.4787 49.8735H6.97266V54.9512H17.4787V49.8735Z" fill="#D4E2FF"/>
<path d="M10.6113 53.917H14.3501C14.3946 53.917 14.4374 53.9347 14.4688 53.9662C14.5003 53.9977 14.518 54.0404 14.518 54.0849C14.518 54.1295 14.5003 54.1722 14.4689 54.2038C14.4374 54.2354 14.3947 54.2532 14.3501 54.2533H10.6113C10.5667 54.2532 10.524 54.2354 10.4925 54.2038C10.461 54.1722 10.4434 54.1295 10.4434 54.0849C10.4434 54.0404 10.461 53.9977 10.4925 53.9662C10.524 53.9347 10.5667 53.917 10.6113 53.917Z" fill="white"/>
<path d="M17.4787 56.5093H6.97266V61.5869H17.4787V56.5093Z" fill="#D4E2FF"/>
<path d="M10.6113 60.5508H14.3501C14.3946 60.5508 14.4374 60.5685 14.4688 60.6C14.5003 60.6314 14.518 60.6742 14.518 60.7187C14.518 60.7408 14.5137 60.7626 14.5052 60.783C14.4968 60.8033 14.4844 60.8218 14.4688 60.8374C14.4532 60.853 14.4347 60.8654 14.4144 60.8738C14.394 60.8823 14.3722 60.8866 14.3501 60.8866H10.6113C10.5892 60.8866 10.5674 60.8823 10.547 60.8738C10.5266 60.8654 10.5081 60.853 10.4925 60.8374C10.4769 60.8218 10.4646 60.8033 10.4561 60.783C10.4477 60.7626 10.4434 60.7408 10.4434 60.7187C10.4434 60.6742 10.461 60.6314 10.4925 60.6C10.524 60.5685 10.5667 60.5508 10.6113 60.5508Z" fill="white"/>
<path d="M62.7975 43.797V43.5953C62.7974 43.5654 62.7855 43.5367 62.7643 43.5156C62.7432 43.4945 62.7145 43.4825 62.6847 43.4824H58.0119C57.8984 43.4825 57.7895 43.5277 57.7093 43.6081C57.629 43.6884 57.584 43.7973 57.584 43.9108V44.2538C57.5839 44.3101 57.595 44.3657 57.6164 44.4177C57.6379 44.4696 57.6694 44.5168 57.7092 44.5566C57.7489 44.5963 57.7961 44.6278 57.8481 44.6493C57.9 44.6708 57.9557 44.6818 58.0119 44.6818H62.6847C62.7146 44.6818 62.7433 44.6699 62.7645 44.6487C62.7856 44.6276 62.7975 44.5988 62.7975 44.5689V44.368C62.7971 44.3383 62.7851 44.3098 62.764 44.2888C62.7429 44.2678 62.7144 44.2559 62.6847 44.2557H58.1843C58.1618 44.2557 58.1395 44.2513 58.1186 44.2427C58.0978 44.2341 58.0788 44.2215 58.0629 44.2056C58.047 44.1896 58.0343 44.1707 58.0257 44.1498C58.0171 44.129 58.0127 44.1067 58.0128 44.0841C58.0128 44.0386 58.0309 43.995 58.063 43.9628C58.0952 43.9307 58.1388 43.9126 58.1843 43.9126H62.6851C62.6999 43.9127 62.7145 43.9098 62.7282 43.9042C62.7418 43.8986 62.7542 43.8904 62.7647 43.88C62.7752 43.8696 62.7835 43.8573 62.7892 43.8436C62.7949 43.83 62.7979 43.8154 62.798 43.8007L62.7975 43.797Z" fill="#1E80F3"/>
<path d="M62.5962 43.9082V44.2512H58.1852C58.1627 44.2513 58.1403 44.2469 58.1195 44.2383C58.0986 44.2297 58.0797 44.2171 58.0638 44.2011C58.0478 44.1852 58.0352 44.1663 58.0266 44.1454C58.018 44.1246 58.0136 44.1023 58.0137 44.0797C58.0136 44.0572 58.018 44.0348 58.0266 44.014C58.0352 43.9932 58.0478 43.9742 58.0638 43.9583C58.0797 43.9424 58.0986 43.9297 58.1195 43.9211C58.1403 43.9125 58.1627 43.9081 58.1852 43.9082H62.5962Z" fill="#D2DCFF"/>
<path d="M62.4658 42.6008V42.4C62.4658 42.37 62.454 42.3413 62.4328 42.3202C62.4116 42.299 62.3829 42.2871 62.353 42.2871H58.3483C58.292 42.2871 58.2363 42.2981 58.1843 42.3196C58.1323 42.3411 58.0851 42.3727 58.0453 42.4125C58.0055 42.4522 57.9739 42.4995 57.9524 42.5515C57.9309 42.6035 57.9199 42.6592 57.9199 42.7155V43.0576C57.9199 43.1712 57.9651 43.2802 58.0454 43.3605C58.1257 43.4409 58.2347 43.486 58.3483 43.486H62.353C62.3829 43.4859 62.4115 43.4739 62.4327 43.4528C62.4538 43.4317 62.4657 43.403 62.4658 43.3731V43.1714C62.4656 43.1416 62.4536 43.1131 62.4325 43.092C62.4114 43.071 62.3828 43.0591 62.353 43.059H58.5198C58.4974 43.0591 58.4751 43.0547 58.4543 43.0461C58.4335 43.0376 58.4146 43.025 58.3987 43.0092C58.3828 42.9933 58.3701 42.9745 58.3615 42.9538C58.3528 42.9331 58.3483 42.9108 58.3483 42.8884C58.3482 42.8658 58.3526 42.8435 58.3612 42.8226C58.3698 42.8018 58.3825 42.7829 58.3984 42.7669C58.4143 42.751 58.4333 42.7384 58.4541 42.7298C58.4749 42.7212 58.4973 42.7168 58.5198 42.7168H62.353C62.3829 42.7168 62.4116 42.7049 62.4328 42.6838C62.454 42.6626 62.4658 42.6339 62.4658 42.604V42.6008Z" fill="#82A3E7"/>
<path d="M62.3202 42.7129V43.0559H58.5231C58.4776 43.0559 58.434 43.0379 58.4018 43.0057C58.3696 42.9735 58.3516 42.9299 58.3516 42.8844C58.3515 42.8619 58.3559 42.8396 58.3645 42.8187C58.3731 42.7979 58.3857 42.7789 58.4017 42.763C58.4176 42.7471 58.4365 42.7344 58.4574 42.7258C58.4782 42.7172 58.5006 42.7128 58.5231 42.7129H62.3202Z" fill="#D4E2FF"/>
<path d="M59.0714 45.4707L56.5951 65.4879H56.1035L58.5798 45.4707H59.0714Z" fill="#D4E2FF"/>
<path d="M65.5765 65.4879H65.0863L62.9684 48.3632L62.6113 45.4707H63.1029L63.455 48.3217L65.5765 65.4879Z" fill="#D4E2FF"/>
<path d="M34.4186 45.4706L33.756 50.8236L31.9427 65.4851H31.4512L33.2599 50.8656L33.9275 45.4697L34.4186 45.4706Z" fill="#D4E2FF"/>
<path d="M40.5732 65.5251L40.0821 65.508L38.7473 50.3906L38.3086 45.4253L38.8002 45.4429L39.2344 50.3675L40.5732 65.5251Z" fill="#D4E2FF"/>
<path d="M39.332 44.6807H64.4021C64.5067 44.6807 64.607 44.7222 64.681 44.7962C64.755 44.8702 64.7966 44.9705 64.7966 45.0752C64.7966 45.127 64.7865 45.1784 64.7667 45.2264C64.7469 45.2743 64.7178 45.3179 64.6812 45.3546C64.6446 45.3913 64.6011 45.4205 64.5532 45.4404C64.5053 45.4603 64.4539 45.4705 64.4021 45.4706H39.332V44.6807Z" fill="#D2DCFF"/>
<path d="M32.75 44.6807H42.7401V45.4706H32.75C32.6981 45.4706 32.6467 45.4603 32.5988 45.4405C32.5509 45.4206 32.5073 45.3914 32.4707 45.3547C32.4341 45.318 32.405 45.2744 32.3852 45.2264C32.3655 45.1785 32.3554 45.1271 32.3555 45.0752C32.3555 44.9705 32.397 44.8702 32.471 44.7962C32.545 44.7222 32.6453 44.6807 32.75 44.6807Z" fill="#82A3E7"/>
<path d="M57.0874 42.654H43.293L44.8309 34.3643H58.6248L57.0874 42.654Z" fill="#D4E2FF"/>
<path d="M50.125 38.9956H51.6737L53.7126 44.6808H51.9811L50.125 38.9956Z" fill="#82A3E7"/>
<path d="M53.0915 44.2539H48.4454C48.3731 44.2539 48.3145 44.3125 48.3145 44.3848V44.55C48.3145 44.6223 48.3731 44.6809 48.4454 44.6809H53.0915C53.1638 44.6809 53.2224 44.6223 53.2224 44.55V44.3848C53.2224 44.3125 53.1638 44.2539 53.0915 44.2539Z" fill="#82A3E7"/>
<path d="M13.1024 38.5342H16.3975C16.4693 38.5342 16.5382 38.5627 16.589 38.6135C16.6398 38.6643 16.6683 38.7332 16.6683 38.805C16.6691 38.8158 16.6691 38.8267 16.6683 38.8375L16.3894 41.1658C16.3816 41.232 16.3497 41.293 16.2997 41.3372C16.2497 41.3813 16.1852 41.4055 16.1185 41.405H13.3818C13.3151 41.4055 13.2506 41.3813 13.2006 41.3372C13.1507 41.293 13.1187 41.232 13.111 41.1658L12.832 38.8375C12.8278 38.8022 12.8305 38.7664 12.8402 38.7321C12.8498 38.6979 12.8661 38.6658 12.8881 38.6379C12.9101 38.6099 12.9374 38.5866 12.9684 38.5692C12.9995 38.5518 13.0336 38.5406 13.069 38.5364C13.08 38.5349 13.0912 38.5341 13.1024 38.5342Z" fill="#D4E2FF"/>
<path d="M15.9805 37.275L15.8803 36.527L15.2456 37.0042L15.005 36.2129L14.7491 37.0042L14.4191 36.5248L14.1623 36.8891L13.6206 36.5266L13.4586 37.0042L12.7363 36.7076L13.1015 38.5339H16.3966L16.7243 36.5248L15.9805 37.275Z" fill="#1E80F3"/>
<path d="M38.6491 0.111816H2.68307C1.52809 0.111816 0.591797 1.04811 0.591797 2.20309V21.4385C0.591797 22.5935 1.52809 23.5298 2.68307 23.5298H38.6491C39.8041 23.5298 40.7404 22.5935 40.7404 21.4385V2.20309C40.7404 1.04811 39.8041 0.111816 38.6491 0.111816Z" fill="#1E80F3"/>
<path d="M22.8981 6.59814H36.265C36.3705 6.59814 36.4717 6.64004 36.5463 6.71461C36.6208 6.78919 36.6627 6.89034 36.6627 6.99581C36.6627 7.10132 36.6208 7.20252 36.5463 7.27717C36.4717 7.35182 36.3706 7.39382 36.265 7.39394H22.8981C22.7925 7.39394 22.6913 7.352 22.6166 7.27733C22.5419 7.20267 22.5 7.1014 22.5 6.99581C22.5 6.94355 22.5103 6.8918 22.5303 6.84352C22.5503 6.79525 22.5797 6.7514 22.6166 6.71446C22.6536 6.67753 22.6975 6.64824 22.7458 6.62829C22.7941 6.60833 22.8459 6.59809 22.8981 6.59814Z" fill="white"/>
<path d="M22.8981 8.76855H29.9583C30.0105 8.7685 30.0623 8.77874 30.1106 8.7987C30.1589 8.81865 30.2028 8.84794 30.2398 8.88487C30.2767 8.92181 30.3061 8.96566 30.3261 9.01393C30.3461 9.06221 30.3564 9.11396 30.3564 9.16622C30.3564 9.27181 30.3144 9.37308 30.2398 9.44774C30.1651 9.52241 30.0639 9.56435 29.9583 9.56435H22.8981C22.7925 9.56435 22.6913 9.52241 22.6166 9.44774C22.5419 9.37308 22.5 9.27181 22.5 9.16622C22.5 9.11396 22.5103 9.06221 22.5303 9.01393C22.5503 8.96566 22.5797 8.92181 22.6166 8.88487C22.6536 8.84794 22.6975 8.81865 22.7458 8.7987C22.7941 8.77874 22.8459 8.7685 22.8981 8.76855Z" fill="white"/>
<path d="M22.8981 10.9385H27.4454C27.551 10.9385 27.6523 10.9804 27.7269 11.0551C27.8016 11.1297 27.8435 11.231 27.8435 11.3366C27.8435 11.3889 27.8332 11.4406 27.8132 11.4889C27.7932 11.5372 27.7639 11.581 27.7269 11.618C27.6899 11.6549 27.646 11.6842 27.5977 11.7041C27.5494 11.7241 27.4977 11.7343 27.4454 11.7343H22.8981C22.8459 11.7343 22.7941 11.7241 22.7458 11.7041C22.6975 11.6842 22.6536 11.6549 22.6166 11.618C22.5797 11.581 22.5503 11.5372 22.5303 11.4889C22.5103 11.4406 22.5 11.3889 22.5 11.3366C22.5 11.231 22.5419 11.1297 22.6166 11.0551C22.6913 10.9804 22.7925 10.9385 22.8981 10.9385Z" fill="#89AEFF"/>
<path d="M6.55664 16.2277V14.5941C6.55664 14.2755 6.68316 13.9699 6.90839 13.7445C7.13362 13.5191 7.43913 13.3923 7.75777 13.3921C8.07657 13.3921 8.38232 13.5187 8.60775 13.7442C8.83317 13.9696 8.95983 14.2753 8.95983 14.5941V16.2277C8.95971 16.5464 8.83301 16.8521 8.60759 17.0774C8.38218 17.3027 8.0765 17.4293 7.75777 17.4293C7.43917 17.4292 7.13366 17.3025 6.90842 17.0772C6.68317 16.8519 6.55664 16.5463 6.55664 16.2277Z" fill="#96B2ED"/>
<path d="M10.9297 16.227V11.3159C10.9298 10.9974 11.0564 10.6919 11.2816 10.4667C11.5068 10.2415 11.8123 10.1149 12.1308 10.1147C12.2886 10.1147 12.4449 10.1457 12.5907 10.206C12.7365 10.2664 12.869 10.3548 12.9806 10.4664C13.0922 10.5779 13.1808 10.7103 13.2412 10.8561C13.3017 11.0019 13.3328 11.1581 13.3329 11.3159V16.2274C13.3328 16.5462 13.2061 16.8518 12.9806 17.0771C12.7552 17.3024 12.4495 17.429 12.1308 17.429C11.973 17.429 11.8168 17.3978 11.671 17.3374C11.5253 17.277 11.3928 17.1884 11.2813 17.0768C11.1698 16.9651 11.0813 16.8327 11.021 16.6868C10.9606 16.541 10.9296 16.3848 10.9297 16.227Z" fill="#96B2ED"/>
<path d="M15.2988 16.2277V8.59608C15.2988 8.27728 15.4255 7.97154 15.6509 7.74611C15.8763 7.52068 16.1821 7.39404 16.5009 7.39404C16.8195 7.39428 17.125 7.52103 17.3503 7.74643C17.5755 7.97183 17.702 8.27744 17.702 8.59608V16.2277C17.702 16.5463 17.5755 16.8519 17.3502 17.0772C17.125 17.3025 16.8195 17.4292 16.5009 17.4293C16.1821 17.4293 15.8765 17.3027 15.6511 17.0774C15.4256 16.852 15.2989 16.5464 15.2988 16.2277Z" fill="#96B2ED"/>
<path d="M56.8866 11.8203H49.8486C49.1124 11.8203 48.5156 12.4171 48.5156 13.1533V20.1913C48.5156 20.9275 49.1124 21.5242 49.8486 21.5242H56.8866C57.6228 21.5242 58.2195 20.9275 58.2195 20.1913V13.1533C58.2195 12.4171 57.6228 11.8203 56.8866 11.8203Z" fill="#D4E2FF"/>
<path d="M55.8252 19.3491C55.7437 19.3487 55.6657 19.3163 55.6081 19.2588L54.5861 18.2369C54.2299 18.5424 53.7924 18.7373 53.327 18.7979C52.8617 18.8585 52.3889 18.782 51.9663 18.5779C51.5438 18.3737 51.19 18.0508 50.9483 17.6486C50.7065 17.2464 50.5873 16.7825 50.6053 16.3136C50.6232 15.8447 50.7776 15.3912 51.0494 15.0087C51.3211 14.6262 51.6986 14.3312 52.1355 14.16C52.5724 13.9888 53.0497 13.9487 53.509 14.0446C53.9684 14.1406 54.3897 14.3685 54.7215 14.7003C55.1203 15.1002 55.3665 15.6272 55.4172 16.1898C55.4679 16.7523 55.32 17.3148 54.9991 17.7796L56.0432 18.8242C56.0862 18.8671 56.1154 18.9218 56.1273 18.9814C56.1391 19.0409 56.133 19.1026 56.1098 19.1587C56.0866 19.2149 56.0472 19.2628 55.9967 19.2965C55.9462 19.3303 55.8868 19.3482 55.8261 19.3482L55.8252 19.3491ZM53.0153 14.9964C52.7825 14.9957 52.5531 15.0524 52.3476 15.1617C52.142 15.2709 51.9666 15.4293 51.837 15.6226C51.7073 15.816 51.6275 16.0384 51.6045 16.27C51.5815 16.5017 51.616 16.7354 51.7051 16.9505C51.7942 17.1656 51.935 17.3553 52.1151 17.5029C52.2952 17.6504 52.5089 17.7512 52.7373 17.7962C52.9657 17.8413 53.2017 17.8293 53.4243 17.7612C53.6469 17.6931 53.8492 17.571 54.0133 17.4059L54.0426 17.3757C54.0525 17.3593 54.0641 17.3442 54.0774 17.3305L54.0973 17.3129C54.27 17.107 54.3803 16.856 54.4153 16.5895C54.4502 16.323 54.4083 16.0521 54.2945 15.8086C54.1807 15.5651 53.9997 15.3592 53.7729 15.2151C53.546 15.0709 53.2827 14.9946 53.0139 14.995L53.0153 14.9964Z" fill="#82A3E7"/>
<path d="M48.6241 54.3822L45.8008 54.3242L45.6956 59.4428L48.5189 59.5008L48.6241 54.3822Z" fill="#FAC7A5"/>
<path d="M45.7207 58.1768L49.7498 58.2595C49.9269 58.2632 50.0952 58.337 50.2178 58.4647C50.3404 58.5925 50.4072 58.7637 50.4036 58.9407L50.3913 59.5396L45.6947 59.4431L45.7207 58.1768Z" fill="#D64A4A"/>
<path d="M48.5596 57.4696L45.7363 57.4116L45.7206 58.177L48.5439 58.235L48.5596 57.4696Z" fill="#D64A4A"/>
<path d="M53.779 47.2421L51.0371 47.9175L52.2616 52.8885L55.0035 52.2131L53.779 47.2421Z" fill="#FAC7A5"/>
<path d="M51.959 51.6597L55.872 50.6958C56.0439 50.6534 56.2256 50.6811 56.3771 50.7727C56.5286 50.8644 56.6376 51.0124 56.6799 51.1843L56.8232 51.7659L52.2619 52.8895L51.959 51.6597Z" fill="#D64A4A"/>
<path d="M54.5173 50.2406L51.7754 50.916L51.9585 51.6593L54.7004 50.9839L54.5173 50.2406Z" fill="#D64A4A"/>
<path d="M51.3562 40.1151C52.6201 43.2017 53.8823 46.2881 55.1429 49.3744C53.7324 49.61 52.3217 49.845 50.9107 50.0794L48.1676 43.2224L41.4519 44.5084C41.1755 44.5632 40.8903 44.5551 40.6175 44.4848C40.3446 44.4145 40.0911 44.2837 39.8756 44.1022C39.6024 43.8725 39.383 43.5856 39.2328 43.2617C39.0135 42.7238 38.9634 42.1318 39.0894 41.5647C39.2154 40.9976 39.5114 40.4824 39.9379 40.088C40.6064 39.6249 44.0749 39.2574 48.2195 38.4251C48.8572 38.2986 49.5191 38.398 50.0915 38.7064C50.6639 39.0148 51.1111 39.5129 51.3562 40.1151Z" fill="#1E1B3A"/>
<path d="M49.9747 56.4498C48.8986 56.4146 47.8261 56.3753 46.7496 56.341C46.0614 56.3175 45.3736 56.2942 44.6863 56.271C44.6547 55.7853 44.6199 55.2992 44.5892 54.8135L44.5775 54.6388L44.0616 47.0393C44.0106 46.2972 43.9609 45.5497 43.9099 44.809C41.1862 44.7861 38.4596 44.7655 35.7299 44.7471C34.8117 44.7395 33.934 44.3684 33.2888 43.7152C32.6436 43.0619 32.2834 42.1797 32.2871 41.2615L32.2917 39.5205L40.3354 39.544L46.7509 39.5629C47.3053 39.5643 47.848 39.722 48.3168 40.0179L48.6436 40.2549C48.9725 40.5266 49.2386 40.8663 49.4237 41.2506C49.6088 41.6348 49.7086 42.0547 49.7161 42.4812C49.7543 44.5645 49.7931 46.6487 49.8325 48.7338L49.9454 55.0175L49.9747 56.4498Z" fill="#292349"/>
<path d="M46.7491 56.341C46.0609 56.3175 45.3731 56.2942 44.6858 56.271C44.6506 55.7271 44.6113 55.1832 44.577 54.6388L44.0638 47.0374C44.0128 46.2954 43.9631 45.5479 43.9121 44.8071C43.9121 44.8071 45.0198 49.3187 46.7491 56.341Z" fill="#2E2B4C"/>
<path d="M49.9734 56.4498C48.8973 56.4145 47.8248 56.3753 46.7482 56.341C46.06 56.3175 45.3722 56.2942 44.6849 56.271C44.6533 55.7853 44.6186 55.2992 44.5879 54.8135L49.9463 55.0157L49.9734 56.4498Z" fill="#FDC257"/>
<path d="M54.7202 48.3398L55.1436 49.374C53.7332 49.6096 52.3225 49.8446 50.9114 50.0791L50.5566 49.1934L54.7202 48.3398Z" fill="#FDC257"/>
<path d="M51.8398 41.2886C52.5428 43.6921 53.2461 46.0955 53.9496 48.499L54.7233 48.3401C53.7628 45.9896 52.8016 43.6391 51.8398 41.2886Z" fill="#2E2B4C"/>
<path d="M51.8632 31.2574C51.7454 31.2447 51.6276 31.2326 51.5098 31.2204C51.5405 31.3765 51.573 31.5224 51.6041 31.6781C51.3784 31.9661 51.1572 32.2441 50.9329 32.5321L46.6619 35.9292C46.4362 36.1075 46.238 36.2691 46.0141 36.4474C45.9545 36.4962 45.8936 36.5549 45.825 36.6023C45.5391 36.8283 45.179 36.9392 44.8154 36.9133C44.4519 36.8875 44.1111 36.7266 43.8601 36.4623C42.4355 34.943 41.0128 33.4146 39.5977 31.8974L41.3378 30.2544C42.5634 31.5559 43.7844 32.863 45.0008 34.1756C46.6018 33.2164 48.2015 32.2676 49.8026 31.3084C49.938 31.0141 50.0929 30.7216 50.2283 30.4286C50.8932 30.5605 51.5673 30.6405 52.2446 30.6679C52.2642 30.6727 52.2846 30.6727 52.3042 30.6679C52.1561 30.8719 52.0099 31.0646 51.8632 31.2574Z" fill="#EA9387"/>
<path d="M49.2338 31.6566L46.4704 33.8471C46.2447 34.0254 46.0466 34.187 45.8227 34.3653C45.7631 34.4141 45.7022 34.4728 45.6335 34.5197C45.3477 34.7458 44.9875 34.8569 44.624 34.831C44.2604 34.8051 43.9196 34.6441 43.6687 34.3798C42.6287 33.263 41.5881 32.1496 40.5469 31.0395L41.4352 30.1968C42.6609 31.4977 43.8822 32.8046 45.0991 34.1175C46.4758 33.2879 47.8589 32.4781 49.2338 31.6566Z" fill="#EDA197"/>
<path d="M42.0488 39.6494H32.4248V30.2466C32.4248 29.8618 32.5777 29.4928 32.8497 29.2207C33.1218 28.9487 33.4908 28.7958 33.8756 28.7958H40.7755C40.9427 28.7958 41.1083 28.8288 41.2629 28.8928C41.4174 28.9568 41.5578 29.0506 41.676 29.1689C41.7943 29.2872 41.8881 29.4277 41.952 29.5822C42.016 29.7367 42.0489 29.9024 42.0488 30.0696V39.6494Z" fill="#FDC257"/>
<path d="M38.6988 25.7986C38.5562 25.9458 38.3686 26.0411 38.1657 26.0695C38.1496 26.4147 38.0196 26.7448 37.796 27.0083C37.5724 27.2717 37.2678 27.4537 36.9298 27.5257C36.6335 27.5621 36.3329 27.5143 36.0625 27.3877C35.7921 27.2612 35.5629 27.061 35.401 26.8102C35.2434 26.5571 35.1506 26.269 35.1309 25.9714C35.1112 25.6739 35.1652 25.3761 35.2881 25.1044C35.2148 24.9208 35.183 24.7233 35.1951 24.526C35.2072 24.3287 35.2629 24.1366 35.3581 23.9633C35.8352 23.2145 37.3072 23.2971 38.1481 23.8771C38.3392 23.9949 38.5044 24.1503 38.6337 24.3338C38.763 24.5173 38.8538 24.7251 38.9006 24.9446C38.933 25.093 38.9317 25.2468 38.8967 25.3946C38.8618 25.5424 38.7942 25.6805 38.6988 25.7986Z" fill="#060C21"/>
<path d="M35.7832 28.8005C35.7949 28.8285 35.8134 28.8674 35.8378 28.9134C35.9192 29.065 36.0261 29.2015 36.1538 29.3169C36.276 29.4259 36.4212 29.5059 36.5786 29.5512L37.1654 29.5476C37.237 29.5279 37.3067 29.5016 37.3734 29.469C37.5064 29.4036 37.6256 29.3134 37.7246 29.2032C37.7976 29.1225 37.8609 29.0335 37.9133 28.9382C37.9373 28.897 37.959 28.8545 37.9783 28.8109C37.9011 28.7888 37.8149 28.7658 37.7219 28.7477L37.717 27.9136V28.2241C37.4626 28.359 37.171 28.4062 36.8871 28.3586C36.6032 28.3109 36.3429 28.171 36.1466 27.9605L36.1502 28.7188C36.0179 28.7423 35.8933 28.7703 35.7832 28.8005Z" fill="#EA9387"/>
<path d="M36.1426 27.4799V27.7006V27.9164V27.9615C36.3389 28.172 36.5992 28.3119 36.8831 28.3595C37.167 28.4072 37.4586 28.36 37.713 28.2251V27.9146V27.4727L36.1426 27.4799Z" fill="#EA9387"/>
<path d="M36.1426 27.701C36.1426 27.7723 36.1426 27.8436 36.1426 27.9158V27.961C36.3389 28.1714 36.5992 28.3114 36.8831 28.359C37.167 28.4067 37.4586 28.3594 37.713 28.2246V27.914C37.713 27.8395 37.713 27.766 37.713 27.6924L36.1435 27.7014L36.1426 27.701Z" fill="#DD847A"/>
<path d="M35.5838 25.9517L35.5888 26.8518C35.5902 27.111 35.6688 27.364 35.8145 27.5785C35.9037 27.7095 36.0154 27.8236 36.1445 27.9157C36.2945 28.0232 36.4653 28.0982 36.646 28.136C36.7392 28.1553 36.8342 28.165 36.9294 28.1648H36.9398C37.0321 28.1642 37.1241 28.1541 37.2143 28.1346C37.3943 28.0964 37.5644 28.0209 37.7135 27.913C37.8155 27.8401 37.9067 27.7532 37.9843 27.6548C38.001 27.6336 38.0168 27.6096 38.0322 27.5893C38.1855 27.3685 38.2667 27.1057 38.2646 26.8369L38.2588 25.9255C38.257 25.7512 38.2209 25.579 38.1525 25.4187C38.0842 25.2584 37.9849 25.1131 37.8603 24.9912C37.7358 24.8693 37.5884 24.7731 37.4267 24.7082C37.2649 24.6433 37.092 24.6109 36.9177 24.6129C36.5619 24.6144 36.2212 24.7566 35.9698 25.0083C35.8462 25.1323 35.7483 25.2796 35.6818 25.4415C35.6152 25.6035 35.5813 25.777 35.582 25.9521L35.5838 25.9517Z" fill="#EA9387"/>
<path d="M37.752 26.1837C37.7519 26.2065 37.7586 26.2288 37.7712 26.2479C37.7838 26.2669 37.8018 26.2817 37.8229 26.2905C37.844 26.2993 37.8672 26.3016 37.8896 26.2972C37.912 26.2927 37.9326 26.2818 37.9487 26.2656C37.9649 26.2495 37.9758 26.2289 37.9803 26.2065C37.9847 26.1841 37.9824 26.1609 37.9736 26.1398C37.9648 26.1187 37.95 26.1007 37.931 26.0881C37.9119 26.0755 37.8896 26.0688 37.8668 26.0688C37.8363 26.0688 37.8071 26.0809 37.7856 26.1025C37.764 26.124 37.752 26.1532 37.752 26.1837Z" fill="#280C1A"/>
<path d="M36.752 26.1924C36.7518 26.2154 36.7584 26.2379 36.7711 26.2571C36.7837 26.2762 36.8018 26.2912 36.823 26.3001C36.8441 26.309 36.8675 26.3113 36.89 26.3069C36.9125 26.3024 36.9332 26.2914 36.9495 26.2752C36.9657 26.2589 36.9768 26.2382 36.9812 26.2157C36.9856 26.1932 36.9833 26.1698 36.9744 26.1487C36.9655 26.1275 36.9506 26.1094 36.9314 26.0968C36.9122 26.0841 36.8897 26.0775 36.8668 26.0776C36.8363 26.0776 36.8071 26.0897 36.7856 26.1113C36.7641 26.1328 36.752 26.162 36.752 26.1924Z" fill="#280C1A"/>
<path d="M36.5801 29.5495C36.5968 29.5545 36.6131 29.559 36.6307 29.5626C36.8081 29.6013 36.9923 29.5954 37.1668 29.5454L36.5801 29.5495Z" fill="#EA9387"/>
<path d="M35.5834 25.9519L35.5884 26.852C35.5898 27.1112 35.6683 27.3642 35.814 27.5787C35.9033 27.7097 36.015 27.8238 36.144 27.9159C36.1865 27.9465 36.2308 27.9746 36.2767 27.9998C36.1514 27.7961 36.0842 27.562 36.0822 27.3228L36.0777 26.4222C36.076 26.2782 36.0986 26.1349 36.1445 25.9984C36.2089 25.8025 36.3185 25.6245 36.4645 25.4788C36.6706 25.2729 36.9378 25.1392 37.2262 25.0975C37.5146 25.0559 37.8087 25.1086 38.0647 25.2477C37.944 25.0526 37.775 24.892 37.5741 24.7813C37.3732 24.6706 37.1471 24.6136 36.9177 24.6158C36.5619 24.6173 36.2212 24.7595 35.9698 25.0112C35.8462 25.1353 35.7483 25.2825 35.6818 25.4445C35.6152 25.6064 35.5813 25.78 35.582 25.9551L35.5834 25.9519Z" fill="#EDA197"/>
<path d="M38.0947 25.911C38.0092 25.8392 37.9043 25.7944 37.7933 25.7822C37.7525 25.7859 37.713 25.7978 37.677 25.8172C37.6411 25.8367 37.6094 25.8632 37.584 25.8952L38.0947 25.911Z" fill="#280C1A"/>
<path d="M37.1612 25.911C37.0756 25.8392 36.9707 25.7944 36.8597 25.7822C36.819 25.786 36.7795 25.7979 36.7435 25.8174C36.7075 25.8368 36.6759 25.8633 36.6504 25.8952L37.1612 25.911Z" fill="#280C1A"/>
<path opacity="0.53" d="M37.3118 27.5163C37.4018 27.5304 37.494 27.5141 37.5737 27.4699C37.6534 27.4258 37.7161 27.3563 37.7519 27.2726C37.6218 27.2219 37.483 27.1972 37.3434 27.1999C37.2151 27.2011 37.0882 27.2257 36.9688 27.2726C36.9945 27.3432 37.0411 27.4043 37.1024 27.4478C37.1636 27.4913 37.2367 27.5152 37.3118 27.5163Z" fill="white"/>
<path opacity="0.33" d="M37.3445 26.918H37.4078C37.435 26.918 37.457 26.8959 37.457 26.8687V26.6138C37.457 26.5866 37.435 26.5645 37.4078 26.5645H37.3445C37.3173 26.5645 37.2952 26.5866 37.2952 26.6138V26.8687C37.2952 26.8959 37.3173 26.918 37.3445 26.918Z" fill="white"/>
<path d="M35.5826 26.4495C35.7027 26.4495 35.8001 26.3521 35.8001 26.2321C35.8001 26.112 35.7027 26.0146 35.5826 26.0146C35.4626 26.0146 35.3652 26.112 35.3652 26.2321C35.3652 26.3521 35.4626 26.4495 35.5826 26.4495Z" fill="#EDA197"/>
<path d="M38.2643 26.3919C38.3844 26.3919 38.4817 26.2945 38.4817 26.1744C38.4817 26.0544 38.3844 25.957 38.2643 25.957C38.1442 25.957 38.0469 26.0544 38.0469 26.1744C38.0469 26.2945 38.1442 26.3919 38.2643 26.3919Z" fill="#EA9387"/>
<path d="M38.0608 25.2467C37.8551 25.0072 37.5778 24.8403 37.27 24.7705C37.1382 24.7425 36.6737 24.6445 36.4728 24.8752C36.3401 25.0278 36.3961 25.244 36.2507 25.3013C36.1478 25.3424 36.0747 25.2584 35.9704 25.2733C35.8445 25.2909 35.6996 25.4507 35.5773 26.0168C35.5019 25.9528 35.4445 25.8704 35.4107 25.7775C35.3525 25.611 35.4039 25.4742 35.5254 25.1099C35.7181 24.5312 35.7027 24.5371 35.7479 24.478C35.912 24.2718 36.139 24.1247 36.3943 24.0591C36.5414 24.0199 36.6935 24.003 36.8457 24.009C37.4176 24.009 37.8216 24.009 38.0337 24.2704C38.3081 24.6062 38.0906 25.1709 38.0608 25.2467Z" fill="#060C21"/>
<path d="M40.7091 28.9448L41.5573 29.6332C42.4583 30.7424 43.3588 31.8521 44.2588 32.9622L41.815 34.7591L38.3633 31.3891L40.7091 28.9448Z" fill="#FDC257"/>
<path d="M39.4399 38.1307C39.8242 37.9438 40.2089 37.7572 40.5941 37.571L42.8393 39.2131L42.5766 39.6401L39.2566 39.7589L33.7899 39.6582C33.5145 39.6618 33.2446 39.6582 32.9611 39.6582C32.8829 39.6614 32.8045 39.6602 32.7264 39.6546C32.3604 39.6524 32.0089 39.5114 31.7429 39.2601C31.4768 39.0087 31.3161 38.6657 31.2933 38.3004C31.1637 36.224 31.0333 34.1436 30.8906 32.0681L33.2884 31.9038C33.4026 33.6872 33.5141 35.4801 33.626 37.2636L39.4399 38.1307Z" fill="#EA9387"/>
<path d="M39.2879 38.1102C39.3402 38.121 39.3885 38.1183 39.4409 38.13L34.5492 38.038C34.2739 38.0416 34.0039 38.038 33.7205 38.038C33.6424 38.0409 33.5642 38.0397 33.4862 38.0343C33.12 38.0324 32.7683 37.8915 32.5021 37.6401C32.2358 37.3888 32.075 37.0456 32.0521 36.6802C31.9528 35.1202 31.8594 33.5516 31.7461 31.9939L33.298 31.8892C33.4126 33.673 33.5237 35.4646 33.6365 37.2489L39.2856 38.0998C39.285 38.1016 39.2848 38.1035 39.2852 38.1053C39.2856 38.1072 39.2865 38.1088 39.2879 38.1102Z" fill="#EDA197"/>
<path d="M32.8086 28.7891H35.2741V33.8766H30.748V30.8496C30.748 30.3031 30.9651 29.779 31.3516 29.3926C31.738 29.0062 32.2621 28.7891 32.8086 28.7891V28.7891Z" fill="#FDC257"/>
<path d="M65.9885 40.4428C66.0715 40.3737 66.1555 40.3074 66.239 40.236C66.2941 40.3715 66.3437 40.4974 66.3992 40.6315C66.7152 40.7366 67.0257 40.8355 67.3422 40.9407L72.3074 41.3586C72.5674 41.3808 72.804 41.4038 73.0626 41.4241C73.1317 41.4313 73.2084 41.4448 73.2842 41.4453C73.6163 41.4732 73.9467 41.3757 74.2105 41.172C74.4742 40.9683 74.652 40.6732 74.7088 40.3448C75.0225 38.4684 75.3295 36.5852 75.6355 34.7156L73.481 34.3481C73.2102 35.9582 72.943 37.5747 72.6839 39.1848C70.9813 39.2674 69.2845 39.3563 67.5832 39.4389C67.3309 39.2836 67.0659 39.1405 66.8131 38.9875C66.3752 39.4248 65.9035 39.827 65.4026 40.1904C65.3901 40.2042 65.3746 40.215 65.3574 40.222C65.5709 40.2997 65.7799 40.3706 65.9885 40.4428Z" fill="#EA9387"/>
<path d="M68.1914 39.4116L71.4017 39.6765C71.6617 39.6987 71.8982 39.7217 72.1568 39.742C72.2259 39.7492 72.3026 39.7628 72.3785 39.7632C72.7103 39.7905 73.0403 39.6926 73.3035 39.4888C73.5668 39.2849 73.7442 38.9899 73.8008 38.6618C74.0262 37.286 74.2534 35.9126 74.4824 34.5416L73.3796 34.3511C73.1088 35.9612 72.8416 37.5776 72.5816 39.1877C71.1146 39.254 69.6525 39.3398 68.1914 39.4116Z" fill="#EDA197"/>
<path d="M82.0745 42.7401C79.6037 43.633 76.9459 43.8808 74.3526 43.46C73.4086 43.299 72.4827 43.0461 71.5879 42.7049L71.9671 31.7361C71.9671 31.2333 72.1668 30.7511 72.5223 30.3956C72.8779 30.0401 73.3601 29.8403 73.8629 29.8403H78.5957C79.1689 29.8403 79.7186 30.068 80.1239 30.4733C80.5292 30.8787 80.7569 31.4284 80.7569 32.0016C81.1969 35.5808 81.6361 39.1603 82.0745 42.7401Z" fill="#292349"/>
<path d="M67.373 35.1694L67.8488 36.0044L70.0308 39.8119L71.0992 39.7938L73.6225 39.7577L70.9733 35.1147L67.373 35.1694Z" fill="#82A3E7"/>
<path d="M72.2966 37.3535C71.9463 37.3986 71.5965 37.4401 71.2381 37.4889L69.1761 37.6094C69.1637 37.6624 69.1627 37.7175 69.1731 37.7709C69.1836 37.8244 69.2052 37.875 69.2366 37.9195C69.3332 38.0301 69.4993 38.0098 69.7467 38.0197C69.9728 38.0306 70.1972 38.0641 70.4165 38.1199C70.5379 38.3213 70.6989 38.4961 70.8896 38.6336C71.0804 38.7712 71.297 38.8687 71.5265 38.9202C71.7927 38.9698 72.067 38.9521 72.3245 38.8688L77.4185 38.6823C77.6748 38.6823 77.9263 38.6733 78.1908 38.6675C78.2637 38.6689 78.3366 38.6662 78.4092 38.6593C78.751 38.651 79.0772 38.5147 79.3233 38.2774C79.5694 38.0401 79.7174 37.7191 79.7381 37.3778C79.8487 35.4486 79.9589 33.5189 80.0821 31.5924L77.8473 31.4805C77.7493 33.1366 77.6568 34.8004 77.5588 36.4561L72.2966 37.3535Z" fill="#EA9387"/>
<path d="M72.2867 37.3398C72.2389 37.3515 72.1933 37.3493 72.1445 37.361L76.7035 37.1917C76.9604 37.1917 77.2123 37.1827 77.4763 37.1768C77.5492 37.1782 77.6221 37.1758 77.6948 37.1696C78.0364 37.1609 78.3624 37.0245 78.6084 36.7872C78.8544 36.55 79.0026 36.2292 79.0237 35.8881C79.1085 34.4392 79.188 32.9839 79.285 31.5377L77.8406 31.4668C77.7426 33.1225 77.6501 34.7859 77.5522 36.4424L72.2926 37.3272C72.2932 37.3284 72.2935 37.3297 72.2935 37.331C72.2935 37.3323 72.2932 37.3336 72.2926 37.3349C72.2921 37.3361 72.2913 37.3371 72.2902 37.338C72.2892 37.3388 72.288 37.3395 72.2867 37.3398Z" fill="#EDA197"/>
<path d="M77.0078 34.3982L80.4086 34.7593L80.1553 30.7871L77.5007 30.7207L77.0078 34.3982Z" fill="#292349"/>
<path d="M70.6866 35.6994C70.753 35.6994 70.8069 35.6456 70.8069 35.5792C70.8069 35.5128 70.753 35.459 70.6866 35.459C70.6202 35.459 70.5664 35.5128 70.5664 35.5792C70.5664 35.6456 70.6202 35.6994 70.6866 35.6994Z" fill="#1E80F3"/>
<path d="M75.6217 28.5739C75.8722 28.5856 75.995 28.8086 76.1399 28.8447C76.4832 28.8965 76.8341 28.8496 77.1517 28.7095C77.4693 28.5694 77.7405 28.3418 77.9337 28.0534C78.6045 27.0513 78.0741 25.1393 76.7565 24.6807C76.3486 24.5597 75.9147 24.5576 75.5057 24.6746C75.0966 24.7915 74.7295 25.0227 74.4472 25.341C74.2762 25.5513 74.1505 25.7945 74.0779 26.0556C74.0053 26.3166 73.9873 26.5899 74.0251 26.8582C74.077 27.2352 74.2136 27.5956 74.4247 27.9123C74.6357 28.229 74.9158 28.4938 75.2439 28.6867C75.3555 28.6117 75.4872 28.5724 75.6217 28.5739Z" fill="#060C21"/>
<path d="M76.9865 29.8496C76.9756 29.8753 76.9585 29.9114 76.9359 29.9543C76.8611 30.0951 76.7625 30.2219 76.6443 30.3289C76.5324 30.4297 76.3993 30.5039 76.2548 30.5461L75.7158 30.5429C75.6499 30.5244 75.5858 30.4997 75.5244 30.4693C75.402 30.4088 75.2926 30.3251 75.2021 30.2229C75.135 30.148 75.077 30.0654 75.0292 29.9769C75.0071 29.9383 74.9869 29.8987 74.9688 29.8582C75.0401 29.8383 75.1195 29.8175 75.2048 29.7999L75.2093 29.0249V29.3129C75.4431 29.438 75.7119 29.4818 75.9733 29.4376C76.2347 29.3934 76.4741 29.2637 76.6538 29.0687L76.6502 29.7724C76.7707 29.795 76.8835 29.8216 76.9865 29.8496Z" fill="#EA9387"/>
<path d="M76.6515 28.6239V28.8284V29.0293V29.0699C76.4718 29.2649 76.2325 29.3948 75.971 29.439C75.7095 29.4832 75.4408 29.4393 75.207 29.3141V29.0261V28.6167L76.6515 28.6239Z" fill="#EA9387"/>
<path d="M76.6515 28.8288C76.6515 28.8956 76.6515 28.9642 76.6515 29.0283V29.0689C76.4718 29.264 76.2325 29.3938 75.971 29.438C75.7095 29.4822 75.4408 29.4383 75.207 29.3131V29.0251C75.207 28.9561 75.207 28.8897 75.207 28.8188L76.6483 28.827L76.6515 28.8288Z" fill="#DD847A"/>
<path d="M77.1662 27.2057L77.1617 28.0412C77.1609 28.2345 77.1142 28.4248 77.0253 28.5965C76.9365 28.7681 76.8081 28.9162 76.6507 29.0284C76.513 29.1278 76.356 29.1973 76.1899 29.2324C76.1042 29.2503 76.0169 29.2592 75.9294 29.2591H75.9199C75.8352 29.2584 75.7508 29.249 75.6681 29.2311C75.5023 29.1953 75.3458 29.1254 75.2086 29.0257C75.1145 28.9584 75.0308 28.8778 74.9598 28.7865C74.9445 28.7666 74.9296 28.7458 74.9147 28.7255C74.7739 28.5202 74.6994 28.2766 74.7012 28.0277L74.7062 27.1818C74.7094 26.8555 74.8421 26.544 75.075 26.3156C75.308 26.0872 75.6222 25.9607 75.9484 25.9639C76.2746 25.9672 76.5862 26.0999 76.8146 26.3328C77.043 26.5658 77.1695 26.8799 77.1662 27.2062V27.2057Z" fill="#EA9387"/>
<path d="M75.1734 27.4231C75.1734 27.4513 75.1622 27.4783 75.1423 27.4982C75.1223 27.5181 75.0953 27.5293 75.0672 27.5293C75.039 27.5293 75.012 27.5181 74.992 27.4982C74.9721 27.4783 74.9609 27.4513 74.9609 27.4231C74.9609 27.3949 74.9721 27.3679 74.992 27.348C75.012 27.3281 75.039 27.3169 75.0672 27.3169C75.0953 27.3169 75.1223 27.3281 75.1423 27.348C75.1622 27.3679 75.1734 27.3949 75.1734 27.4231Z" fill="#280C1A"/>
<path d="M76.0913 27.4298C76.0911 27.4578 76.0798 27.4846 76.0599 27.5044C76.04 27.5241 76.0131 27.5351 75.9851 27.5351C75.9569 27.5349 75.93 27.5236 75.9101 27.5036C75.8902 27.4836 75.879 27.4567 75.8789 27.4285C75.8789 27.4003 75.8901 27.3733 75.91 27.3534C75.9299 27.3335 75.9569 27.3223 75.9851 27.3223C76.0133 27.3223 76.0403 27.3335 76.0602 27.3534C76.0801 27.3733 76.0913 27.4003 76.0913 27.4285V27.4298Z" fill="#280C1A"/>
<path d="M76.2542 30.5457C76.2389 30.5502 76.2235 30.5547 76.209 30.5583C76.0462 30.5937 75.8771 30.5885 75.7168 30.543L76.2542 30.5457Z" fill="#EA9387"/>
<path d="M77.1658 27.2052L77.1613 28.0407C77.1605 28.234 77.1137 28.4243 77.0249 28.596C76.936 28.7676 76.8076 28.9157 76.6503 29.0279C76.611 29.0559 76.5701 29.0817 76.528 29.1051C76.6449 28.915 76.7073 28.6964 76.7085 28.4732L76.713 27.6376C76.7147 27.4227 76.6602 27.211 76.5547 27.0236C76.4493 26.8362 76.2967 26.6796 76.1121 26.5694C75.9275 26.4592 75.7173 26.3992 75.5023 26.3954C75.2874 26.3916 75.0751 26.444 74.8867 26.5475C75.0274 26.3179 75.2395 26.1408 75.4904 26.0432C75.7414 25.9456 76.0174 25.933 76.2763 26.0072C76.5351 26.0815 76.7625 26.2385 76.9235 26.4543C77.0846 26.6701 77.1705 26.9328 77.168 27.2021L77.1658 27.2052Z" fill="#EDA197"/>
<path d="M74.8594 27.1677C74.9376 27.1011 75.0339 27.0596 75.136 27.0483C75.1736 27.0516 75.2101 27.0626 75.2432 27.0807C75.2764 27.0987 75.3054 27.1234 75.3285 27.1532L74.8594 27.1677Z" fill="#280C1A"/>
<path d="M75.7148 27.1677C75.793 27.1011 75.8894 27.0595 75.9915 27.0483C76.0291 27.0516 76.0656 27.0626 76.0987 27.0807C76.1318 27.0987 76.1609 27.1234 76.184 27.1532L75.7148 27.1677Z" fill="#280C1A"/>
<path d="M75.5781 28.6578C75.4949 28.671 75.4097 28.6559 75.3361 28.615C75.2624 28.5741 75.2046 28.5097 75.1719 28.4321C75.2911 28.384 75.4189 28.3607 75.5474 28.3635C75.6653 28.3651 75.7819 28.3883 75.8914 28.4321C75.8682 28.4971 75.8259 28.5535 75.7699 28.5938C75.714 28.6341 75.6471 28.6564 75.5781 28.6578Z" fill="#E43F64"/>
<path opacity="0.33" d="M75.5464 27.7754H75.489C75.4638 27.7754 75.4434 27.7958 75.4434 27.821V28.0579C75.4434 28.0831 75.4638 28.1035 75.489 28.1035H75.5464C75.5716 28.1035 75.5921 28.0831 75.5921 28.0579V27.821C75.5921 27.7958 75.5716 27.7754 75.5464 27.7754Z" fill="white"/>
<path d="M77.1666 27.6652C77.2769 27.6652 77.3664 27.5757 77.3664 27.4654C77.3664 27.3551 77.2769 27.2656 77.1666 27.2656C77.0562 27.2656 76.9668 27.3551 76.9668 27.4654C76.9668 27.5757 77.0562 27.6652 77.1666 27.6652Z" fill="#EDA197"/>
<path d="M74.6998 27.612C74.8101 27.612 74.8996 27.5225 74.8996 27.4122C74.8996 27.3018 74.8101 27.2124 74.6998 27.2124C74.5894 27.2124 74.5 27.3018 74.5 27.4122C74.5 27.5225 74.5894 27.612 74.6998 27.612Z" fill="#EA9387"/>
<path d="M77.2381 27.1561C76.877 27.3755 76.1692 27.0013 75.9742 26.47C75.9172 26.3072 75.9033 26.1325 75.9336 25.9627C76.0074 25.7924 76.1321 25.6492 76.2906 25.5528C76.3905 25.4761 76.509 25.4274 76.6339 25.4117C76.7589 25.3961 76.8857 25.414 77.0014 25.4638C77.1171 25.5135 77.2174 25.5932 77.292 25.6946C77.3667 25.796 77.4129 25.9155 77.4259 26.0408C77.5058 26.3369 77.5645 26.9575 77.2381 27.1561Z" fill="#060C21"/>
<path d="M77.5523 26.1603C78.0203 26.1603 78.3996 25.781 78.3996 25.3131C78.3996 24.8451 78.0203 24.4658 77.5523 24.4658C77.0844 24.4658 76.7051 24.8451 76.7051 25.3131C76.7051 25.781 77.0844 26.1603 77.5523 26.1603Z" fill="#060C21"/>
<path d="M72.1017 31.0156L71.2793 33.8697L71.8697 34.3284" fill="#292349"/>
</svg>
