<svg width="89" height="82" viewBox="0 0 89 82" fill="none" xmlns="http://www.w3.org/2000/svg">
<path d="M5.65625 80.9859L8.61957 81.0368L8.71826 76.046L5.75494 75.9951L5.65625 80.9859Z" fill="#FAC7A5"/>
<path d="M3.68945 80.9519L8.61911 81.0358L8.64302 79.8013L4.85624 79.7368C4.70226 79.7375 4.54995 79.7649 4.40802 79.8176C4.26608 79.8703 4.13732 79.9472 4.02911 80.044C3.92089 80.1407 3.83537 80.2553 3.7774 80.3813C3.71943 80.5073 3.69016 80.6421 3.69129 80.7781L3.68945 80.9519Z" fill="#251760"/>
<path d="M5.67773 79.7515L8.64106 79.8024L8.65576 79.0563L5.69244 79.0054L5.67773 79.7515Z" fill="#251760"/>
<path d="M13.3029 80.85L10.4512 80.1017L11.9123 75.2983L14.7646 76.0466L13.3029 80.85Z" fill="#FAC7A5"/>
<path d="M15.1957 81.3468L10.4512 80.1014L10.8123 78.9102L14.458 79.8664C14.7558 79.9525 15.0042 80.137 15.1513 80.3813C15.2984 80.6256 15.3328 80.9106 15.2472 81.1768L15.1957 81.3468Z" fill="#251760"/>
<path d="M13.6668 79.6606L10.8145 78.9123L11.0327 78.1943L13.8851 78.9427L13.6668 79.6606Z" fill="#251760"/>
<path d="M5.39336 57.4093C5.18325 64.3802 4.97337 71.3509 4.76367 78.3215H10.1734L10.5787 62.3009L12.6021 67.1173C11.9272 70.0012 11.2528 72.8858 10.5787 75.7711L15.2772 77.6522L18.3552 66.5152L15.2772 57.2593L5.39336 57.4093Z" fill="#FDC257"/>
<path d="M10.5781 62.3015L10.7823 59.0835L12.6033 67.1173L10.5781 62.3015Z" fill="#F9B353"/>
<path opacity="0.16" d="M10.5145 64.8906C9.96145 69.3668 9.4078 73.8439 8.85352 78.3218H10.1754C10.2882 73.8449 10.4013 69.3679 10.5145 64.8906Z" fill="#FEFEFE"/>
<path opacity="0.16" d="M18.355 66.5151C16.8835 70.0499 15.4136 73.5844 13.9453 77.1188C14.3892 77.2971 14.8331 77.4749 15.2771 77.6521L18.355 66.5151Z" fill="#FEFEFE"/>
<path d="M4.79177 77.3108C4.78155 77.648 4.77153 77.985 4.76172 78.3218H10.1715L10.1985 77.2285L4.79177 77.3108Z" fill="#D64A4A"/>
<path d="M10.8669 74.5332C10.7709 74.9454 10.6746 75.358 10.5781 75.771L15.2767 77.6521C15.3666 77.3243 15.4573 76.9971 15.5489 76.6704L10.8669 74.5332Z" fill="#D64A4A"/>
<path d="M68.7786 15.0412V70.4527C68.7753 70.7527 68.6384 71.0396 68.3974 71.2511C68.1564 71.4626 67.8307 71.5818 67.491 71.5827H33.1605C32.8213 71.5823 32.4961 71.4631 32.2562 71.2513C32.0163 71.0395 31.8814 70.7523 31.8809 70.4527V15.0412C31.8803 14.8932 31.9127 14.7466 31.9763 14.6098C32.0399 14.4729 32.1335 14.3484 32.2516 14.2435C32.3697 14.1385 32.51 14.0552 32.6646 13.9982C32.8192 13.9411 32.985 13.9116 33.1525 13.9111H67.4885C67.8286 13.9111 68.1549 14.03 68.3962 14.2417C68.6374 14.4534 68.774 14.7408 68.7761 15.0412H68.7786Z" fill="#6087CC"/>
<path d="M66.4755 15.6187H34.1776C33.647 15.6187 33.2168 15.9985 33.2168 16.4671V62.3509C33.2168 62.8195 33.647 63.1994 34.1776 63.1994H66.4755C67.0061 63.1994 67.4363 62.8195 67.4363 62.3509V16.4671C67.4363 15.9985 67.0061 15.6187 66.4755 15.6187Z" fill="#D4E2FF"/>
<path d="M54.716 13.9351H45.934C45.5012 13.9351 45.1504 14.2449 45.1504 14.6271V16.611C45.1504 16.9932 45.5012 17.303 45.934 17.303H54.716C55.1488 17.303 55.4996 16.9932 55.4996 16.611V14.6271C55.4996 14.2449 55.1488 13.9351 54.716 13.9351Z" fill="#5D7DC3"/>
<path d="M50.479 69.5349C51.9408 69.5349 53.1259 68.4884 53.1259 67.1974C53.1259 65.9064 51.9408 64.8599 50.479 64.8599C49.0171 64.8599 47.832 65.9064 47.832 67.1974C47.832 68.4884 49.0171 69.5349 50.479 69.5349Z" fill="#3058A0"/>
<path d="M56.2271 41.3936H22.3933C21.6842 41.3936 21.1094 41.9012 21.1094 42.5274V54.651C21.1094 55.2772 21.6842 55.7848 22.3933 55.7848H56.2271C56.9362 55.7848 57.511 55.2772 57.511 54.651V42.5274C57.511 41.9012 56.9362 41.3936 56.2271 41.3936Z" fill="#1E80F3"/>
<path d="M28.6796 52.2377C30.9609 52.2377 32.8103 50.6045 32.8103 48.5898C32.8103 46.5751 30.9609 44.9419 28.6796 44.9419C26.3982 44.9419 24.5488 46.5751 24.5488 48.5898C24.5488 50.6045 26.3982 52.2377 28.6796 52.2377Z" fill="#EDEDED"/>
<path opacity="0.31" d="M45.9921 49.668H34.9316V52.6076H45.9921V49.668Z" fill="#EDEDED"/>
<path opacity="0.22" d="M51.4667 49.668H46.957V52.6076H51.4667V49.668Z" fill="#EDEDED"/>
<path opacity="0.54" d="M51.4675 44.9878H34.9316V45.7632H51.4675V44.9878Z" fill="#D4E2FF"/>
<path opacity="0.54" d="M51.4675 46.4004H34.9316V47.1758H51.4675V46.4004Z" fill="#D4E2FF"/>
<path opacity="0.54" d="M51.4675 47.8145H34.9316V48.5898H51.4675V47.8145Z" fill="#D4E2FF"/>
<path opacity="0.22" d="M65.6217 19.7051H35.7782C35.3376 19.7051 34.9805 20.0205 34.9805 20.4095V36.9504C34.9805 37.3395 35.3376 37.6549 35.7782 37.6549H65.6217C66.0622 37.6549 66.4194 37.3395 66.4194 36.9504V20.4095C66.4194 20.0205 66.0622 19.7051 65.6217 19.7051Z" fill="#6087CC"/>
<path d="M64.6897 20.8794H36.5851C36.1821 20.8794 35.8555 21.1679 35.8555 21.5237V34.159C35.8555 34.5149 36.1821 34.8033 36.5851 34.8033H64.6897C65.0927 34.8033 65.4194 34.5149 65.4194 34.159V21.5237C65.4194 21.1679 65.0927 20.8794 64.6897 20.8794Z" fill="#F3F3F3"/>
<path d="M50.221 29.3227C51.2653 29.3227 52.1119 28.5751 52.1119 27.6528C52.1119 26.7305 51.2653 25.9829 50.221 25.9829C49.1767 25.9829 48.3301 26.7305 48.3301 27.6528C48.3301 28.5751 49.1767 29.3227 50.221 29.3227Z" fill="#D4E2FF"/>
<path d="M49.8887 27.0537V28.2547L51.0634 27.5578L49.8887 27.0537Z" fill="#1E80F3"/>
<g opacity="0.53">
<path opacity="0.53" d="M64.6431 35.9951H37.9297V36.2377H64.6431V35.9951Z" fill="#6087CC"/>
</g>
<path d="M57.5086 35.9814H37.9297V36.2533H57.5086V35.9814Z" fill="#1E80F3"/>
<path d="M37.0732 36.3993C37.2495 36.3993 37.3924 36.2731 37.3924 36.1174C37.3924 35.9617 37.2495 35.8354 37.0732 35.8354C36.8968 35.8354 36.7539 35.9617 36.7539 36.1174C36.7539 36.2731 36.8968 36.3993 37.0732 36.3993Z" fill="#F3F3F3"/>
<path d="M85.4701 0.487793H56.1202C55.7744 0.487793 55.4941 0.735309 55.4941 1.04064V9.99821C55.4941 10.3035 55.7744 10.551 56.1202 10.551H85.4701C85.8158 10.551 86.0961 10.3035 86.0961 9.99821V1.04064C86.0961 0.735309 85.8158 0.487793 85.4701 0.487793Z" fill="#1E80F3"/>
<path d="M65.0366 2.92118V8.1193C65.0366 8.3524 64.9323 8.57606 64.7463 8.74149C64.5604 8.90693 64.3079 9.00073 64.044 9.00245H58.1505C57.8895 9.00252 57.6389 8.91252 57.4521 8.75167C57.2652 8.59082 57.1569 8.37186 57.1504 8.1415V2.92172C57.1504 2.68749 57.2558 2.46286 57.4433 2.29724C57.6308 2.13162 57.8852 2.03857 58.1505 2.03857H64.044C64.3079 2.04015 64.5603 2.13383 64.7463 2.29918C64.9323 2.46453 65.0366 2.68812 65.0366 2.92118Z" fill="#59A9F7"/>
<path opacity="0.48" d="M62.4982 9.00258H58.1505C57.8895 9.00265 57.6389 8.91266 57.4521 8.75182C57.2652 8.59097 57.1569 8.372 57.1504 8.14164C57.1682 8.12648 57.1774 8.11078 57.1946 8.09562L59.7943 5.63625C59.8565 5.57867 59.9309 5.53248 60.0133 5.50033C60.0958 5.46818 60.1846 5.4507 60.2747 5.44889C60.3648 5.44708 60.4544 5.46097 60.5384 5.48978C60.6224 5.51858 60.6992 5.56174 60.7643 5.61676C60.7993 5.64594 60.8305 5.67844 60.8575 5.71368C61.0573 5.98442 61.2572 6.24866 61.4632 6.52102C61.8759 7.07116 62.2892 7.62237 62.7012 8.16547C62.7508 8.22921 62.7858 8.30097 62.804 8.37664C62.8222 8.45232 62.8234 8.53042 62.8075 8.60649C62.7915 8.68257 62.7588 8.75512 62.7111 8.82002C62.6634 8.88492 62.6017 8.94088 62.5295 8.98472L62.4982 9.00258Z" fill="white"/>
<path d="M65.0382 7.79975V8.11705C65.0383 8.35015 64.9339 8.5738 64.748 8.73924C64.562 8.90467 64.3095 8.99847 64.0456 9.00019H59.9271C59.8527 8.95735 59.7886 8.90196 59.7386 8.8372C59.6885 8.77244 59.6534 8.69958 59.6353 8.62281C59.6172 8.54604 59.6164 8.46687 59.633 8.38983C59.6496 8.3128 59.6833 8.23942 59.7321 8.17391C59.7535 8.14549 59.7775 8.11869 59.8039 8.09377C60.3557 7.56367 60.9106 7.04656 61.4636 6.51917C61.7794 6.22407 62.0878 5.9295 62.4036 5.63603C62.5293 5.51986 62.7021 5.45254 62.884 5.44889C63.0659 5.44523 63.242 5.50554 63.3736 5.61654C63.4086 5.64571 63.4398 5.67822 63.4668 5.71346C63.9935 6.3995 64.5116 7.10612 65.0382 7.79975Z" fill="white"/>
<path d="M81.0775 3.46191H68.2959C68.1303 3.46191 67.9961 3.58046 67.9961 3.72669V4.45985C67.9961 4.60608 68.1303 4.72463 68.2959 4.72463H81.0775C81.2431 4.72463 81.3773 4.60608 81.3773 4.45985V3.72669C81.3773 3.58046 81.2431 3.46191 81.0775 3.46191Z" fill="#59A9F7"/>
<path opacity="0.62" d="M76.0669 5.78174H68.2959C68.1303 5.78174 67.9961 5.90028 67.9961 6.04652V6.77967C67.9961 6.9259 68.1303 7.04445 68.2959 7.04445H76.0669C76.2325 7.04445 76.3667 6.9259 76.3667 6.77967V6.04652C76.3667 5.90028 76.2325 5.78174 76.0669 5.78174Z" fill="#59A9F7"/>
<path d="M25.1359 47.6604L24.765 47.688C24.8263 47.825 24.8876 47.9522 24.9489 48.0881C24.7742 48.3881 24.5988 48.6789 24.424 48.9794L20.6839 52.7984C20.4889 52.9982 20.316 53.1774 20.1179 53.3805C20.0671 53.4346 20.0149 53.4991 19.953 53.5538C19.7027 53.8083 19.3535 53.9708 18.9743 54.0094C18.595 54.048 18.2132 53.9598 17.9039 53.7622C16.143 52.6251 14.3832 51.4805 12.6309 50.3439L14.1024 48.5522C15.6148 49.5268 17.1248 50.5058 18.6323 51.4891C20.094 50.3439 21.557 49.2074 23.0187 48.0611C23.1009 47.7703 23.2027 47.479 23.2854 47.1888C23.9955 47.1952 24.705 47.1526 25.4075 47.0615C25.4286 47.063 25.4497 47.0596 25.4688 47.0518C25.3621 47.2608 25.2487 47.4611 25.1359 47.6604Z" fill="#EA9387"/>
<path d="M22.5023 48.4761L20.0822 50.9398C19.8873 51.1401 19.7144 51.3221 19.5163 51.5219C19.4654 51.576 19.4133 51.6404 19.3514 51.6951C19.1012 51.9497 18.7521 52.1124 18.3729 52.1512C17.9937 52.1899 17.6117 52.102 17.3022 51.9047C16.0155 51.0676 14.7279 50.2339 13.4395 49.4036L14.1912 48.4831C15.7036 49.4578 17.2136 50.4367 18.7211 51.4201C19.9792 50.4297 21.2466 49.4561 22.5023 48.4761Z" fill="#EDA197"/>
<path d="M5.27539 57.4959H15.3548V49.3781C15.3547 48.8688 15.1255 48.3804 14.7177 48.0202C14.3098 47.6601 13.7568 47.4577 13.18 47.4575H7.75311C7.09598 47.4575 6.46576 47.688 6.0011 48.0984C5.53644 48.5087 5.27539 49.0653 5.27539 49.6456V57.4959Z" fill="#292349"/>
<path d="M12.6201 44.6857C12.4712 44.8222 12.2747 44.9109 12.0622 44.9375C12.0453 45.2568 11.909 45.5621 11.6747 45.8058C11.4404 46.0494 11.1213 46.2176 10.7672 46.2841C10.4572 46.3177 10.1429 46.2735 9.86006 46.1565C9.57725 46.0396 9.33745 45.8547 9.16814 45.623C9.00279 45.3889 8.9055 45.1224 8.88496 44.8471C8.86442 44.5718 8.92126 44.2963 9.05041 44.0451C8.97357 43.8754 8.94027 43.6927 8.95288 43.5102C8.9655 43.3277 9.02373 43.15 9.12338 42.9898C9.62248 42.2972 11.1645 42.3741 12.045 42.9102C12.2451 43.0191 12.4181 43.1628 12.5535 43.3324C12.6889 43.5021 12.784 43.6943 12.8329 43.8973C12.8663 44.0344 12.8645 44.1764 12.8277 44.3128C12.7909 44.4492 12.72 44.5766 12.6201 44.6857Z" fill="#060C21"/>
<path d="M9.56055 47.4617C9.57342 47.4871 9.59243 47.5234 9.61818 47.5656C9.70385 47.7056 9.81601 47.8316 9.94986 47.9382C10.0774 48.039 10.2292 48.1131 10.3938 48.1547L11.0069 48.1509C11.0825 48.1332 11.1559 48.1087 11.2258 48.0778C11.3654 48.0181 11.4904 47.9348 11.5937 47.8326C11.6698 47.7577 11.7362 47.6756 11.7918 47.5878C11.823 47.5402 11.8445 47.4985 11.8598 47.4692C11.7789 47.4487 11.6887 47.4297 11.5906 47.4108L11.5857 46.6392V46.9261C11.3193 47.0505 11.014 47.0942 10.7168 47.0503C10.4196 47.0065 10.1469 46.8776 9.94069 46.6836L9.94436 47.3837C9.80763 47.4075 9.67704 47.433 9.56055 47.4617Z" fill="#EA9387"/>
<path d="M9.94336 46.2405V46.4446V46.6444V46.6861C10.1495 46.8802 10.4222 47.0091 10.7195 47.0529C11.0167 47.0967 11.322 47.0531 11.5884 46.9287V46.6417V46.2329L9.94336 46.2405Z" fill="#EA9387"/>
<path d="M9.94336 46.4443C9.94336 46.5104 9.94336 46.577 9.94336 46.643V46.6836C10.1495 46.8777 10.4222 47.0066 10.7195 47.0504C11.0167 47.0943 11.322 47.0506 11.5884 46.9262V46.6392C11.5884 46.5705 11.5884 46.5023 11.5884 46.4346L9.94459 46.4427L9.94336 46.4443Z" fill="#DD847A"/>
<path d="M9.35547 44.8263L9.36037 45.659C9.36174 45.8988 9.44414 46.1328 9.59704 46.331C9.69018 46.4523 9.80707 46.5579 9.94223 46.6429C10.0997 46.7423 10.2789 46.8118 10.4683 46.847C10.5657 46.8649 10.665 46.8735 10.7645 46.8725H10.7755C10.8724 46.8723 10.969 46.8631 11.0637 46.8449C11.2522 46.8094 11.4303 46.7397 11.5867 46.6402C11.6938 46.5728 11.7894 46.4922 11.8706 46.4009C11.8877 46.3814 11.9043 46.3613 11.9209 46.3407C12.082 46.1367 12.1676 45.8937 12.1661 45.645L12.1612 44.8019C12.157 44.4765 12.0067 44.1659 11.7433 43.9384C11.4799 43.7108 11.1249 43.585 10.7565 43.5884C10.3835 43.5894 10.0261 43.7208 9.7626 43.9539C9.6328 44.0683 9.53005 44.2043 9.46037 44.3541C9.39068 44.5038 9.35546 44.6643 9.3567 44.8263H9.35547Z" fill="#EA9387"/>
<path d="M11.625 45.0425C11.625 45.064 11.6322 45.0849 11.6457 45.1028C11.6592 45.1206 11.6784 45.1345 11.7008 45.1427C11.7232 45.1509 11.7479 45.1531 11.7717 45.1489C11.7956 45.1447 11.8175 45.1344 11.8346 45.1192C11.8518 45.104 11.8635 45.0847 11.8682 45.0637C11.873 45.0426 11.8705 45.0208 11.8612 45.001C11.8519 44.9812 11.8362 44.9643 11.816 44.9524C11.7958 44.9404 11.7721 44.9341 11.7478 44.9341C11.7317 44.9341 11.7157 44.9369 11.7008 44.9423C11.6859 44.9478 11.6724 44.9558 11.661 44.9658C11.6496 44.9759 11.6405 44.9879 11.6344 45.001C11.6282 45.0142 11.625 45.0283 11.625 45.0425Z" fill="#280C1A"/>
<path d="M10.5801 45.052C10.581 45.0802 10.5944 45.107 10.6173 45.1266C10.6402 45.1463 10.6709 45.1572 10.7028 45.1572C10.7264 45.1567 10.7493 45.15 10.7686 45.1381C10.7879 45.1261 10.8027 45.1094 10.8113 45.09C10.8199 45.0706 10.8218 45.0494 10.8168 45.0291C10.8118 45.0087 10.8001 44.9901 10.7832 44.9756C10.7662 44.9611 10.7448 44.9514 10.7217 44.9476C10.6985 44.9438 10.6745 44.9461 10.6529 44.9543C10.6312 44.9624 10.6127 44.9761 10.5998 44.9934C10.5868 45.0108 10.58 45.0312 10.5801 45.052Z" fill="#280C1A"/>
<path d="M10.3965 48.1561L10.4505 48.1686C10.636 48.2042 10.8285 48.1988 11.0111 48.1528L10.3965 48.1561Z" fill="#EA9387"/>
<path d="M9.35343 44.8264L9.35833 45.6592C9.3597 45.899 9.4421 46.133 9.595 46.3311C9.68814 46.4524 9.80503 46.558 9.94019 46.643C9.98519 46.6712 10.0319 46.6972 10.08 46.721C9.94795 46.5321 9.87731 46.3148 9.87582 46.0929L9.87092 45.2601C9.86933 45.1269 9.89297 44.9944 9.94082 44.8681C10.0085 44.6869 10.1236 44.5223 10.2768 44.3878C10.5403 44.1547 10.8977 44.0233 11.2707 44.0223C11.5089 44.0202 11.7437 44.0722 11.9525 44.1734C11.8401 44.0142 11.6884 43.8796 11.5087 43.7795C11.3291 43.6794 11.1262 43.6165 10.9151 43.5953C10.7041 43.5742 10.4904 43.5954 10.2899 43.6575C10.0895 43.7195 9.90744 43.8207 9.75749 43.9535C9.62769 44.0679 9.52498 44.2039 9.45529 44.3537C9.38561 44.5034 9.35035 44.6639 9.35159 44.8258L9.35343 44.8264Z" fill="#EDA197"/>
<path d="M11.9879 44.7897C11.8985 44.7231 11.7886 44.6815 11.6723 44.6704C11.6297 44.6737 11.5883 44.6846 11.5506 44.7025C11.5129 44.7204 11.4797 44.7449 11.4531 44.7745L11.9879 44.7897Z" fill="#280C1A"/>
<path d="M11.0074 44.7897C10.9182 44.7229 10.8082 44.6813 10.6919 44.6704C10.6493 44.6738 10.6079 44.6848 10.5702 44.7027C10.5325 44.7206 10.4993 44.745 10.4727 44.7745L11.0074 44.7897Z" fill="#280C1A"/>
<path opacity="0.53" d="M11.1646 46.2736C11.2589 46.2867 11.3554 46.2716 11.4389 46.2308C11.5224 46.19 11.5881 46.1258 11.6257 46.0484C11.4891 46.0011 11.3432 45.9783 11.1965 45.9812C11.0623 45.9822 10.9295 46.0049 10.8047 46.0484C10.8314 46.1139 10.8802 46.1706 10.9446 46.2109C11.0089 46.2512 11.0857 46.2731 11.1646 46.2736Z" fill="white"/>
<path opacity="0.33" d="M11.2005 45.7207H11.2668C11.2953 45.7207 11.3184 45.7003 11.3184 45.6752V45.4393C11.3184 45.4141 11.2953 45.3938 11.2668 45.3938H11.2005C11.172 45.3938 11.1489 45.4141 11.1489 45.4393V45.6752C11.1489 45.7003 11.172 45.7207 11.2005 45.7207Z" fill="white"/>
<path d="M9.35474 45.2876C9.48054 45.2876 9.58252 45.1975 9.58252 45.0864C9.58252 44.9753 9.48054 44.8853 9.35474 44.8853C9.22894 44.8853 9.12695 44.9753 9.12695 45.0864C9.12695 45.1975 9.22894 45.2876 9.35474 45.2876Z" fill="#EDA197"/>
<path d="M12.1672 45.2348C12.293 45.2348 12.395 45.1448 12.395 45.0337C12.395 44.9226 12.293 44.8325 12.1672 44.8325C12.0414 44.8325 11.9395 44.9226 11.9395 45.0337C11.9395 45.1448 12.0414 45.2348 12.1672 45.2348Z" fill="#EA9387"/>
<path d="M11.9571 44.1746C11.7413 43.9531 11.4507 43.7987 11.1281 43.7339C10.9914 43.7084 10.5039 43.618 10.2943 43.8308C10.1551 43.9721 10.2145 44.1714 10.0613 44.2255C9.95334 44.2634 9.87734 44.186 9.7682 44.199C9.63514 44.2158 9.48247 44.3614 9.35617 44.8867C9.27728 44.8276 9.21705 44.7515 9.1814 44.6657C9.12009 44.512 9.17466 44.3847 9.30404 44.0474C9.3578 43.8455 9.43591 43.6492 9.53703 43.462C9.70846 43.2718 9.9451 43.1358 10.2115 43.0744C10.3661 43.0386 10.5258 43.0231 10.6854 43.0283C11.2845 43.0283 11.7075 43.0283 11.9295 43.2704C12.2201 43.5833 11.989 44.1048 11.9571 44.1746Z" fill="#060C21"/>
<path d="M14.5662 47.9048C15.7009 48.8708 16.8359 49.8371 17.971 50.8038L16.2499 53.1766L11.6035 49.8384L14.5662 47.9048Z" fill="#292349"/>
<path d="M5.86079 57.691C6.04473 58.0002 6.22866 58.3094 6.4169 58.6272C6.02571 59.1914 5.6339 59.7643 5.25191 60.328C5.19752 60.3302 5.14373 60.3173 5.09803 60.2912C5.06053 60.2554 5.03497 60.2112 5.02415 60.1634C5.01333 60.1157 5.01769 60.0662 5.03673 60.0204C5.07781 59.7291 5.11948 59.4384 5.14952 59.147C4.91346 58.9375 4.66574 58.7285 4.42968 58.52L1.31985 54.2732C1.15491 54.0637 1.00101 53.8547 0.836078 53.6365C0.787846 53.5779 0.743032 53.5172 0.701803 53.4545C0.489682 53.1723 0.406767 52.8294 0.469817 52.4952C0.532866 52.161 0.737155 51.8605 1.04146 51.6542C2.77134 50.4813 4.49756 49.3054 6.22009 48.1265L7.76518 49.8819C6.28199 50.8912 4.78962 51.8994 3.30642 52.9087C4.16115 54.4999 5.01564 56.0912 5.86996 57.6824C5.86746 57.6825 5.86515 57.6835 5.86344 57.6851C5.86173 57.6867 5.86078 57.6888 5.86079 57.691Z" fill="#EA9387"/>
<path d="M5.88135 57.6893C5.9022 57.7353 5.93347 57.7716 5.95309 57.8165L3.1731 54.0159C3.00939 53.8064 2.85427 53.5974 2.68933 53.3791C2.63844 53.3158 2.59737 53.2616 2.55506 53.1972C2.34304 52.9149 2.26024 52.5721 2.32341 52.238C2.38657 51.9039 2.59099 51.6035 2.89535 51.3974C4.19337 50.5153 5.49998 49.6332 6.78819 48.7441L7.78638 49.8812C6.30441 50.8905 4.81082 51.8998 3.32886 52.9091C4.18276 54.5003 5.03726 56.0916 5.89239 57.6828C5.89239 57.6828 5.88135 57.6801 5.88135 57.6893Z" fill="#EDA197"/>
<path d="M8.33929 50.4506L3.80939 52.7491L2.13672 50.411L6.01669 48.0383C6.13988 47.9622 6.28125 47.9121 6.42984 47.8919C6.57843 47.8717 6.73028 47.882 6.87368 47.9218C7.01708 47.9617 7.14817 48.0302 7.25686 48.1219C7.36554 48.2136 7.44889 48.3262 7.50048 48.4509L8.33929 50.4506Z" fill="#292349"/>
<path d="M80.7692 80.9595H82.9863V77.4096H80.7692V80.9595Z" fill="#FAC7A5"/>
<path d="M82.9863 80.9595H79.2983V80.5442C79.2983 80.4214 79.3535 80.3036 79.4518 80.2168C79.5501 80.13 79.6835 80.0812 79.8225 80.0812H82.9863V80.9595Z" fill="#D64A4A"/>
<path d="M80.7692 80.0815H82.9863V79.5509H80.7692V80.0815Z" fill="#D64A4A"/>
<path d="M71.82 80.96H74.0371V77.4101H71.82V80.96Z" fill="#FAC7A5"/>
<path d="M74.0371 80.96H70.3491V80.5447C70.3491 80.4219 70.4043 80.3041 70.5026 80.2173C70.6009 80.1305 70.7343 80.0817 70.8733 80.0817H74.0371V80.96Z" fill="#D64A4A"/>
<path d="M71.82 80.082H74.0371V79.5514H71.82V80.082Z" fill="#D64A4A"/>
<path d="M84.1282 56.5042V78.3256H78.6535V59.7098C77.7158 65.8876 76.7781 72.0649 75.8404 78.2416H69.709L74.3498 56.4312L84.1282 56.5042Z" fill="#2E2B4C"/>
<path d="M78.6543 59.7095L80.601 78.3242H78.6543V59.7095Z" fill="#292349"/>
<path d="M78.6774 59.9318C76.9157 66.0356 75.1537 72.1389 73.3915 78.2416H69.709L74.3499 56.4312L78.8614 56.4647C78.7996 57.6206 78.7383 58.7763 78.6774 59.9318Z" fill="#292349"/>
<path d="M69.9182 77.2544L69.7109 78.2415H75.8424L75.9883 77.2815L69.9182 77.2544Z" fill="#5486D1"/>
<path d="M78.6582 77.2817V78.3246H84.1329V77.2817" fill="#5486D1"/>
<path d="M75.3478 55.7156L76.1577 56.0599C76.1326 56.1877 76.1074 56.3161 76.0811 56.4438C76.067 56.5126 76.0529 56.5814 76.0394 56.6496L74.0528 57.849L74.2368 56.6518L74.1754 56.5814L74.0755 56.4731L71.0956 53.1793C70.9356 53.0028 70.786 52.8349 70.6259 52.6584C70.5757 52.6043 70.526 52.5615 70.4757 52.4992C70.2682 52.2651 70.166 51.9716 70.1886 51.6749C70.2113 51.3783 70.3572 51.0995 70.5983 50.8921C71.8479 49.8411 73.0883 48.7804 74.3281 47.7397C74.4679 47.6162 74.6181 47.5014 74.7573 47.3774L76.2773 48.7901C75.5477 49.4085 74.8174 50.0263 74.0773 50.6447C73.6175 51.0421 73.1576 51.4217 72.6978 51.8105C73.1576 52.4906 73.6175 53.1701 74.0773 53.8415C74.5078 54.4707 74.9278 55.0913 75.3478 55.7156Z" fill="#EA9387"/>
<path d="M75.4096 55.8489L73.1698 53.3348C72.9859 53.1318 72.8215 52.9487 72.64 52.7457C72.5898 52.6915 72.5303 52.6374 72.4818 52.5735C72.2506 52.3118 72.1374 51.9837 72.164 51.6526C72.1906 51.3215 72.3552 51.0109 72.626 50.7807C73.767 49.8271 74.9087 48.8731 76.0399 47.9185L76.902 48.7263C75.5721 49.8493 74.2311 50.9713 72.892 52.0835C73.7437 53.3375 74.5696 54.5959 75.4096 55.8489Z" fill="#EDA197"/>
<path d="M83.9675 48.8809V56.5812H76.058C76.088 56.4047 76.1193 56.2282 76.1579 56.0603C75.8881 55.952 75.6177 55.8307 75.3479 55.7159C74.9279 55.0889 74.5079 54.4706 74.0781 53.8441V50.6494C74.8182 50.031 75.5496 49.4132 76.2781 48.7949L74.7581 47.3822C74.6183 47.5056 74.4681 47.6204 74.3289 47.7444C74.5101 47.4404 74.7819 47.186 75.1149 47.0086C75.448 46.8312 75.8296 46.7375 76.2186 46.7378H81.5364C81.8555 46.7372 82.1715 46.7922 82.4665 46.8997C82.7615 47.0072 83.0295 47.1649 83.2554 47.364C83.4812 47.5631 83.6603 47.7995 83.7825 48.0598C83.9047 48.3201 83.9676 48.5992 83.9675 48.8809Z" fill="#1E80F3"/>
<path d="M76.2781 48.7921C75.5484 49.4105 74.8182 50.0283 74.0781 50.6467V48.6243C74.0778 48.3162 74.1638 48.0128 74.3283 47.7411C74.4681 47.6177 74.6183 47.5029 74.7575 47.3789L76.2781 48.7921Z" fill="#1E80F3"/>
<path d="M76.8167 44.0696C76.96 44.201 77.1491 44.2863 77.3538 44.3116C77.3701 44.6189 77.5012 44.9127 77.7266 45.1472C77.952 45.3817 78.259 45.5437 78.5997 45.6079C78.8982 45.6403 79.201 45.5978 79.4733 45.4851C79.7456 45.3725 79.9764 45.1943 80.1393 44.9711C80.2982 44.7462 80.3917 44.4902 80.4116 44.2257C80.4315 43.9612 80.3772 43.6964 80.2534 43.455C80.3273 43.2917 80.3593 43.116 80.3473 42.9404C80.3352 42.7649 80.2792 42.5939 80.1835 42.4397C79.7028 41.7732 78.2214 41.8473 77.3716 42.3628C77.1792 42.4677 77.0128 42.6059 76.8824 42.769C76.7519 42.9321 76.6601 43.1168 76.6125 43.312C76.5806 43.4438 76.5824 43.5801 76.6177 43.7112C76.6531 43.8422 76.721 43.9646 76.8167 44.0696Z" fill="#060C21"/>
<path d="M79.7616 46.7406C79.7493 46.7644 79.7315 46.7996 79.7064 46.8402C79.6236 46.9749 79.5153 47.0962 79.3863 47.1987C79.2628 47.2961 79.1162 47.3677 78.9571 47.4082L78.3673 47.4044C78.2949 47.3868 78.2245 47.3634 78.157 47.3346C78.023 47.2764 77.9029 47.196 77.8032 47.098C77.7299 47.0261 77.6661 46.947 77.6131 46.8624C77.5831 46.8175 77.5622 46.7769 77.5469 46.7487C77.626 46.7292 77.7118 46.7097 77.8057 46.6946L77.8106 45.9517V46.2278C78.0671 46.3474 78.361 46.3892 78.6471 46.3467C78.9332 46.3042 79.1955 46.1799 79.3937 45.9928L79.3894 46.6675C79.5243 46.6864 79.6488 46.7141 79.7616 46.7406Z" fill="#EA9387"/>
<path d="M79.3995 45.5656V45.7616V45.9544V45.9933C79.2013 46.1804 78.939 46.3048 78.653 46.3472C78.3669 46.3897 78.0729 46.3479 77.8164 46.2283V45.9522V45.5591L79.3995 45.5656Z" fill="#EA9387"/>
<path d="M79.3995 45.7631C79.3995 45.8265 79.3995 45.8904 79.3995 45.9537V45.9927C79.2013 46.1798 78.939 46.3041 78.653 46.3466C78.3669 46.389 78.0729 46.3473 77.8164 46.2277V45.9515C77.8164 45.8855 77.8164 45.82 77.8164 45.7539L79.3983 45.762L79.3995 45.7631Z" fill="#DD847A"/>
<path d="M79.9613 44.2057L79.9564 45.0065C79.9547 45.1922 79.9031 45.3748 79.8058 45.5394C79.7084 45.7039 79.5682 45.8457 79.3966 45.953C79.2456 46.0486 79.0738 46.1153 78.892 46.149C78.7978 46.1659 78.7018 46.1742 78.6056 46.1739H78.5958C78.5031 46.1733 78.4106 46.1644 78.3199 46.1474C78.1382 46.1133 77.9666 46.0462 77.8159 45.9503C77.713 45.8857 77.6211 45.8084 77.5431 45.7207C77.5259 45.7023 77.51 45.6828 77.494 45.6622C77.3401 45.4656 77.2583 45.232 77.2598 44.993L77.2659 44.1808C77.2696 43.8679 77.4138 43.5692 77.6667 43.3501C77.9196 43.131 78.2606 43.0095 78.6148 43.0123C78.9735 43.0133 79.3172 43.1397 79.5707 43.3637C79.7178 43.4937 79.8284 43.6522 79.8939 43.8266C79.94 43.9488 79.9628 44.0769 79.9613 44.2057Z" fill="#EA9387"/>
<path d="M77.775 44.4129C77.775 44.44 77.7628 44.4661 77.7411 44.4853C77.7193 44.5045 77.6898 44.5153 77.659 44.5153C77.6282 44.5153 77.5987 44.5045 77.577 44.4853C77.5552 44.4661 77.543 44.44 77.543 44.4129C77.5435 44.3858 77.5561 44.36 77.578 44.3411C77.6 44.3222 77.6296 44.3117 77.6602 44.312C77.6755 44.3119 77.6905 44.3145 77.7046 44.3197C77.7187 44.3248 77.7315 44.3324 77.7423 44.3419C77.753 44.3514 77.7615 44.3628 77.7672 44.3752C77.7729 44.3877 77.7758 44.401 77.7756 44.4145L77.775 44.4129Z" fill="#280C1A"/>
<path d="M78.7797 44.4214C78.7792 44.4485 78.7666 44.4743 78.7446 44.4932C78.7226 44.5121 78.6931 44.5225 78.6624 44.5222C78.6396 44.5219 78.6174 44.5156 78.5987 44.5042C78.5799 44.4927 78.5654 44.4766 78.557 44.4579C78.5486 44.4392 78.5466 44.4187 78.5514 44.399C78.5561 44.3793 78.5674 44.3613 78.5837 44.3473C78.6001 44.3332 78.6208 44.3238 78.6432 44.3201C78.6656 44.3164 78.6887 44.3187 78.7097 44.3266C78.7307 44.3345 78.7485 44.3477 78.761 44.3646C78.7734 44.3815 78.7799 44.4012 78.7797 44.4214Z" fill="#280C1A"/>
<path d="M78.9578 47.4091C78.9406 47.4134 78.924 47.4172 78.9069 47.4205C78.7283 47.4549 78.5429 47.4497 78.3672 47.4053L78.9578 47.4091Z" fill="#EA9387"/>
<path d="M79.962 44.2054L79.9571 45.0062C79.9554 45.1919 79.9037 45.3745 79.8064 45.5391C79.7091 45.7036 79.5688 45.8454 79.3973 45.9527C79.3541 45.9797 79.3093 46.0044 79.263 46.0269C79.3902 45.8452 79.4583 45.6362 79.4598 45.4226L79.4635 44.6207C79.4656 44.4919 79.4431 44.3637 79.3967 44.2417C79.3315 44.0673 79.2205 43.9091 79.0729 43.7798C78.8655 43.5963 78.5964 43.4771 78.3058 43.4398C78.0153 43.4025 77.7189 43.4492 77.4609 43.5729C77.5965 43.3801 77.7915 43.2253 78.023 43.1266C78.2546 43.028 78.5131 42.9896 78.7684 43.0159C79.0238 43.0422 79.2654 43.1321 79.465 43.2751C79.6646 43.4182 79.814 43.6084 79.8957 43.8236C79.9418 43.9467 79.9642 44.0758 79.962 44.2054Z" fill="#EDA197"/>
<path d="M77.4238 44.1671C77.5099 44.1035 77.6155 44.0638 77.7271 44.0532C77.7682 44.0562 77.8081 44.0666 77.8445 44.0837C77.8808 44.1009 77.9128 44.1245 77.9383 44.153L77.4238 44.1671Z" fill="#280C1A"/>
<path d="M78.3691 44.1671C78.4551 44.1032 78.5607 44.0636 78.6724 44.0532C78.7134 44.0562 78.7533 44.0666 78.7895 44.0838C78.8257 44.1009 78.8575 44.1245 78.883 44.153L78.3691 44.1671Z" fill="#280C1A"/>
<path opacity="0.53" d="M78.2193 45.598C78.1286 45.6105 78.0357 45.596 77.9554 45.5568C77.875 45.5175 77.8117 45.4558 77.7754 45.3814C78.0294 45.2941 78.3111 45.2941 78.5651 45.3814C78.5392 45.4442 78.4922 45.4986 78.4304 45.5373C78.3687 45.576 78.295 45.5972 78.2193 45.598Z" fill="white"/>
<path opacity="0.33" d="M78.1833 44.752H78.12C78.0926 44.752 78.0703 44.7716 78.0703 44.7959V45.0225C78.0703 45.0468 78.0926 45.0664 78.12 45.0664H78.1833C78.2107 45.0664 78.233 45.0468 78.233 45.0225V44.7959C78.233 44.7716 78.2107 44.752 78.1833 44.752Z" fill="white"/>
<path d="M79.9555 44.6489C80.0766 44.6489 80.1747 44.5622 80.1747 44.4553C80.1747 44.3484 80.0766 44.2617 79.9555 44.2617C79.8345 44.2617 79.7363 44.3484 79.7363 44.4553C79.7363 44.5622 79.8345 44.6489 79.9555 44.6489Z" fill="#EDA197"/>
<path d="M77.2524 44.5981C77.3734 44.5981 77.4716 44.5114 77.4716 44.4045C77.4716 44.2976 77.3734 44.2109 77.2524 44.2109C77.1313 44.2109 77.0332 44.2976 77.0332 44.4045C77.0332 44.5114 77.1313 44.5981 77.2524 44.5981Z" fill="#EA9387"/>
<path d="M77.4481 43.5776C77.6558 43.3648 77.9351 43.2163 78.2452 43.1536C78.3782 43.1287 78.8461 43.0415 79.0484 43.2473C79.1827 43.3832 79.1257 43.576 79.2722 43.6263C79.3758 43.6626 79.45 43.5873 79.5549 43.6009C79.6818 43.6166 79.8295 43.759 79.9509 44.262C80.0268 44.2055 80.0847 44.1326 80.1189 44.0503C80.1772 43.9019 80.1257 43.7796 80.003 43.4547C79.9525 43.2603 79.8774 43.0716 79.7792 42.8921C79.614 42.7083 79.3854 42.5772 79.1281 42.5185C78.9793 42.4841 78.8256 42.4691 78.6719 42.4741C78.0962 42.4741 77.6909 42.4741 77.4751 42.7064C77.1967 43.008 77.4168 43.5104 77.4481 43.5776Z" fill="#060C21"/>
<path d="M74.927 47.167L71.6504 49.9567C72.2022 50.7169 72.7541 51.4778 73.3059 52.2395L77.7769 49.028L74.927 47.167Z" fill="#1E80F3"/>
<path d="M83.3061 56.5828C83.1283 56.8806 82.9492 57.1785 82.7714 57.4844C83.1485 58.0259 83.5244 58.5776 83.8916 59.1207C83.9438 59.1229 83.9955 59.1106 84.0394 59.0855C84.0762 59.0512 84.1015 59.0085 84.1123 58.9622C84.1231 58.9159 84.1191 58.8678 84.1007 58.8234C84.0609 58.5435 84.0216 58.2636 83.9915 57.9836C84.2196 57.7822 84.4563 57.5808 84.6844 57.3799L87.6771 53.2939C87.8353 53.0925 87.9837 52.8911 88.1419 52.681C88.1886 52.625 88.2316 52.5666 88.2707 52.5061C88.475 52.2345 88.5549 51.9045 88.4942 51.5828C88.4336 51.2612 88.2368 50.9719 87.9439 50.7734C86.2798 49.645 84.6186 48.5135 82.9602 47.3789L81.4746 49.0672C82.9014 50.0386 84.3386 51.01 85.7666 51.9803C84.9446 53.5116 84.1224 55.0429 83.2999 56.5742C83.3019 56.5749 83.3035 56.5761 83.3046 56.5776C83.3057 56.5792 83.3062 56.581 83.3061 56.5828Z" fill="#EA9387"/>
<path d="M83.2838 56.5831C83.2648 56.6264 83.2348 56.6616 83.2152 56.7049L85.8897 53.0484C86.0485 52.8469 86.1963 52.6455 86.3557 52.4354C86.4021 52.3792 86.4451 52.3208 86.4844 52.2605C86.6886 51.9889 86.7685 51.6589 86.7078 51.3373C86.6471 51.0157 86.4505 50.7264 86.1576 50.5278C84.9087 49.6793 83.6505 48.8308 82.4119 47.9731L81.4512 49.0664C82.878 50.0378 84.3152 51.0092 85.7432 51.9806C84.9203 53.5119 84.0977 55.0431 83.2753 56.5744C83.2776 56.5747 83.2798 56.5757 83.2814 56.5773C83.283 56.5789 83.2838 56.581 83.2838 56.5831Z" fill="#EDA197"/>
<path d="M80.9238 49.617L85.2827 51.8289L86.8928 49.5791L83.1593 47.2957C83.0406 47.2229 82.9046 47.1751 82.7617 47.156C82.6188 47.1368 82.4728 47.1468 82.3349 47.1851C82.1971 47.2235 82.071 47.2892 81.9664 47.3773C81.8618 47.4654 81.7813 47.5734 81.7313 47.6932L80.9238 49.617Z" fill="#1E80F3"/>
<path opacity="0.08" d="M73.9497 58.33L73.8828 58.6213L76.8339 56.5815H76.3102L73.9497 58.33Z" fill="white"/>
</svg>
