<svg width="95" height="68" viewBox="0 0 95 68" fill="none" xmlns="http://www.w3.org/2000/svg">
<path d="M42.0657 22.9668H41.248V53.3744H42.0657V22.9668Z" fill="#5D7DC3"/>
<path d="M54.1868 22.9668H53.3691V53.3744H54.1868V22.9668Z" fill="#5D7DC3"/>
<path d="M67.7828 2.49957V27.0224C67.7835 27.5062 67.5921 27.9706 67.2505 28.3133C66.909 28.6561 66.4453 28.8492 65.9614 28.8501H29.2804C28.7965 28.8492 28.3328 28.6561 27.9913 28.3133C27.6497 27.9706 27.4583 27.5062 27.459 27.0224V2.49957C27.4585 2.01709 27.6497 1.55416 27.9905 1.21261C28.3312 0.871052 28.7937 0.678833 29.2762 0.678224H65.9614C66.2003 0.677922 66.4369 0.724664 66.6577 0.815801C66.8785 0.906939 67.0792 1.04068 67.2483 1.20938C67.4175 1.37809 67.5517 1.57845 67.6434 1.79903C67.7351 2.01961 67.7825 2.25609 67.7828 2.49498V2.49957Z" fill="#D4E2FF"/>
<path d="M67.7828 2.49957V5.83083H27.459V2.49957C27.4585 2.01709 27.6497 1.55416 27.9905 1.21261C28.3312 0.871052 28.7937 0.678833 29.2762 0.678224H65.9614C66.2003 0.677922 66.4369 0.724664 66.6577 0.815801C66.8785 0.906939 67.0792 1.04068 67.2483 1.20938C67.4175 1.37809 67.5517 1.57845 67.6434 1.79903C67.7351 2.01961 67.7825 2.25609 67.7828 2.49498V2.49957Z" fill="#82A3E7"/>
<path d="M30.93 3.77643C31.1588 3.77643 31.3443 3.59093 31.3443 3.36209C31.3443 3.13326 31.1588 2.94775 30.93 2.94775C30.7011 2.94775 30.5156 3.13326 30.5156 3.36209C30.5156 3.59093 30.7011 3.77643 30.93 3.77643Z" fill="#2C4F8C"/>
<path d="M32.4514 3.77643C32.6803 3.77643 32.8658 3.59093 32.8658 3.36209C32.8658 3.13326 32.6803 2.94775 32.4514 2.94775C32.2226 2.94775 32.0371 3.13326 32.0371 3.36209C32.0371 3.59093 32.2226 3.77643 32.4514 3.77643Z" fill="#2C4F8C"/>
<path d="M33.8753 3.77643C34.1041 3.77643 34.2896 3.59093 34.2896 3.36209C34.2896 3.13326 34.1041 2.94775 33.8753 2.94775C33.6464 2.94775 33.4609 3.13326 33.4609 3.36209C33.4609 3.59093 33.6464 3.77643 33.8753 3.77643Z" fill="#2C4F8C"/>
<path d="M91.923 1.84521H71.4062C71.2218 1.84521 71.0723 1.99473 71.0723 2.17917V8.25049C71.0723 8.43493 71.2218 8.58445 71.4062 8.58445H91.923C92.1074 8.58445 92.2569 8.43493 92.2569 8.25049V2.17917C92.2569 1.99473 92.1074 1.84521 91.923 1.84521Z" fill="#1E80F3"/>
<path d="M82.427 3.81055H73.5508C73.444 3.81055 73.3574 3.89713 73.3574 4.00394V4.60753C73.3574 4.71434 73.444 4.80092 73.5508 4.80092H82.427C82.5338 4.80092 82.6204 4.71434 82.6204 4.60753V4.00394C82.6204 3.89713 82.5338 3.81055 82.427 3.81055Z" fill="#59A9F7"/>
<path opacity="0.62" d="M78.9584 5.62891H73.5508C73.444 5.62891 73.3574 5.71549 73.3574 5.8223V6.42589C73.3574 6.5327 73.444 6.61928 73.5508 6.61928H78.9584C79.0652 6.61928 79.1518 6.5327 79.1518 6.42589V5.8223C79.1518 5.71549 79.0652 5.62891 78.9584 5.62891Z" fill="#59A9F7"/>
<path d="M83.6087 6.5087L83.3887 6.3934C84.1489 4.86374 84.8825 4.11912 85.6317 4.11912H85.6542C85.9367 4.1673 86.2059 4.27389 86.4448 4.43209C86.6837 4.59028 86.8869 4.79661 87.0415 5.03784C87.4012 5.44437 87.7411 5.83436 88.1554 5.76959C88.5339 5.71584 88.7838 5.33734 89.0493 4.93678C89.352 4.47972 89.6644 4.00703 90.2069 3.98682H90.2405C90.4305 4.00086 90.6156 4.05349 90.7846 4.14147C90.9537 4.22945 91.103 4.35094 91.2235 4.49855L91.0466 4.6754C90.9477 4.54724 90.8222 4.44201 90.6788 4.367C90.5353 4.29198 90.3773 4.24894 90.2156 4.24085C89.7985 4.25646 89.534 4.65426 89.2537 5.08009C88.9735 5.50591 88.6763 5.95288 88.1894 6.02178C87.6478 6.09528 87.2445 5.64556 86.8573 5.20917C86.4985 4.80402 86.1283 4.38233 85.6473 4.37406H85.6308C84.995 4.37223 84.3124 5.09066 83.6087 6.5087Z" fill="white"/>
<path d="M57.8878 30.0986H37.3711C37.1866 30.0986 37.0371 30.2481 37.0371 30.4326V36.5039C37.0371 36.6883 37.1866 36.8379 37.3711 36.8379H57.8878C58.0722 36.8379 58.2218 36.6883 58.2218 36.5039V30.4326C58.2218 30.2481 58.0722 30.0986 57.8878 30.0986Z" fill="#1E80F3"/>
<path d="M48.3938 32.0635H39.5176C39.4108 32.0635 39.3242 32.1501 39.3242 32.2569V32.8605C39.3242 32.9673 39.4108 33.0539 39.5176 33.0539H48.3938C48.5006 33.0539 48.5872 32.9673 48.5872 32.8605V32.2569C48.5872 32.1501 48.5006 32.0635 48.3938 32.0635Z" fill="#59A9F7"/>
<path opacity="0.62" d="M44.9252 33.8823H39.5176C39.4108 33.8823 39.3242 33.9689 39.3242 34.0757V34.6793C39.3242 34.7861 39.4108 34.8727 39.5176 34.8727H44.9252C45.032 34.8727 45.1186 34.7861 45.1186 34.6793V34.0757C45.1186 33.9689 45.032 33.8823 44.9252 33.8823Z" fill="#59A9F7"/>
<path d="M53.5689 35.5783C53.1964 35.5783 52.8323 35.4678 52.5226 35.2609C52.2128 35.0539 51.9714 34.7598 51.8289 34.4156C51.6864 34.0715 51.6491 33.6928 51.7217 33.3275C51.7944 32.9621 51.9738 32.6265 52.2372 32.3632C52.5006 32.0998 52.8361 31.9204 53.2015 31.8477C53.5668 31.775 53.9455 31.8123 54.2896 31.9549C54.6338 32.0974 54.9279 32.3388 55.1349 32.6486C55.3418 32.9583 55.4523 33.3224 55.4523 33.6949C55.4516 34.1942 55.2529 34.6728 54.8998 35.0258C54.5468 35.3789 54.0682 35.5775 53.5689 35.5783ZM53.5689 32.3168C53.2963 32.3168 53.0299 32.3976 52.8033 32.5491C52.5767 32.7005 52.4 32.9157 52.2957 33.1675C52.1914 33.4193 52.1641 33.6964 52.2173 33.9637C52.2705 34.2311 52.4017 34.4766 52.5945 34.6693C52.7872 34.8621 53.0327 34.9933 53.3001 35.0465C53.5674 35.0997 53.8445 35.0724 54.0963 34.9681C54.3481 34.8638 54.5633 34.6871 54.7147 34.4605C54.8662 34.2339 54.947 33.9675 54.947 33.6949C54.947 33.5139 54.9115 33.3346 54.8422 33.1674C54.773 33.0001 54.6715 32.8482 54.5435 32.7201C54.4155 32.5921 54.2636 32.4906 54.0964 32.4213C53.9292 32.352 53.7499 32.3164 53.5689 32.3164V32.3168Z" fill="#59A9F7"/>
<path d="M55.4405 33.6932C55.4405 34.1927 55.242 34.6717 54.8888 35.0249C54.5356 35.3781 54.0566 35.5766 53.5571 35.5766C53.0882 35.5791 52.6357 35.4042 52.2904 35.087C51.9451 34.7698 51.7325 34.3338 51.6953 33.8664C51.8667 33.8664 52.0394 33.8558 52.2006 33.8558C52.2366 34.19 52.3951 34.4991 52.6455 34.7234C52.8959 34.9476 53.2205 35.0713 53.5566 35.0703C53.8288 35.0708 54.0951 34.9904 54.3215 34.8393C54.5479 34.6882 54.7244 34.4733 54.8285 34.2218C54.9326 33.9702 54.9596 33.6934 54.9061 33.4265C54.8527 33.1596 54.7211 32.9146 54.5282 32.7226C54.6292 32.5935 54.7303 32.4497 54.8323 32.3179C55.0239 32.492 55.1771 32.7043 55.2818 32.9412C55.3866 33.1781 55.4406 33.4342 55.4405 33.6932Z" fill="white"/>
<path d="M57.5592 7.65186H37.6938C37.398 7.65186 37.1582 7.89166 37.1582 8.18747V25.6614C37.1582 25.9572 37.398 26.197 37.6938 26.197H57.5592C57.855 26.197 58.0948 25.9572 58.0948 25.6614V8.18747C58.0948 7.89166 57.855 7.65186 57.5592 7.65186Z" fill="white"/>
<path d="M50.9508 13.9075C50.9508 14.5658 50.7557 15.2092 50.3902 15.7567C50.0246 16.3041 49.505 16.7309 48.8971 16.9831C48.2891 17.2354 47.62 17.3018 46.9743 17.174C46.3286 17.0462 45.7353 16.7299 45.2692 16.265C44.8032 15.8002 44.4854 15.2076 44.356 14.5622C44.2266 13.9168 44.2914 13.2476 44.5421 12.639C44.7929 12.0304 45.2184 11.5097 45.7649 11.1429C46.3114 10.776 46.9544 10.5793 47.6126 10.5776H47.6209C48.0576 10.5771 48.4902 10.6626 48.8939 10.8292C49.2976 10.9958 49.6646 11.2404 49.9738 11.5488C50.283 11.8573 50.5284 12.2236 50.696 12.6269C50.8637 13.0302 50.9502 13.4625 50.9508 13.8993V13.9075Z" fill="#D2DCFF"/>
<path opacity="0.48" d="M47.6231 14.1031C48.1409 14.1031 48.5606 13.6834 48.5606 13.1656C48.5606 12.6478 48.1409 12.228 47.6231 12.228C47.1053 12.228 46.6855 12.6478 46.6855 13.1656C46.6855 13.6834 47.1053 14.1031 47.6231 14.1031Z" fill="white"/>
<path d="M50.1222 16.1032C49.8105 16.4595 49.4262 16.7451 48.9951 16.9407C48.564 17.1364 48.096 17.2376 47.6226 17.2376C47.1492 17.2376 46.6813 17.1364 46.2502 16.9407C45.8191 16.7451 45.4348 16.4595 45.123 16.1032C45.3586 15.6431 45.7166 15.2568 46.1577 14.9871C46.5987 14.7174 47.1057 14.5747 47.6226 14.5747C48.1396 14.5747 48.6465 14.7174 49.0876 14.9871C49.5286 15.2568 49.8867 15.6431 50.1222 16.1032Z" fill="#82A3E7"/>
<path d="M49.549 19.2266H42.7983C42.5494 19.2266 42.3477 19.4283 42.3477 19.6772V21.0792C42.3477 21.328 42.5494 21.5298 42.7983 21.5298H49.549C49.7979 21.5298 49.9996 21.328 49.9996 21.0792V19.6772C49.9996 19.4283 49.7979 19.2266 49.549 19.2266Z" fill="#D2DCFF"/>
<path d="M53.3358 19.2266H51.1166C50.8678 19.2266 50.666 19.4283 50.666 19.6772V21.0792C50.666 21.328 50.8678 21.5298 51.1166 21.5298H53.3358C53.5847 21.5298 53.7864 21.328 53.7864 21.0792V19.6772C53.7864 19.4283 53.5847 19.2266 53.3358 19.2266Z" fill="#D2DCFF"/>
<path d="M14.4699 46.8418L12.0661 66.7733H11.2773L13.6812 46.8418H14.4699Z" fill="#6087CC"/>
<path d="M3.84604 46.8418L3.57501 49.083L1.44451 66.7752H0.65625L2.80007 48.998L3.05868 46.8441L3.84604 46.8418Z" fill="#6087CC"/>
<path d="M14.4694 66.7743H13.6812L13.3486 64.0181L12.9545 60.7498L11.6586 49.9981L11.2773 46.8428H12.0661L12.457 50.0886L13.3486 57.4801L13.7427 60.7484L14.4694 66.7743Z" fill="#6087CC"/>
<path d="M25.0964 66.7743H24.3081L22.4422 51.3041L21.9043 46.8428H22.6926L23.241 51.3904L25.0964 66.7743Z" fill="#6087CC"/>
<path d="M3.88201 33.5171H3.09375V45.5743H3.88201V33.5171Z" fill="#1E80F3"/>
<path d="M14.5969 33.5171H13.8086V45.5743H14.5969V33.5171Z" fill="#1E80F3"/>
<path d="M23.0214 45.5742H12.1875C12.3553 45.5743 12.5163 45.6411 12.6349 45.7598C12.7536 45.8784 12.8204 46.0394 12.8205 46.2072C12.8206 46.2904 12.8042 46.3728 12.7724 46.4497C12.7407 46.5265 12.6941 46.5964 12.6353 46.6553C12.5765 46.7141 12.5067 46.7608 12.4299 46.7927C12.353 46.8246 12.2707 46.8411 12.1875 46.8411H23.0214C23.1046 46.8411 23.187 46.8246 23.2638 46.7927C23.3406 46.7608 23.4104 46.7141 23.4692 46.6553C23.528 46.5964 23.5746 46.5265 23.6064 46.4497C23.6382 46.3728 23.6545 46.2904 23.6544 46.2072C23.6544 46.0393 23.5877 45.8783 23.469 45.7596C23.3503 45.6409 23.1893 45.5742 23.0214 45.5742Z" fill="#1E80F3"/>
<path d="M12.8206 46.2072C12.8203 46.0392 12.7534 45.8782 12.6346 45.7596C12.5157 45.6409 12.3546 45.5742 12.1867 45.5742H2.83509C2.66716 45.5743 2.50611 45.641 2.38728 45.7597C2.26845 45.8784 2.20154 46.0393 2.20117 46.2072C2.20117 46.3753 2.26795 46.5366 2.38683 46.6554C2.50571 46.7743 2.66696 46.8411 2.83509 46.8411H12.189C12.3567 46.8405 12.5174 46.7735 12.6357 46.6546C12.7541 46.5358 12.8206 46.3749 12.8206 46.2072Z" fill="#59A9F7"/>
<path d="M14.6371 24.4438H3.05806C2.23532 24.4438 1.56836 25.1108 1.56836 25.9335V32.0274C1.56836 32.8501 2.23532 33.5171 3.05806 33.5171H14.6371C15.4598 33.5171 16.1268 32.8501 16.1268 32.0274V25.9335C16.1268 25.1108 15.4598 24.4438 14.6371 24.4438Z" fill="#A9C1EA"/>
<path d="M82.3497 39.609H75.4709C75.3366 39.609 75.206 39.6526 75.0987 39.7333C74.9914 39.814 74.9132 39.9274 74.876 40.0564L73.6863 44.1989H71.0606C71.0006 44.1985 70.9428 44.2212 70.8991 44.2624C70.8555 44.3035 70.8294 44.36 70.8263 44.4199C70.8242 44.4804 70.8461 44.5393 70.8872 44.5838C70.9283 44.6283 70.9854 44.6547 71.0459 44.6574H81.3323L82.6644 40.0247C82.6769 39.9841 82.6811 39.9415 82.677 39.8992C82.6729 39.857 82.6604 39.816 82.6403 39.7786C82.6203 39.7411 82.593 39.7081 82.5601 39.6813C82.5271 39.6545 82.4892 39.6344 82.4485 39.6223C82.4166 39.6125 82.3832 39.608 82.3497 39.609Z" fill="#4A5EA3"/>
<path d="M78.4447 42.3987C78.741 42.3987 78.9813 42.1585 78.9813 41.8622C78.9813 41.5659 78.741 41.3257 78.4447 41.3257C78.1484 41.3257 77.9082 41.5659 77.9082 41.8622C77.9082 42.1585 78.1484 42.3987 78.4447 42.3987Z" fill="white"/>
<path d="M91.8943 43.7348V43.5198C91.8944 43.5041 91.8913 43.4886 91.8854 43.474C91.8794 43.4595 91.8707 43.4463 91.8596 43.4352C91.8486 43.4241 91.8354 43.4152 91.821 43.4092C91.8065 43.4031 91.791 43.4 91.7753 43.3999H86.8207C86.7613 43.4 86.7026 43.4117 86.6477 43.4345C86.5929 43.4572 86.5431 43.4906 86.5012 43.5326C86.4593 43.5746 86.426 43.6245 86.4034 43.6793C86.3807 43.7342 86.3691 43.793 86.3691 43.8524V44.2157C86.3691 44.3355 86.4167 44.4503 86.5014 44.535C86.5861 44.6197 86.7009 44.6673 86.8207 44.6673H91.773C91.8046 44.6673 91.8348 44.6547 91.8571 44.6324C91.8795 44.6101 91.892 44.5798 91.892 44.5483V44.3347C91.892 44.3031 91.8795 44.2729 91.8571 44.2506C91.8348 44.2282 91.8046 44.2157 91.773 44.2157H87.0031C86.9543 44.2157 86.9076 44.1964 86.8731 44.1619C86.8387 44.1274 86.8193 44.0807 86.8193 44.032C86.8193 43.9832 86.8387 43.9365 86.8731 43.902C86.9076 43.8676 86.9543 43.8482 87.0031 43.8482H91.7735C91.8044 43.8487 91.8343 43.8372 91.8569 43.816C91.8795 43.7948 91.8929 43.7657 91.8943 43.7348Z" fill="#1E80F3"/>
<path d="M91.6745 43.8548V44.219H86.9982C86.9495 44.219 86.9027 44.1997 86.8683 44.1652C86.8338 44.1308 86.8145 44.084 86.8145 44.0353C86.8145 43.9866 86.8338 43.9398 86.8683 43.9054C86.9027 43.8709 86.9495 43.8516 86.9982 43.8516L91.6745 43.8548Z" fill="#D2DCFF"/>
<path d="M91.5347 42.4663V42.2523C91.5346 42.2366 91.5315 42.2211 91.5254 42.2066C91.5193 42.1921 91.5105 42.179 91.4994 42.168C91.4882 42.1569 91.475 42.1482 91.4605 42.1422C91.446 42.1363 91.4305 42.1332 91.4148 42.1333H87.1703C87.0506 42.1334 86.9358 42.181 86.8511 42.2657C86.7665 42.3503 86.7189 42.4651 86.7188 42.5849V42.9491C86.7189 43.0688 86.7665 43.1836 86.8511 43.2683C86.9358 43.3529 87.0506 43.4005 87.1703 43.4007H91.4148C91.4305 43.4007 91.446 43.3977 91.4605 43.3918C91.475 43.3858 91.4882 43.3771 91.4994 43.366C91.5105 43.355 91.5193 43.3418 91.5254 43.3274C91.5315 43.3129 91.5346 43.2974 91.5347 43.2817V43.0681C91.5345 43.0363 91.5219 43.0059 91.4994 42.9835C91.477 42.961 91.4465 42.9483 91.4148 42.9482H87.3522C87.3035 42.9482 87.2568 42.9289 87.2223 42.8944C87.1878 42.8599 87.1685 42.8132 87.1685 42.7645C87.1685 42.7157 87.1878 42.669 87.2223 42.6345C87.2568 42.6001 87.3035 42.5807 87.3522 42.5807H91.4148C91.4456 42.5806 91.4752 42.5687 91.4975 42.5474C91.5198 42.5262 91.5331 42.4971 91.5347 42.4663Z" fill="#82A3E7"/>
<path d="M91.3757 42.5852V42.9495H87.3517C87.303 42.9495 87.2562 42.9302 87.2218 42.8957C87.1873 42.8612 87.168 42.8145 87.168 42.7658C87.168 42.717 87.1873 42.6703 87.2218 42.6358C87.2562 42.6014 87.303 42.582 87.3517 42.582L91.3757 42.5852Z" fill="#D4E2FF"/>
<path d="M87.9358 45.5078L85.3115 66.7255H84.791L87.4153 45.5078H87.9358Z" fill="#D4E2FF"/>
<path d="M94.8333 66.7255H94.3128L92.0684 48.574L91.6895 45.5078H92.2108L92.5848 48.5299L94.8333 66.7255Z" fill="#D4E2FF"/>
<path d="M61.8069 45.5078L61.105 51.1846L59.1826 66.7255H58.6621L60.5785 51.2291L61.2887 45.5078H61.8069Z" fill="#D4E2FF"/>
<path d="M68.3289 66.7663L67.808 66.7475L66.3941 50.7233L65.9297 45.46L66.4501 45.4779L66.9123 50.698L68.3289 66.7663Z" fill="#D4E2FF"/>
<path d="M67.0156 44.6704H93.5881C93.6989 44.6708 93.8051 44.7151 93.8833 44.7936C93.9615 44.8722 94.0053 44.9785 94.0052 45.0893C94.0052 45.2002 93.9611 45.3065 93.8827 45.3849C93.8043 45.4633 93.698 45.5074 93.5872 45.5074H67.0156V44.6704Z" fill="#D2DCFF"/>
<path d="M60.0361 44.6704H70.6252V45.5101H60.0361C59.9811 45.5102 59.9266 45.4994 59.8757 45.4783C59.8249 45.4573 59.7787 45.4265 59.7398 45.3875C59.7009 45.3486 59.67 45.3024 59.649 45.2516C59.6279 45.2007 59.6171 45.1462 59.6172 45.0912C59.6171 45.0361 59.6279 44.9816 59.649 44.9308C59.67 44.8799 59.7009 44.8337 59.7398 44.7948C59.7787 44.7559 59.8249 44.725 59.8757 44.704C59.9266 44.683 59.9811 44.6722 60.0361 44.6722V44.6704Z" fill="#82A3E7"/>
<path d="M29.971 59.7376L25.9414 59.6548L25.7913 66.9607L29.8209 67.0435L29.971 59.7376Z" fill="#FAC7A5"/>
<path d="M25.8281 65.1533L31.579 65.2715C31.7042 65.2738 31.8278 65.3008 31.9426 65.351C32.0574 65.4011 32.1612 65.4734 32.248 65.5637C32.3348 65.654 32.403 65.7605 32.4486 65.8772C32.4942 65.9938 32.5163 66.1183 32.5138 66.2436L32.4962 67.0987L25.791 66.961L25.8281 65.1533Z" fill="#D64A4A"/>
<path d="M29.8772 64.1433L25.8477 64.0605L25.8252 65.1527L29.8548 65.2355L29.8772 64.1433Z" fill="#D64A4A"/>
<path d="M37.3314 49.5472L33.418 50.5112L35.1657 57.6066L39.0792 56.6426L37.3314 49.5472Z" fill="#FAC7A5"/>
<path d="M34.7344 55.8511L40.3195 54.4753C40.4411 54.4451 40.5674 54.4392 40.6913 54.4579C40.8151 54.4766 40.9341 54.5195 41.0414 54.5842C41.1486 54.6489 41.242 54.7342 41.3163 54.835C41.3906 54.9359 41.4442 55.0504 41.4742 55.1721L41.6788 56.0026L35.1668 57.6066L34.7344 55.8511Z" fill="#D64A4A"/>
<path d="M38.3861 53.8261L34.4727 54.79L34.7339 55.8507L38.6473 54.8867L38.3861 53.8261Z" fill="#D64A4A"/>
<path d="M33.8758 39.3741C35.6768 43.7791 37.4783 48.1843 39.2802 52.5898L33.2392 53.5967L29.3241 43.8092C26.1291 44.4217 22.9339 45.0342 19.7386 45.6467C19.3439 45.7246 18.9367 45.7129 18.5472 45.6124C18.1576 45.5119 17.7956 45.3252 17.4878 45.066C17.0977 44.7381 16.7841 44.3287 16.5691 43.8666C16.2561 43.0988 16.1847 42.2537 16.3646 41.4442C16.5446 40.6347 16.9672 39.8994 17.576 39.3365C18.5296 38.6759 23.4806 38.1513 29.3957 36.963C30.3063 36.7819 31.2515 36.9235 32.069 37.3635C32.8866 37.8035 33.5254 38.5144 33.8758 39.3741Z" fill="#1E1B3A"/>
<path d="M31.8999 62.6883C30.3634 62.6387 28.8323 62.5836 27.2967 62.5331C26.3146 62.4994 25.3328 62.4662 24.3513 62.4334C24.3054 61.7398 24.2571 61.0466 24.2135 60.353L24.197 60.1035C23.952 56.4875 23.708 52.8711 23.4652 49.2544C23.3926 48.1952 23.3205 47.1308 23.2488 46.0715C19.3596 46.0379 15.4678 46.0082 11.5733 45.9824C10.2626 45.972 9.00949 45.4426 8.08827 44.5102C7.16705 43.5778 6.65286 42.3183 6.65825 41.0076L6.66422 38.5225L18.1454 38.556L27.3022 38.5836C28.0934 38.5855 28.8681 38.8103 29.5374 39.2322L30.0032 39.5707C30.4726 39.9585 30.8525 40.4434 31.1167 40.9919C31.3809 41.5405 31.5232 42.1398 31.5338 42.7486C31.5892 45.7212 31.6447 48.6959 31.7001 51.6725L31.8613 60.641L31.8999 62.6883Z" fill="#292349"/>
<path d="M27.2949 62.5333C26.3128 62.4996 25.331 62.4664 24.3495 62.4336C24.2999 61.6568 24.2447 60.8805 24.1942 60.1038C23.9492 56.4877 23.7053 52.8713 23.4625 49.2547C23.3899 48.1954 23.3178 47.1311 23.2461 46.0718C23.2456 46.0718 24.8263 52.5106 27.2949 62.5333Z" fill="#2E2B4C"/>
<path d="M31.8978 62.6879C30.3613 62.6383 28.8303 62.5832 27.2942 62.5326C26.3121 62.499 25.3302 62.4657 24.3487 62.433C24.3028 61.7393 24.2546 61.0462 24.2109 60.3525L31.8597 60.641L31.8978 62.6879Z" fill="#FDC257"/>
<path d="M38.6747 51.1143L39.2778 52.5902L33.2377 53.5971L32.7324 52.3325L38.6747 51.1143Z" fill="#FDC257"/>
<path d="M34.5586 41.0474L37.5702 51.337L38.6753 51.111L34.5586 41.0474Z" fill="#2E2B4C"/>
<path d="M20.5898 38.709H6.85506L6.85506 25.2884C6.85518 24.7399 7.0729 24.2139 7.46044 23.8257C7.84798 23.4376 8.37368 23.219 8.92217 23.2181H18.7722C19.2542 23.2181 19.7164 23.4095 20.0573 23.7503C20.3982 24.0911 20.5897 24.5533 20.5898 25.0353V38.709Z" fill="#1E80F3"/>
<path d="M34.6513 30.8324L34.1694 30.6753C34.1648 30.9022 34.1662 31.1158 34.1625 31.3418C33.7624 31.6767 33.3683 31.9982 32.9682 32.3322L25.986 35.7879C25.6185 35.9694 25.2914 36.1357 24.9262 36.3162C24.8289 36.3672 24.7264 36.4301 24.6162 36.4751C24.1494 36.7049 23.6135 36.7517 23.114 36.6063C22.6145 36.4608 22.1874 36.1336 21.917 35.6892C20.386 33.142 18.8595 30.5816 17.3418 28.0399L20.2633 26.2705C21.5817 28.4543 22.895 30.6514 24.1954 32.8425C26.7177 31.9863 29.235 31.1429 31.7574 30.2857C32.033 29.9155 32.3389 29.5563 32.6164 29.1833C33.5038 29.5682 34.4201 29.8828 35.3569 30.1241C35.3826 30.1371 35.4111 30.1437 35.44 30.1433C35.1754 30.3827 34.9131 30.6078 34.6513 30.8324Z" fill="#EA9387"/>
<path d="M30.8587 30.5982L26.3446 32.8238C25.9771 33.0043 25.6501 33.1706 25.2844 33.3521C25.188 33.4021 25.0846 33.466 24.9744 33.511C24.5075 33.7406 23.9717 33.7873 23.4722 33.6418C22.9728 33.4964 22.5458 33.1694 22.2752 32.7251C21.1596 30.8546 20.0418 28.9885 18.9219 27.1269L20.4157 26.2183C21.7341 28.402 23.0474 30.5992 24.3478 32.7903C26.5196 32.0448 28.6928 31.3305 30.8587 30.5982Z" fill="#EDA197"/>
<path d="M19.7794 24.252C20.1052 24.6571 20.4309 25.0621 20.7564 25.4669L23.5254 30.9237L19.5749 32.6968C18.3074 30.7828 17.0396 28.8688 15.7715 26.9548L19.7794 24.252Z" fill="#1E80F3"/>
<path d="M16.8606 36.5408C17.4097 36.274 17.9591 36.0079 18.5088 35.7424L21.7128 38.0851L21.3375 38.6952L16.5992 38.8637L8.79702 38.72C8.40381 38.7259 8.01885 38.72 7.61324 38.72C7.50191 38.7243 7.39044 38.7226 7.27929 38.7149C6.75643 38.7115 6.25436 38.5097 5.8745 38.1504C5.49464 37.7911 5.26533 37.301 5.23288 36.7792C5.04913 33.8127 4.86262 30.8466 4.6582 27.8837L8.08042 27.6499C8.24395 30.1957 8.39967 32.7538 8.56367 35.2991L16.8606 36.5408Z" fill="#EA9387"/>
<path d="M16.6425 36.5129C16.7164 36.5286 16.7862 36.5249 16.8607 36.5414L9.87841 36.4087C9.4852 36.4146 9.10028 36.4087 8.69467 36.4087C8.58303 36.413 8.47124 36.4113 8.35979 36.4036C7.83701 36.4001 7.33504 36.1983 6.95528 35.839C6.57552 35.4797 6.34625 34.9897 6.3138 34.4679C6.17231 32.2414 6.03819 30.0029 5.87695 27.7796L8.09151 27.6299C8.2555 30.1761 8.41306 32.7338 8.57568 35.28L16.6379 36.495C16.6362 36.498 16.6357 36.5016 16.6366 36.5049C16.6374 36.5082 16.6395 36.5111 16.6425 36.5129Z" fill="#EDA197"/>
<path d="M7.39301 23.209H10.9121V30.4705H4.45312V26.1489C4.45312 25.3692 4.76286 24.6214 5.3142 24.0701C5.86553 23.5187 6.61331 23.209 7.39301 23.209V23.209Z" fill="#1E80F3"/>
<path d="M16.0633 18.3636C15.8006 18.5871 15.4651 18.7066 15.1203 18.6994C15.0104 19.3278 14.6752 19.8945 14.1776 20.2935C13.6799 20.6925 13.0538 20.8964 12.4166 20.867C11.7794 20.8376 11.1748 20.5769 10.7159 20.1338C10.2571 19.6906 9.97559 19.0954 9.92404 18.4596C9.86866 17.7292 10.1015 17.0062 10.5726 16.4454C10.4408 16.0976 10.4408 15.7136 10.5726 15.3659C11.1294 14.0967 14.1777 13.6047 15.5852 15.0296C16.4667 15.9226 16.7983 17.6659 16.0633 18.3636Z" fill="#060C21"/>
<path d="M14.7934 23.204C14.7732 23.2499 14.7434 23.3156 14.7016 23.3937C14.5649 23.6491 14.3855 23.8792 14.171 24.074C13.9677 24.2577 13.7254 24.393 13.4622 24.4695L12.4838 24.4635C12.3638 24.4302 12.2472 24.3856 12.1356 24.3303C11.9132 24.22 11.714 24.0679 11.549 23.8824C11.4272 23.7459 11.3216 23.5958 11.2343 23.435C11.1939 23.3651 11.1574 23.293 11.125 23.2191C11.2555 23.1824 11.4006 23.1465 11.554 23.1125L11.5623 21.7051L11.5591 22.2287C11.9839 22.4554 12.4719 22.5348 12.9466 22.4544C13.4214 22.3741 13.856 22.1384 14.1825 21.7845L14.1751 23.0634C14.4007 23.1052 14.6056 23.1525 14.7934 23.204Z" fill="#EA9387"/>
<path d="M14.1901 20.9763V21.3488L14.1878 21.7131V21.788C13.8614 22.1419 13.4268 22.3776 12.952 22.458C12.4772 22.5384 11.9892 22.4589 11.5645 22.2321L11.5677 21.7085L11.5714 20.9639L14.1901 20.9763Z" fill="#EA9387"/>
<path d="M14.1911 21.3482C14.1911 21.4695 14.1911 21.5894 14.1911 21.7106V21.7841L14.1878 21.7873C13.8614 22.1413 13.4268 22.377 12.952 22.4574C12.4772 22.5377 11.9892 22.4583 11.5645 22.2315L11.5677 21.7079C11.5677 21.5829 11.5677 21.4584 11.5677 21.3335L14.1888 21.3487L14.1911 21.3482Z" fill="#DD847A"/>
<path d="M15.1246 18.3974L15.1163 19.916C15.1141 20.267 15.029 20.6126 14.8679 20.9245C14.7068 21.2363 14.4743 21.5057 14.1893 21.7107H14.1871C13.9372 21.8921 13.6518 22.0188 13.3496 22.0823C13.1939 22.1144 13.0351 22.1298 12.876 22.1283H12.8572C12.7027 22.1271 12.5488 22.11 12.3978 22.0773C12.0966 22.0128 11.8122 21.8857 11.5632 21.7043C11.3924 21.5813 11.24 21.4345 11.1107 21.2684C11.0822 21.233 11.0561 21.1958 11.0299 21.1581C10.7742 20.7849 10.6391 20.3422 10.6426 19.8898L10.6518 18.351C10.6579 17.7578 10.8994 17.1913 11.3232 16.7762C11.7469 16.361 12.3182 16.1312 12.9114 16.1373C13.5046 16.1434 14.0711 16.3849 14.4862 16.8087C14.9013 17.2324 15.1311 17.8037 15.1251 18.3969L15.1246 18.3974Z" fill="#EA9387"/>
<path d="M12.2234 18.8704C12.2232 18.9085 12.2117 18.9458 12.1903 18.9774C12.169 19.009 12.1387 19.0335 12.1034 19.0479C12.0681 19.0623 12.0293 19.066 11.992 19.0583C11.9546 19.0506 11.9203 19.0321 11.8935 19.0049C11.8667 18.9778 11.8486 18.9433 11.8414 18.9059C11.8342 18.8684 11.8382 18.8297 11.853 18.7946C11.8679 18.7594 11.8928 18.7295 11.9246 18.7085C11.9565 18.6875 11.9939 18.6765 12.032 18.6768C12.0573 18.6769 12.0823 18.682 12.1056 18.6918C12.1289 18.7016 12.1501 18.7159 12.1678 18.7339C12.1856 18.7519 12.1997 18.7732 12.2092 18.7966C12.2187 18.82 12.2235 18.8451 12.2234 18.8704Z" fill="#280C1A"/>
<path d="M13.8913 18.885C13.891 18.9232 13.8795 18.9603 13.8581 18.9919C13.8367 19.0234 13.8064 19.0479 13.7711 19.0622C13.7357 19.0766 13.697 19.0801 13.6596 19.0724C13.6223 19.0647 13.5881 19.0461 13.5613 19.019C13.5346 18.9918 13.5165 18.9573 13.5093 18.9199C13.5021 18.8825 13.5062 18.8437 13.5211 18.8086C13.5359 18.7735 13.5608 18.7436 13.5927 18.7226C13.6245 18.7017 13.6618 18.6907 13.7 18.6909C13.7253 18.6911 13.7503 18.6963 13.7736 18.7061C13.7969 18.716 13.8181 18.7303 13.8358 18.7484C13.8536 18.7664 13.8676 18.7877 13.8772 18.8112C13.8867 18.8346 13.8915 18.8597 13.8913 18.885Z" fill="#280C1A"/>
<path d="M13.4628 24.4698C13.4352 24.4781 13.4068 24.485 13.3774 24.4924C13.082 24.5572 12.7751 24.5474 12.4844 24.4639L13.4628 24.4698Z" fill="#EA9387"/>
<path d="M15.1231 18.3973L15.1148 19.9159C15.1124 20.267 15.0271 20.6126 14.8658 20.9245C14.7044 21.2364 14.4717 21.5058 14.1864 21.7106H14.1841C14.113 21.762 14.0389 21.8093 13.9623 21.8521C14.173 21.5069 14.2854 21.1108 14.2875 20.7064L14.2949 19.1873C14.2975 18.9444 14.2598 18.7027 14.1832 18.4721C14.0806 18.1592 13.9103 17.8727 13.6845 17.633C13.4586 17.3933 13.1827 17.2063 12.8764 17.0854C12.57 16.9644 12.2408 16.9125 11.9121 16.9332C11.5834 16.9539 11.2633 17.0468 10.9746 17.2052C11.2308 16.7884 11.6164 16.4669 12.0726 16.2899C12.5287 16.1129 13.0303 16.0901 13.5006 16.2251C13.9709 16.36 14.3841 16.6452 14.677 17.0372C14.9699 17.4291 15.1264 17.9061 15.1226 18.3954L15.1231 18.3973Z" fill="#EDA197"/>
<path d="M11.6465 18.4097C11.7887 18.2889 11.9636 18.2132 12.149 18.1924C12.217 18.1988 12.2831 18.219 12.3431 18.2517C12.4031 18.2844 12.4558 18.3289 12.4981 18.3826L11.6465 18.4097Z" fill="#280C1A"/>
<path d="M13.2051 18.4097C13.3473 18.2889 13.5222 18.2132 13.7076 18.1924C13.7756 18.1988 13.8417 18.219 13.9017 18.2517C13.9617 18.2844 14.0144 18.3289 14.0567 18.3826L13.2051 18.4097Z" fill="#280C1A"/>
<path opacity="0.53" d="M12.9322 20.9413C12.7816 20.9646 12.6275 20.9369 12.4944 20.8626C12.3613 20.7884 12.2567 20.6719 12.1973 20.5316C12.4143 20.4446 12.6466 20.4023 12.8803 20.4071C13.0945 20.4091 13.3064 20.4514 13.505 20.5316C13.4625 20.65 13.3849 20.7526 13.2826 20.8258C13.1802 20.899 13.058 20.9393 12.9322 20.9413Z" fill="white"/>
<path opacity="0.33" d="M12.9353 19.1343H12.8308C12.7851 19.1343 12.748 19.1713 12.748 19.2171V19.6481C12.748 19.6938 12.7851 19.7309 12.8308 19.7309H12.9353C12.981 19.7309 13.0181 19.6938 13.0181 19.6481V19.2171C13.0181 19.1713 12.981 19.1343 12.9353 19.1343Z" fill="white"/>
<path d="M15.1207 19.2316C15.3211 19.2316 15.4836 19.0692 15.4836 18.8688C15.4836 18.6683 15.3211 18.5059 15.1207 18.5059C14.9203 18.5059 14.7578 18.6683 14.7578 18.8688C14.7578 19.0692 14.9203 19.2316 15.1207 19.2316Z" fill="#EDA197"/>
<path d="M10.6383 19.135C10.8387 19.135 11.0012 18.9725 11.0012 18.7721C11.0012 18.5717 10.8387 18.4092 10.6383 18.4092C10.4379 18.4092 10.2754 18.5717 10.2754 18.7721C10.2754 18.9725 10.4379 19.135 10.6383 19.135Z" fill="#EA9387"/>
</svg>
