<svg width="81" height="72" viewBox="0 0 81 72" fill="none" xmlns="http://www.w3.org/2000/svg">
<path d="M29.9934 45.2592L28.9832 48.221C28.9378 48.3539 28.8419 48.4634 28.7162 48.5259C28.5905 48.5884 28.4452 48.5988 28.312 48.5548L25.3452 47.5426C25.2138 47.4978 25.1051 47.4035 25.0422 47.2798C24.9793 47.1561 24.9672 47.0126 25.0084 46.8801L26.0236 43.9054C26.0462 43.8392 26.0816 43.7781 26.1278 43.7256C26.174 43.6731 26.2301 43.6302 26.2929 43.5994C26.3557 43.5686 26.4239 43.5504 26.4937 43.546C26.5636 43.5416 26.6336 43.5509 26.6997 43.5736L29.6665 44.5857C29.7987 44.6323 29.9073 44.7291 29.9685 44.8552C30.0297 44.9813 30.0386 45.1265 29.9934 45.2592Z" fill="#59A9F7"/>
<path opacity="0.48" d="M27.5352 48.2896L25.3471 47.5431C25.2158 47.4983 25.1071 47.404 25.0442 47.2803C24.9813 47.1566 24.9691 47.0131 25.0104 46.8806C25.0221 46.8746 25.0297 46.8677 25.0407 46.8613L26.8269 45.9067C26.9128 45.8622 27.0128 45.8536 27.105 45.8827C27.1972 45.9119 27.2741 45.9764 27.3188 46.0622C27.3303 46.0849 27.3396 46.1088 27.3464 46.1333C27.3945 46.3225 27.444 46.5072 27.4944 46.6975C27.595 47.0819 27.696 47.4663 27.7971 47.8469C27.8098 47.8918 27.8135 47.9388 27.8081 47.9852C27.8026 48.0315 27.7881 48.0763 27.7652 48.117C27.7424 48.1577 27.7118 48.1935 27.6751 48.2224C27.6385 48.2512 27.5964 48.2725 27.5515 48.2851L27.5352 48.2896Z" fill="white"/>
<path d="M29.046 48.0396L28.9843 48.2216C28.9389 48.3544 28.8429 48.4639 28.7173 48.5264C28.5916 48.5889 28.4464 48.5993 28.3131 48.5553L26.2393 47.8482C26.1808 47.7725 26.1549 47.6767 26.167 47.5819C26.1791 47.487 26.2284 47.4009 26.3039 47.3423C26.3197 47.3301 26.3364 47.3193 26.3539 47.3098C26.7353 47.1051 27.1148 46.903 27.4954 46.6976C27.7119 46.5841 27.9241 46.4687 28.1409 46.3544C28.1835 46.3323 28.23 46.3189 28.2777 46.3148C28.3255 46.3107 28.3736 46.3161 28.4193 46.3306C28.4649 46.3451 28.5073 46.3685 28.5439 46.3994C28.5806 46.4303 28.6108 46.4681 28.6328 46.5107C28.6446 46.5333 28.6538 46.5572 28.6604 46.5818C28.7917 47.0646 28.9162 47.5516 29.046 48.0396Z" fill="white"/>
<path d="M10.1496 48.3184H7.82148C6.80256 48.3184 5.97656 49.1444 5.97656 50.1633V54.6344C5.97656 55.6533 6.80256 56.4793 7.82148 56.4793H10.1496C11.1685 56.4793 11.9945 55.6533 11.9945 54.6344V50.1633C11.9945 49.1444 11.1685 48.3184 10.1496 48.3184Z" fill="#5D7DC3"/>
<path d="M15.1594 59.0078H9.71277C9.43777 59.0078 9.21484 59.2307 9.21484 59.5057V60.1346C9.21484 60.4096 9.43777 60.6325 9.71277 60.6325H15.1594C15.4344 60.6325 15.6573 60.4096 15.6573 60.1346V59.5057C15.6573 59.2307 15.4344 59.0078 15.1594 59.0078Z" fill="#5D7DC3"/>
<path d="M22.2329 67.2296L19.9473 67.1826L19.8621 71.3264L22.1477 71.3733L22.2329 67.2296Z" fill="#FAC7A5"/>
<path d="M19.8828 70.3013L23.1444 70.3683C23.2877 70.3712 23.4239 70.431 23.5231 70.5343C23.6223 70.6377 23.6764 70.7763 23.6735 70.9196L23.6635 71.4045L19.8618 71.3264L19.8828 70.3013Z" fill="#D64A4A"/>
<path d="M22.1782 69.7291L19.8926 69.6821L19.8799 70.3014L22.1655 70.3483L22.1782 69.7291Z" fill="#D64A4A"/>
<path d="M26.4033 61.4508L24.1836 61.9976L25.1749 66.0219L27.3946 65.4751L26.4033 61.4508Z" fill="#FAC7A5"/>
<path d="M24.9297 65.0259L28.0973 64.2456C28.2364 64.2113 28.3835 64.2337 28.5061 64.3079C28.6287 64.382 28.7169 64.5019 28.7511 64.641L28.8671 65.112L25.1749 66.0215L24.9297 65.0259Z" fill="#D64A4A"/>
<path d="M26.999 63.8775L24.7793 64.4243L24.9274 65.0257L27.1472 64.4789L26.999 63.8775Z" fill="#D64A4A"/>
<path d="M24.4475 55.6806C25.4693 58.1778 26.4909 60.6763 27.5122 63.1761C26.3701 63.3668 25.2282 63.5569 24.0865 63.7466C23.3467 61.8967 22.6066 60.0464 21.8663 58.1956L16.4295 59.2365C16.2058 59.2807 15.9749 59.2741 15.754 59.2172C15.5331 59.1603 15.3278 59.0545 15.1533 58.9077C14.9324 58.7214 14.7551 58.4889 14.6338 58.2267C14.4563 57.7912 14.4159 57.312 14.518 56.853C14.6201 56.394 14.8598 55.9771 15.2051 55.6579C15.7458 55.2833 18.554 54.9859 21.9086 54.3121C22.4249 54.21 22.9606 54.2908 23.4238 54.5405C23.887 54.7902 24.2489 55.1933 24.4475 55.6806Z" fill="#1E1B3A"/>
<path d="M23.3264 68.9032C22.4562 68.8748 21.5859 68.8434 20.7157 68.8151L19.0452 68.7591C19.0206 68.3656 18.9922 67.9724 18.9669 67.5793L18.9574 67.4374L18.5412 61.2848C18.5 60.684 18.4591 60.0797 18.4183 59.4792C16.2129 59.4601 14.0057 59.4432 11.7968 59.4285C11.0535 59.4224 10.3429 59.1221 9.82054 58.5932C9.29819 58.0643 9.00666 57.35 9.00979 56.6067L9.01282 55.1973L15.5245 55.2166L20.7183 55.2321C21.1671 55.2335 21.6063 55.3612 21.9859 55.6006L22.2507 55.7924C22.5171 56.0123 22.7327 56.2873 22.8826 56.5984C23.0325 56.9096 23.1132 57.2496 23.1191 57.595C23.1506 59.2807 23.182 60.968 23.2133 62.6568L23.3045 67.7431L23.3264 68.9032Z" fill="#292349"/>
<path d="M20.7154 68.8148L19.0449 68.7588C19.0173 68.3184 18.9855 67.8776 18.9572 67.4372L18.5409 61.2846C18.4997 60.6837 18.4588 60.0795 18.418 59.479C18.4195 59.4786 19.3162 63.1302 20.7154 68.8148Z" fill="#2E2B4C"/>
<path d="M23.3263 68.9035C22.4561 68.8751 21.5859 68.8437 20.7156 68.8153L19.0451 68.7593C19.0205 68.3658 18.9921 67.9727 18.9668 67.5796L23.3048 67.743L23.3263 68.9035Z" fill="#5486D1"/>
<path d="M27.167 62.3389L27.5094 63.1762C26.3672 63.3669 25.2253 63.5571 24.0837 63.7468L23.7969 63.0298L27.167 62.3389Z" fill="#5486D1"/>
<path d="M24.834 56.6289C25.4036 58.5745 25.9729 60.52 26.5419 62.4656L27.1681 62.3373L24.834 56.6289Z" fill="#2E2B4C"/>
<path d="M18.2521 53.3838H8.99609V55.2677H18.2521V53.3838Z" fill="#1E80F3"/>
<path d="M37.5313 32.7881H36.75V61.847H37.5313V32.7881Z" fill="#5D7DC3"/>
<path d="M49.1134 32.7881H48.332V61.847H49.1134V32.7881Z" fill="#5D7DC3"/>
<path d="M63.3605 9.63148V35.8871C63.3873 36.3769 63.2194 36.8574 62.8934 37.2239C62.5674 37.5904 62.1097 37.8132 61.6201 37.8436H26.5656C26.0759 37.8133 25.6182 37.5905 25.2921 37.224C24.966 36.8575 24.7982 36.3769 24.8251 35.8871V9.63148C24.7981 9.14235 24.9662 8.6625 25.2924 8.29709C25.6187 7.93168 26.0765 7.71053 26.5656 7.68213H61.6204C62.1093 7.71082 62.567 7.93207 62.8931 8.29742C63.2192 8.66278 63.3873 9.14247 63.3605 9.63148Z" fill="#D4E2FF"/>
<path d="M63.3574 9.4192V12.6032H24.8223V9.4192C24.8219 9.19089 24.8666 8.96475 24.9536 8.7537C25.0407 8.54265 25.1685 8.35082 25.3298 8.18919C25.491 8.02755 25.6826 7.89927 25.8934 7.81169C26.1043 7.7241 26.3303 7.67891 26.5586 7.67871H61.6173C61.8456 7.67841 62.0717 7.72309 62.2827 7.8102C62.4937 7.8973 62.6855 8.02512 62.8472 8.18636C63.0088 8.34759 63.1371 8.53909 63.2247 8.74991C63.3123 8.96073 63.3575 9.18675 63.3578 9.41504L63.3574 9.4192Z" fill="#82A3E7"/>
<path d="M28.1422 10.64C28.361 10.64 28.5384 10.4626 28.5384 10.2438C28.5384 10.025 28.361 9.84766 28.1422 9.84766C27.9235 9.84766 27.7461 10.025 27.7461 10.2438C27.7461 10.4626 27.9235 10.64 28.1422 10.64Z" fill="#2C4F8C"/>
<path d="M29.5934 10.64C29.8122 10.64 29.9896 10.4626 29.9896 10.2438C29.9896 10.025 29.8122 9.84766 29.5934 9.84766C29.3746 9.84766 29.1973 10.025 29.1973 10.2438C29.1973 10.4626 29.3746 10.64 29.5934 10.64Z" fill="#2C4F8C"/>
<path d="M30.9547 10.64C31.1735 10.64 31.3509 10.4626 31.3509 10.2438C31.3509 10.025 31.1735 9.84766 30.9547 9.84766C30.736 9.84766 30.5586 10.025 30.5586 10.2438C30.5586 10.4626 30.736 10.64 30.9547 10.64Z" fill="#2C4F8C"/>
<path d="M37.2382 16.7891V22.2236C37.238 22.4674 37.1417 22.7013 36.9701 22.8746C36.7985 23.0478 36.5656 23.1465 36.3218 23.149H30.8786C30.6375 23.1491 30.4058 23.0551 30.233 22.887C30.0601 22.7189 29.9597 22.4899 29.9531 22.2489V16.7902C29.9531 16.6687 29.977 16.5483 30.0235 16.436C30.07 16.3237 30.1381 16.2217 30.2241 16.1357C30.31 16.0498 30.4121 15.9816 30.5244 15.9351C30.6367 15.8886 30.7571 15.8647 30.8786 15.8647H36.3214C36.5652 15.8669 36.7982 15.9653 36.9699 16.1384C37.1416 16.3115 37.238 16.5453 37.2382 16.7891Z" fill="#59A9F7"/>
<path opacity="0.48" d="M34.8958 23.1485H30.8806C30.6394 23.1486 30.4078 23.0546 30.235 22.8865C30.0621 22.7183 29.9617 22.4894 29.9551 22.2484C29.971 22.2317 29.9793 22.2162 29.9929 22.1996L32.394 19.6289C32.4515 19.5687 32.5203 19.5205 32.5965 19.4869C32.6727 19.4533 32.7547 19.4351 32.8379 19.4333C32.9212 19.4314 33.0039 19.446 33.0815 19.4762C33.1591 19.5064 33.2299 19.5516 33.29 19.6093C33.3222 19.6398 33.351 19.6736 33.3759 19.7103C33.5609 19.9937 33.7459 20.2699 33.9355 20.5533C34.3169 21.1295 34.6983 21.7047 35.0797 22.273C35.1256 22.3397 35.1579 22.4148 35.1748 22.494C35.1917 22.5733 35.1928 22.655 35.1781 22.7347C35.1634 22.8143 35.1331 22.8903 35.089 22.9583C35.0449 23.0262 34.9879 23.0848 34.9211 23.1307C34.9136 23.1368 34.9052 23.1432 34.8958 23.1485Z" fill="white"/>
<path d="M37.2384 21.8912V22.2245C37.2383 22.4683 37.1421 22.7021 36.9707 22.8754C36.7993 23.0487 36.5665 23.1473 36.3228 23.15H32.5179C32.4492 23.1047 32.3901 23.0463 32.344 22.9781C32.2978 22.9099 32.2656 22.8333 32.2491 22.7527C32.2326 22.6721 32.2321 22.5889 32.2477 22.5081C32.2633 22.4273 32.2947 22.3503 32.3401 22.2817C32.3594 22.2531 32.3809 22.226 32.4044 22.2007C32.9159 21.6498 33.426 21.1053 33.9372 20.5544C34.2289 20.2461 34.5134 19.9373 34.8055 19.6289C34.863 19.5687 34.9318 19.5205 35.008 19.4869C35.0841 19.4533 35.1662 19.4351 35.2494 19.4333C35.3326 19.4314 35.4154 19.446 35.493 19.4762C35.5706 19.5064 35.6414 19.5516 35.7015 19.6093C35.7337 19.6398 35.7624 19.6736 35.7874 19.7103C36.2717 20.4311 36.7522 21.1613 37.2384 21.8912Z" fill="white"/>
<path d="M47.7245 16.7891V22.2236C47.7243 22.4674 47.628 22.7013 47.4564 22.8746C47.2849 23.0478 47.0519 23.1465 46.8081 23.149H41.3649C41.1238 23.1491 40.8922 23.0551 40.7193 22.887C40.5465 22.7189 40.4461 22.4899 40.4395 22.2489V16.7902C40.4394 16.6687 40.4633 16.5483 40.5098 16.436C40.5563 16.3237 40.6245 16.2217 40.7104 16.1357C40.7964 16.0498 40.8984 15.9816 41.0107 15.9351C41.123 15.8886 41.2434 15.8647 41.3649 15.8647H46.8077C47.0515 15.867 47.2845 15.9654 47.4561 16.1385C47.6278 16.3115 47.7242 16.5453 47.7245 16.7891Z" fill="#59A9F7"/>
<path opacity="0.48" d="M45.3821 23.1485H41.3669C41.1258 23.1485 40.8942 23.0545 40.7214 22.8864C40.5486 22.7183 40.4481 22.4894 40.4414 22.2484C40.4573 22.2317 40.4656 22.2162 40.4793 22.1996L42.88 19.6289C42.9375 19.5687 43.0063 19.5205 43.0824 19.4869C43.1586 19.4533 43.2407 19.4351 43.3239 19.4333C43.4071 19.4314 43.4899 19.446 43.5675 19.4762C43.645 19.5064 43.7159 19.5516 43.7759 19.6093C43.8081 19.6398 43.8369 19.6736 43.8619 19.7103C44.0469 19.9937 44.2319 20.2699 44.4215 20.5533C44.8029 21.1295 45.1842 21.7047 45.5656 22.273C45.6116 22.3397 45.6439 22.4148 45.6608 22.494C45.6776 22.5733 45.6788 22.655 45.664 22.7347C45.6493 22.8143 45.619 22.8903 45.575 22.9583C45.5309 23.0262 45.4738 23.0848 45.4071 23.1307C45.3999 23.1368 45.3916 23.1432 45.3821 23.1485Z" fill="white"/>
<path d="M47.7247 21.8912V22.2245C47.7246 22.4683 47.6285 22.7021 47.4571 22.8754C47.2856 23.0487 47.0528 23.1473 46.8091 23.15H43.0042C42.9355 23.1047 42.8764 23.0463 42.8303 22.9781C42.7842 22.9099 42.7519 22.8333 42.7354 22.7527C42.7189 22.6721 42.7184 22.5889 42.734 22.5081C42.7496 22.4273 42.781 22.3503 42.8264 22.2817C42.8457 22.2531 42.8672 22.226 42.8907 22.2007C43.4023 21.6498 43.9123 21.1053 44.4235 20.5544C44.7152 20.2461 44.9997 19.9373 45.2918 19.6289C45.3493 19.5687 45.4181 19.5205 45.4943 19.4869C45.5705 19.4533 45.6525 19.4351 45.7357 19.4333C45.819 19.4314 45.9017 19.446 45.9793 19.4762C46.0569 19.5064 46.1277 19.5516 46.1878 19.6093C46.22 19.6398 46.2488 19.6736 46.2737 19.7103C46.758 20.4311 47.2385 21.1613 47.7247 21.8912Z" fill="white"/>
<path d="M66.2343 15.5552V20.9897C66.2341 21.2335 66.1378 21.4674 65.9662 21.6407C65.7946 21.814 65.5617 21.9126 65.3179 21.9152H59.8747C59.6336 21.9153 59.4019 21.8212 59.2291 21.6531C59.0562 21.485 58.9558 21.2561 58.9492 21.015V15.5563C58.9492 15.4348 58.9731 15.3144 59.0196 15.2021C59.0661 15.0898 59.1342 14.9878 59.2202 14.9018C59.3061 14.8159 59.4082 14.7477 59.5205 14.7012C59.6328 14.6547 59.7531 14.6308 59.8747 14.6309H65.3179C65.5616 14.6332 65.7945 14.7315 65.9661 14.9046C66.1377 15.0777 66.2341 15.3115 66.2343 15.5552Z" fill="#59A9F7"/>
<path opacity="0.48" d="M63.8919 21.9146H59.8766C59.6356 21.9146 59.404 21.8206 59.2312 21.6525C59.0583 21.4844 58.9579 21.2555 58.9512 21.0145C58.9671 20.9979 58.9754 20.9823 58.989 20.9657L61.3901 18.3951C61.4476 18.3349 61.5164 18.2866 61.5926 18.253C61.6687 18.2194 61.7508 18.2012 61.834 18.1994C61.9172 18.1975 62 18.2122 62.0776 18.2424C62.1552 18.2726 62.226 18.3178 62.2861 18.3754C62.3183 18.4059 62.3471 18.4398 62.372 18.4764C62.557 18.7598 62.7424 19.036 62.9316 19.3194C63.313 19.8957 63.6944 20.4708 64.0758 21.0391C64.1217 21.1058 64.154 21.1809 64.1709 21.2602C64.1878 21.3394 64.1889 21.4212 64.1742 21.5008C64.1594 21.5805 64.1292 21.6564 64.0851 21.7244C64.041 21.7923 63.984 21.8509 63.9172 21.8968C63.9097 21.9029 63.9013 21.909 63.8919 21.9146Z" fill="white"/>
<path d="M66.2345 20.6573V20.9906C66.2344 21.2344 66.1382 21.4682 65.9668 21.6415C65.7954 21.8148 65.5626 21.9134 65.3189 21.9161H61.514C61.4453 21.8708 61.3862 21.8124 61.3401 21.7442C61.2939 21.676 61.2617 21.5994 61.2452 21.5188C61.2286 21.4382 61.2282 21.3551 61.2438 21.2742C61.2594 21.1934 61.2908 21.1165 61.3362 21.0478C61.3555 21.0192 61.377 20.9921 61.4005 20.9668C61.912 20.4159 62.4221 19.8714 62.9333 19.3205C63.225 19.0122 63.5095 18.7034 63.8016 18.3951C63.8591 18.3349 63.9279 18.2866 64.0041 18.253C64.0802 18.2194 64.1623 18.2012 64.2455 18.1994C64.3287 18.1975 64.4115 18.2121 64.4891 18.2423C64.5667 18.2726 64.6375 18.3178 64.6976 18.3754C64.7298 18.4059 64.7586 18.4397 64.7835 18.4764C65.2678 19.1972 65.7483 19.9274 66.2345 20.6573Z" fill="white"/>
<path d="M30.5702 25H37.3578C37.4388 25 37.5191 25.0159 37.594 25.0469C37.6689 25.0779 37.7369 25.1233 37.7942 25.1806C37.8515 25.238 37.897 25.306 37.928 25.3809C37.959 25.4558 37.9749 25.5361 37.9749 25.6171C37.9749 25.7808 37.9098 25.9378 37.7941 26.0535C37.6784 26.1692 37.5214 26.2342 37.3578 26.2342H30.5702C30.4892 26.2343 30.4089 26.2184 30.334 26.1874C30.2591 26.1564 30.1911 26.1109 30.1338 26.0536C30.0764 25.9963 30.031 25.9282 30 25.8533C29.969 25.7784 29.9531 25.6982 29.9531 25.6171C29.953 25.5361 29.9689 25.4558 29.9999 25.3808C30.0309 25.3059 30.0763 25.2378 30.1336 25.1805C30.191 25.1232 30.259 25.0778 30.334 25.0468C30.4089 25.0158 30.4892 24.9999 30.5702 25Z" fill="white"/>
<path d="M41.0585 25H47.846C47.9271 25 48.0074 25.0159 48.0823 25.0469C48.1572 25.0779 48.2252 25.1233 48.2825 25.1806C48.3398 25.238 48.3853 25.306 48.4163 25.3809C48.4473 25.4558 48.4632 25.5361 48.4631 25.6171C48.4631 25.7808 48.3981 25.9378 48.2824 26.0535C48.1667 26.1692 48.0097 26.2342 47.846 26.2342H41.0585C40.9775 26.2343 40.8972 26.2184 40.8223 26.1874C40.7474 26.1564 40.6794 26.1109 40.622 26.0536C40.5647 25.9963 40.5193 25.9282 40.4883 25.8533C40.4573 25.7784 40.4414 25.6982 40.4414 25.6171C40.4413 25.5361 40.4572 25.4558 40.4882 25.3808C40.5191 25.3059 40.5646 25.2378 40.6219 25.1805C40.6793 25.1232 40.7473 25.0778 40.8222 25.0468C40.8972 25.0158 40.9774 24.9999 41.0585 25Z" fill="white"/>
<path d="M51.5487 25H58.3363C58.4173 25 58.4976 25.0159 58.5725 25.0469C58.6474 25.0779 58.7154 25.1233 58.7727 25.1806C58.8301 25.238 58.8755 25.306 58.9065 25.3809C58.9375 25.4558 58.9534 25.5361 58.9534 25.6171C58.9534 25.7808 58.8884 25.9378 58.7726 26.0535C58.6569 26.1692 58.4999 26.2342 58.3363 26.2342H51.5487C51.4677 26.2343 51.3874 26.2184 51.3125 26.1874C51.2377 26.1564 51.1696 26.1109 51.1123 26.0536C51.055 25.9963 51.0095 25.9282 50.9785 25.8533C50.9475 25.7784 50.9316 25.6982 50.9316 25.6171C50.9315 25.5361 50.9474 25.4558 50.9784 25.3808C51.0094 25.3059 51.0548 25.2378 51.1122 25.1805C51.1695 25.1232 51.2376 25.0778 51.3125 25.0468C51.3874 25.0158 51.4677 24.9999 51.5487 25Z" fill="white"/>
<path d="M30.5702 27.4678H37.3578C37.4388 27.4677 37.5191 27.4837 37.594 27.5147C37.6689 27.5456 37.7369 27.5911 37.7942 27.6484C37.8515 27.7057 37.897 27.7738 37.928 27.8487C37.959 27.9236 37.9749 28.0038 37.9749 28.0849C37.9749 28.2486 37.9098 28.4055 37.7941 28.5213C37.6784 28.637 37.5214 28.702 37.3578 28.702H30.5702C30.4892 28.7021 30.4089 28.6861 30.334 28.6551C30.2591 28.6241 30.1911 28.5787 30.1338 28.5214C30.0764 28.464 30.031 28.396 30 28.3211C29.969 28.2462 29.9531 28.1659 29.9531 28.0849C29.953 28.0038 29.9689 27.9235 29.9999 27.8486C30.0309 27.7737 30.0763 27.7056 30.1336 27.6483C30.191 27.591 30.259 27.5455 30.334 27.5146C30.4089 27.4836 30.4892 27.4677 30.5702 27.4678Z" fill="white"/>
<path d="M41.0585 27.4678H47.846C47.9271 27.4677 48.0074 27.4837 48.0823 27.5147C48.1572 27.5456 48.2252 27.5911 48.2825 27.6484C48.3398 27.7057 48.3853 27.7738 48.4163 27.8487C48.4473 27.9236 48.4632 28.0038 48.4631 28.0849C48.4631 28.2486 48.3981 28.4055 48.2824 28.5213C48.1667 28.637 48.0097 28.702 47.846 28.702H41.0585C40.9775 28.7021 40.8972 28.6861 40.8223 28.6551C40.7474 28.6241 40.6794 28.5787 40.622 28.5214C40.5647 28.464 40.5193 28.396 40.4883 28.3211C40.4573 28.2462 40.4414 28.1659 40.4414 28.0849C40.4413 28.0038 40.4572 27.9235 40.4882 27.8486C40.5191 27.7737 40.5646 27.7056 40.6219 27.6483C40.6793 27.591 40.7473 27.5455 40.8222 27.5146C40.8972 27.4836 40.9774 27.4677 41.0585 27.4678Z" fill="white"/>
<path d="M51.5487 27.4678H58.3363C58.4173 27.4677 58.4976 27.4837 58.5725 27.5147C58.6474 27.5456 58.7154 27.5911 58.7727 27.6484C58.8301 27.7057 58.8755 27.7738 58.9065 27.8487C58.9375 27.9236 58.9534 28.0038 58.9534 28.0849C58.9534 28.2486 58.8884 28.4055 58.7726 28.5213C58.6569 28.637 58.4999 28.702 58.3363 28.702H51.5487C51.4677 28.7021 51.3874 28.6861 51.3125 28.6551C51.2377 28.6241 51.1696 28.5787 51.1123 28.5214C51.055 28.464 51.0095 28.396 50.9785 28.3211C50.9475 28.2462 50.9316 28.1659 50.9316 28.0849C50.9315 28.0038 50.9474 27.9235 50.9784 27.8486C51.0094 27.7737 51.0548 27.7056 51.1122 27.6483C51.1695 27.591 51.2376 27.5455 51.3125 27.5146C51.3874 27.4836 51.4677 27.4677 51.5487 27.4678Z" fill="white"/>
<path d="M30.5702 29.936H37.3578C37.4388 29.936 37.5191 29.9519 37.594 29.9829C37.6689 30.0139 37.7369 30.0594 37.7942 30.1167C37.8515 30.174 37.897 30.242 37.928 30.3169C37.959 30.3918 37.9749 30.4721 37.9749 30.5532C37.9749 30.7168 37.9098 30.8738 37.7941 30.9895C37.6784 31.1053 37.5214 31.1703 37.3578 31.1703H30.5702C30.4892 31.1703 30.4089 31.1544 30.334 31.1234C30.2591 31.0924 30.1911 31.0469 30.1338 30.9896C30.0764 30.9323 30.031 30.8643 30 30.7894C29.969 30.7145 29.9531 30.6342 29.9531 30.5532C29.953 30.4721 29.9689 30.3918 29.9999 30.3169C30.0309 30.242 30.0763 30.1739 30.1336 30.1166C30.191 30.0592 30.259 30.0138 30.334 29.9828C30.4089 29.9518 30.4892 29.9359 30.5702 29.936Z" fill="white"/>
<path d="M41.0585 29.936H47.846C47.9271 29.936 48.0074 29.9519 48.0823 29.9829C48.1572 30.0139 48.2252 30.0594 48.2825 30.1167C48.3398 30.174 48.3853 30.242 48.4163 30.3169C48.4473 30.3918 48.4632 30.4721 48.4631 30.5532C48.4631 30.7168 48.3981 30.8738 48.2824 30.9895C48.1667 31.1053 48.0097 31.1703 47.846 31.1703H41.0585C40.9775 31.1703 40.8972 31.1544 40.8223 31.1234C40.7474 31.0924 40.6794 31.0469 40.622 30.9896C40.5647 30.9323 40.5193 30.8643 40.4883 30.7894C40.4573 30.7145 40.4414 30.6342 40.4414 30.5532C40.4413 30.4721 40.4572 30.3918 40.4882 30.3169C40.5191 30.242 40.5646 30.1739 40.6219 30.1166C40.6793 30.0592 40.7473 30.0138 40.8222 29.9828C40.8972 29.9518 40.9774 29.9359 41.0585 29.936Z" fill="white"/>
<path d="M51.5487 29.936H58.3363C58.4173 29.936 58.4976 29.9519 58.5725 29.9829C58.6474 30.0139 58.7154 30.0594 58.7727 30.1167C58.8301 30.174 58.8755 30.242 58.9065 30.3169C58.9375 30.3918 58.9534 30.4721 58.9534 30.5532C58.9534 30.7168 58.8884 30.8738 58.7726 30.9895C58.6569 31.1053 58.4999 31.1703 58.3363 31.1703H51.5487C51.4677 31.1703 51.3874 31.1544 51.3125 31.1234C51.2377 31.0924 51.1696 31.0469 51.1123 30.9896C51.055 30.9323 51.0095 30.8643 50.9785 30.7894C50.9475 30.7145 50.9316 30.6342 50.9316 30.5532C50.9315 30.4721 50.9474 30.3918 50.9784 30.3169C51.0094 30.242 51.0548 30.1739 51.1122 30.1166C51.1695 30.0592 51.2376 30.0138 51.3125 29.9828C51.3874 29.9518 51.4677 29.9359 51.5487 29.936Z" fill="white"/>
<path d="M30.5702 32.4043H37.3578C37.4388 32.4042 37.5191 32.4202 37.594 32.4512C37.6689 32.4822 37.7369 32.5276 37.7942 32.5849C37.8515 32.6423 37.897 32.7103 37.928 32.7852C37.959 32.8601 37.9749 32.9404 37.9749 33.0214C37.9749 33.1851 37.9098 33.3421 37.7941 33.4578C37.6784 33.5735 37.5214 33.6385 37.3578 33.6385H30.5702C30.4892 33.6386 30.4089 33.6227 30.334 33.5917C30.2591 33.5607 30.1911 33.5152 30.1338 33.4579C30.0764 33.4006 30.031 33.3325 30 33.2576C29.969 33.1827 29.9531 33.1025 29.9531 33.0214C29.953 32.9403 29.9689 32.8601 29.9999 32.7851C30.0309 32.7102 30.0763 32.6421 30.1336 32.5848C30.191 32.5275 30.259 32.4821 30.334 32.4511C30.4089 32.4201 30.4892 32.4042 30.5702 32.4043Z" fill="white"/>
<path d="M41.0585 32.4043H47.846C47.9271 32.4042 48.0074 32.4202 48.0823 32.4512C48.1572 32.4822 48.2252 32.5276 48.2825 32.5849C48.3398 32.6423 48.3853 32.7103 48.4163 32.7852C48.4473 32.8601 48.4632 32.9404 48.4631 33.0214C48.4631 33.1851 48.3981 33.3421 48.2824 33.4578C48.1667 33.5735 48.0097 33.6385 47.846 33.6385H41.0585C40.9775 33.6386 40.8972 33.6227 40.8223 33.5917C40.7474 33.5607 40.6794 33.5152 40.622 33.4579C40.5647 33.4006 40.5193 33.3325 40.4883 33.2576C40.4573 33.1827 40.4414 33.1025 40.4414 33.0214C40.4413 32.9403 40.4572 32.8601 40.4882 32.7851C40.5191 32.7102 40.5646 32.6421 40.6219 32.5848C40.6793 32.5275 40.7473 32.4821 40.8222 32.4511C40.8972 32.4201 40.9774 32.4042 41.0585 32.4043Z" fill="white"/>
<path d="M51.5487 32.4043H58.3363C58.4173 32.4042 58.4976 32.4202 58.5725 32.4512C58.6474 32.4822 58.7154 32.5276 58.7727 32.5849C58.8301 32.6423 58.8755 32.7103 58.9065 32.7852C58.9375 32.8601 58.9534 32.9404 58.9534 33.0214C58.9534 33.1851 58.8884 33.3421 58.7726 33.4578C58.6569 33.5735 58.4999 33.6385 58.3363 33.6385H51.5487C51.4677 33.6386 51.3874 33.6227 51.3125 33.5917C51.2377 33.5607 51.1696 33.5152 51.1123 33.4579C51.055 33.4006 51.0095 33.3325 50.9785 33.2576C50.9475 33.1827 50.9316 33.1025 50.9316 33.0214C50.9315 32.9403 50.9474 32.8601 50.9784 32.7851C51.0094 32.7102 51.0548 32.6421 51.1122 32.5848C51.1695 32.5275 51.2376 32.4821 51.3125 32.4511C51.3874 32.4201 51.4677 32.4042 51.5487 32.4043Z" fill="white"/>
<path d="M19.1539 0.93457H28.4098C28.9826 0.93457 29.532 1.16211 29.937 1.56714C30.342 1.97216 30.5696 2.5215 30.5696 3.09429C30.5696 3.66708 30.342 4.21641 29.937 4.62144C29.532 5.02646 28.9826 5.25401 28.4098 5.25401H19.1539C18.5811 5.25401 18.0317 5.02646 17.6267 4.62144C17.2217 4.21641 16.9941 3.66708 16.9941 3.09429C16.9941 2.5215 17.2217 1.97216 17.6267 1.56714C18.0317 1.16211 18.5811 0.93457 19.1539 0.93457Z" fill="#D4E2FF"/>
<path d="M19.5073 1.57324C19.6945 1.57319 19.8799 1.61002 20.0529 1.68162C20.2259 1.75322 20.3831 1.85819 20.5155 1.99054C20.648 2.1229 20.753 2.28004 20.8247 2.45299C20.8964 2.62595 20.9333 2.81132 20.9334 2.99855C20.9333 3.37673 20.783 3.7394 20.5156 4.00682C20.2482 4.27423 19.8855 4.42451 19.5073 4.42461C19.3201 4.42456 19.1347 4.38763 18.9618 4.31594C18.7888 4.24424 18.6317 4.13919 18.4993 4.00677C18.367 3.87435 18.262 3.71715 18.1904 3.54416C18.1188 3.37117 18.082 3.18577 18.082 2.99855C18.082 2.81137 18.1189 2.62604 18.1905 2.45311C18.2622 2.28018 18.3671 2.12306 18.4995 1.99071C18.6318 1.85835 18.789 1.75336 18.9619 1.68174C19.1348 1.61011 19.3202 1.57324 19.5073 1.57324Z" fill="white"/>
<path d="M20.2304 3.78533C20.2072 3.78466 20.1852 3.77519 20.1687 3.75884L19.8683 3.45841C19.7638 3.54863 19.6352 3.60639 19.4983 3.6246C19.3614 3.6428 19.2222 3.62066 19.0977 3.5609C18.9732 3.50114 18.8689 3.40636 18.7975 3.28817C18.7261 3.16998 18.6908 3.03352 18.6958 2.89553C18.7008 2.75754 18.746 2.62402 18.8258 2.51133C18.9056 2.39865 19.0166 2.31171 19.1451 2.26116C19.2736 2.21061 19.414 2.19866 19.5492 2.22677C19.6844 2.25489 19.8084 2.32184 19.9061 2.41942C20.0232 2.537 20.0954 2.69183 20.1102 2.85707C20.1251 3.0223 20.0817 3.18753 19.9875 3.3241L20.2958 3.63247C20.3042 3.6408 20.3109 3.65071 20.3154 3.66162C20.3199 3.67252 20.3223 3.68422 20.3223 3.69604C20.3223 3.70785 20.3199 3.71955 20.3154 3.73046C20.3109 3.74137 20.3042 3.75127 20.2958 3.7596C20.2793 3.77634 20.2569 3.78609 20.2334 3.78684L20.2304 3.78533ZM19.4048 2.50607C19.3361 2.50559 19.2684 2.52213 19.2076 2.55421C19.1469 2.58628 19.095 2.6329 19.0566 2.68989C19.0183 2.74689 18.9946 2.81249 18.9878 2.88084C18.981 2.9492 18.9911 3.01818 19.0175 3.08164C19.0438 3.1451 19.0854 3.20106 19.1386 3.24453C19.1917 3.288 19.2549 3.31763 19.3223 3.33078C19.3897 3.34392 19.4594 3.34018 19.525 3.31986C19.5906 3.29955 19.6502 3.26331 19.6984 3.21437L19.7071 3.2053C19.7097 3.20051 19.713 3.19616 19.7169 3.19242L19.723 3.18637C19.7724 3.12564 19.8037 3.0522 19.8132 2.9745C19.8228 2.8968 19.8102 2.81798 19.777 2.7471C19.7437 2.67621 19.6912 2.61614 19.6253 2.57378C19.5595 2.53141 19.4831 2.50846 19.4048 2.50758V2.50607Z" fill="#82A3E7"/>
<path d="M0.953046 52.7666H27.4864C27.5674 52.7666 27.6477 52.7825 27.7226 52.8135C27.7975 52.8445 27.8655 52.8899 27.9228 52.9472C27.9802 53.0046 28.0256 53.0726 28.0566 53.1475C28.0876 53.2224 28.1035 53.3027 28.1035 53.3837C28.1034 53.5473 28.0383 53.7043 27.9226 53.82C27.8069 53.9357 27.65 54.0007 27.4864 54.0008H0.953046C0.789377 54.0008 0.632423 53.9358 0.516692 53.8201C0.40096 53.7043 0.335938 53.5474 0.335938 53.3837C0.335888 53.3027 0.351822 53.2224 0.382818 53.1475C0.413813 53.0726 0.459262 53.0046 0.516576 52.9472C0.57389 52.8899 0.64195 52.8445 0.716844 52.8135C0.791739 52.7825 0.871991 52.7666 0.953046 52.7666Z" fill="#D4E2FF"/>
<path d="M7.1229 53.3838H5.88867V71.2782H7.1229V53.3838Z" fill="#D4E2FF"/>
<path d="M23.7831 52.7666H22.5488V71.2782H23.7831V52.7666Z" fill="#D4E2FF"/>
<path d="M17.6112 52.7666H16.377V71.2782H17.6112V52.7666Z" fill="#D4E2FF"/>
<path d="M3.42173 52.7666H2.1875V71.2782H3.42173V52.7666Z" fill="#D4E2FF"/>
<path d="M18.2227 53.0137H9.59099L9.59099 44.5806C9.59099 44.2355 9.72808 43.9046 9.9721 43.6606C10.2161 43.4165 10.5471 43.2794 10.8922 43.2794H17.0807C17.2307 43.2794 17.3793 43.309 17.5178 43.3664C17.6564 43.4238 17.7823 43.508 17.8883 43.614C17.9944 43.7201 18.0785 43.846 18.1358 43.9846C18.1932 44.1232 18.2227 44.2717 18.2227 44.4217V53.0137Z" fill="#1E80F3"/>
<path d="M27.0652 48.0626L26.7625 47.9638C26.7599 48.1065 26.7625 48.2404 26.7584 48.3827C26.5071 48.593 26.2597 48.7947 26.0088 49.0047L21.622 51.1769C21.3924 51.2904 21.1858 51.3949 20.9561 51.5087C20.8952 51.5402 20.8301 51.5799 20.7613 51.6079C20.4681 51.7523 20.1316 51.7819 19.8177 51.6909C19.5039 51.5999 19.2354 51.3948 19.065 51.116C18.1032 49.5155 17.1448 47.9059 16.1895 46.3107L18.0257 45.1987C18.8543 46.5711 19.6795 47.9513 20.4964 49.3286C22.0817 48.7906 23.663 48.2597 25.2483 47.7217C25.4224 47.489 25.6134 47.2631 25.7875 47.0308C26.3452 47.2724 26.9211 47.4699 27.5098 47.6214C27.5259 47.6302 27.544 47.6346 27.5624 47.6343C27.3944 47.7792 27.2294 47.9211 27.0652 48.0626Z" fill="#EA9387"/>
<path d="M24.6831 47.9159L21.8454 49.3158C21.6157 49.4294 21.4091 49.5338 21.1795 49.6477C21.1185 49.6791 21.0534 49.7188 20.9846 49.7472C20.6915 49.8917 20.3549 49.9214 20.041 49.8304C19.7272 49.7393 19.4587 49.5342 19.2884 49.2553C18.5874 48.0798 17.8851 46.9069 17.1816 45.7365L18.12 45.1655C18.9486 46.5379 19.7738 47.9182 20.5911 49.2954C21.957 48.8266 23.3225 48.376 24.6831 47.9159Z" fill="#EDA197"/>
<path d="M17.7208 43.9277C17.9251 44.1825 18.1298 44.4369 18.3349 44.6909C18.915 45.8343 19.4952 46.9773 20.0754 48.12L17.5929 49.2343L15.2031 45.627L17.7208 43.9277Z" fill="#1E80F3"/>
<path d="M15.8848 51.6501L16.9207 51.1484C17.5914 51.6395 18.2624 52.1305 18.9336 52.6213L18.6979 53.0046C17.7058 53.0397 16.7134 53.0751 15.7205 53.1109L10.8181 53.0201C10.5714 53.0239 10.3288 53.0201 10.0746 53.0201C10.0044 53.0226 9.93419 53.0214 9.86418 53.0163C9.5356 53.0143 9.22005 52.8876 8.98127 52.6619C8.74248 52.4362 8.59826 52.1282 8.57775 51.8003C8.46159 49.9361 8.34506 48.0718 8.2168 46.2103L10.367 46.0635C10.4696 47.6636 10.5676 49.2709 10.6697 50.8687L15.8848 51.6501Z" fill="#EA9387"/>
<path d="M15.748 51.6323C15.7941 51.6422 15.838 51.6403 15.8842 51.6501L11.4974 51.5669C11.2507 51.5706 11.0082 51.5669 10.7539 51.5669C10.6783 51.5669 10.6143 51.5669 10.5436 51.5631C10.2149 51.5612 9.89925 51.4346 9.66043 51.2088C9.4216 50.9831 9.27743 50.675 9.2571 50.347C9.1678 48.947 9.08382 47.5414 8.98242 46.1441L10.374 46.0503C10.477 47.6496 10.5753 49.2569 10.6767 50.8555L15.7434 51.6187C15.7426 51.6198 15.742 51.6211 15.7418 51.6225C15.7416 51.6239 15.7417 51.6254 15.7421 51.6267C15.7426 51.6281 15.7433 51.6293 15.7444 51.6302C15.7454 51.6312 15.7466 51.6319 15.748 51.6323Z" fill="#EDA197"/>
<path d="M9.93621 43.2729H12.1474V47.836H8.08789V45.1213C8.08789 44.6311 8.28262 44.1609 8.62925 43.8143C8.97588 43.4677 9.44601 43.2729 9.93621 43.2729V43.2729Z" fill="#1E80F3"/>
<path d="M12.435 60.6323H11.248V71.2784H12.435V60.6323Z" fill="#5D7DC3"/>
<path d="M14.0185 41.7563C13.7158 41.7699 13.5667 42.0408 13.3912 42.0859C12.5845 42.2925 11.6374 41.7544 11.2174 41.1271C10.4047 39.9133 11.0472 37.5958 12.6443 37.0407C13.1383 36.8941 13.6639 36.8914 14.1594 37.0329C14.655 37.1744 15.0998 37.4544 15.4419 37.8398C15.649 38.0947 15.8013 38.3896 15.8893 38.706C15.9773 39.0224 15.9991 39.3535 15.9534 39.6787C15.8907 40.1355 15.7254 40.5721 15.4698 40.9558C15.2142 41.3396 14.8751 41.6605 14.4778 41.8944C14.3425 41.8023 14.1821 41.7541 14.0185 41.7563Z" fill="#060C21"/>
<path d="M12.375 43.3024C12.3886 43.3335 12.409 43.3781 12.4359 43.4288C12.5272 43.5991 12.6468 43.7527 12.7897 43.8828C12.9249 44.0057 13.0862 44.0962 13.2615 44.1477L13.9142 44.1439C13.994 44.1212 14.0716 44.0915 14.1461 44.055C14.2943 43.9815 14.4268 43.8802 14.5366 43.7565C14.6176 43.6653 14.6882 43.5653 14.747 43.4583C14.7736 43.4114 14.7977 43.3632 14.8192 43.3138C14.733 43.29 14.6372 43.2657 14.5336 43.2434L14.5279 42.3047V42.6539C14.2448 42.8049 13.9196 42.8577 13.6033 42.8041C13.287 42.7505 12.9974 42.5935 12.7798 42.3577L12.784 43.2105C12.6364 43.2366 12.5002 43.268 12.375 43.3024Z" fill="#EA9387"/>
<path d="M12.7773 41.8172V42.0654V42.3087V42.3579C12.9949 42.5937 13.2845 42.7507 13.6008 42.8043C13.9171 42.8579 14.2423 42.8051 14.5254 42.6541V42.3049L14.5231 41.8081L12.7773 41.8172Z" fill="#EA9387"/>
<path d="M12.7773 42.065C12.7773 42.1459 12.7773 42.2261 12.7773 42.3064V42.3555H12.7796C12.9972 42.5914 13.2868 42.7484 13.6031 42.802C13.9194 42.8556 14.2446 42.8028 14.5277 42.6518V42.3026C14.5277 42.2193 14.5277 42.1365 14.5277 42.0532L12.78 42.0631L12.7773 42.065Z" fill="#DD847A"/>
<path d="M12.1544 40.0979L12.1601 41.1104C12.1614 41.3445 12.2182 41.5749 12.3258 41.7828C12.4334 41.9907 12.5887 42.1702 12.7791 42.3064C13.0333 42.4904 13.3397 42.5882 13.6535 42.5853H13.6645C13.9742 42.583 14.2754 42.4842 14.5264 42.3026C14.6406 42.2206 14.7425 42.1228 14.8291 42.0121C14.8476 41.9886 14.8669 41.9632 14.8828 41.9386C15.0533 41.6899 15.1435 41.3949 15.1412 41.0934L15.1352 40.068C15.1315 39.7147 15.0024 39.3742 14.7709 39.1073C14.5395 38.8404 14.2207 38.6643 13.8715 38.6106C13.5223 38.5569 13.1654 38.629 12.8644 38.814C12.5634 38.999 12.3379 39.2849 12.2282 39.6208C12.1774 39.7747 12.1525 39.9359 12.1544 40.0979Z" fill="#EA9387"/>
<path d="M14.5723 40.3601C14.5723 40.3856 14.58 40.4105 14.5942 40.4317C14.6084 40.4528 14.6286 40.4693 14.6522 40.479C14.6758 40.4886 14.7017 40.4911 14.7267 40.486C14.7517 40.4809 14.7746 40.4686 14.7926 40.4505C14.8105 40.4324 14.8227 40.4093 14.8275 40.3843C14.8324 40.3593 14.8297 40.3334 14.8198 40.3099C14.81 40.2864 14.7933 40.2663 14.7721 40.2523C14.7508 40.2382 14.7258 40.2308 14.7003 40.231C14.6662 40.2312 14.6336 40.2449 14.6096 40.2691C14.5856 40.2933 14.5722 40.326 14.5723 40.3601Z" fill="#280C1A"/>
<path d="M13.457 40.3694C13.4572 40.3948 13.4649 40.4196 13.4791 40.4406C13.4933 40.4617 13.5134 40.478 13.5369 40.4876C13.5604 40.4972 13.5862 40.4996 13.6111 40.4945C13.636 40.4895 13.6588 40.4771 13.6767 40.4591C13.6945 40.4411 13.7067 40.4181 13.7115 40.3932C13.7164 40.3683 13.7137 40.3425 13.7039 40.3191C13.6941 40.2957 13.6776 40.2757 13.6565 40.2616C13.6353 40.2476 13.6105 40.2402 13.5851 40.2402C13.5682 40.2403 13.5515 40.2437 13.5359 40.2502C13.5203 40.2567 13.5061 40.2663 13.4942 40.2783C13.4823 40.2903 13.4729 40.3045 13.4665 40.3201C13.4602 40.3358 13.4569 40.3525 13.457 40.3694Z" fill="#280C1A"/>
<path d="M13.2598 44.1464C13.2791 44.1521 13.2977 44.157 13.3174 44.1611C13.5146 44.2043 13.7195 44.198 13.9137 44.1426L13.2598 44.1464Z" fill="#EA9387"/>
<path d="M12.1543 40.0978L12.16 41.1103C12.1613 41.3444 12.2181 41.5748 12.3257 41.7827C12.4333 41.9906 12.5887 42.17 12.779 42.3063C12.8266 42.3401 12.876 42.3715 12.9269 42.4001C12.7869 42.1701 12.7121 41.9063 12.7105 41.6369L12.7056 40.6244C12.704 40.4623 12.7296 40.301 12.7813 40.1473C12.8497 39.9388 12.9633 39.7479 13.1138 39.5882C13.2643 39.4285 13.4482 39.3039 13.6523 39.2232C13.8565 39.1426 14.0758 39.1078 14.2949 39.1215C14.514 39.1352 14.7273 39.197 14.9198 39.3024C14.7486 39.0251 14.4913 38.8113 14.1873 38.6938C13.8833 38.5763 13.5492 38.5614 13.2359 38.6514C12.9226 38.7414 12.6473 38.9314 12.4521 39.1924C12.2568 39.4534 12.1522 39.771 12.1543 40.097V40.0978Z" fill="#EDA197"/>
<path d="M14.9472 40.0529C14.8524 39.9723 14.7356 39.9219 14.6119 39.9082C14.5665 39.9123 14.5224 39.9256 14.4823 39.9474C14.4423 39.9692 14.4071 39.9989 14.3789 40.0347L14.9472 40.0529Z" fill="#280C1A"/>
<path d="M13.9105 40.0529C13.8156 39.9722 13.6987 39.9218 13.5748 39.9082C13.5294 39.9123 13.4853 39.9256 13.4452 39.9474C13.4052 39.9692 13.37 39.9989 13.3418 40.0347L13.9105 40.0529Z" fill="#280C1A"/>
<path d="M14.0775 41.8577C14.178 41.8736 14.2809 41.8553 14.3698 41.8058C14.4586 41.7563 14.5282 41.6783 14.5675 41.5845C14.4231 41.5272 14.2688 41.499 14.1135 41.5016C13.9708 41.5035 13.8297 41.5316 13.6973 41.5845C13.7255 41.6632 13.777 41.7315 13.8449 41.7803C13.9128 41.8291 13.9939 41.8561 14.0775 41.8577Z" fill="#E43F64"/>
<path opacity="0.33" d="M14.1156 41.1855H14.1849C14.2155 41.1855 14.2402 41.1608 14.2402 41.1302V40.843C14.2402 40.8125 14.2155 40.7877 14.1849 40.7877H14.1156C14.085 40.7877 14.0603 40.8125 14.0603 40.843V41.1302C14.0603 41.1608 14.085 41.1855 14.1156 41.1855Z" fill="white"/>
<path d="M12.1503 40.6546C12.284 40.6546 12.3924 40.5462 12.3924 40.4125C12.3924 40.2788 12.284 40.1704 12.1503 40.1704C12.0166 40.1704 11.9082 40.2788 11.9082 40.4125C11.9082 40.5462 12.0166 40.6546 12.1503 40.6546Z" fill="#EDA197"/>
<path d="M15.1366 40.5902C15.2703 40.5902 15.3787 40.4818 15.3787 40.3481C15.3787 40.2144 15.2703 40.106 15.1366 40.106C15.0029 40.106 14.8945 40.2144 14.8945 40.3481C14.8945 40.4818 15.0029 40.5902 15.1366 40.5902Z" fill="#EA9387"/>
<path d="M12.059 40.0377C12.4952 40.3026 13.3549 39.8516 13.5906 39.2053C13.6603 39.0084 13.6772 38.7967 13.6398 38.5912C13.5508 38.3847 13.3996 38.2111 13.2073 38.0945C13.0864 38.0015 12.9429 37.9426 12.7916 37.9236C12.6403 37.9047 12.4867 37.9265 12.3466 37.9867C12.2065 38.0469 12.0851 38.1434 11.9947 38.2663C11.9044 38.3891 11.8484 38.5338 11.8327 38.6855C11.7373 39.0457 11.6658 39.7979 12.059 40.0377Z" fill="#060C21"/>
<path d="M11.6831 38.8321C12.2503 38.8321 12.71 38.3723 12.71 37.8052C12.71 37.2381 12.2503 36.7783 11.6831 36.7783C11.116 36.7783 10.6562 37.2381 10.6562 37.8052C10.6562 38.3723 11.116 38.8321 11.6831 38.8321Z" fill="#060C21"/>
<path d="M62.648 42.75H61.2715V44.1265H62.648V42.75Z" stroke="#82A3E7" stroke-width="2.08637"/>
<path d="M66.2218 56.085C65.7584 54.0418 65.2952 51.9978 64.832 49.9531C65.0356 52.5207 65.2397 55.0878 65.4442 57.6544L66.2218 56.085Z" fill="#F9B353"/>
<path d="M57.467 69.6569L59.957 69.8311L60.2728 65.3164L57.7828 65.1423L57.467 69.6569Z" fill="#FAC7A5"/>
<path d="M59.957 69.8311L55.8146 69.5413L55.8515 69.0129C55.857 68.9356 55.8775 68.8601 55.9121 68.7907C55.9467 68.7213 55.9946 68.6595 56.0531 68.6086C56.1116 68.5577 56.1796 68.5189 56.2531 68.4943C56.3266 68.4697 56.4042 68.4599 56.4815 68.4653L60.0352 68.7138L59.957 69.8311Z" fill="#251760"/>
<path d="M57.5452 68.5397L60.0352 68.7139L60.0824 68.039L57.5924 67.8648L57.5452 68.5397Z" fill="#251760"/>
<path d="M79.3322 68.1399L80.7051 66.0557L76.9262 63.5666L75.5533 65.6508L79.3322 68.1399Z" fill="#FAC7A5"/>
<path d="M80.7051 66.0557L78.4212 69.5231L77.9789 69.2317C77.9141 69.1891 77.8584 69.1341 77.815 69.07C77.7715 69.0058 77.7411 68.9337 77.7254 68.8578C77.7098 68.7819 77.7093 68.7037 77.7239 68.6275C77.7385 68.5514 77.768 68.4789 77.8106 68.4142L79.7699 65.4397L80.7051 66.0557Z" fill="#251760"/>
<path d="M78.3945 67.5245L79.7676 65.4399L79.2026 65.0678L77.8296 67.1523L78.3945 67.5245Z" fill="#251760"/>
<path d="M78.9717 64.0854C78.1461 65.1547 77.3213 66.216 76.4953 67.2856C73.8593 65.4332 71.2259 63.5832 68.595 61.7358C67.7585 61.1418 67.1706 60.26 66.9442 59.2593C66.7005 58.198 66.464 57.1454 66.2204 56.0845C64.4259 59.7226 62.635 63.3607 60.8476 66.9988C59.5087 66.7804 58.1695 66.5671 56.8301 66.359C58.9527 60.8679 61.0723 55.3796 63.1889 49.894C63.7364 49.9194 64.2922 49.9527 64.8393 49.978C64.8362 49.9746 64.8339 49.9706 64.8326 49.9662C64.8312 49.9619 64.8308 49.9572 64.8314 49.9527C66.6759 50.0458 68.528 50.1385 70.3726 50.2312L72.0657 58.6025C74.3735 60.4298 76.6755 62.2574 78.9717 64.0854Z" fill="#FDC257"/>
<path opacity="0.16" d="M59.9879 58.1802L58.0204 66.5462C57.6236 66.4834 57.2269 66.4203 56.8301 66.357C57.8822 63.632 58.9348 60.9064 59.9879 58.1802Z" fill="#FEFEFE"/>
<path opacity="0.16" d="M72.0664 58.603L78.1732 65.1193L78.9723 64.0856L72.0664 58.603Z" fill="#FEFEFE"/>
<path d="M56.8301 66.359C58.169 66.5724 59.5081 66.7857 60.8476 66.9989C61.0536 66.6273 61.26 66.256 61.4666 65.8849L57.233 65.3174C57.0986 65.6645 56.9643 66.0117 56.8301 66.359Z" fill="#D64A4A"/>
<path d="M75.7129 66.7374L76.4942 67.286C77.3198 66.2197 78.1453 65.153 78.9706 64.0858L78.0512 63.3843L75.7129 66.7374Z" fill="#D64A4A"/>
<path d="M66.2218 56.085C65.7584 54.0418 65.2952 51.9978 64.832 49.9531C65.0356 52.5207 65.2397 55.0878 65.4442 57.6544L66.2218 56.085Z" fill="#F9B353"/>
<path d="M54.5752 41.6325L54.8825 41.6582C54.8314 41.7861 54.7799 41.9057 54.7288 42.0336C54.8738 42.3154 55.0187 42.5882 55.164 42.8701L58.262 46.4544C58.4243 46.6436 58.5693 46.8131 58.7316 47.0011C58.774 47.0522 58.8167 47.1116 58.8678 47.1627C59.0752 47.4018 59.3646 47.5546 59.6791 47.591C59.9935 47.6273 60.3102 47.5446 60.5667 47.3591C62.026 46.2921 63.4854 45.2171 64.9364 44.1505L63.7158 42.4691C62.4614 43.3822 61.2096 44.301 59.9605 45.2254C58.7497 44.1505 57.5359 43.0835 56.324 42.0093C56.2563 41.7362 56.1704 41.4626 56.1027 41.1898C55.5143 41.1959 54.9263 41.1559 54.3441 41.0702C54.3266 41.0715 54.309 41.0685 54.293 41.0615C54.3872 41.2568 54.481 41.4448 54.5752 41.6325Z" fill="#EA9387"/>
<path d="M56.7578 42.396L58.7632 44.7086C58.9255 44.8978 59.0704 45.0673 59.2327 45.2553C59.2755 45.3064 59.3178 45.3658 59.3689 45.4169C59.5764 45.6559 59.8658 45.8087 60.1802 45.8451C60.4946 45.8815 60.8112 45.7989 61.0678 45.6136C62.1348 44.8281 63.2017 44.0462 64.2684 43.2678L63.6452 42.4058C62.3908 43.319 61.139 44.2378 59.8899 45.1622C58.849 44.2311 57.7987 43.3181 56.7578 42.396Z" fill="#EDA197"/>
<path d="M71.0461 50.8646H62.6914V43.2443C62.6915 42.7662 62.8815 42.3076 63.2196 41.9696C63.5577 41.6315 64.0162 41.4415 64.4943 41.4414H68.9927C69.5374 41.4416 70.0597 41.6581 70.4447 42.0433C70.8298 42.4285 71.0461 42.9509 71.0461 43.4955V50.8646Z" fill="#292349"/>
<path d="M64.9508 38.8413C65.0744 38.9695 65.2373 39.0528 65.4136 39.0778C65.4276 39.3775 65.5405 39.6641 65.7346 39.8929C65.9288 40.1216 66.1932 40.2796 66.4866 40.3423C66.7441 40.374 67.0053 40.3323 67.2401 40.2221C67.4749 40.1118 67.6739 39.9375 67.8139 39.7191C67.9508 39.4995 68.0314 39.2495 68.0485 38.9913C68.0656 38.7331 68.0186 38.4747 67.9119 38.2389C67.9754 38.0795 68.0029 37.908 67.9925 37.7367C67.982 37.5654 67.9338 37.3985 67.8514 37.248C67.4374 36.5976 66.1589 36.6699 65.4298 37.1723C65.264 37.2746 65.1207 37.4094 65.0084 37.5686C64.8961 37.7278 64.8171 37.9081 64.7764 38.0986C64.7481 38.2275 64.7491 38.3612 64.7792 38.4897C64.8094 38.6183 64.8681 38.7384 64.9508 38.8413Z" fill="#060C21"/>
<path d="M67.4824 41.4479C67.4718 41.4721 67.4566 41.5058 67.4347 41.5455C67.3638 41.6772 67.2708 41.7957 67.1596 41.8958C67.0536 41.9904 66.9276 42.06 66.7911 42.0994L66.2822 42.0964C66.2201 42.0788 66.1596 42.0559 66.1013 42.0279C65.986 41.971 65.8825 41.8927 65.7964 41.7971C65.7332 41.727 65.6784 41.6498 65.6329 41.5671C65.612 41.5312 65.593 41.4942 65.5762 41.4562C65.6439 41.4377 65.7181 41.4184 65.799 41.4017L65.8032 40.6768L65.8013 40.9465C66.0218 41.0632 66.2746 41.1041 66.5207 41.0631C66.7668 41.0221 66.9926 40.9014 67.1634 40.7195L67.1596 41.3775C67.2784 41.3972 67.3847 41.421 67.4824 41.4479Z" fill="#EA9387"/>
<path d="M67.1668 40.301V40.4925V40.6817V40.7195C66.996 40.9014 66.7702 41.0221 66.5241 41.0631C66.278 41.1041 66.0252 41.0631 65.8047 40.9465L65.8066 40.6767V40.2935L67.1668 40.301Z" fill="#EA9387"/>
<path d="M67.1668 40.493C67.1668 40.5555 67.1668 40.6179 67.1668 40.6799V40.7178C66.996 40.8996 66.7702 41.0204 66.5241 41.0614C66.278 41.1024 66.0252 41.0614 65.8047 40.9448L65.8066 40.675C65.8066 40.6107 65.8066 40.5467 65.8066 40.4824L67.1687 40.49L67.1668 40.493Z" fill="#DD847A"/>
<path d="M67.6535 38.9739L67.6494 39.7556C67.6484 39.9809 67.58 40.2007 67.453 40.3867C67.3757 40.5005 67.2787 40.5996 67.1666 40.6792C67.0364 40.7725 66.8882 40.8377 66.7315 40.8706C66.6504 40.8873 66.5679 40.8956 66.4851 40.8952H66.4764C66.3963 40.8947 66.3164 40.8858 66.2381 40.8687C66.0816 40.836 65.9339 40.7707 65.8045 40.6769C65.7157 40.614 65.6366 40.5385 65.5695 40.4529C65.5547 40.4344 65.5411 40.4151 65.5275 40.3962C65.3947 40.2046 65.3244 39.9766 65.3262 39.7435L65.3304 38.9519C65.332 38.8007 65.3635 38.6512 65.423 38.5121C65.4824 38.3729 65.5687 38.2469 65.6769 38.1411C65.7851 38.0354 65.9131 37.952 66.0535 37.8957C66.1939 37.8394 66.3441 37.8113 66.4953 37.8131C66.6484 37.8133 66.7999 37.8438 66.9412 37.9027C67.0824 37.9616 67.2107 38.0477 67.3187 38.1562C67.4456 38.2827 67.5411 38.4372 67.5975 38.6073C67.6365 38.7255 67.6554 38.8494 67.6535 38.9739Z" fill="#EA9387"/>
<path d="M65.7704 39.1762C65.7704 39.196 65.7645 39.2153 65.7535 39.2318C65.7425 39.2483 65.7268 39.2611 65.7085 39.2686C65.6902 39.2762 65.6701 39.2782 65.6507 39.2743C65.6313 39.2704 65.6134 39.2608 65.5995 39.2468C65.5855 39.2328 65.576 39.2149 65.5722 39.1955C65.5684 39.176 65.5704 39.1559 65.578 39.1377C65.5857 39.1194 65.5985 39.1038 65.615 39.0928C65.6315 39.0819 65.6509 39.0761 65.6707 39.0762C65.6838 39.0762 65.6968 39.0788 65.7089 39.0838C65.721 39.0888 65.732 39.0962 65.7413 39.1055C65.7506 39.1148 65.7579 39.1258 65.7629 39.138C65.7679 39.1501 65.7704 39.1631 65.7704 39.1762Z" fill="#280C1A"/>
<path d="M66.6375 39.1841C66.6376 39.2039 66.6318 39.2233 66.6208 39.2398C66.6099 39.2563 66.5943 39.2692 66.576 39.2768C66.5577 39.2845 66.5375 39.2865 66.5181 39.2826C66.4987 39.2788 66.4808 39.2692 66.4668 39.2552C66.4528 39.2412 66.4433 39.2234 66.4394 39.2039C66.4356 39.1845 66.4376 39.1643 66.4452 39.146C66.4528 39.1278 66.4657 39.1121 66.4822 39.1012C66.4987 39.0902 66.5181 39.0844 66.5379 39.0845C66.5643 39.0845 66.5897 39.095 66.6084 39.1137C66.627 39.1323 66.6375 39.1577 66.6375 39.1841Z" fill="#280C1A"/>
<path d="M66.7908 42.0991L66.7465 42.1101C66.5926 42.1437 66.4328 42.1388 66.2812 42.0957L66.7908 42.0991Z" fill="#EA9387"/>
<path d="M67.6509 38.9739L67.6467 39.7557C67.6458 39.9809 67.5774 40.2007 67.4504 40.3868C67.3731 40.5006 67.2761 40.5996 67.1639 40.6792C67.127 40.7059 67.0885 40.7303 67.0485 40.7523C67.1582 40.5752 67.2167 40.3714 67.2177 40.1631L67.2218 39.3814C67.2232 39.2562 67.2037 39.1317 67.1639 39.0129C67.1073 38.8432 67.0118 38.689 66.8851 38.5627C66.7062 38.3838 66.4743 38.2676 66.224 38.2313C65.9737 38.1951 65.7184 38.2407 65.4961 38.3614C65.5893 38.2121 65.7151 38.0858 65.8639 37.9919C66.0128 37.8979 66.1809 37.8388 66.3558 37.819C66.5307 37.7991 66.7078 37.819 66.874 37.8772C67.0401 37.9353 67.191 38.0302 67.3153 38.1548C67.4422 38.2813 67.5377 38.4357 67.5942 38.6058C67.6335 38.7245 67.6527 38.8489 67.6509 38.9739Z" fill="#EDA197"/>
<path d="M65.4766 38.9398C65.5506 38.877 65.6415 38.8375 65.738 38.8262C65.7734 38.8295 65.8078 38.8399 65.8391 38.8567C65.8704 38.8736 65.898 38.8966 65.9202 38.9243L65.4766 38.9398Z" fill="#280C1A"/>
<path d="M66.2852 38.9398C66.3592 38.877 66.4501 38.8375 66.5466 38.8262C66.582 38.8295 66.6164 38.8399 66.6477 38.8567C66.679 38.8736 66.7066 38.8966 66.7288 38.9243L66.2852 38.9398Z" fill="#280C1A"/>
<path opacity="0.53" d="M66.1517 40.3331C66.0736 40.3453 65.9936 40.3312 65.9244 40.293C65.8553 40.2548 65.8008 40.1946 65.7695 40.122C65.9886 40.0368 66.2316 40.0368 66.4506 40.122C66.4283 40.1835 66.3877 40.2367 66.3342 40.2744C66.2808 40.3122 66.2171 40.3326 66.1517 40.3331Z" fill="white"/>
<path opacity="0.33" d="M66.1251 39.5073H66.0702C66.0465 39.5073 66.0273 39.5265 66.0273 39.5501V39.7714C66.0273 39.795 66.0465 39.8142 66.0702 39.8142H66.1251C66.1487 39.8142 66.1679 39.795 66.1679 39.7714V39.5501C66.1679 39.5265 66.1487 39.5073 66.1251 39.5073Z" fill="white"/>
<path d="M67.6578 39.4064C67.7622 39.4064 67.8469 39.3218 67.8469 39.2174C67.8469 39.113 67.7622 39.0283 67.6578 39.0283C67.5534 39.0283 67.4688 39.113 67.4688 39.2174C67.4688 39.3218 67.5534 39.4064 67.6578 39.4064Z" fill="#EDA197"/>
<path d="M65.3297 39.3561C65.4341 39.3561 65.5187 39.2715 65.5187 39.1671C65.5187 39.0627 65.4341 38.978 65.3297 38.978C65.2253 38.978 65.1406 39.0627 65.1406 39.1671C65.1406 39.2715 65.2253 39.3561 65.3297 39.3561Z" fill="#EA9387"/>
<path d="M65.5029 38.3609C65.6814 38.1528 65.9222 38.0078 66.1897 37.9474C66.3032 37.9232 66.7073 37.838 66.8813 38.0382C66.9967 38.171 66.9479 38.3583 67.0743 38.4086C67.1636 38.4445 67.2256 38.3708 67.3172 38.384C67.4269 38.3995 67.554 38.5384 67.6577 39.0299C67.7233 38.9743 67.7732 38.9026 67.8026 38.8218C67.8526 38.678 67.8083 38.5569 67.7028 38.2417C67.5355 37.74 67.5484 37.745 67.5098 37.6927C67.3675 37.5136 67.1706 37.3858 66.949 37.3287C66.8211 37.2952 66.6889 37.2807 66.5567 37.2856C66.0606 37.2856 65.7095 37.2856 65.5249 37.5126C65.2869 37.8055 65.4761 38.2955 65.5029 38.3609Z" fill="#060C21"/>
<path d="M63.3367 41.8608C62.3958 42.7689 61.4548 43.676 60.5137 44.5821C60.9894 45.3249 61.4651 46.0674 61.9409 46.8095L65.7926 43.6766L63.3367 41.8608Z" fill="#292349"/>
<path d="M64.8656 49.3958C64.5565 49.5055 64.2466 49.6153 63.9314 49.7314C63.8122 50.3406 63.6877 50.9558 63.5625 51.5593C63.5943 51.5915 63.6353 51.613 63.6798 51.621C63.7259 51.6174 63.77 51.6011 63.8073 51.5739C63.8446 51.5466 63.8736 51.5094 63.8909 51.4666C64.0502 51.2426 64.2099 51.0179 64.376 50.7996C64.6537 50.7878 64.9367 50.7821 65.2144 50.7704L69.8089 49.5782C70.042 49.5256 70.2694 49.4684 70.5085 49.4098C70.5749 49.3963 70.6406 49.3793 70.7053 49.3591C71.0141 49.283 71.2826 49.0925 71.4563 48.8261C71.6301 48.5597 71.6962 48.2373 71.6414 47.924C71.3304 46.143 71.0186 44.3624 70.7197 42.5811L68.6625 42.928C68.9274 44.457 69.1975 45.9928 69.4624 47.5214L64.8652 49.3837C64.8661 49.3845 64.8667 49.3854 64.8672 49.3864C64.8677 49.3874 64.868 49.3885 64.868 49.3897C64.868 49.3908 64.8678 49.3919 64.8674 49.393C64.867 49.394 64.8664 49.395 64.8656 49.3958Z" fill="#EA9387"/>
<path d="M64.8549 49.3851C64.8137 49.4048 64.7717 49.4123 64.7305 49.4327L68.8414 48.3639C69.0745 48.3113 69.3019 48.2534 69.541 48.1955C69.6125 48.18 69.6723 48.1652 69.7378 48.1448C70.0466 48.0686 70.315 47.8781 70.4887 47.6117C70.6625 47.3453 70.7286 47.0229 70.6739 46.7097C70.4419 45.3725 70.2035 44.0293 69.9833 42.6914L68.6522 42.9184C68.9171 44.4474 69.1865 45.9832 69.4513 47.5118L64.8549 49.3741C64.8563 49.3756 64.857 49.3776 64.857 49.3796C64.857 49.3816 64.8563 49.3836 64.8549 49.3851Z" fill="#EDA197"/>
<path d="M67.9492 43.001C68.3848 44.377 68.8201 45.7533 69.255 47.1298L71.7616 46.4517L70.8997 42.6348C70.8722 42.5134 70.8174 42.4 70.7393 42.3031C70.6612 42.2062 70.5621 42.1285 70.4494 42.0758C70.3367 42.0231 70.2134 41.9969 70.089 41.9992C69.9646 42.0014 69.8424 42.0321 69.7317 42.0888L67.9492 43.001Z" fill="#292349"/>
<path d="M61.9597 40.292C62.4815 40.292 62.9819 40.4993 63.3509 40.8683C63.7199 41.2372 63.9272 41.7377 63.9272 42.2595V50.9108C63.9272 51.1692 63.8763 51.4251 63.7774 51.6638C63.6786 51.9025 63.5336 52.1194 63.3509 52.3021C63.1682 52.4848 62.9514 52.6297 62.7126 52.7286C62.4739 52.8275 62.2181 52.8784 61.9597 52.8784C61.7013 52.8784 61.4455 52.8275 61.2068 52.7286C60.9681 52.6297 60.7512 52.4848 60.5685 52.3021C60.3858 52.1194 60.2408 51.9025 60.142 51.6638C60.0431 51.4251 59.9922 51.1692 59.9922 50.9108V42.2584C59.9925 41.7368 60.1999 41.2366 60.5689 40.8679C60.9378 40.4991 61.4381 40.292 61.9597 40.292Z" fill="#D4E2FF"/>
<path d="M61.9617 47.273C62.3418 47.273 62.6499 46.9648 62.6499 46.5847C62.6499 46.2046 62.3418 45.8965 61.9617 45.8965C61.5816 45.8965 61.2734 46.2046 61.2734 46.5847C61.2734 46.9648 61.5816 47.273 61.9617 47.273Z" stroke="#82A3E7" stroke-width="2.08637"/>
<path d="M61.9604 48.9054L61.5408 49.5343H62.3793L61.9604 48.9054ZM61.9604 48.5513L62.7467 49.731H61.1738L61.9604 48.5513Z" fill="#82A3E7"/>
</svg>
