<svg width="90" height="67" viewBox="0 0 90 67" fill="none" xmlns="http://www.w3.org/2000/svg">
<path d="M78.7417 0.183105H60.305C60.06 0.183105 59.8613 0.381737 59.8613 0.626761V2.3456C59.8613 2.59063 60.06 2.78926 60.305 2.78926H78.7417C78.9867 2.78926 79.1854 2.59063 79.1854 2.3456V0.626761C79.1854 0.381737 78.9867 0.183105 78.7417 0.183105Z" fill="#1E80F3"/>
<path d="M79.1854 2.21289H59.8613V4.36506H79.1854V2.21289Z" fill="#3058A0"/>
<path d="M78.6704 2.78906H60.3763C60.0919 2.78906 59.8613 3.0196 59.8613 3.30399V15.8167C59.8613 16.1011 60.0919 16.3316 60.3763 16.3316H78.6704C78.9548 16.3316 79.1854 16.1011 79.1854 15.8167V3.30399C79.1854 3.0196 78.9548 2.78906 78.6704 2.78906Z" fill="#D4E2FF"/>
<path opacity="0.22" d="M63.8267 4.14209H61.9023V6.06649H63.8267V4.14209Z" fill="#6087CC"/>
<path opacity="0.22" d="M66.4693 4.14209H64.5449V6.06649H66.4693V4.14209Z" fill="#6087CC"/>
<path opacity="0.22" d="M69.1178 4.14209H67.1934V6.06649H69.1178V4.14209Z" fill="#6087CC"/>
<path opacity="0.22" d="M71.8521 4.14209H69.9277V6.06649H71.8521V4.14209Z" fill="#6087CC"/>
<path opacity="0.22" d="M74.4967 4.14209H72.5723V6.06649H74.4967V4.14209Z" fill="#6087CC"/>
<path opacity="0.22" d="M77.1451 4.14209H75.2207V6.06649H77.1451V4.14209Z" fill="#6087CC"/>
<path opacity="0.22" d="M63.8267 6.98975H61.9023V8.91414H63.8267V6.98975Z" fill="#6087CC"/>
<path opacity="0.22" d="M66.4693 6.98975H64.5449V8.91414H66.4693V6.98975Z" fill="#6087CC"/>
<path opacity="0.22" d="M69.1178 6.98975H67.1934V8.91414H69.1178V6.98975Z" fill="#6087CC"/>
<path opacity="0.22" d="M71.8521 6.98975H69.9277V8.91414H71.8521V6.98975Z" fill="#6087CC"/>
<path opacity="0.22" d="M74.4967 6.98975H72.5723V8.91414H74.4967V6.98975Z" fill="#6087CC"/>
<path opacity="0.22" d="M77.1451 6.98975H75.2207V8.91414H77.1451V6.98975Z" fill="#6087CC"/>
<path opacity="0.22" d="M63.8267 9.88037H61.9023V11.8048H63.8267V9.88037Z" fill="#6087CC"/>
<path opacity="0.22" d="M66.4693 9.88037H64.5449V11.8048H66.4693V9.88037Z" fill="#6087CC"/>
<path opacity="0.22" d="M69.1178 9.88037H67.1934V11.8048H69.1178V9.88037Z" fill="#6087CC"/>
<path opacity="0.22" d="M71.8521 9.88037H69.9277V11.8048H71.8521V9.88037Z" fill="#6087CC"/>
<path opacity="0.22" d="M74.4967 9.88037H72.5723V11.8048H74.4967V9.88037Z" fill="#6087CC"/>
<path opacity="0.22" d="M77.1451 9.88037H75.2207V11.8048H77.1451V9.88037Z" fill="#6087CC"/>
<path opacity="0.22" d="M63.8267 12.7715H61.9023V14.6959H63.8267V12.7715Z" fill="#6087CC"/>
<path opacity="0.22" d="M66.4693 12.7715H64.5449V14.6959H66.4693V12.7715Z" fill="#6087CC"/>
<path opacity="0.22" d="M69.1178 12.7715H67.1934V14.6959H69.1178V12.7715Z" fill="#6087CC"/>
<path opacity="0.22" d="M71.8521 12.7715H69.9277V14.6959H71.8521V12.7715Z" fill="#6087CC"/>
<path opacity="0.22" d="M74.4967 12.7715H72.5723V14.6959H74.4967V12.7715Z" fill="#6087CC"/>
<path opacity="0.22" d="M77.1451 12.7715H75.2207V14.6959H77.1451V12.7715Z" fill="#6087CC"/>
<path d="M56.9205 11.5642V64.418C56.9179 64.7043 56.8026 64.978 56.5996 65.1797C56.3965 65.3815 56.1221 65.4951 55.8359 65.4959H26.9177C26.6321 65.4951 26.3584 65.3813 26.1565 65.1793C25.9545 64.9774 25.8407 64.7037 25.8398 64.418V11.5642C25.8394 11.4231 25.8667 11.2833 25.9203 11.1527C25.9739 11.0222 26.0526 10.9034 26.1521 10.8033C26.2516 10.7032 26.3698 10.6237 26.5 10.5693C26.6303 10.5149 26.7699 10.4867 26.911 10.4863H55.8338C56.1202 10.4863 56.395 10.5996 56.5982 10.8014C56.8014 11.0033 56.9165 11.2773 56.9184 11.5637L56.9205 11.5642Z" fill="#6087CC"/>
<path d="M54.9821 12.1157H27.7761C27.3291 12.1157 26.9668 12.4781 26.9668 12.925V56.6909C26.9668 57.1379 27.3291 57.5002 27.7761 57.5002H54.9821C55.4291 57.5002 55.7915 57.1379 55.7915 56.6909V12.925C55.7915 12.4781 55.4291 12.1157 54.9821 12.1157Z" fill="#A9C1EA"/>
<path d="M45.0771 10.5093H37.6796C37.3151 10.5093 37.0195 10.8048 37.0195 11.1693V13.0617C37.0195 13.4263 37.3151 13.7218 37.6796 13.7218H45.0771C45.4417 13.7218 45.7372 13.4263 45.7372 13.0617V11.1693C45.7372 10.8048 45.4417 10.5093 45.0771 10.5093Z" fill="#5D7DC3"/>
<path d="M41.507 63.5428C42.7384 63.5428 43.7366 62.5445 43.7366 61.3131C43.7366 60.0817 42.7384 59.0835 41.507 59.0835C40.2756 59.0835 39.2773 60.0817 39.2773 61.3131C39.2773 62.5445 40.2756 63.5428 41.507 63.5428Z" fill="#3058A0"/>
<path d="M53.7423 33.9814H29.0195C28.7283 33.9814 28.4922 34.2175 28.4922 34.5088V43.0529C28.4922 43.3441 28.7283 43.5802 29.0195 43.5802H53.7423C54.0335 43.5802 54.2696 43.3441 54.2696 43.0529V34.5088C54.2696 34.2175 54.0335 33.9814 53.7423 33.9814Z" fill="#1E80F3"/>
<path d="M36.5331 36.3019V41.2601C36.5329 41.4823 36.4451 41.6955 36.2886 41.8532C36.1321 42.011 35.9196 42.1005 35.6974 42.1025H30.733C30.5133 42.1024 30.3022 42.0165 30.1449 41.8631C29.9875 41.7097 29.8963 41.5009 29.8906 41.2812V36.3014C29.8906 36.0779 29.9794 35.8637 30.1373 35.7057C30.2953 35.5477 30.5096 35.459 30.733 35.459H35.6974C35.9197 35.4608 36.1323 35.5504 36.2889 35.7083C36.4454 35.8662 36.5332 36.0795 36.5331 36.3019Z" fill="#59A9F7"/>
<path opacity="0.48" d="M34.3953 42.1027H30.733C30.5133 42.1026 30.3022 42.0168 30.1449 41.8634C29.9875 41.71 29.8963 41.5012 29.8906 41.2815C29.9051 41.2665 29.9123 41.2521 29.9268 41.2361L32.1166 38.8918C32.169 38.8368 32.2318 38.7928 32.3012 38.7621C32.3706 38.7314 32.4454 38.7148 32.5213 38.713C32.5972 38.7113 32.6727 38.7246 32.7435 38.752C32.8142 38.7795 32.8789 38.8207 32.9337 38.8732C32.9632 38.901 32.9895 38.932 33.0122 38.9656C33.1806 39.2239 33.349 39.4759 33.5225 39.7346C33.8706 40.2604 34.2182 40.7852 34.5663 41.3032C34.6506 41.4267 34.6825 41.5787 34.6549 41.7257C34.6273 41.8727 34.5425 42.0027 34.4191 42.0872L34.3953 42.1027Z" fill="white"/>
<path d="M36.5333 40.9551V41.2593C36.5332 41.4815 36.4453 41.6947 36.2888 41.8524C36.1323 42.0102 35.9199 42.0998 35.6977 42.1017H32.2275C32.101 42.0181 32.0129 41.8879 31.9824 41.7394C31.9519 41.591 31.9815 41.4365 32.0648 41.3099C32.0827 41.2837 32.1024 41.2587 32.1236 41.235C32.5885 40.7294 33.0559 40.2362 33.5217 39.7341C33.7877 39.4521 34.0475 39.1722 34.3135 38.8918C34.3659 38.8368 34.4286 38.7928 34.4981 38.7621C34.5675 38.7314 34.6423 38.7148 34.7182 38.713C34.7941 38.7113 34.8696 38.7246 34.9403 38.752C35.0111 38.7795 35.0758 38.8207 35.1306 38.8732C35.1601 38.901 35.1864 38.932 35.2091 38.9656C35.6533 39.6226 36.0918 40.2899 36.5333 40.9551Z" fill="white"/>
<path d="M50.0425 36.8188H39.276C39.1365 36.8188 39.0234 36.9319 39.0234 37.0714V37.7707C39.0234 37.9102 39.1365 38.0233 39.276 38.0233H50.0425C50.182 38.0233 50.2951 37.9102 50.2951 37.7707V37.0714C50.2951 36.9319 50.182 36.8188 50.0425 36.8188Z" fill="#59A9F7"/>
<path opacity="0.62" d="M45.8218 39.0317H39.276C39.1365 39.0317 39.0234 39.1448 39.0234 39.2843V39.9836C39.0234 40.1231 39.1365 40.2362 39.276 40.2362H45.8218C45.9613 40.2362 46.0744 40.1231 46.0744 39.9836V39.2843C46.0744 39.1448 45.9613 39.0317 45.8218 39.0317Z" fill="#59A9F7"/>
<path d="M53.4892 16.9569V31.3372C53.4892 31.8795 52.8296 32.3149 52.0389 32.3149H30.7218C29.9155 32.3149 29.2715 31.8795 29.2715 31.3372V16.9569C29.2715 16.4229 29.9161 15.9756 30.7218 15.9756H52.0384C52.826 15.9782 53.4892 16.4229 53.4892 16.9569Z" fill="#D4E2FF"/>
<path d="M34.1919 23.3032C33.9719 23.3043 33.7613 23.3922 33.6058 23.5477C33.4503 23.7032 33.3625 23.9138 33.3614 24.1337C33.3598 24.2751 33.3956 24.4144 33.4651 24.5375C33.5345 24.6606 33.6352 24.7633 33.757 24.8351L34.1914 25.4373L34.636 24.8351C34.8066 24.7301 34.9304 24.5637 34.9821 24.3703C35.0107 24.2948 35.0242 24.2144 35.0219 24.1337C35.0224 24.0249 35.0014 23.917 34.9601 23.8162C34.9189 23.7155 34.8581 23.6239 34.7813 23.5467C34.7045 23.4696 34.6132 23.4083 34.5127 23.3665C34.4122 23.3247 34.3044 23.3032 34.1955 23.3032H34.1919ZM34.1919 24.4994C34.1233 24.4995 34.0562 24.4792 33.9991 24.4412C33.9421 24.4032 33.8976 24.349 33.8713 24.2857C33.845 24.2223 33.8381 24.1526 33.8514 24.0853C33.8648 24.0181 33.8978 23.9563 33.9463 23.9078C33.9948 23.8593 34.0566 23.8263 34.1239 23.8129C34.1912 23.7996 34.2609 23.8065 34.3242 23.8328C34.3876 23.859 34.4417 23.9035 34.4797 23.9606C34.5178 24.0177 34.538 24.0848 34.5379 24.1534C34.5366 24.2447 34.4997 24.332 34.4351 24.3966C34.3705 24.4612 34.2832 24.4981 34.1919 24.4994Z" fill="#1E80F3"/>
<path d="M40.8998 18.0073C40.68 18.0085 40.4696 18.0965 40.3143 18.252C40.159 18.4075 40.0713 18.618 40.0704 18.8378C40.0685 18.9792 40.1041 19.1185 40.1735 19.2417C40.2429 19.3649 40.3436 19.4675 40.4655 19.5392L40.9004 20.1424L41.345 19.5392C41.5156 19.4342 41.6394 19.2678 41.6911 19.0744C41.7197 18.9989 41.7332 18.9185 41.7309 18.8378C41.7314 18.729 41.7104 18.6211 41.6692 18.5203C41.6279 18.4196 41.5671 18.328 41.4903 18.2508C41.4135 18.1736 41.3222 18.1124 41.2217 18.0706C41.1212 18.0288 41.0134 18.0073 40.9045 18.0073H40.8998ZM40.8998 19.2035C40.8315 19.2034 40.7648 19.183 40.7081 19.145C40.6513 19.107 40.6071 19.0531 40.581 18.99C40.555 18.9268 40.5482 18.8574 40.5615 18.7904C40.5748 18.7235 40.6077 18.6619 40.656 18.6136C40.7043 18.5654 40.7658 18.5325 40.8328 18.5191C40.8998 18.5058 40.9692 18.5126 41.0323 18.5386C41.0955 18.5647 41.1494 18.6089 41.1874 18.6657C41.2254 18.7224 41.2458 18.7892 41.2459 18.8574C41.2446 18.9488 41.2077 19.0361 41.1431 19.1007C41.0784 19.1653 40.9912 19.2022 40.8998 19.2035Z" fill="#3058A0"/>
<path d="M42.4051 25.8793H32.6953V25.6324H42.4051C42.5969 25.6324 42.7808 25.5562 42.9164 25.4206C43.052 25.285 43.1282 25.1011 43.1282 24.9093V22.8951C43.1282 22.7033 43.052 22.5194 42.9164 22.3838C42.7808 22.2482 42.5969 22.172 42.4051 22.172H38.6555C38.3978 22.172 38.1507 22.0696 37.9685 21.8875C37.7863 21.7053 37.684 21.4582 37.684 21.2005C37.684 20.9428 37.7863 20.6957 37.9685 20.5135C38.1507 20.3314 38.3978 20.229 38.6555 20.229H41.7652V20.4764H38.6555C38.4637 20.4764 38.2798 20.5526 38.1442 20.6882C38.0086 20.8238 37.9324 21.0077 37.9324 21.1995C37.9324 21.3912 38.0086 21.5752 38.1442 21.7108C38.2798 21.8464 38.4637 21.9225 38.6555 21.9225H42.4051C42.6627 21.9228 42.9097 22.0253 43.0918 22.2076C43.2738 22.3899 43.3761 22.6369 43.3761 22.8945V24.9088C43.3758 25.1662 43.2734 25.413 43.0914 25.5949C42.9093 25.7769 42.6625 25.8791 42.4051 25.8793Z" fill="white"/>
<path d="M53.4892 28.1738V31.3373C53.4892 31.8796 52.8296 32.3149 52.0389 32.3149H30.7218C29.9155 32.3149 29.2715 31.8796 29.2715 31.3373V28.1738H53.4892Z" fill="#5879C1"/>
<path opacity="0.29" d="M31.8215 31.3183C32.4262 31.3183 32.9164 30.8281 32.9164 30.2234C32.9164 29.6186 32.4262 29.1284 31.8215 29.1284C31.2168 29.1284 30.7266 29.6186 30.7266 30.2234C30.7266 30.8281 31.2168 31.3183 31.8215 31.3183Z" fill="white"/>
<path d="M31.5 29.8071L32.3878 30.1196L31.5129 30.682V30.2854L31.7329 30.2012L31.5088 30.1387L31.5 29.8071Z" fill="white"/>
<path d="M40.3044 29.5674H34.3055C34.2425 29.5674 34.1914 29.6185 34.1914 29.6815V29.8897C34.1914 29.9527 34.2425 30.0038 34.3055 30.0038H40.3044C40.3675 30.0038 40.4186 29.9527 40.4186 29.8897V29.6815C40.4186 29.6185 40.3675 29.5674 40.3044 29.5674Z" fill="white"/>
<path opacity="0.41" d="M37.9266 30.4419H34.3055C34.2425 30.4419 34.1914 30.493 34.1914 30.556V30.7642C34.1914 30.8272 34.2425 30.8783 34.3055 30.8783H37.9266C37.9896 30.8783 38.0407 30.8272 38.0407 30.7642V30.556C38.0407 30.493 37.9896 30.4419 37.9266 30.4419Z" fill="white"/>
<path d="M36.4704 46.6084H0.773438V54.963H36.4704V46.6084Z" fill="#5879C1"/>
<path opacity="0.54" d="M32.3551 48.3848H7.94531V49.4771H32.3551V48.3848Z" fill="#D4E2FF"/>
<path opacity="0.54" d="M32.3551 50.3765H7.94531V51.4688H32.3551V50.3765Z" fill="#D4E2FF"/>
<path opacity="0.54" d="M32.3551 52.3662H7.94531V53.4586H32.3551V52.3662Z" fill="#D4E2FF"/>
<path d="M4.96022 52.8736C6.09891 52.8736 7.022 51.9505 7.022 50.8118C7.022 49.6731 6.09891 48.75 4.96022 48.75C3.82153 48.75 2.89844 49.6731 2.89844 50.8118C2.89844 51.9505 3.82153 52.8736 4.96022 52.8736Z" fill="white"/>
<path d="M68.0595 36.521H59.6719V40.9074H68.0595V36.521Z" fill="#5879C1"/>
<path opacity="0.54" d="M66.8529 37.4536H63.4395V38.0274H66.8529V37.4536Z" fill="#D4E2FF"/>
<path opacity="0.54" d="M66.8529 38.4985H63.4395V39.0723H66.8529V38.4985Z" fill="#D4E2FF"/>
<path opacity="0.54" d="M66.8529 39.5439H63.4395V40.1178H66.8529V39.5439Z" fill="#D4E2FF"/>
<path d="M61.8696 39.8106C62.4675 39.8106 62.9522 39.3259 62.9522 38.728C62.9522 38.1302 62.4675 37.6455 61.8696 37.6455C61.2718 37.6455 60.7871 38.1302 60.7871 38.728C60.7871 39.3259 61.2718 39.8106 61.8696 39.8106Z" fill="white"/>
<path opacity="0.2" d="M61.5052 0.830567H66.1447C66.1877 0.830499 66.2302 0.838905 66.27 0.855305C66.3097 0.871704 66.3458 0.895777 66.3762 0.926142C66.4066 0.956507 66.4307 0.992566 66.4472 1.03227C66.4637 1.07196 66.4722 1.11452 66.4722 1.1575C66.4722 1.24434 66.4377 1.32763 66.3763 1.38904C66.3148 1.45045 66.2316 1.48495 66.1447 1.48495H61.5052C61.4183 1.48495 61.3351 1.45045 61.2736 1.38904C61.2122 1.32763 61.1777 1.24434 61.1777 1.1575C61.1777 1.11452 61.1862 1.07196 61.2027 1.03227C61.2191 0.992566 61.2433 0.956507 61.2737 0.926142C61.3041 0.895777 61.3402 0.871704 61.3799 0.855305C61.4196 0.838905 61.4622 0.830499 61.5052 0.830567Z" fill="#D4E2FF"/>
<path d="M29.5222 55.7709L27.1035 55.7212L27.0134 60.1067L29.4321 60.1564L29.5222 55.7709Z" fill="#FAC7A5"/>
<path d="M27.0371 59.0215L30.489 59.0924C30.5642 59.0939 30.6382 59.1101 30.7071 59.1403C30.7759 59.1704 30.8381 59.2138 30.8901 59.268C30.9422 59.3221 30.983 59.386 31.0104 59.456C31.0377 59.526 31.051 59.6007 31.0494 59.6758L31.0389 60.1885L27.0148 60.1059L27.0371 59.0215Z" fill="#D64A4A"/>
<path d="M29.4695 58.4154L27.0508 58.3657L27.0373 59.0215L29.456 59.0712L29.4695 58.4154Z" fill="#D64A4A"/>
<path d="M33.9427 49.6533L31.5938 50.2319L32.6429 54.4911L34.9919 53.9125L33.9427 49.6533Z" fill="#FAC7A5"/>
<path d="M32.3848 53.438L35.7372 52.6122C35.8101 52.5942 35.8859 52.5907 35.9602 52.6019C36.0345 52.6132 36.1058 52.639 36.1701 52.6778C36.2344 52.7167 36.2904 52.7678 36.3349 52.8283C36.3795 52.8888 36.4116 52.9575 36.4296 53.0305L36.5523 53.5284L32.6442 54.4911L32.3848 53.438Z" fill="#D64A4A"/>
<path d="M34.5736 52.2222L32.2246 52.8008L32.3815 53.4377L34.7305 52.8591L34.5736 52.2222Z" fill="#D64A4A"/>
<path d="M31.8687 43.5468C32.9502 46.1915 34.0313 48.8357 35.1122 51.4794L31.487 52.0842L29.137 46.2092L23.385 47.3114C23.1481 47.3582 22.9036 47.3512 22.6698 47.2908C22.4359 47.2305 22.2186 47.1184 22.0339 46.9628C21.8005 46.7657 21.6128 46.5202 21.4838 46.2433C21.2959 45.7824 21.253 45.2751 21.3609 44.7891C21.4688 44.3031 21.7223 43.8616 22.0876 43.5235C22.6604 43.1269 25.6322 42.8118 29.183 42.0991C29.7291 41.9913 30.2956 42.0769 30.7856 42.341C31.2756 42.6051 31.6585 43.0314 31.8687 43.5468Z" fill="#1E1B3A"/>
<path d="M30.6822 57.5419C29.7598 57.5124 28.8409 57.4789 27.9185 57.4484C27.3297 57.4291 26.7408 57.4091 26.1516 57.3885C26.1248 56.9722 26.0943 56.5564 26.0685 56.1401L26.0582 55.9904L25.6186 49.4786C25.5758 48.8428 25.5319 48.2034 25.489 47.5676C23.1548 47.5473 20.8188 47.5301 18.4809 47.516C17.6941 47.5096 16.942 47.1916 16.3892 46.6318C15.8363 46.072 15.5278 45.316 15.5313 44.5292L15.5349 43.0376L22.4268 43.0577L27.9226 43.0748C28.3979 43.0758 28.8633 43.2105 29.2655 43.4637L29.5449 43.6677C29.8268 43.9002 30.0549 44.1911 30.2136 44.5203C30.3722 44.8495 30.4575 45.2092 30.4637 45.5745C30.4981 47.3595 30.5315 49.1451 30.5639 50.9315L30.6605 56.3121L30.6822 57.5419Z" fill="#292349"/>
<path d="M27.9198 57.4481C27.331 57.4289 26.742 57.4089 26.1529 57.3882C26.1224 56.9234 26.0899 56.4586 26.0594 55.9901L25.6199 49.4784C25.577 48.8426 25.5331 48.2032 25.4902 47.5674C25.4897 47.5674 26.439 51.4327 27.9198 57.4481Z" fill="#2E2B4C"/>
<path d="M30.684 57.5424C29.7616 57.5129 28.8428 57.4793 27.9203 57.4489C27.3316 57.4296 26.7426 57.4096 26.1535 57.389C26.1266 56.9727 26.0961 56.5569 26.0703 56.1406L30.6618 56.3142L30.684 57.5424Z" fill="#FDC257"/>
<path d="M34.7514 50.5938L35.113 51.48L31.4878 52.0848L31.1836 51.3251L34.7514 50.5938Z" fill="#FDC257"/>
<path d="M32.2812 44.5552C32.8835 46.6139 33.486 48.6731 34.0889 50.7328L34.7521 50.5964L32.2812 44.5552Z" fill="#2E2B4C"/>
<path d="M30.1255 29.488L29.8672 29.6507C29.9705 29.739 30.0702 29.8206 30.173 29.9089C30.173 30.2214 30.173 30.5287 30.173 30.8386L29.1018 35.3903C29.0455 35.6289 28.9985 35.8443 28.9407 36.0829C28.9262 36.1469 28.9164 36.2187 28.8952 36.2869C28.823 36.5905 28.6399 36.856 28.3819 37.0315C28.1239 37.2069 27.8096 37.2796 27.5007 37.2352C25.7359 36.9692 23.968 36.6954 22.2109 36.4248L22.511 34.3966C24.0253 34.6223 25.5443 34.8547 27.056 35.0913C27.6242 33.5971 28.1974 32.1096 28.7661 30.6155C28.701 30.3453 28.6509 30.068 28.5858 29.7974C29.1031 29.5337 29.599 29.2301 30.0692 28.8894C30.085 28.8826 30.0988 28.8719 30.1094 28.8584C30.1177 29.0738 30.1224 29.2809 30.1255 29.488Z" fill="#EA9387"/>
<path d="M28.5626 31.1523L27.8653 34.0921C27.8095 34.3308 27.762 34.5461 27.7042 34.7847C27.6926 34.8535 27.6774 34.9216 27.6587 34.9888C27.5865 35.2923 27.4034 35.5579 27.1454 35.7333C26.8874 35.9088 26.5731 35.9814 26.2642 35.937C24.972 35.7373 23.6808 35.5405 22.3906 35.3467L22.5414 34.308C24.0568 34.5327 25.5752 34.7661 27.0865 35.0027C27.5735 33.713 28.075 32.4342 28.5626 31.1523Z" fill="#EDA197"/>
<path d="M23.8965 43.147H15.6509L15.6509 35.0899C15.6519 34.7608 15.7833 34.4455 16.0163 34.2132C16.2493 33.9808 16.565 33.8504 16.8941 33.8504H22.8057C23.0946 33.8504 23.3718 33.965 23.5763 34.1691C23.7808 34.3732 23.8959 34.6502 23.8965 34.9391V43.147Z" fill="#FDC257"/>
<path d="M21.0234 31.2827C20.9012 31.4087 20.7406 31.4905 20.5668 31.5151C20.5526 31.8109 20.4409 32.0937 20.2492 32.3195C20.0576 32.5453 19.7966 32.7014 19.507 32.7634C19.2532 32.7945 18.9957 32.7535 18.764 32.6451C18.5324 32.5367 18.336 32.3652 18.1972 32.1504C18.0624 31.9335 17.9831 31.6867 17.9663 31.4319C17.9494 31.1771 17.9956 30.922 18.1006 30.6893C18.0381 30.5319 18.011 30.3627 18.0214 30.1937C18.0317 30.0247 18.0793 29.8601 18.1606 29.7116C18.5691 29.0696 19.8309 29.1434 20.5508 29.6377C20.7144 29.7388 20.8559 29.872 20.9667 30.0292C21.0776 30.1864 21.1555 30.3643 21.1959 30.5524C21.2232 30.6793 21.2219 30.8107 21.192 30.937C21.1622 31.0633 21.1046 31.1814 21.0234 31.2827Z" fill="#060C21"/>
<path d="M18.5273 33.8548C18.5377 33.8785 18.5537 33.9121 18.5743 33.9519C18.6448 34.0817 18.7368 34.1985 18.8465 34.2974C18.9506 34.3903 19.0741 34.4588 19.2081 34.4978H19.7101C19.7717 34.4808 19.8315 34.4579 19.8888 34.4296C20.0027 34.374 20.1048 34.2968 20.1894 34.2024C20.2516 34.1331 20.3058 34.057 20.351 33.9756C20.3718 33.94 20.3905 33.903 20.4068 33.8651C20.3404 33.8465 20.267 33.8293 20.1868 33.8135L20.1827 33.0981V33.3641C19.9649 33.4785 19.7157 33.5183 19.4732 33.4775C19.2307 33.4368 19.0082 33.3177 18.8398 33.1384L18.8434 33.7876C18.7288 33.8047 18.6234 33.8284 18.5273 33.8548Z" fill="#EA9387"/>
<path d="M18.834 32.7235V32.912V33.0974V33.1351C19.0024 33.3144 19.2249 33.4335 19.4674 33.4743C19.7099 33.515 19.9591 33.4752 20.1768 33.3608V33.0949V32.7168L18.834 32.7235Z" fill="#EA9387"/>
<path d="M18.834 32.9121C18.834 32.9736 18.834 33.0351 18.834 33.0965V33.1337C19.0024 33.3129 19.2249 33.4321 19.4674 33.4728C19.7099 33.5136 19.9591 33.4737 20.1768 33.3594V33.0934C20.1768 33.0294 20.1768 32.9669 20.1768 32.9028L18.834 32.9106V32.9121Z" fill="#DD847A"/>
<path d="M18.3556 31.4133L18.3597 32.1849C18.3608 32.407 18.4283 32.6238 18.5534 32.8073C18.6298 32.9196 18.7256 33.0174 18.8365 33.096C19.032 33.2364 19.2672 33.3107 19.5079 33.3082H19.5172C19.5962 33.3084 19.675 33.2999 19.7522 33.2829C19.9064 33.2503 20.0521 33.1857 20.1798 33.0934C20.2672 33.0307 20.3454 32.9561 20.4122 32.8718C20.4267 32.8543 20.4401 32.8346 20.4536 32.8155C20.5846 32.6266 20.654 32.4019 20.6524 32.172L20.6472 31.3906C20.6457 31.2413 20.6147 31.0938 20.5562 30.9565C20.4976 30.8192 20.4125 30.6948 20.3059 30.5904C20.1992 30.486 20.073 30.4036 19.9345 30.348C19.796 30.2923 19.6478 30.2645 19.4986 30.2662C19.1934 30.2671 18.9011 30.3889 18.6856 30.605C18.5602 30.7299 18.4661 30.8826 18.4109 31.0507C18.3723 31.1676 18.3536 31.2902 18.3556 31.4133Z" fill="#EA9387"/>
<path d="M20.2148 31.6131C20.2167 31.6382 20.2279 31.6616 20.2462 31.6787C20.2646 31.6958 20.2888 31.7053 20.3139 31.7053C20.339 31.7053 20.3631 31.6958 20.3815 31.6787C20.3999 31.6616 20.4111 31.6382 20.4129 31.6131C20.4111 31.5881 20.3999 31.5647 20.3815 31.5476C20.3631 31.5305 20.339 31.521 20.3139 31.521C20.2888 31.521 20.2646 31.5305 20.2462 31.5476C20.2279 31.5647 20.2167 31.5881 20.2148 31.6131Z" fill="#280C1A"/>
<path d="M19.3613 31.6212C19.3612 31.6409 19.367 31.6602 19.3779 31.6766C19.3887 31.693 19.4042 31.7058 19.4224 31.7134C19.4406 31.721 19.4606 31.723 19.4799 31.7192C19.4992 31.7154 19.5169 31.7059 19.5308 31.692C19.5448 31.6781 19.5542 31.6603 19.558 31.641C19.5619 31.6217 19.5599 31.6017 19.5523 31.5835C19.5447 31.5654 19.5319 31.5499 19.5155 31.539C19.4991 31.5281 19.4798 31.5224 19.4601 31.5225C19.4471 31.5224 19.4343 31.5249 19.4222 31.5298C19.4102 31.5348 19.3993 31.5421 19.3901 31.5512C19.3809 31.5604 19.3737 31.5713 19.3687 31.5834C19.3638 31.5954 19.3613 31.6083 19.3613 31.6212Z" fill="#280C1A"/>
<path d="M19.209 34.4972L19.2529 34.5091C19.4047 34.5419 19.5623 34.537 19.7117 34.4946L19.209 34.4972Z" fill="#EA9387"/>
<path d="M18.3556 31.4136L18.3597 32.1852C18.3608 32.4073 18.4282 32.624 18.5534 32.8075C18.6297 32.9199 18.7256 33.0177 18.8364 33.0963C18.8728 33.1224 18.9107 33.1464 18.95 33.168C18.842 32.993 18.7843 32.7916 18.7832 32.586L18.7791 31.8154C18.7782 31.6925 18.7978 31.5703 18.8369 31.4539C18.8924 31.2861 18.9865 31.1338 19.1117 31.0092C19.2882 30.8328 19.517 30.7182 19.7639 30.6826C20.0109 30.6469 20.2627 30.6921 20.4819 30.8114C20.3902 30.6639 20.2663 30.539 20.1196 30.446C19.9728 30.3531 19.807 30.2945 19.6344 30.2747C19.4618 30.2548 19.287 30.2742 19.123 30.3313C18.959 30.3885 18.81 30.482 18.6871 30.6048C18.5617 30.7296 18.4676 30.8824 18.4124 31.0505C18.3732 31.1675 18.354 31.2902 18.3556 31.4136Z" fill="#EDA197"/>
<path d="M20.5084 31.3797C20.4352 31.3178 20.3451 31.2793 20.2498 31.269C20.2148 31.2722 20.1809 31.2825 20.15 31.2992C20.1192 31.3159 20.0921 31.3387 20.0703 31.3663L20.5084 31.3797Z" fill="#280C1A"/>
<path d="M19.7071 31.3797C19.6339 31.3178 19.5438 31.2793 19.4485 31.269C19.4136 31.2723 19.3798 31.2826 19.349 31.2993C19.3183 31.316 19.2912 31.3388 19.2695 31.3663L19.7071 31.3797Z" fill="#280C1A"/>
<path opacity="0.53" d="M19.8329 32.7543C19.9098 32.7663 19.9886 32.7526 20.0569 32.7152C20.1252 32.6778 20.1792 32.6189 20.2105 32.5477C19.9946 32.4633 19.7549 32.4633 19.5391 32.5477C19.5617 32.6076 19.6018 32.6594 19.6542 32.6962C19.7066 32.7331 19.7689 32.7533 19.8329 32.7543Z" fill="white"/>
<path opacity="0.33" d="M19.8647 32.2422H19.9185C19.942 32.2422 19.9609 32.2232 19.9609 32.1998V31.9815C19.9609 31.9581 19.942 31.9391 19.9185 31.9391H19.8647C19.8413 31.9391 19.8223 31.9581 19.8223 31.9815V32.1998C19.8223 32.2232 19.8413 32.2422 19.8647 32.2422Z" fill="white"/>
<path d="M18.3522 31.8392C18.455 31.8392 18.5384 31.7558 18.5384 31.653C18.5384 31.5502 18.455 31.4668 18.3522 31.4668C18.2494 31.4668 18.166 31.5502 18.166 31.653C18.166 31.7558 18.2494 31.8392 18.3522 31.8392Z" fill="#EDA197"/>
<path d="M20.653 31.7898C20.7558 31.7898 20.8392 31.7065 20.8392 31.6037C20.8392 31.5008 20.7558 31.4175 20.653 31.4175C20.5502 31.4175 20.4668 31.5008 20.4668 31.6037C20.4668 31.7065 20.5502 31.7898 20.653 31.7898Z" fill="#EA9387"/>
<path d="M20.4773 30.809C20.3015 30.6034 20.064 30.4601 19.8002 30.4005C19.6871 30.3767 19.2889 30.2926 19.1169 30.4904C19.0033 30.621 19.0518 30.8065 18.9263 30.856C18.838 30.8906 18.7755 30.8188 18.6862 30.8318C18.5782 30.8467 18.4527 30.9836 18.3494 31.4686C18.2846 31.4134 18.2355 31.3421 18.2069 31.262C18.1552 31.1194 18.2012 31.0037 18.3045 30.6892C18.4703 30.1939 18.4594 30.1991 18.4956 30.1474C18.6359 29.9702 18.83 29.8433 19.0487 29.7859C19.1751 29.7531 19.3056 29.7389 19.4361 29.7435C19.9262 29.7435 20.2723 29.7435 20.4546 29.9667C20.6916 30.2605 20.5036 30.744 20.4773 30.809Z" fill="#060C21"/>
<path d="M21.3928 33.8496L22.3287 33.862C23.5231 34.1316 24.7175 34.4005 25.912 34.6687L25.2215 37.1747L21.1113 36.7378L21.3928 33.8496Z" fill="#FDC257"/>
<path d="M21.6572 41.8464L22.6463 41.3671L24.5702 42.7745L24.3445 43.1402L21.5008 43.2435L16.8168 43.1577C16.5808 43.1614 16.352 43.1577 16.1067 43.1577C16.0398 43.1599 15.973 43.1587 15.9063 43.1541C15.5923 43.152 15.2908 43.0308 15.0628 42.815C14.8347 42.5992 14.697 42.3049 14.6776 41.9915C14.5665 40.2107 14.455 38.4278 14.332 36.6522L16.3866 36.5122C16.4852 38.04 16.5787 39.5754 16.6774 41.1037L21.6572 41.8464Z" fill="#EA9387"/>
<path d="M21.5281 41.8297C21.572 41.839 21.6138 41.8375 21.6587 41.8468L17.4685 41.7677C17.232 41.7714 17.0011 41.7677 16.7579 41.7677C16.6911 41.77 16.6242 41.7687 16.5575 41.7641C16.2436 41.7618 15.9423 41.6406 15.7143 41.4248C15.4864 41.209 15.3488 40.9148 15.3293 40.6015C15.2441 39.2649 15.1635 37.9215 15.0664 36.5869L16.3963 36.4971C16.4939 38.0258 16.5885 39.5613 16.6861 41.0891L21.526 41.8184C21.5253 41.8192 21.5249 41.8202 21.5246 41.8213C21.5243 41.8223 21.5243 41.8234 21.5245 41.8245C21.5247 41.8256 21.5251 41.8266 21.5257 41.8275C21.5263 41.8284 21.5271 41.8291 21.5281 41.8297Z" fill="#EDA197"/>
<path d="M15.9743 33.8438H18.0867V38.2023H14.209V35.6091C14.209 35.1409 14.395 34.6919 14.726 34.3608C15.0571 34.0297 15.5061 33.8438 15.9743 33.8438Z" fill="#FDC257"/>
<path d="M75.0481 52.7098L73.6582 46.5781L74.2697 54.2799L75.0481 52.7098Z" fill="#F9B353"/>
<path d="M66.2926 66.2843L68.7832 66.4585L69.099 61.9431L66.6085 61.7689L66.2926 66.2843Z" fill="#FAC7A5"/>
<path d="M68.7832 66.4585L64.6403 66.1687L64.6773 65.6401C64.6883 65.4842 64.7608 65.339 64.8787 65.2364C64.9966 65.1339 65.1504 65.0822 65.3063 65.0928L68.8613 65.3415L68.7832 66.4585Z" fill="#251760"/>
<path d="M66.3708 65.1676L68.8613 65.3418L68.9085 64.6669L66.418 64.4927L66.3708 65.1676Z" fill="#251760"/>
<path d="M88.1581 64.7683L89.5312 62.6836L85.7517 60.1941L84.3785 62.2788L88.1581 64.7683Z" fill="#FAC7A5"/>
<path d="M89.5312 62.6836L87.2471 66.1514L86.8046 65.8599C86.6742 65.7738 86.5832 65.6395 86.5517 65.4865C86.5201 65.3334 86.5505 65.1741 86.6362 65.0434L88.5963 62.0677L89.5312 62.6836Z" fill="#251760"/>
<path d="M87.2243 64.1529L88.5977 62.0679L88.0326 61.6957L86.6593 63.7807L87.2243 64.1529Z" fill="#251760"/>
<path d="M87.7997 60.7122C86.9734 61.7819 86.147 62.8432 85.3232 63.9144C82.6868 62.0613 80.0527 60.2111 77.4211 58.3638C76.5837 57.7703 75.9952 56.8883 75.7684 55.8873C75.5241 54.8259 75.2881 53.7734 75.0453 52.712C73.2514 56.3508 71.4609 59.9895 69.6739 63.6283C68.3347 63.4093 66.9955 63.1986 65.6562 62.9884C67.779 57.4965 69.8988 52.0075 72.0156 46.5215C72.5631 46.5468 73.1188 46.5804 73.6684 46.6057C73.6652 46.6023 73.6628 46.5983 73.6614 46.5939C73.66 46.5896 73.6595 46.5849 73.6601 46.5804L79.2024 46.8582L80.8955 55.2309C83.2017 57.0568 85.5031 58.8839 87.7997 60.7122Z" fill="#1E80F3"/>
<path opacity="0.16" d="M68.8164 54.8066L66.8481 63.1736C66.4514 63.1106 66.0554 63.0479 65.6602 62.9856L68.8164 54.8066Z" fill="#FEFEFE"/>
<path opacity="0.16" d="M80.8945 55.2285L87.0019 61.7454L87.8014 60.7125L80.8945 55.2285Z" fill="#FEFEFE"/>
<path d="M65.6543 62.9866L69.6699 63.6265L70.2897 62.512L66.0546 61.9438C65.9213 62.2916 65.7879 62.6392 65.6543 62.9866Z" fill="#D64A4A"/>
<path d="M84.543 63.3633L85.3244 63.9123L87.8009 60.7102C87.4945 60.476 87.1879 60.2422 86.8811 60.0088L84.543 63.3633Z" fill="#D64A4A"/>
<path d="M75.052 52.7093L73.6621 46.5776L74.2736 54.2794L75.052 52.7093Z" fill="#1962E0"/>
<path d="M62.1844 41.1652L62.4798 41.0934C62.4716 41.2292 62.4607 41.3568 62.453 41.4926C62.6761 41.7116 62.8966 41.9223 63.1208 42.1403L67.1369 44.5347C67.3476 44.6602 67.5361 44.7749 67.7469 44.9004C67.8026 44.935 67.8615 44.9778 67.9245 45.0098C68.1933 45.1693 68.5119 45.2224 68.8178 45.1586C69.1237 45.0949 69.3946 44.9189 69.5773 44.6654C70.6133 43.2125 71.6432 41.7509 72.6725 40.3006L71.0064 39.1055C70.1153 40.3512 69.2287 41.6011 68.3465 42.8551C66.8766 42.225 65.4103 41.6026 63.9404 40.9715C63.7912 40.7375 63.6269 40.5067 63.4756 40.2732C62.9267 40.4621 62.3637 40.6074 61.7919 40.7076C61.7756 40.7147 61.7579 40.7176 61.7402 40.7158C61.8921 40.8713 62.0377 41.018 62.1844 41.1652Z" fill="#EA9387"/>
<path d="M64.459 41.2019L67.0564 42.7451C67.2671 42.8696 67.4556 42.9853 67.6663 43.1108C67.7221 43.1454 67.781 43.1883 67.845 43.2203C68.1138 43.3795 68.4324 43.4325 68.7382 43.3687C69.044 43.305 69.315 43.1292 69.4977 42.8758C70.2525 41.8084 71.0083 40.7438 71.7651 39.6819L70.9134 39.0688C70.0223 40.3146 69.1357 41.5645 68.2535 42.8185C66.9897 42.2705 65.7228 41.7416 64.459 41.2019Z" fill="#EDA197"/>
<path d="M78.7685 46.9549H70.5234V39.436C70.5234 39.2023 70.5695 38.9709 70.6589 38.7549C70.7484 38.539 70.8795 38.3428 71.0447 38.1775C71.21 38.0123 71.4062 37.8812 71.6221 37.7917C71.8381 37.7023 72.0695 37.6562 72.3032 37.6562H76.7418C77.2794 37.6564 77.7949 37.87 78.1749 38.2502C78.555 38.6303 78.7685 39.1459 78.7685 39.6834V46.9549Z" fill="#292349"/>
<path d="M73.3972 35.0899C73.5191 35.2164 73.6798 35.2986 73.8538 35.3233C73.8678 35.6191 73.9793 35.9019 74.1711 36.1276C74.3628 36.3533 74.6239 36.5091 74.9136 36.5706C75.1674 36.6019 75.425 36.5611 75.6566 36.4527C75.8883 36.3444 76.0847 36.1729 76.2234 35.9581C76.3586 35.7413 76.4382 35.4945 76.4549 35.2396C76.4717 34.9846 76.4252 34.7295 76.3195 34.4969C76.3823 34.3397 76.4095 34.1704 76.3992 34.0014C76.3888 33.8323 76.3411 33.6677 76.2596 33.5192C75.851 32.8773 74.5903 32.9511 73.8693 33.4449C73.7058 33.5461 73.5644 33.6792 73.4537 33.8364C73.3429 33.9936 73.265 34.1715 73.2247 34.3595C73.1973 34.4864 73.1986 34.6179 73.2284 34.7442C73.2583 34.8705 73.3159 34.9886 73.3972 35.0899Z" fill="#060C21"/>
<path d="M75.9034 37.6611C75.8926 37.6848 75.8771 37.7184 75.8564 37.7571C75.7863 37.8873 75.6942 38.0043 75.5842 38.1032C75.48 38.1959 75.3566 38.2644 75.2227 38.3036L74.7197 38.3C74.6581 38.2833 74.5983 38.2608 74.541 38.2328C74.4273 38.1768 74.3253 38.0996 74.2404 38.0056C74.1779 37.9366 74.1239 37.8603 74.0797 37.7783C74.0587 37.743 74.0399 37.7065 74.0234 37.6688C74.0901 37.6502 74.1639 37.6316 74.2435 37.6172L74.2476 36.9019V37.1673C74.4528 37.2756 74.6863 37.318 74.9164 37.2887C75.1749 37.2541 75.4137 37.1319 75.593 36.9427L75.5894 37.5919C75.6999 37.6105 75.8053 37.6353 75.9034 37.6611Z" fill="#EA9387"/>
<path d="M75.5915 36.5297V36.7182V36.9036V36.9413C75.4122 37.1306 75.1734 37.2527 74.9149 37.2874C74.6848 37.3166 74.4513 37.2743 74.2461 37.166V36.9005V36.5225L75.5915 36.5297Z" fill="#EA9387"/>
<path d="M75.5915 36.7183C75.5915 36.7798 75.5915 36.8402 75.5915 36.9022V36.9399C75.4122 37.1292 75.1734 37.2513 74.9149 37.2859C74.6848 37.3152 74.4513 37.2728 74.2461 37.1645V36.8991C74.2461 36.835 74.2461 36.772 74.2461 36.7085L75.5889 36.7162L75.5915 36.7183Z" fill="#DD847A"/>
<path d="M76.0721 35.2199L76.068 35.9916C76.0668 36.2137 75.9993 36.4303 75.8743 36.6139C75.7983 36.7261 75.7028 36.8237 75.5923 36.9021C75.3966 37.0422 75.1615 37.1165 74.9209 37.1144H74.9126C74.8336 37.1142 74.7548 37.1057 74.6776 37.0891C74.5232 37.0559 74.3773 36.9914 74.2489 36.8995C74.1615 36.8376 74.0836 36.7633 74.0175 36.679C74.0031 36.6604 73.9897 36.6418 73.9762 36.6227C73.8448 36.4336 73.7753 36.2084 73.7774 35.9781L73.7815 35.1972C73.7831 35.0479 73.814 34.9003 73.8727 34.7629C73.9313 34.6255 74.0165 34.5011 74.1232 34.3967C74.23 34.2922 74.3563 34.2099 74.495 34.1543C74.6336 34.0987 74.7819 34.0711 74.9312 34.0728C75.2363 34.0739 75.5286 34.1957 75.7441 34.4116C75.8504 34.5176 75.9346 34.6438 75.9916 34.7826C76.0486 34.9215 76.0774 35.0703 76.0762 35.2204L76.0721 35.2199Z" fill="#EA9387"/>
<path d="M74.2132 35.4201C74.2132 35.4397 74.2074 35.4588 74.1965 35.4751C74.1856 35.4913 74.1701 35.504 74.152 35.5114C74.1339 35.5189 74.1139 35.5208 74.0948 35.5169C74.0756 35.513 74.058 35.5035 74.0442 35.4895C74.0304 35.4756 74.0211 35.4579 74.0174 35.4387C74.0137 35.4195 74.0158 35.3996 74.0234 35.3816C74.0311 35.3635 74.0439 35.3482 74.0603 35.3374C74.0767 35.3267 74.0959 35.3211 74.1154 35.3213C74.1284 35.3213 74.1412 35.3239 74.1531 35.3288C74.165 35.3338 74.1758 35.3411 74.1849 35.3503C74.194 35.3595 74.2012 35.3704 74.2061 35.3824C74.2109 35.3943 74.2133 35.4071 74.2132 35.4201Z" fill="#280C1A"/>
<path d="M75.0706 35.4279C75.0706 35.4475 75.0648 35.4666 75.0539 35.4829C75.043 35.4991 75.0275 35.5118 75.0094 35.5192C74.9913 35.5267 74.9714 35.5286 74.9522 35.5247C74.933 35.5208 74.9154 35.5113 74.9016 35.4974C74.8878 35.4834 74.8785 35.4657 74.8748 35.4465C74.8711 35.4273 74.8732 35.4074 74.8809 35.3894C74.8885 35.3713 74.9013 35.356 74.9177 35.3452C74.9341 35.3345 74.9533 35.3289 74.9729 35.3291C74.9858 35.329 74.9986 35.3315 75.0106 35.3365C75.0226 35.3415 75.0334 35.3487 75.0425 35.3579C75.0516 35.3671 75.0588 35.3781 75.0636 35.3901C75.0684 35.4021 75.0708 35.4149 75.0706 35.4279Z" fill="#280C1A"/>
<path d="M75.222 38.3044L75.1775 38.3153C75.0258 38.3488 74.8681 38.3438 74.7188 38.3008L75.222 38.3044Z" fill="#EA9387"/>
<path d="M76.0722 35.2202L76.068 35.9919C76.0669 36.214 75.9994 36.4307 75.8744 36.6142C75.7984 36.7264 75.7028 36.824 75.5924 36.9024C75.5556 36.9286 75.5173 36.9526 75.4777 36.9742C75.5859 36.7993 75.6437 36.5978 75.6445 36.3921L75.6487 35.6205C75.6497 35.4706 75.6208 35.3219 75.5638 35.1832C75.5068 35.0446 75.4227 34.9186 75.3166 34.8127C75.101 34.5968 74.8087 34.475 74.5036 34.4739C74.3086 34.4722 74.1164 34.5203 73.9453 34.6139C74.0606 34.4281 74.2263 34.279 74.4231 34.1839C74.62 34.0889 74.8398 34.0518 75.057 34.077C75.2741 34.1023 75.4796 34.1888 75.6494 34.3265C75.8192 34.4642 75.9463 34.6473 76.0159 34.8546C76.0546 34.9725 76.0736 35.0961 76.0722 35.2202Z" fill="#EDA197"/>
<path d="M73.918 35.1864C73.9912 35.1244 74.0812 35.0859 74.1766 35.0757C74.2113 35.0791 74.2451 35.0893 74.2759 35.1058C74.3067 35.1223 74.3339 35.1448 74.356 35.1719L73.918 35.1864Z" fill="#280C1A"/>
<path d="M74.7188 35.1864C74.7919 35.1244 74.882 35.0859 74.9773 35.0757C75.0122 35.0789 75.046 35.0891 75.0768 35.1056C75.1076 35.1221 75.1348 35.1447 75.1568 35.1719L74.7188 35.1864Z" fill="#280C1A"/>
<path opacity="0.53" d="M74.5885 36.5612C74.5116 36.5734 74.4328 36.5597 74.3645 36.5223C74.2962 36.4849 74.2422 36.426 74.2109 36.3547C74.3224 36.3111 74.4414 36.2898 74.5611 36.2922C74.6709 36.2937 74.7795 36.3149 74.8818 36.3547C74.8596 36.4147 74.8196 36.4666 74.7672 36.5035C74.7149 36.5404 74.6525 36.5605 74.5885 36.5612Z" fill="white"/>
<path opacity="0.33" d="M74.5591 35.7461H74.5053C74.4819 35.7461 74.4629 35.7651 74.4629 35.7885V36.0068C74.4629 36.0302 74.4819 36.0492 74.5053 36.0492H74.5591C74.5825 36.0492 74.6015 36.0302 74.6015 36.0068V35.7885C74.6015 35.7651 74.5825 35.7461 74.5591 35.7461Z" fill="white"/>
<path d="M76.069 35.6468C76.1718 35.6468 76.2552 35.5634 76.2552 35.4606C76.2552 35.3578 76.1718 35.2744 76.069 35.2744C75.9662 35.2744 75.8828 35.3578 75.8828 35.4606C75.8828 35.5634 75.9662 35.6468 76.069 35.6468Z" fill="#EDA197"/>
<path d="M73.7682 35.5975C73.871 35.5975 73.9544 35.5141 73.9544 35.4113C73.9544 35.3085 73.871 35.2251 73.7682 35.2251C73.6654 35.2251 73.582 35.3085 73.582 35.4113C73.582 35.5141 73.6654 35.5975 73.7682 35.5975Z" fill="#EA9387"/>
<path d="M73.9426 34.6159C74.1191 34.411 74.3568 34.2681 74.6207 34.2084C74.7328 34.1847 75.131 34.1005 75.303 34.2983C75.4166 34.429 75.3686 34.6144 75.4941 34.6629C75.5824 34.6981 75.6449 34.6268 75.7332 34.6387C75.8417 34.6536 75.9672 34.7936 76.0699 35.2765C76.1344 35.221 76.1837 35.1499 76.213 35.0699C76.2646 34.9274 76.2187 34.8117 76.1144 34.4972C76.0712 34.31 76.0072 34.1283 75.9238 33.9554C75.7838 33.7777 75.5895 33.6507 75.3706 33.5938C75.2441 33.5601 75.1131 33.5459 74.9822 33.5515C74.4926 33.5515 74.1466 33.5515 73.9648 33.7746C73.7298 34.0685 73.9167 34.5519 73.9426 34.6159Z" fill="#060C21"/>
<path d="M71.3909 37.9204L70.7489 38.6027L68.8379 41.7387L71.1187 42.9845L73.6634 39.7265L71.3909 37.9204Z" fill="#292349"/>
<path d="M72.7661 45.653C72.4359 45.4929 72.106 45.3331 71.7765 45.1737L69.8516 46.5826L70.0762 46.9483L72.9205 47.0516L77.6034 46.9659C77.8394 46.9695 78.0708 46.9659 78.3141 46.9659C78.3809 46.9681 78.4478 46.9669 78.5145 46.9623C78.8283 46.96 79.1296 46.8387 79.3576 46.6229C79.5856 46.4072 79.7232 46.1129 79.7426 45.7997C79.8537 44.0188 79.9652 42.236 80.0882 40.4603L78.0336 40.3198C77.936 41.8486 77.8425 43.3831 77.7439 44.9118L72.7661 45.653Z" fill="#EA9387"/>
<path d="M72.8963 45.6367C72.8519 45.646 72.8095 45.6434 72.7656 45.6537L76.9558 45.5737C77.1919 45.5778 77.4232 45.5737 77.666 45.5737C77.7331 45.5771 77.8003 45.5771 77.8674 45.5737C78.1813 45.5714 78.4826 45.4501 78.7106 45.2344C78.9385 45.0186 79.0761 44.7244 79.0956 44.4111C79.1808 43.0744 79.2609 41.7311 79.3574 40.3965L78.0285 40.3066C77.9299 41.8354 77.8364 43.3699 77.7378 44.8986C76.125 45.1397 74.512 45.3828 72.8989 45.6279C72.8993 45.6295 72.8993 45.6311 72.8988 45.6327C72.8984 45.6342 72.8975 45.6356 72.8963 45.6367Z" fill="#EDA197"/>
<path d="M80.2168 42.0103H76.3391V37.6517H78.4515C78.9197 37.6517 79.3687 37.8377 79.6997 38.1687C80.0308 38.4998 80.2168 38.9488 80.2168 39.417V42.0103Z" fill="#292349"/>
</svg>
