<svg width="56" height="43" viewBox="0 0 56 43" fill="none" xmlns="http://www.w3.org/2000/svg">
<path d="M34.3398 9.27344H46.7604C48.9564 9.27344 51.0625 10.1458 52.6155 11.6987C54.1685 13.2516 55.0408 15.3577 55.0408 17.5538V34.1146H48.8305" stroke="#4AC7FA" stroke-width="0.950209" stroke-linecap="round" stroke-linejoin="round"/>
<path d="M5.35894 34.1147H1.21875V5.13336C1.21875 4.0353 1.65495 2.98224 2.43138 2.20579C3.20782 1.42938 4.26088 0.993164 5.35894 0.993164H30.2001C31.2982 0.993164 32.3512 1.42938 33.1277 2.20579C33.9041 2.98224 34.3403 4.0353 34.3403 5.13336V34.1147" stroke="#4AC7FA" stroke-width="0.950209" stroke-linecap="round" stroke-linejoin="round"/>
<path d="M32.2685 34.1152H21.918" stroke="#4AC7FA" stroke-width="0.950209" stroke-linecap="round" stroke-linejoin="round"/>
<path d="M41.5852 42.395C37.5837 42.395 34.3398 39.1511 34.3398 35.1496C34.3398 31.1481 37.5837 27.9043 41.5852 27.9043C45.5867 27.9043 48.8305 31.1481 48.8305 35.1496C48.8305 39.1511 45.5867 42.395 41.5852 42.395Z" stroke="#4AC7FA" stroke-width="0.950209" stroke-linecap="round" stroke-linejoin="round"/>
<path d="M13.6399 42.395C9.63837 42.395 6.39453 39.1511 6.39453 35.1496C6.39453 31.1481 9.63837 27.9043 13.6399 27.9043C17.6414 27.9043 20.8852 31.1481 20.8852 35.1496C20.8852 39.1511 17.6414 42.395 13.6399 42.395Z" stroke="#4AC7FA" stroke-width="0.950209" stroke-linecap="round" stroke-linejoin="round"/>
</svg>
